<?xml version="1.0" encoding="utf-8"?>
<!-- Generator: Adobe Illustrator 22.1.0, SVG Export Plug-In . SVG Version: 6.00 Build 0)  -->
<svg version="1.1" id="图层_1" xmlns="http://www.w3.org/2000/svg" xmlns:xlink="http://www.w3.org/1999/xlink" x="0px" y="0px"
	 viewBox="0 0 6534.5 1785.3" style="enable-background:new 0 0 6534.5 1785.3;" xml:space="preserve">
<style type="text/css">
	.st0{fill:url(#SVGID_1_);}
	.st1{opacity:5.000000e-02;fill:url(#SVGID_2_);enable-background:new    ;}
	.st2{fill:#FFFFFF;}
	.st3{fill:#8F8F8F;}
</style>
<title>logo文字</title>
<g id="图层_2_1_">
	
		<linearGradient id="SVGID_1_" gradientUnits="userSpaceOnUse" x1="893.38" y1="1403.7656" x2="893.38" y2="383.4999" gradientTransform="matrix(1 0 0 -1 0 1786)">
		<stop  offset="0" style="stop-color:#00C1FF"/>
		<stop  offset="1" style="stop-color:#0097FF"/>
	</linearGradient>
	<path class="st0" d="M1290.6,592.8L954.3,398.5c-37.7-21.7-84.1-21.7-121.7,0L496.1,592.8c-37.7,21.7-60.9,61.9-60.9,105.4v388.4
		c0,43.5,23.2,83.7,60.9,105.4l336.4,194.2c37.7,21.7,84.1,21.7,121.7,0l336.4-194.2c37.7-21.7,60.9-61.9,60.9-105.4V698.2
		C1351.5,654.7,1328.3,614.5,1290.6,592.8z"/>
	
		<linearGradient id="SVGID_2_" gradientUnits="userSpaceOnUse" x1="788.8735" y1="997.9342" x2="1244.6506" y2="542.1671" gradientTransform="matrix(1 0 0 -1 0 1786)">
		<stop  offset="0" style="stop-color:#1B2D5E"/>
		<stop  offset="1" style="stop-color:#004297"/>
	</linearGradient>
	<path class="st1" d="M1351.5,1086.6V952.4l-213.6-213.6L874.8,729l-119.9,93l-109.1,221.3l330.3,330.3l314.5-181.6
		c2.8-1.6,8.2-5.3,8.3-5.3c6.2-4.5,12.2-9.4,17.7-14.8c5-4.9,9.4-10.3,13.3-16.1C1343.9,1135.4,1351.5,1111.3,1351.5,1086.6z"/>
	<path class="st2" d="M993.6,978.3c-0.3,0.2-0.5,0.4-0.8,0.5l-74.3,42.9c-15.6,9-34.8,9-50.4,0l-74.3-42.9
		c-15.6-9-25.2-25.6-25.2-43.6v-85.8c0-18,9.6-34.6,25.2-43.6l74.3-42.9c15.6-9,34.8-9,50.4,0l58.4,33.7l41.4,22l124.8-72.2
		c-5.6-9.2-13.3-16.8-22.6-22.2L925.4,611.7c-19.8-11.4-44.2-11.4-64,0L666.3,724.3c-19.8,11.4-32,32.6-32,55.5V1005
		c0,22.9,12.2,44,32,55.4l195.1,112.6c19.8,11.4,44.2,11.4,64,0l195.1-112.6c19.8-11.4,32-32.6,32-55.4V886.5L993.6,978.3z"/>
</g>
<path class="st3" d="M1807.9,720.2c25.9,24.7,40.2,53.5,43.1,85.1h-49.4c-5.7-24.1-16.7-43.1-32.8-56.9
	c-16.7-14.4-39.7-21.3-69.6-21.3c-36.2,0-65,13.2-87.9,39.1c-21.8,25.9-33.3,66.1-33.3,119.6c0,43.7,10.3,79.9,30.5,106.3
	c20.1,27.6,50,41.4,89.7,41.4c36.2,0,64.4-14.4,83.9-43.1c10.3-14.9,17.8-35.1,22.4-59.8h49.4c-4,39.1-18.4,73-43.1,98.9
	c-29.3,32.2-69.6,48.3-119,48.3c-43.1,0-78.7-13.2-108.6-39.7c-38.5-35.1-57.5-88.5-57.5-161.5c0-55.2,14.4-100,43.1-135.7
	c31-38.5,74.2-57.5,129.3-57.5C1745.9,682.8,1782.7,695.5,1807.9,720.2z"/>
<path class="st3" d="M2098.8,821.9c24.1,23.6,36.2,57.5,36.2,103.5c0,43.7-10.3,80.5-31.6,109.2s-54,43.1-98.9,43.1
	c-36.8,0-66.7-12.1-88.5-37.9c-21.8-25.3-32.8-59.8-32.8-102.3c0-46,11.5-82.2,34.5-109.2c23.6-27.6,54-40.2,93.1-40.2
	C2045.3,786.9,2075.2,798.4,2098.8,821.9z M2070.1,1003c10.9-22.4,16.7-48.9,16.7-77c0-25.3-4-46-12.1-61.5
	c-13.2-25.3-35.1-37.9-66.1-37.9c-27.6,0-48.3,10.9-60.4,32.2c-12.1,21.3-19,47.1-19,77.6c0,28.7,6.3,52.9,19,73
	c13.2,20.1,32.2,28.7,59.8,28.7C2038.4,1037.5,2059.1,1026.6,2070.1,1003z"/>
<path class="st3" d="M2172.4,794.3h43.1v38.5c13.2-15.5,27-27.6,41.4-34.5s30.5-10.3,48.3-10.3c38.5,0,65,13.8,78.2,40.2
	c7.5,14.9,10.9,35.6,10.9,63.2v175.3h-46.6V895.5c0-16.7-2.9-30.5-7.5-40.2c-8-17.2-22.4-25.3-44.8-25.3c-10.9,0-20.1,1.1-27,3.4
	c-12.1,3.4-23.6,10.9-32.8,22.4c-7.5,9.2-12.1,18.4-14.9,28.2c-2.3,9.8-3.4,23.6-3.4,41.4V1068h-46v-273h1.1V794.3z"/>
<path class="st3" d="M2470.1,711c10.9-15.5,31.6-23.6,61.5-23.6c2.9,0,6.3,0,9.2,0c2.9,0,6.9,0.6,10.3,0.6v42c-4.6,0-8-0.6-10.3-0.6
	c-2.3,0-4,0-6.3,0c-14.4,0-22.4,3.4-25.3,10.9c-2.9,7.5-4,25.3-4,55.2h46v36.2h-46v235.7h-44.8V831.7H2423v-36.2h37.9V753
	C2461.5,734,2465,720.2,2470.1,711z"/>
<path class="st3" d="M2581.1,693.2h46.6v52.3h-46.6V693.2z M2581.1,795.5h46.6v271.9h-46.6V795.5z"/>
<path class="st3" d="M2835.7,805.3c9.2,6.3,17.2,14.4,25.9,25.9v-34.5h42.5V1045c0,34.5-4.6,61.5-14.9,81.6
	c-19,36.8-55.2,55.8-106.9,55.8c-29.3,0-54-6.9-74.2-20.1c-20.1-13.2-31-33.9-33.9-61.5h46.6c2.3,12.1,6.9,21.8,13.2,28.2
	c10.3,10.3,27,14.9,48.9,14.9c35.1,0,57.5-12.1,68.4-36.8c6.3-14.4,9.8-40.2,9.2-78.2c-9.2,13.8-20.1,24.1-32.8,31
	c-13.2,6.9-30.5,10.3-50.6,10.3c-29.3,0-55.2-10.3-77.6-31.6c-21.8-21.3-32.8-55.8-32.8-104.6c0-46,10.9-81.6,33.9-106.9
	c21.8-25.3,49.4-38.5,80.5-38.5C2801.2,789.7,2820.2,794.9,2835.7,805.3z M2841.5,854.7c-13.8-16.7-31.6-24.7-52.9-24.7
	c-32.2,0-54,14.9-66.1,45.4c-6.3,16.7-9.8,36.8-9.8,63.2c0,31,6.3,54,18.4,70.1c12.1,15.5,28.7,24.1,50,24.1
	c32.8,0,55.8-14.9,69.6-44.8c7.5-16.7,10.9-36.2,10.9-59.2C2862.7,896.1,2855.3,871.4,2841.5,854.7z"/>
<path class="st3" d="M2994.4,794.3v181.1c0,13.8,2.3,25.3,6.3,34.5c8,16.7,22.4,24.7,44.8,24.7c31,0,52.3-14.4,63.8-42.5
	c6.3-14.9,9.2-36.2,9.2-63.2V794.9h46v272.5h-43.1l0.6-40.2c-6.3,10.3-13.2,19-21.8,25.9c-17.2,14.4-37.9,21.3-62.7,21.3
	c-38.5,0-63.8-13.2-78.2-39.1c-7.5-13.8-10.9-32.2-10.9-55.8V794.3L2994.4,794.3L2994.4,794.3z"/>
<path class="st3" d="M3213.9,794.3h43.1v47.1c3.4-9.2,12.1-20.7,25.9-33.9c13.8-13.2,30.5-20.1,48.3-20.1c0.6,0,2.3,0,4,0
	s5.7,0.6,10.3,0.6v48.9c-2.9-0.6-5.7-0.6-7.5-0.6c-2.3,0-4.6,0-7.5,0c-23.6,0-41.4,7.5-53.5,21.8c-12.1,14.9-18.4,32.2-18.4,51.7
	v156.9h-44.8V794.3L3213.9,794.3z"/>
<path class="st3" d="M3520.3,901.8c10.3-1.1,17.8-5.7,21.3-13.2c2.3-4,2.9-10.3,2.9-17.8c0-15.5-5.7-27-16.7-34.5
	c-10.9-6.9-27-10.3-47.1-10.3c-24.1,0-41.4,6.3-50.6,19c-5.7,6.9-9.2,17.8-10.9,32.2h-42.5c0.6-33.9,11.5-56.9,32.8-70.7
	c21.3-13.2,45.4-20.1,73-20.1c32.2,0,58.6,6.3,78.2,18.4c20.1,12.1,29.3,31.6,29.3,56.9v156.9c0,4.6,0.6,8,2.9,11.5
	c2.3,2.9,6.3,4,12.1,4c2.3,0,4,0,6.9-0.6c2.9-0.6,5.7-0.6,8-1.1v33.9c-6.9,2.3-12.1,3.4-16.7,4c-3.4,0.6-9.2,0.6-14.9,0.6
	c-15.5,0-27.6-5.7-34.5-16.7c-3.4-6.3-6.3-14.4-8-25.3c-9.8,12.1-22.4,22.4-40.2,31.6c-17.2,9.2-36.8,13.8-57.5,13.8
	c-25.3,0-46-7.5-61.5-23.6c-15.5-14.9-24.1-34.5-24.1-57.5c0-25.3,8-44.8,24.1-59.2c16.1-14.4,36.2-22.4,62.7-25.3L3520.3,901.8z
	 M3423.2,1026.6c9.8,7.5,21.3,11.5,34.5,11.5c15.5,0,31.6-3.4,46.6-10.9c25.3-12.1,38.5-32.8,38.5-60.9v-36.8
	c-5.7,3.4-13.2,6.9-21.3,9.2c-9.2,2.3-17.2,4-25.9,4.6l-27.6,3.4c-16.7,2.3-28.7,5.7-37.9,10.3c-14.4,8-21.3,20.7-21.3,38.5
	C3408.8,1007.6,3414,1018.5,3423.2,1026.6z"/>
<path class="st3" d="M3660,717.9h46.6v76.5h43.1v37.9h-43.1v177.6c0,9.8,3.4,15.5,9.8,19c3.4,2.3,9.8,2.9,17.8,2.9
	c2.3,0,4.6,0,6.9,0c2.9,0,5.7-0.6,9.2-0.6v36.2c-5.7,1.1-10.9,2.9-16.7,3.4c-5.7,0.6-11.5,0.6-18.4,0.6c-21.3,0-35.6-5.7-43.1-16.7
	c-7.5-10.9-11.5-25.3-11.5-42.5V832.3h-36.8v-37.9h36.8L3660,717.9L3660,717.9z"/>
<path class="st3" d="M3782.4,693.2h46.6v52.3h-46.6V693.2z M3782.4,795.5h46.6v271.9h-46.6V795.5z"/>
<path class="st3" d="M4083.6,821.9c24.1,23.6,36.2,57.5,36.2,103.5c0,43.7-10.3,80.5-31.6,109.2s-54,43.1-98.9,43.1
	c-36.8,0-66.7-12.1-88.5-37.9c-21.8-25.3-32.8-59.8-32.8-102.3c0-46,11.5-82.2,34.5-109.2c23.6-27.6,54-40.2,93.1-40.2
	C4029.6,786.9,4059.5,798.4,4083.6,821.9z M4055.5,1003c10.9-22.4,16.7-48.9,16.7-77c0-25.3-4-46-12.1-61.5
	c-13.2-25.3-35.1-37.9-66.1-37.9c-27.6,0-48.3,10.9-60.4,32.2s-19,47.1-19,77.6c0,28.7,6.3,52.9,19,73
	c13.2,20.1,32.2,28.7,59.8,28.7C4022.7,1037.5,4044,1026.6,4055.5,1003z"/>
<path class="st3" d="M4144,794.3h43.1v38.5c13.2-15.5,27-27.6,41.4-34.5c14.4-6.9,30.5-10.3,48.3-10.3c38.5,0,65,13.8,78.2,40.2
	c7.5,14.9,10.9,35.6,10.9,63.2v175.3h-46.6V895.5c0-16.7-2.9-30.5-7.5-40.2c-8-17.2-22.4-25.3-44.8-25.3c-10.9,0-20.1,1.1-27,3.4
	c-12.1,3.4-23.6,10.9-32.8,22.4c-7.5,9.2-12.1,18.4-14.9,28.2c-2.3,9.8-3.4,23.6-3.4,41.4V1068h-46v-273h1.1L4144,794.3L4144,794.3z
	"/>
<path class="st3" d="M4527.4,946.7c1.1,21.3,6.3,38.5,14.4,51.7c16.7,24.7,44.8,36.8,85.6,36.8c18.4,0,35.1-2.9,50-8
	c28.7-10.3,43.7-29.3,43.7-56.3c0-20.7-6.3-35.1-18.4-43.1c-12.1-8-32.2-15.5-59.2-21.8l-49.4-11.5c-32.2-7.5-55.2-15.5-67.8-24.7
	c-23.6-15.5-34.5-39.1-34.5-70.1c0-33.9,10.9-60.9,33.9-83.3c22.4-21.3,55.2-32.2,96-32.2c38.5,0,70.7,9.8,97.7,28.2
	c27,19,39.7,49.4,39.7,90.8h-47.1c-2.9-20.1-7.5-35.6-15.5-46c-14.9-19-39.7-29.3-75.3-29.3c-28.7,0-49.4,6.3-61.5,18.4
	c-12.1,12.1-18.4,27.6-18.4,43.7c0,18.4,7.5,31.6,21.8,40.2c9.8,5.7,31.6,12.1,66.1,20.7l50.6,11.5c24.7,5.7,43.1,13.8,56.9,24.1
	c23.6,17.2,34.5,42.5,34.5,76.5c0,41.4-14.4,71.3-43.7,89.1c-29.3,17.8-63.8,27-102.3,27c-45.4,0-81-11.5-106.3-35.6
	c-25.3-23.6-38.5-55.8-37.9-96L4527.4,946.7L4527.4,946.7z"/>
<path class="st3" d="M4993.6,794.3h50.6c-6.3,17.2-20.7,57.5-43.1,119.6c-16.7,46.6-31,85.1-42,114.4c-27,69.6-45.4,112.1-56.3,127
	s-29.3,22.4-56.3,22.4c-6.3,0-11.5,0-14.9-0.6c-3.4-0.6-7.5-1.1-13.2-2.9v-42c8,2.3,13.8,3.4,17.2,4c3.4,0.6,6.9,0.6,9.8,0.6
	c8,0,14.4-1.1,18.4-4c4-2.9,7.5-6.3,10.3-10.3c0.6-1.1,4-8,9.2-20.7c5.7-12.1,9.2-21.8,11.5-28.2l-101.2-280.5h52.3l73.6,222.5
	L4993.6,794.3z"/>
<path class="st3" d="M5098.2,981.7c1.1,14.9,5.7,27,11.5,35.1c11.5,14.9,32.2,21.8,60.9,21.8c17.2,0,32.2-3.4,46-10.9
	c13.8-7.5,20.1-18.4,20.1-34.5c0-11.5-5.7-20.7-15.5-27c-6.9-3.4-20.1-8-39.7-13.2l-36.8-9.2c-23.6-5.7-41.4-12.1-52.3-19
	c-20.1-12.1-30.5-29.3-30.5-51.7c0-25.9,9.8-46.6,28.2-62.7c18.4-15.5,43.7-24.1,76.5-24.1c42,0,71.3,12.1,89.7,36.2
	c11.5,14.9,17.2,31.6,16.7,49.4h-43.1c-0.6-10.3-4.6-20.1-10.9-28.2c-10.9-11.5-29.3-17.8-56.3-17.8c-17.8,0-31,3.4-40.2,9.8
	c-9.2,6.9-13.8,14.9-13.8,25.9c0,11.5,6.3,21.3,17.8,28.2c6.9,4,17.2,8,31,10.9l31,7.5c33.9,8,56.3,15.5,67.3,23.6
	c17.8,11.5,27,30.5,27,55.8c0,24.1-9.8,45.4-28.2,63.2c-18.4,17.8-47.1,27-85.1,27c-41.4,0-70.1-9.2-87.4-27.6
	c-17.2-18.4-25.9-41.4-27.6-68.4h44.8l0,0L5098.2,981.7L5098.2,981.7z"/>
<path class="st3" d="M5328.1,717.9h46.6v76.5h43.1v37.9h-43.1v177.6c0,9.8,3.4,15.5,9.8,19c3.4,2.3,9.8,2.9,17.8,2.9
	c2.3,0,4.6,0,6.9,0c2.9,0,5.7-0.6,9.2-0.6v36.2c-5.7,1.1-10.9,2.9-16.7,3.4c-5.7,0.6-11.5,0.6-18.4,0.6c-21.3,0-35.6-5.7-43.1-16.7
	s-11.5-25.3-11.5-42.5V832.3h-37.4v-37.9h36.8V717.9L5328.1,717.9z"/>
<path class="st3" d="M5619.6,801.8c17.8,9.2,31.6,20.7,41.4,35.1c9.2,13.8,14.9,29.3,18.4,48.3c2.9,12.1,4,32.8,4,60.4H5485
	c0.6,27.6,7.5,50,19,66.7c12.1,16.7,31,25.3,56.3,25.3c24.1,0,42.5-8,56.9-24.1c8-9.2,13.8-20.1,17.2-32.2h45.4
	c-1.1,10.3-4.6,21.3-11.5,33.9c-6.9,12.1-14.4,22.4-22.4,30.5c-13.8,13.8-31,22.4-51.7,27.6c-10.9,2.9-23.6,4-36.8,4
	c-33.9,0-62.7-12.1-85.6-36.8c-23.6-24.7-35.1-59.2-35.1-103.5c0-43.7,11.5-79.9,35.6-106.3c23.6-27.6,54-41.4,92.5-41.4
	C5583.3,788,5601.7,793.2,5619.6,801.8z M5636.2,908.7c-2.3-20.1-6.3-35.6-13.2-47.1c-12.1-21.8-32.8-32.8-62.7-32.8
	c-20.7,0-38.5,7.5-52.9,22.4c-14.4,14.9-21.8,34.5-22.4,57.5L5636.2,908.7L5636.2,908.7z"/>
<path class="st3" d="M5728.8,794.3h45.4v38.5c10.9-13.8,20.7-23.6,29.3-29.3c14.9-10.3,32.2-15.5,51.7-15.5
	c21.8,0,39.1,5.7,52.3,15.5c7.5,6.3,14.4,14.9,20.7,27c10.3-14.4,21.8-25.3,35.6-32.2s29.3-10.3,46.6-10.3
	c36.2,0,61.5,13.2,74.7,39.7c6.9,14.4,10.9,33.9,10.9,57.5v181.6h-47.1V877.1c0-17.8-4.6-31-13.8-37.9s-20.1-10.3-32.8-10.3
	c-17.8,0-33.9,6.3-46.6,17.8c-13.2,12.1-19,32.2-19,60.4v158.6h-46.6V888c0-18.4-2.3-32.2-6.9-40.2c-6.9-13.2-20.1-19-39.1-19
	c-17.2,0-32.8,6.9-47.1,20.1c-14.4,13.8-21.3,37.9-21.3,73v144.9h-46L5728.8,794.3L5728.8,794.3z"/>
</svg>
