<?xml version="1.0" encoding="utf-8"?>
<!-- Generator: Adobe Illustrator 22.1.0, SVG Export Plug-In . SVG Version: 6.00 Build 0)  -->
<svg version="1.1" id="图层_1" xmlns="http://www.w3.org/2000/svg" xmlns:xlink="http://www.w3.org/1999/xlink" x="0px" y="0px"
	 viewBox="0 0 137 23" style="enable-background:new 0 0 137 23;" xml:space="preserve">
<style type="text/css">
	.st0{fill:#FFFFFF;}
	.st1{fill:url(#SVGID_1_);}
	.st2{display:none;fill:#8F8F8F;}
	.st3{display:none;opacity:5.000000e-02;fill:url(#SVGID_2_);enable-background:new    ;}
	.st4{display:none;fill:#FFFFFF;}
	.st5{fill:#8F8F8F;}
</style>
<g>
	<circle class="st0" cx="15.2" cy="11.5" r="8.1"/>
	
		<linearGradient id="SVGID_1_" gradientUnits="userSpaceOnUse" x1="15.1901" y1="-1419.1191" x2="15.1901" y2="-1441.8361" gradientTransform="matrix(1 0 0 1 0 1442)">
		<stop  offset="1.652257e-03" style="stop-color:#42C0FF"/>
		<stop  offset="1" style="stop-color:#3C96FF"/>
	</linearGradient>
	<path class="st1" d="M24,4.9l-7.5-4.3c-0.8-0.5-1.9-0.5-2.7,0L6.4,4.9C5.5,5.3,5,6.2,5,7.2v8.6c0,1,0.5,1.9,1.4,2.3l7.5,4.3
		c0.8,0.5,1.9,0.5,2.7,0l7.5-4.3c0.8-0.5,1.4-1.4,1.4-2.3V7.2C25.4,6.2,24.9,5.3,24,4.9z M21,14c0,0.5-0.3,1-0.7,1.2l-4.3,2.5
		c-0.4,0.3-1,0.3-1.4,0l-4.3-2.5C9.7,15,9.4,14.5,9.4,14V9c0-0.5,0.3-1,0.7-1.2l4.3-2.5c0.4-0.3,1-0.3,1.4,0l4.3,2.5
		c0.2,0.1,0.4,0.3,0.5,0.5L18,9.9L17,9.4l-1.3-0.8c-0.3-0.2-0.8-0.2-1.1,0l-1.7,1c-0.3,0.2-0.6,0.6-0.6,1v1.9c0,0.4,0.2,0.8,0.6,1
		l1.7,1c0.3,0.2,0.8,0.2,1.1,0l1.7-1c0,0,0,0,0,0l3.5-2L21,14L21,14z"/>
</g>
<path class="st2" d="M35.5,7.7c0.6,0.5,0.9,1.2,1,1.9h-1.1c-0.1-0.5-0.4-1-0.7-1.3c-0.4-0.3-0.9-0.5-1.5-0.5c-0.8,0-1.4,0.3-2,0.9
	c-0.5,0.6-0.7,1.5-0.7,2.7c0,1,0.2,1.8,0.7,2.4c0.4,0.6,1.1,0.9,2,0.9c0.8,0,1.4-0.3,1.9-1c0.2-0.3,0.4-0.8,0.5-1.3h1.1
	c-0.1,0.9-0.4,1.6-1,2.2c-0.7,0.7-1.5,1.1-2.6,1.1c-1,0-1.7-0.3-2.4-0.9c-0.9-0.8-1.3-2-1.3-3.6c0-1.2,0.3-2.2,1-3
	c0.7-0.9,1.6-1.3,2.9-1.3C34.1,6.9,34.9,7.1,35.5,7.7z"/>
<path class="st2" d="M42,10c0.5,0.5,0.8,1.3,0.8,2.3c0,1-0.2,1.8-0.7,2.4c-0.5,0.6-1.2,1-2.2,1c-0.8,0-1.5-0.3-2-0.8
	c-0.5-0.6-0.7-1.3-0.7-2.3c0-1,0.3-1.8,0.8-2.4c0.5-0.6,1.2-0.9,2.1-0.9C40.8,9.2,41.4,9.4,42,10z M41.3,14c0.2-0.5,0.4-1.1,0.4-1.7
	c0-0.6-0.1-1-0.3-1.4c-0.3-0.6-0.8-0.8-1.5-0.8c-0.6,0-1.1,0.2-1.3,0.7c-0.3,0.5-0.4,1-0.4,1.7c0,0.6,0.1,1.2,0.4,1.6
	c0.3,0.4,0.7,0.6,1.3,0.6C40.6,14.7,41.1,14.5,41.3,14z"/>
<path class="st2" d="M43.6,9.3h1v0.9c0.3-0.3,0.6-0.6,0.9-0.8c0.3-0.2,0.7-0.2,1.1-0.2c0.9,0,1.4,0.3,1.7,0.9
	c0.2,0.3,0.2,0.8,0.2,1.4v3.9h-1v-3.8c0-0.4-0.1-0.7-0.2-0.9c-0.2-0.4-0.5-0.6-1-0.6c-0.2,0-0.4,0-0.6,0.1c-0.3,0.1-0.5,0.2-0.7,0.5
	c-0.2,0.2-0.3,0.4-0.3,0.6c-0.1,0.2-0.1,0.5-0.1,0.9v3.2h-1L43.6,9.3L43.6,9.3L43.6,9.3z"/>
<path class="st2" d="M50.2,7.5C50.4,7.1,50.9,7,51.6,7c0.1,0,0.1,0,0.2,0s0.2,0,0.2,0v0.9c-0.1,0-0.2,0-0.2,0c-0.1,0-0.1,0-0.1,0
	c-0.3,0-0.5,0.1-0.6,0.2C51,8.3,51,8.7,51,9.4h1v0.8h-1v5.2h-1v-5.2h-0.8V9.4H50V8.4C50,8,50.1,7.7,50.2,7.5z"/>
<path class="st2" d="M52.7,7.1h1v1.2h-1V7.1z M52.7,9.4h1v6h-1V9.4z"/>
<path class="st2" d="M58.3,9.6c0.2,0.1,0.4,0.3,0.6,0.6V9.4h0.9v5.5c0,0.8-0.1,1.4-0.3,1.8c-0.4,0.8-1.2,1.2-2.4,1.2
	c-0.7,0-1.2-0.2-1.6-0.4c-0.4-0.3-0.7-0.8-0.8-1.4h1c0.1,0.3,0.2,0.5,0.3,0.6c0.2,0.2,0.6,0.3,1.1,0.3c0.8,0,1.3-0.3,1.5-0.8
	c0.1-0.3,0.2-0.9,0.2-1.7c-0.2,0.3-0.4,0.5-0.7,0.7c-0.3,0.2-0.7,0.2-1.1,0.2c-0.7,0-1.2-0.2-1.7-0.7c-0.5-0.5-0.7-1.2-0.7-2.3
	c0-1,0.2-1.8,0.8-2.4c0.5-0.6,1.1-0.9,1.8-0.9C57.6,9.2,58,9.4,58.3,9.6z M58.5,10.7c-0.3-0.4-0.7-0.5-1.2-0.5c-0.7,0-1.2,0.3-1.5,1
	c-0.1,0.4-0.2,0.8-0.2,1.4c0,0.7,0.1,1.2,0.4,1.6c0.3,0.3,0.6,0.5,1.1,0.5c0.7,0,1.2-0.3,1.5-1c0.2-0.4,0.2-0.8,0.2-1.3
	C58.9,11.6,58.8,11,58.5,10.7z"/>
<path class="st2" d="M61.8,9.3v4c0,0.3,0.1,0.6,0.1,0.8c0.2,0.4,0.5,0.5,1,0.5c0.7,0,1.2-0.3,1.4-0.9c0.1-0.3,0.2-0.8,0.2-1.4v-3h1
	v6.1h-1l0-0.9c-0.1,0.2-0.3,0.4-0.5,0.6c-0.4,0.3-0.8,0.5-1.4,0.5c-0.9,0-1.4-0.3-1.7-0.9c-0.2-0.3-0.2-0.7-0.2-1.2V9.3L61.8,9.3
	L61.8,9.3z"/>
<path class="st2" d="M66.7,9.3h1v1c0.1-0.2,0.3-0.5,0.6-0.8c0.3-0.3,0.7-0.4,1.1-0.4c0,0,0.1,0,0.1,0s0.1,0,0.2,0v1.1
	c-0.1,0-0.1,0-0.2,0c-0.1,0-0.1,0-0.2,0c-0.5,0-0.9,0.2-1.2,0.5c-0.3,0.3-0.4,0.7-0.4,1.1v3.5h-1V9.3L66.7,9.3z"/>
<path class="st2" d="M73.5,11.7c0.2,0,0.4-0.1,0.5-0.3c0.1-0.1,0.1-0.2,0.1-0.4c0-0.3-0.1-0.6-0.4-0.8c-0.2-0.2-0.6-0.2-1-0.2
	c-0.5,0-0.9,0.1-1.1,0.4c-0.1,0.2-0.2,0.4-0.2,0.7h-0.9c0-0.8,0.3-1.3,0.7-1.6c0.5-0.3,1-0.4,1.6-0.4c0.7,0,1.3,0.1,1.7,0.4
	c0.4,0.3,0.7,0.7,0.7,1.3v3.5c0,0.1,0,0.2,0.1,0.3c0.1,0.1,0.1,0.1,0.3,0.1c0.1,0,0.1,0,0.2,0s0.1,0,0.2,0v0.8
	c-0.2,0.1-0.3,0.1-0.4,0.1c-0.1,0-0.2,0-0.3,0c-0.3,0-0.6-0.1-0.8-0.4c-0.1-0.1-0.1-0.3-0.2-0.6c-0.2,0.3-0.5,0.5-0.9,0.7
	c-0.4,0.2-0.8,0.3-1.3,0.3c-0.6,0-1-0.2-1.4-0.5c-0.3-0.3-0.5-0.8-0.5-1.3c0-0.6,0.2-1,0.5-1.3c0.4-0.3,0.8-0.5,1.4-0.6L73.5,11.7z
	 M71.4,14.5c0.2,0.2,0.5,0.3,0.8,0.3c0.3,0,0.7-0.1,1-0.2c0.6-0.3,0.9-0.7,0.9-1.4v-0.8c-0.1,0.1-0.3,0.2-0.5,0.2
	c-0.2,0.1-0.4,0.1-0.6,0.1l-0.6,0.1c-0.4,0.1-0.6,0.1-0.8,0.2c-0.3,0.2-0.5,0.5-0.5,0.9C71.1,14.1,71.2,14.3,71.4,14.5z"/>
<path class="st2" d="M76.6,7.6h1v1.7h1v0.8h-1v3.9c0,0.2,0.1,0.3,0.2,0.4c0.1,0.1,0.2,0.1,0.4,0.1c0.1,0,0.1,0,0.2,0
	c0.1,0,0.1,0,0.2,0v0.8c-0.1,0-0.2,0.1-0.4,0.1c-0.1,0-0.3,0-0.4,0c-0.5,0-0.8-0.1-1-0.4c-0.2-0.2-0.3-0.6-0.3-0.9v-4h-0.8V9.3h0.8
	L76.6,7.6L76.6,7.6z"/>
<path class="st2" d="M79.4,7.1h1v1.2h-1V7.1z M79.4,9.4h1v6h-1V9.4z"/>
<path class="st2" d="M86,10c0.5,0.5,0.8,1.3,0.8,2.3c0,1-0.2,1.8-0.7,2.4s-1.2,1-2.2,1c-0.8,0-1.5-0.3-2-0.8
	c-0.5-0.6-0.7-1.3-0.7-2.3c0-1,0.3-1.8,0.8-2.4c0.5-0.6,1.2-0.9,2.1-0.9C84.8,9.2,85.5,9.4,86,10z M85.4,14c0.2-0.5,0.4-1.1,0.4-1.7
	c0-0.6-0.1-1-0.3-1.4c-0.3-0.6-0.8-0.8-1.5-0.8c-0.6,0-1.1,0.2-1.3,0.7s-0.4,1-0.4,1.7c0,0.6,0.1,1.2,0.4,1.6
	c0.3,0.4,0.7,0.6,1.3,0.6C84.7,14.7,85.2,14.5,85.4,14z"/>
<path class="st2" d="M87.4,9.3h1v0.9c0.3-0.3,0.6-0.6,0.9-0.8c0.3-0.2,0.7-0.2,1.1-0.2c0.9,0,1.4,0.3,1.7,0.9
	c0.2,0.3,0.2,0.8,0.2,1.4v3.9h-1v-3.8c0-0.4-0.1-0.7-0.2-0.9c-0.2-0.4-0.5-0.6-1-0.6c-0.2,0-0.4,0-0.6,0.1c-0.3,0.1-0.5,0.2-0.7,0.5
	c-0.2,0.2-0.3,0.4-0.3,0.6c-0.1,0.2-0.1,0.5-0.1,0.9v3.2h-1L87.4,9.3L87.4,9.3L87.4,9.3L87.4,9.3z"/>
<path class="st2" d="M95.9,12.7c0,0.5,0.1,0.9,0.3,1.1c0.4,0.5,1,0.8,1.9,0.8c0.4,0,0.8-0.1,1.1-0.2c0.6-0.2,1-0.7,1-1.3
	c0-0.5-0.1-0.8-0.4-1c-0.3-0.2-0.7-0.3-1.3-0.5l-1.1-0.3c-0.7-0.2-1.2-0.3-1.5-0.5c-0.5-0.3-0.8-0.9-0.8-1.6c0-0.8,0.2-1.4,0.8-1.9
	c0.5-0.5,1.2-0.7,2.1-0.7c0.9,0,1.6,0.2,2.2,0.6c0.6,0.4,0.9,1.1,0.9,2h-1c-0.1-0.4-0.2-0.8-0.3-1c-0.3-0.4-0.9-0.7-1.7-0.7
	c-0.6,0-1.1,0.1-1.4,0.4c-0.3,0.3-0.4,0.6-0.4,1c0,0.4,0.2,0.7,0.5,0.9c0.2,0.1,0.7,0.3,1.5,0.5l1.1,0.3c0.5,0.1,1,0.3,1.3,0.5
	c0.5,0.4,0.8,0.9,0.8,1.7c0,0.9-0.3,1.6-1,2c-0.7,0.4-1.4,0.6-2.3,0.6c-1,0-1.8-0.3-2.4-0.8c-0.6-0.5-0.9-1.2-0.8-2.1L95.9,12.7
	L95.9,12.7z"/>
<path class="st2" d="M106.3,9.3h1.1c-0.1,0.4-0.5,1.3-1,2.7c-0.4,1-0.7,1.9-0.9,2.5c-0.6,1.5-1,2.5-1.3,2.8
	c-0.2,0.3-0.7,0.5-1.3,0.5c-0.1,0-0.3,0-0.3,0c-0.1,0-0.2,0-0.3-0.1v-0.9c0.2,0.1,0.3,0.1,0.4,0.1c0.1,0,0.2,0,0.2,0
	c0.2,0,0.3,0,0.4-0.1c0.1-0.1,0.2-0.1,0.2-0.2c0,0,0.1-0.2,0.2-0.5c0.1-0.3,0.2-0.5,0.3-0.6l-2.2-6.2h1.2l1.6,4.9L106.3,9.3z"/>
<path class="st2" d="M108.6,13.5c0,0.3,0.1,0.6,0.3,0.8c0.3,0.3,0.7,0.5,1.4,0.5c0.4,0,0.7-0.1,1-0.2s0.4-0.4,0.4-0.8
	c0-0.3-0.1-0.5-0.3-0.6c-0.2-0.1-0.4-0.2-0.9-0.3l-0.8-0.2c-0.5-0.1-0.9-0.3-1.2-0.4c-0.4-0.3-0.7-0.7-0.7-1.1c0-0.6,0.2-1,0.6-1.4
	c0.4-0.3,1-0.5,1.7-0.5c0.9,0,1.6,0.3,2,0.8c0.3,0.3,0.4,0.7,0.4,1.1h-1c0-0.2-0.1-0.4-0.2-0.6c-0.2-0.3-0.7-0.4-1.3-0.4
	c-0.4,0-0.7,0.1-0.9,0.2c-0.2,0.2-0.3,0.3-0.3,0.6c0,0.3,0.1,0.5,0.4,0.6c0.2,0.1,0.4,0.2,0.7,0.2l0.7,0.2c0.8,0.2,1.3,0.3,1.5,0.5
	c0.4,0.3,0.6,0.7,0.6,1.2c0,0.5-0.2,1-0.6,1.4c-0.4,0.4-1,0.6-1.9,0.6c-0.9,0-1.6-0.2-1.9-0.6s-0.6-0.9-0.6-1.5L108.6,13.5
	L108.6,13.5L108.6,13.5L108.6,13.5z"/>
<path class="st2" d="M113.7,7.6h1v1.7h1v0.8h-1v3.9c0,0.2,0.1,0.3,0.2,0.4c0.1,0.1,0.2,0.1,0.4,0.1c0.1,0,0.1,0,0.2,0
	c0.1,0,0.1,0,0.2,0v0.8c-0.1,0-0.2,0.1-0.4,0.1c-0.1,0-0.3,0-0.4,0c-0.5,0-0.8-0.1-1-0.4c-0.2-0.2-0.3-0.6-0.3-0.9v-4h-0.8V9.3h0.8
	V7.6L113.7,7.6z"/>
<path class="st2" d="M120.2,9.5c0.4,0.2,0.7,0.5,0.9,0.8c0.2,0.3,0.3,0.7,0.4,1.1c0.1,0.3,0.1,0.7,0.1,1.3h-4.4
	c0,0.6,0.2,1.1,0.4,1.5c0.3,0.4,0.7,0.6,1.3,0.6c0.5,0,0.9-0.2,1.3-0.5c0.2-0.2,0.3-0.4,0.4-0.7h1c0,0.2-0.1,0.5-0.3,0.8
	c-0.2,0.3-0.3,0.5-0.5,0.7c-0.3,0.3-0.7,0.5-1.1,0.6c-0.2,0.1-0.5,0.1-0.8,0.1c-0.8,0-1.4-0.3-1.9-0.8c-0.5-0.5-0.8-1.3-0.8-2.3
	c0-1,0.3-1.8,0.8-2.4c0.5-0.6,1.2-0.9,2.1-0.9C119.4,9.2,119.8,9.3,120.2,9.5z M120.5,11.9c-0.1-0.4-0.1-0.8-0.3-1
	c-0.3-0.5-0.7-0.7-1.4-0.7c-0.5,0-0.9,0.2-1.2,0.5s-0.5,0.8-0.5,1.3L120.5,11.9L120.5,11.9z"/>
<path class="st2" d="M122.6,9.3h1v0.9c0.2-0.3,0.5-0.5,0.7-0.7c0.3-0.2,0.7-0.3,1.1-0.3c0.5,0,0.9,0.1,1.2,0.3
	c0.2,0.1,0.3,0.3,0.5,0.6c0.2-0.3,0.5-0.6,0.8-0.7c0.3-0.2,0.7-0.2,1-0.2c0.8,0,1.4,0.3,1.7,0.9c0.2,0.3,0.2,0.8,0.2,1.3v4h-1v-4.2
	c0-0.4-0.1-0.7-0.3-0.8c-0.2-0.2-0.4-0.2-0.7-0.2c-0.4,0-0.8,0.1-1,0.4c-0.3,0.3-0.4,0.7-0.4,1.3v3.5h-1v-3.9c0-0.4-0.1-0.7-0.2-0.9
	c-0.2-0.3-0.4-0.4-0.9-0.4c-0.4,0-0.7,0.2-1,0.4c-0.3,0.3-0.5,0.8-0.5,1.6v3.2h-1L122.6,9.3L122.6,9.3z"/>
<linearGradient id="SVGID_2_" gradientUnits="userSpaceOnUse" x1="12.8075" y1="14.813" x2="22.9988" y2="4.6219" gradientTransform="matrix(1 0 0 -1 0 24)">
	<stop  offset="0" style="stop-color:#1B2D5E"/>
	<stop  offset="1" style="stop-color:#004297"/>
</linearGradient>
<path class="st3" d="M25.4,15.9v-3l-4.8-4.8l-5.9-0.2L12,9.9l-2.4,4.9l7.4,7.4l7-4.1c0.1,0,0.2-0.1,0.2-0.1c0.1-0.1,0.3-0.2,0.4-0.3
	c0.1-0.1,0.2-0.2,0.3-0.4C25.2,17,25.4,16.4,25.4,15.9z"/>
<path class="st4" d="M17.4,13.4C17.4,13.4,17.4,13.4,17.4,13.4l-1.7,1c-0.3,0.2-0.8,0.2-1.1,0l-1.7-1c-0.3-0.2-0.6-0.6-0.6-1v-1.9
	c0-0.4,0.2-0.8,0.6-1l1.7-1c0.3-0.2,0.8-0.2,1.1,0L17,9.4l0.9,0.5l2.8-1.6c-0.1-0.2-0.3-0.4-0.5-0.5l-4.4-2.5c-0.4-0.3-1-0.3-1.4,0
	l-4.4,2.5C9.6,8,9.4,8.5,9.4,9v5c0,0.5,0.3,1,0.7,1.2l4.4,2.5c0.4,0.3,1,0.3,1.4,0l4.4-2.5c0.4-0.3,0.7-0.7,0.7-1.2v-2.7L17.4,13.4z
	"/>
<g>
	<path class="st5" d="M32,6.3V4.8h4.4V3.6h1.7v1.2H42V3.6h1.7v1.2H48v1.5h-4.2v0.9H42V6.3h-3.9v0.8h-1.7V6.3H32z M32,19v-1.4h1.7v-4
		h12.6v4H48V19L32,19z M33.3,12.7V8H35v4.7L33.3,12.7z M35.5,14.9v2.7h2v-2.7H35.5z M36.7,12.8V7.5h1.7v5.3L36.7,12.8z M40.2,12.8
		c-0.2-0.1-0.5-0.4-0.9-0.7c-0.2-0.1-0.4-0.2-0.5-0.3c1.1-1.3,1.9-2.7,2.4-4.4l1.7,0.3l-0.4,0.9h5.2v1.5h-5.8
		C41.4,11,40.8,11.9,40.2,12.8L40.2,12.8z M39.1,14.9v2.7H41v-2.7H39.1z M45,13.3c-1-0.8-1.9-1.5-2.7-2l1-1.1
		c1.2,0.8,2.1,1.4,2.8,1.9L45,13.3z M44.5,14.9h-1.9v2.7h1.9V14.9z"/>
	<path class="st5" d="M49.5,9.3c-0.2-0.6-0.4-1.1-0.7-1.5c0.9-1.2,1.7-2.6,2.4-4.2l1.5,0.2c0,0.1-0.1,0.3-0.2,0.5
		c0,0.1-0.2,0.3-0.3,0.7h2.7v1.3l-1,1.8h1.6v7.7h-5.8V9.2L49.5,9.3z M56.5,18.6c-0.4-0.3-0.7-0.6-1.1-0.9v0.5
		c-2.3,0.2-4.3,0.4-6.2,0.6L49,17.4c1-0.1,2.7-0.2,5.1-0.4c0.6,0,1-0.1,1.3-0.1v0.7c0.8-1,1.5-2.1,2.1-3.2l1.3,0.7
		C58.2,16.1,57.4,17.2,56.5,18.6z M53.3,6.4h-1.9c-0.3,0.6-0.7,1.2-1.1,1.7h2L53.3,6.4z M50.9,9.5v1.9H52V9.5H50.9z M50.9,12.6v1.9
		H52v-1.9L50.9,12.6z M54.3,9.5h-1.1v1.9h1.1V9.5z M53.1,12.6v1.9h1.1v-1.9H53.1z M55.9,7V5.4h3.7c0-0.2-0.1-0.5-0.3-0.9
		c-0.1-0.4-0.2-0.6-0.3-0.8l1.8-0.2c0,0.1,0.1,0.3,0.2,0.5c0.2,0.6,0.4,1,0.4,1.3H65V7L55.9,7z M57.9,19.3c-0.1-0.5-0.2-1.1-0.3-1.6
		c0.2,0,0.4,0,0.7,0.1h0.7c0.5,0,0.8-0.2,0.8-0.7v-3.5h-3V8.3h7.4v5.2h-2.8v4c0,1.1-0.5,1.7-1.6,1.7H57.9z M58.3,9.7v2.3h4.2V9.7
		L58.3,9.7z M63.8,18.4c0-0.1-0.1-0.3-0.3-0.5c-0.6-1.2-1.2-2.1-1.7-2.9l1.3-0.7c0.3,0.5,0.4,0.7,0.3,0.5c0.7,1.2,1.3,2.1,1.7,2.8
		L63.8,18.4z"/>
	<path class="st5" d="M66.1,5.8V4.4h8.4v1.4h-2.2v2h1.9v11.6h-1.5v-0.9h-4.8v0.9h-1.4V7.8h1.9v-2H66.1z M67.7,9.1v3.8
		c0.8-0.8,1.1-2,1.1-3.7V9.1H67.7z M72.1,12.9c-0.9,0-1.3-0.5-1.3-1.4V9.1h-0.9v0.1c0.1,1.9-0.3,3.3-1.1,4.4c0,0-0.1,0-0.1-0.1
		c-0.4-0.2-0.6-0.4-0.7-0.5v1.3h4.8v-1.4L72.1,12.9z M67.9,15.6v1.7h4.8v-1.7H67.9z M69.9,5.8v2h0.9v-2H69.9z M72.9,9.1h-1.1v1.9
		c0,0.6,0.2,0.8,0.7,0.8h0.4L72.9,9.1z M77,11.5v4.8c0,0.8,0.4,1.2,1.2,1.1H79c0.8,0,1.2-0.3,1.3-1.1c0.1-0.7,0.2-1.5,0.3-2.4
		c0.2,0.1,0.6,0.2,1.1,0.3c0.2,0,0.3,0.1,0.4,0.1c0,0.5-0.1,1.2-0.2,1.9c0,0.3-0.1,0.5-0.1,0.7c-0.2,1.3-1,1.9-2.5,1.9h-1.7
		c-1.6,0-2.3-0.7-2.3-2.1V9.9h4.2V6h-4.4V4.5h6v7H77z"/>
	<path class="st5" d="M83.3,9.7V8.6h6.8V7.8h1.8v0.9h6.8v1.1h-6.8v0.9H97v7.2H99V19H82.9v-1.1H85v-7.2h5V9.7H83.3z M84,7.6V4.2h13.9
		v3.4H84z M85.7,5.3v1.3h2.4V5.3H85.7z M86.7,11.7v0.9h8.5v-0.9H86.7z M86.7,13.5v0.9h8.5v-0.9L86.7,13.5z M86.7,15.3v0.9h8.5v-0.9
		H86.7z M86.7,17.1v0.7h8.5v-0.7H86.7z M89.8,5.3v1.3h2.4V5.3H89.8z M96.2,5.3h-2.5v1.3h2.5L96.2,5.3z"/>
	<path class="st5" d="M100.8,6.1V4.4h14.3v1.7h-6.2v6.3h7v1.7h-7v5.4H107v-5.4h-7v-1.7h7V6.1L100.8,6.1z M104.2,11.6
		c-0.9-1.2-1.9-2.4-2.9-3.5l1.3-1.1c1.1,1.1,2.1,2.3,3,3.5L104.2,11.6z M111.5,11.7l-1.3-1.1c1-1,2-2.1,3.1-3.5l1.4,1
		C113.6,9.3,112.6,10.5,111.5,11.7z"/>
	<path class="st5" d="M131.5,11.4c-0.4-0.4-0.8-0.9-1.2-1.3c-4.6,0.1-8,0.2-10,0.3c-0.9,0.1-1.7,0.2-2.3,0.3l-0.9-1.8
		c0.6-0.2,1.2-0.6,1.8-1.1c1.7-1.4,3.2-2.9,4.4-4.4l2,0.9c-0.1,0.1-0.3,0.2-0.4,0.3c-1.9,1.8-3.5,3.2-4.6,4.1l8.4-0.3l-2-2l1.3-1
		c1.9,1.7,3.5,3.3,4.8,4.7L131.5,11.4z M118.9,19.5v-7.4h12.2v7.4h-1.9v-1.1h-8.6v1.1H118.9z M120.7,13.7V17h8.6v-3.3H120.7z"/>
</g>
</svg>
