<?xml version="1.0" encoding="utf-8"?>
<!-- Generator: Adobe Illustrator 22.1.0, SVG Export Plug-In . SVG Version: 6.00 Build 0)  -->
<svg version="1.1" id="图层_1" xmlns="http://www.w3.org/2000/svg" xmlns:xlink="http://www.w3.org/1999/xlink" x="0px" y="0px"
	 viewBox="0 0 6534.5 1785.3" style="enable-background:new 0 0 6534.5 1785.3;" xml:space="preserve">
<style type="text/css">
	.st0{fill:url(#SVGID_1_);}
	.st1{opacity:5.000000e-02;fill:url(#SVGID_2_);enable-background:new    ;}
	.st2{fill:#FFFFFF;}
	.st3{fill:#8F8F8F;}
</style>
<title>logo文字</title>
<linearGradient id="SVGID_1_" gradientUnits="userSpaceOnUse" x1="893.38" y1="1403.7656" x2="893.38" y2="383.4999" gradientTransform="matrix(1 0 0 -1 0 1786)">
	<stop  offset="0" style="stop-color:#00C1FF"/>
	<stop  offset="1" style="stop-color:#0097FF"/>
</linearGradient>
<path class="st0" d="M1290.6,592.8L954.3,398.5c-37.7-21.7-84.1-21.7-121.7,0L496.1,592.8c-37.7,21.7-60.9,61.9-60.9,105.4v388.4
	c0,43.5,23.2,83.7,60.9,105.4l336.4,194.2c37.7,21.7,84.1,21.7,121.7,0l336.4-194.2c37.7-21.7,60.9-61.9,60.9-105.4V698.2
	C1351.5,654.7,1328.3,614.5,1290.6,592.8z"/>
<linearGradient id="SVGID_2_" gradientUnits="userSpaceOnUse" x1="788.8735" y1="997.9342" x2="1244.6506" y2="542.1671" gradientTransform="matrix(1 0 0 -1 0 1786)">
	<stop  offset="0" style="stop-color:#1B2D5E"/>
	<stop  offset="1" style="stop-color:#004297"/>
</linearGradient>
<path class="st1" d="M1351.5,1086.6V952.4l-213.6-213.6L874.8,729l-119.9,93l-109.1,221.3l330.3,330.3l314.5-181.6
	c2.8-1.6,8.2-5.3,8.3-5.3c6.2-4.5,12.2-9.4,17.7-14.8c5-4.9,9.4-10.3,13.3-16.1C1343.9,1135.4,1351.5,1111.3,1351.5,1086.6z"/>
<path class="st2" d="M993.6,978.3c-0.3,0.2-0.5,0.4-0.8,0.5l-74.3,42.9c-15.6,9-34.8,9-50.4,0l-74.3-42.9
	c-15.6-9-25.2-25.6-25.2-43.6v-85.8c0-18,9.6-34.6,25.2-43.6l74.3-42.9c15.6-9,34.8-9,50.4,0l58.4,33.7l41.4,22l124.8-72.2
	c-5.6-9.2-13.3-16.8-22.6-22.2L925.4,611.7c-19.8-11.4-44.2-11.4-64,0L666.3,724.3c-19.8,11.4-32,32.6-32,55.5V1005
	c0,22.9,12.2,44,32,55.4l195.1,112.6c19.8,11.4,44.2,11.4,64,0l195.1-112.6c19.8-11.4,32-32.6,32-55.4V886.5L993.6,978.3z"/>
<path class="st3" d="M1648.7,658.5v-68.3h195.9v-53.4h77.2v53.4h172.2v-53.4h77.2v53.4h190v68.3h-190v38.6h-77.2v-38.6h-172.2v35.6
	h-77.2v-35.6H1648.7z M1648.7,1225.5v-62.3h74.3V982.1h564v181.1h74.2v62.3L1648.7,1225.5z M1705.1,943.5V732.8h74.2v210.8
	L1705.1,943.5z M1803.1,1044.5v118.8h89.1v-118.8H1803.1z M1859.6,949.5V712h77.2v237.5L1859.6,949.5z M2013.9,949.5
	c-7.9-5.9-21.8-15.8-41.6-29.7c-9.9-5.9-16.8-10.8-20.8-14.8c49.4-57.4,85.1-122.7,106.9-195.9l77.2,11.9l-17.8,41.6h231.6v65.3
	h-258.3C2067.7,869.8,2042,910.4,2013.9,949.5L2013.9,949.5z M1963.5,1044.5v118.8h86.1v-118.8H1963.5z M2230.6,970.3
	c-43.6-35.6-84.1-65.3-121.7-89.1l44.5-47.5c51.4,35.6,93,64.3,124.7,86.1L2230.6,970.3z M2206.9,1044.5h-86.1v118.8h86.1V1044.5z"
	/>
<path class="st3" d="M2429.5,795.1c-9.9-27.7-19.8-50.5-29.7-68.3c41.6-53.4,77.2-116.8,106.9-190l68.3,8.9c-2,5.9-5,13.9-8.9,23.8
	c-2,4-7,14.8-14.8,32.7H2670v59.4l-44.5,80.2h71.3V1086h-261.3V789.2L2429.5,795.1z M2741.2,1207.8c-16-13.9-32.8-26.8-50.5-38.6
	v20.8c-100.9,9.9-193,18.8-276.1,26.7l-8.9-62.3c43.5-3.9,119.7-9.9,228.6-17.8c25.7-1.9,44.5-3.9,56.4-5.9v32.7
	c35.9-43.9,66.7-91.7,92-142.5l59.4,32.7C2818.4,1097,2784.8,1148.4,2741.2,1207.8z M2601.7,664.5h-83.1
	c-13.5,27.1-29.4,52.9-47.5,77.2h89.1L2601.7,664.5z M2491.9,801v86.1h50.5V801H2491.9z M2491.9,940.5v86.1h50.5v-86L2491.9,940.5z
	 M2643.3,801h-50.5v86.1h50.5V801z M2592.8,940.6v86.1h50.5v-86.1H2592.8z M2717.5,688.2V620h166.3c-2-7.9-6-20.8-11.9-38.6
	c-5.9-15.8-10.9-27.7-14.8-35.6l80.2-8.9c1.9,5.9,4.9,13.9,8.9,23.8c9.9,25.7,15.8,45.5,17.8,59.4h160.3v68.3L2717.5,688.2z
	 M2803.6,1240.4c-4-23.7-8.9-47.5-14.8-71.3c7.9,0,18.8,1,32.6,3h29.7c23.8,0,35.6-10.9,35.6-32.7V982.1h-133.6V750.6h329.5v231.6
	H2958v181.1c0,49.5-23.8,75.2-71.3,77.2H2803.6z M2824.4,812.9v103.9h187V812.9L2824.4,812.9z M3070.8,1201.8
	c-2-5.9-6-13.9-11.9-23.8c-27.7-51.4-52.5-94-74.2-127.7l59.4-29.7c11.9,21.8,15.8,29.7,11.9,23.8c31.6,53.4,57.4,95,77.2,124.7
	L3070.8,1201.8z"/>
<path class="st3" d="M3171.7,637.8v-62.3h374.1v62.3h-98v89.1h86.1v516.6h-65.3v-41.6h-216.7v41.6h-62.3V726.8h86.1v-89.1H3171.7z
	 M3245.9,786.2v169.2c33.6-35.6,49.5-90.1,47.5-163.3v-5.9H3245.9z M3441.9,955.4c-39.6,0-59.4-20.8-59.4-62.3V786.2h-41.6v3
	c3.9,83.1-12.9,148.4-50.5,195.9c-2,0-4-2-5.9-5.9c-15.9-9.9-26.7-16.8-32.7-20.8v59.4h216.7v-62.4L3441.9,955.4z M3251.9,1074.2
	v74.2h216.7v-74.2H3251.9z M3340.9,637.8v89.1h41.6v-89.1H3340.9z M3477.5,786.2H3427v86.1c-2,25.8,8.9,37.6,32.7,35.6h17.8
	L3477.5,786.2z M3658.6,893.1v216.7c-2,35.6,15.8,52.5,53.4,50.5h35.6c35.6,2,55.4-13.8,59.4-47.5c5.9-29.7,9.9-65.3,11.9-106.9
	c9.9,4,26.7,8.9,50.5,14.8c7.9,2,13.8,4,17.8,5.9c-2,23.8-5,52.4-8.9,86.1c-2,13.9-3,23.8-3,29.7c-7.9,57.4-45.5,85.1-112.8,83.1
	h-74.2c-69.3,1.9-103-29.7-100.9-95V821.8h187V646.7h-195.9v-68.3h267.2v314.7H3658.6z"/>
<path class="st3" d="M3940.6,812.9v-50.5h302.8v-38.6h80.1v38.6h302.8v50.5h-302.8v38.6h228.6v323.6h92v50.5h-718.4v-50.5h92V851.5
	h225.6v-38.6H3940.6z M3973.3,717.9V566.5h620.5v151.4H3973.3z M4050.5,614v56.4h106.9V614H4050.5z M4095,899v38.6h380V899H4095z
	 M4095,979.2v38.6h380v-38.6L4095,979.2z M4095,1059.3v38.6h380v-38.6H4095z M4095,1142.4v32.7h380v-32.7H4095z M4231.5,614v56.4
	h106.9V614H4231.5z M4519.5,614h-109.9v56.4h109.8L4519.5,614z"/>
<path class="st3" d="M4724.4,649.6v-77.2h641.3v77.2h-279.1v282h314.7v77.2h-314.7v240.5h-83.1v-240.4h-314.7v-77.2h314.7v-282
	L4724.4,649.6z M4875.8,896c-41.6-53.4-85.1-105.9-130.6-157.3l59.4-47.5c47.2,49.1,91.8,100.6,133.6,154.4L4875.8,896z M5202.3,899
	l-59.3-50.5c43.5-43.5,89-96,136.6-157.3l62.3,44.5C5296.3,793.2,5249.8,847.6,5202.3,899z"/>
<path class="st3" d="M6098.9,887.1c-17.8-19.8-35.6-38.6-53.4-56.4c-207.8,4-356.3,8-445.3,11.9c-41.6,4-75.2,8.9-100.9,14.8
	l-38.6-80.2c27.7-9.9,54.4-25.7,80.2-47.5c75.2-63.3,141.5-128.6,198.9-195.9l89.1,38.6c-5.6,5.3-11.6,10.3-17.8,14.8
	c-87.1,81.2-156.4,142.5-207.8,184.1l377-11.9l-89.1-89.1l59.4-44.5c83.1,77.2,154.4,147.5,213.8,210.8L6098.9,887.1z
	 M5531.9,1249.3V916.8h546.3v332.5H5995v-47.5h-383v47.5H5531.9z M5612,988.1v148.4h383V988.1H5612z"/>
</svg>
