<?xml version="1.0" encoding="utf-8"?>
<!-- Generator: Adobe Illustrator 22.1.0, SVG Export Plug-In . SVG Version: 6.00 Build 0)  -->
<svg version="1.1" id="图层_1" xmlns="http://www.w3.org/2000/svg" xmlns:xlink="http://www.w3.org/1999/xlink" x="0px" y="0px"
	 viewBox="0 0 1000 1000" style="enable-background:new 0 0 1000 1000;" xml:space="preserve">
<style type="text/css">
	.st0{fill:#FFFFFF;}
	.st1{fill:url(#SVGID_1_);}
	.st2{fill:#8F8F8F;}
</style>
<g>
	<circle class="st0" cx="89" cy="486.5" r="63.8"/>
	
		<linearGradient id="SVGID_1_" gradientUnits="userSpaceOnUse" x1="89" y1="888.55" x2="89" y2="1066.45" gradientTransform="matrix(1 0 0 -1 0 1464)">
		<stop  offset="1.652257e-03" style="stop-color:#42C0FF"/>
		<stop  offset="1" style="stop-color:#3C96FF"/>
	</linearGradient>
	<path class="st1" d="M158.2,434.3l-58.6-33.9c-6.6-3.8-14.6-3.8-21.2,0l-58.6,33.9c-6.6,3.8-10.6,10.8-10.6,18.4v67.7
		c0,7.6,4,14.6,10.6,18.3l58.6,33.9c6.6,3.8,14.6,3.8,21.2,0l58.6-33.9c6.6-3.8,10.6-10.8,10.6-18.3v-67.8
		C168.8,445,164.7,438.1,158.2,434.3z M134.2,506.1c0,4-2.1,7.7-5.6,9.6l-34,19.6c-3.4,2-7.7,2-11.2,0l-34-19.6
		c-3.4-2-5.6-5.6-5.6-9.6v-39.2c0-4,2.1-7.7,5.6-9.6l34-19.6c3.4-2,7.7-2,11.2,0l34,19.6c1.6,0.9,3,2.3,3.9,3.8l-21.8,12.5l-7.2-3.8
		l-10.2-5.9c-2.7-1.5-6.1-1.5-8.8,0l-13,7.5c-2.7,1.5-4.4,4.5-4.4,7.6v14.9c0,3.2,1.6,6.1,4.4,7.6l13,7.5c2.7,1.5,6.1,1.5,8.8,0
		l13-7.5c0.1,0,0.1-0.1,0.1-0.1l27.7-16L134.2,506.1L134.2,506.1z"/>
</g>
<path class="st2" d="M248,456.5c4.5,4.3,7,9.3,7.5,14.8h-8.6c-1-4.2-2.9-7.5-5.7-9.9c-2.9-2.5-6.9-3.7-12.1-3.7
	c-6.3,0-11.3,2.3-15.3,6.8C210,469,208,476,208,485.3c0,7.6,1.8,13.9,5.3,18.5c3.5,4.8,8.7,7.2,15.6,7.2c6.3,0,11.2-2.5,14.6-7.5
	c1.8-2.6,3.1-6.1,3.9-10.4h8.6c-0.7,6.8-3.2,12.7-7.5,17.2c-5.1,5.6-12.1,8.4-20.7,8.4c-7.5,0-13.7-2.3-18.9-6.9
	c-6.7-6.1-10-15.4-10-28.1c0-9.6,2.5-17.4,7.5-23.6c5.4-6.7,12.9-10,22.5-10C237.2,450,243.6,452.2,248,456.5z"/>
<path class="st2" d="M298.6,474.2c4.2,4.1,6.3,10,6.3,18c0,7.6-1.8,14-5.5,19s-9.4,7.5-17.2,7.5c-6.4,0-11.6-2.1-15.4-6.6
	c-3.8-4.4-5.7-10.4-5.7-17.8c0-8,2-14.3,6-19c4.1-4.8,9.4-7,16.2-7C289.3,468.1,294.5,470.1,298.6,474.2z M293.6,505.7
	c1.9-3.9,2.9-8.5,2.9-13.4c0-4.4-0.7-8-2.1-10.7c-2.3-4.4-6.1-6.6-11.5-6.6c-4.8,0-8.4,1.9-10.5,5.6s-3.3,8.2-3.3,13.5
	c0,5,1.1,9.2,3.3,12.7c2.3,3.5,5.6,5,10.4,5C288.1,511.7,291.7,509.8,293.6,505.7z"/>
<path class="st2" d="M311.4,469.4h7.5v6.7c2.3-2.7,4.7-4.8,7.2-6s5.3-1.8,8.4-1.8c6.7,0,11.3,2.4,13.6,7c1.3,2.6,1.9,6.2,1.9,11
	v30.5h-8.1V487c0-2.9-0.5-5.3-1.3-7c-1.4-3-3.9-4.4-7.8-4.4c-1.9,0-3.5,0.2-4.7,0.6c-2.1,0.6-4.1,1.9-5.7,3.9
	c-1.3,1.6-2.1,3.2-2.6,4.9c-0.4,1.7-0.6,4.1-0.6,7.2V517h-8v-47.5h0.2V469.4z"/>
<path class="st2" d="M363.2,454.9c1.9-2.7,5.5-4.1,10.7-4.1c0.5,0,1.1,0,1.6,0s1.2,0.1,1.8,0.1v7.3c-0.8,0-1.4-0.1-1.8-0.1
	s-0.7,0-1.1,0c-2.5,0-3.9,0.6-4.4,1.9s-0.7,4.4-0.7,9.6h8v6.3h-8v41h-7.8v-41H355v-6.3h6.6v-7.4
	C361.7,458.9,362.3,456.5,363.2,454.9z"/>
<path class="st2" d="M382.5,451.8h8.1v9.1h-8.1V451.8z M382.5,469.6h8.1v47.3h-8.1V469.6z"/>
<path class="st2" d="M426.8,471.3c1.6,1.1,3,2.5,4.5,4.5v-6h7.4V513c0,6-0.8,10.7-2.6,14.2c-3.3,6.4-9.6,9.7-18.6,9.7
	c-5.1,0-9.4-1.2-12.9-3.5s-5.4-5.9-5.9-10.7h8.1c0.4,2.1,1.2,3.8,2.3,4.9c1.8,1.8,4.7,2.6,8.5,2.6c6.1,0,10-2.1,11.9-6.4
	c1.1-2.5,1.7-7,1.6-13.6c-1.6,2.4-3.5,4.2-5.7,5.4c-2.3,1.2-5.3,1.8-8.8,1.8c-5.1,0-9.6-1.8-13.5-5.5c-3.8-3.7-5.7-9.7-5.7-18.2
	c0-8,1.9-14.2,5.9-18.6c3.8-4.4,8.6-6.7,14-6.7C420.8,468.6,424.1,469.5,426.8,471.3z M427.8,479.9c-2.4-2.9-5.5-4.3-9.2-4.3
	c-5.6,0-9.4,2.6-11.5,7.9c-1.1,2.9-1.7,6.4-1.7,11c0,5.4,1.1,9.4,3.2,12.2c2.1,2.7,5,4.2,8.7,4.2c5.7,0,9.7-2.6,12.1-7.8
	c1.3-2.9,1.9-6.3,1.9-10.3C431.5,487.1,430.2,482.8,427.8,479.9z"/>
<path class="st2" d="M454.4,469.4v31.5c0,2.4,0.4,4.4,1.1,6c1.4,2.9,3.9,4.3,7.8,4.3c5.4,0,9.1-2.5,11.1-7.4c1.1-2.6,1.6-6.3,1.6-11
	v-23.3h8v47.4h-7.5l0.1-7c-1.1,1.8-2.3,3.3-3.8,4.5c-3,2.5-6.6,3.7-10.9,3.7c-6.7,0-11.1-2.3-13.6-6.8c-1.3-2.4-1.9-5.6-1.9-9.7
	v-32.2L454.4,469.4L454.4,469.4z"/>
<path class="st2" d="M492.6,469.4h7.5v8.2c0.6-1.6,2.1-3.6,4.5-5.9s5.3-3.5,8.4-3.5c0.1,0,0.4,0,0.7,0s1,0.1,1.8,0.1v8.5
	c-0.5-0.1-1-0.1-1.3-0.1c-0.4,0-0.8,0-1.3,0c-4.1,0-7.2,1.3-9.3,3.8c-2.1,2.6-3.2,5.6-3.2,9v27.3h-7.8L492.6,469.4L492.6,469.4z"/>
<path class="st2" d="M545.9,488.1c1.8-0.2,3.1-1,3.7-2.3c0.4-0.7,0.5-1.8,0.5-3.1c0-2.7-1-4.7-2.9-6c-1.9-1.2-4.7-1.8-8.2-1.8
	c-4.2,0-7.2,1.1-8.8,3.3c-1,1.2-1.6,3.1-1.9,5.6h-7.4c0.1-5.9,2-9.9,5.7-12.3c3.7-2.3,7.9-3.5,12.7-3.5c5.6,0,10.2,1.1,13.6,3.2
	c3.5,2.1,5.1,5.5,5.1,9.9v27.3c0,0.8,0.1,1.4,0.5,2c0.4,0.5,1.1,0.7,2.1,0.7c0.4,0,0.7,0,1.2-0.1s1-0.1,1.4-0.2v5.9
	c-1.2,0.4-2.1,0.6-2.9,0.7c-0.6,0.1-1.6,0.1-2.6,0.1c-2.7,0-4.8-1-6-2.9c-0.6-1.1-1.1-2.5-1.4-4.4c-1.7,2.1-3.9,3.9-7,5.5
	c-3,1.6-6.4,2.4-10,2.4c-4.4,0-8-1.3-10.7-4.1c-2.7-2.6-4.2-6-4.2-10c0-4.4,1.4-7.8,4.2-10.3s6.3-3.9,10.9-4.4L545.9,488.1z
	 M529,509.8c1.7,1.3,3.7,2,6,2c2.7,0,5.5-0.6,8.1-1.9c4.4-2.1,6.7-5.7,6.7-10.6v-6.4c-1,0.6-2.3,1.2-3.7,1.6c-1.6,0.4-3,0.7-4.5,0.8
	l-4.8,0.6c-2.9,0.4-5,1-6.6,1.8c-2.5,1.4-3.7,3.6-3.7,6.7C526.5,506.5,527.4,508.4,529,509.8z"/>
<path class="st2" d="M570.2,456.1h8.1v13.3h7.5v6.6h-7.5v30.9c0,1.7,0.6,2.7,1.7,3.3c0.6,0.4,1.7,0.5,3.1,0.5c0.4,0,0.8,0,1.2,0
	c0.5,0,1-0.1,1.6-0.1v6.3c-1,0.2-1.9,0.5-2.9,0.6s-2,0.1-3.2,0.1c-3.7,0-6.2-1-7.5-2.9s-2-4.4-2-7.4V476h-6.4v-6.6h6.4L570.2,456.1
	L570.2,456.1z"/>
<path class="st2" d="M591.5,451.8h8.1v9.1h-8.1V451.8z M591.5,469.6h8.1v47.3h-8.1V469.6z"/>
<path class="st2" d="M643.9,474.2c4.2,4.1,6.3,10,6.3,18c0,7.6-1.8,14-5.5,19s-9.4,7.5-17.2,7.5c-6.4,0-11.6-2.1-15.4-6.6
	c-3.8-4.4-5.7-10.4-5.7-17.8c0-8,2-14.3,6-19c4.1-4.8,9.4-7,16.2-7C634.5,468.1,639.7,470.1,643.9,474.2z M639,505.7
	c1.9-3.9,2.9-8.5,2.9-13.4c0-4.4-0.7-8-2.1-10.7c-2.3-4.4-6.1-6.6-11.5-6.6c-4.8,0-8.4,1.9-10.5,5.6s-3.3,8.2-3.3,13.5
	c0,5,1.1,9.2,3.3,12.7c2.3,3.5,5.6,5,10.4,5C633.3,511.7,637,509.8,639,505.7z"/>
<path class="st2" d="M654.4,469.4h7.5v6.7c2.3-2.7,4.7-4.8,7.2-6s5.3-1.8,8.4-1.8c6.7,0,11.3,2.4,13.6,7c1.3,2.6,1.9,6.2,1.9,11
	v30.5h-8.1V487c0-2.9-0.5-5.3-1.3-7c-1.4-3-3.9-4.4-7.8-4.4c-1.9,0-3.5,0.2-4.7,0.6c-2.1,0.6-4.1,1.9-5.7,3.9
	c-1.3,1.6-2.1,3.2-2.6,4.9c-0.4,1.7-0.6,4.1-0.6,7.2V517h-8v-47.5h0.2V469.4z"/>
<path class="st2" d="M721.1,495.9c0.2,3.7,1.1,6.7,2.5,9c2.9,4.3,7.8,6.4,14.9,6.4c3.2,0,6.1-0.5,8.7-1.4c5-1.8,7.6-5.1,7.6-9.8
	c0-3.6-1.1-6.1-3.2-7.5c-2.1-1.4-5.6-2.7-10.3-3.8l-8.6-2c-5.6-1.3-9.6-2.7-11.8-4.3c-4.1-2.7-6-6.8-6-12.2c0-5.9,1.9-10.6,5.9-14.5
	c3.9-3.7,9.6-5.6,16.7-5.6c6.7,0,12.3,1.7,17,4.9c4.7,3.3,6.9,8.6,6.9,15.8h-8.2c-0.5-3.5-1.3-6.2-2.7-8c-2.6-3.3-6.9-5.1-13.1-5.1
	c-5,0-8.6,1.1-10.7,3.2c-2.1,2.1-3.2,4.8-3.2,7.6c0,3.2,1.3,5.5,3.8,7c1.7,1,5.5,2.1,11.5,3.6l8.8,2c4.3,1,7.5,2.4,9.9,4.2
	c4.1,3,6,7.4,6,13.3c0,7.2-2.5,12.4-7.6,15.5c-5.1,3.1-11.1,4.7-17.8,4.7c-7.9,0-14.1-2-18.5-6.2c-4.4-4.1-6.7-9.7-6.6-16.7
	L721.1,495.9L721.1,495.9z"/>
<path class="st2" d="M802.2,469.4h8.8c-1.1,3-3.6,10-7.5,20.8c-2.9,8.1-5.4,14.8-7.3,19.9c-4.7,12.1-7.9,19.5-9.8,22.1
	c-1.9,2.6-5.1,3.9-9.8,3.9c-1.1,0-2,0-2.6-0.1s-1.3-0.2-2.3-0.5v-7.3c1.4,0.4,2.4,0.6,3,0.7c0.6,0.1,1.2,0.1,1.7,0.1
	c1.4,0,2.5-0.2,3.2-0.7s1.3-1.1,1.8-1.8c0.1-0.2,0.7-1.4,1.6-3.6c1-2.1,1.6-3.8,2-4.9l-17.6-48.8h9.1l12.8,38.7L802.2,469.4z"/>
<path class="st2" d="M820.4,502c0.2,2.6,1,4.7,2,6.1c2,2.6,5.6,3.8,10.6,3.8c3,0,5.6-0.6,8-1.9s3.5-3.2,3.5-6c0-2-1-3.6-2.7-4.7
	c-1.2-0.6-3.5-1.4-6.9-2.3l-6.4-1.6c-4.1-1-7.2-2.1-9.1-3.3c-3.5-2.1-5.3-5.1-5.3-9c0-4.5,1.7-8.1,4.9-10.9
	c3.2-2.7,7.6-4.2,13.3-4.2c7.3,0,12.4,2.1,15.6,6.3c2,2.6,3,5.5,2.9,8.6h-7.5c-0.1-1.8-0.8-3.5-1.9-4.9c-1.9-2-5.1-3.1-9.8-3.1
	c-3.1,0-5.4,0.6-7,1.7c-1.6,1.2-2.4,2.6-2.4,4.5c0,2,1.1,3.7,3.1,4.9c1.2,0.7,3,1.4,5.4,1.9l5.4,1.3c5.9,1.4,9.8,2.7,11.7,4.1
	c3.1,2,4.7,5.3,4.7,9.7c0,4.2-1.7,7.9-4.9,11c-3.2,3.1-8.2,4.7-14.8,4.7c-7.2,0-12.2-1.6-15.2-4.8s-4.5-7.2-4.8-11.9h7.8v0H820.4z"
	/>
<path class="st2" d="M860.4,456.1h8.1v13.3h7.5v6.6h-7.5v30.9c0,1.7,0.6,2.7,1.7,3.3c0.6,0.4,1.7,0.5,3.1,0.5c0.4,0,0.8,0,1.2,0
	c0.5,0,1-0.1,1.6-0.1v6.3c-1,0.2-1.9,0.5-2.9,0.6s-2,0.1-3.2,0.1c-3.7,0-6.2-1-7.5-2.9s-2-4.4-2-7.4V476H854v-6.6h6.4V456.1
	L860.4,456.1z"/>
<path class="st2" d="M911.1,470.7c3.1,1.6,5.5,3.6,7.2,6.1c1.6,2.4,2.6,5.1,3.2,8.4c0.5,2.1,0.7,5.7,0.7,10.5h-34.5
	c0.1,4.8,1.3,8.7,3.3,11.6c2.1,2.9,5.4,4.4,9.8,4.4c4.2,0,7.4-1.4,9.9-4.2c1.4-1.6,2.4-3.5,3-5.6h7.9c-0.2,1.8-0.8,3.7-2,5.9
	c-1.2,2.1-2.5,3.9-3.9,5.3c-2.4,2.4-5.4,3.9-9,4.8c-1.9,0.5-4.1,0.7-6.4,0.7c-5.9,0-10.9-2.1-14.9-6.4c-4.1-4.3-6.1-10.3-6.1-18
	c0-7.6,2-13.9,6.2-18.5c4.1-4.8,9.4-7.2,16.1-7.2C904.8,468.3,908,469.2,911.1,470.7z M914,489.3c-0.4-3.5-1.1-6.2-2.3-8.2
	c-2.1-3.8-5.7-5.7-10.9-5.7c-3.6,0-6.7,1.3-9.2,3.9s-3.8,6-3.9,10L914,489.3L914,489.3z"/>
<path class="st2" d="M930.1,469.4h7.9v6.7c1.9-2.4,3.6-4.1,5.1-5.1c2.6-1.8,5.6-2.7,9-2.7c3.8,0,6.8,1,9.1,2.7
	c1.3,1.1,2.5,2.6,3.6,4.7c1.8-2.5,3.8-4.4,6.2-5.6s5.1-1.8,8.1-1.8c6.3,0,10.7,2.3,13,6.9c1.2,2.5,1.9,5.9,1.9,10v31.6h-8.2v-33
	c0-3.1-0.8-5.4-2.4-6.6c-1.6-1.2-3.5-1.8-5.7-1.8c-3.1,0-5.9,1.1-8.1,3.1c-2.3,2.1-3.3,5.6-3.3,10.5v27.6h-8.1v-30.9
	c0-3.2-0.4-5.6-1.2-7c-1.2-2.3-3.5-3.3-6.8-3.3c-3,0-5.7,1.2-8.2,3.5c-2.5,2.4-3.7,6.6-3.7,12.7v25.2h-8L930.1,469.4L930.1,469.4z"
	/>
</svg>
