<svg xmlns="http://www.w3.org/2000/svg" xmlns:xlink="http://www.w3.org/1999/xlink" viewBox="0 0 725.06 890.37"><defs><style>.cls-1{fill:none;}.cls-2{clip-path:url(#clip-path);}</style><clipPath id="clip-path" transform="translate(0 -0.17)"><rect class="cls-1" width="725.25" height="891.84"/></clipPath></defs><title>资源 304</title><g id="图层_2" data-name="图层 2"><g id="图层_4" data-name="图层 4"><g class="cls-2"><path d="M605.54,473.23c-1.18-112.8,92-166.9,96.09-169.53-52.26-76.48-133.74-87-162.82-88.33-69.37-7-135.32,40.81-170.46,40.81S279,216.43,221.46,217.48c-75.56,1.18-145.18,44-184.15,111.62C-41.27,465.46,17.17,667.38,93.78,777.81c37.38,54.1,82,114.78,140.58,112.68C290.69,888.25,312,854,380.2,854s87.27,36.46,147,35.4c60.68-1.18,99.12-55.15,136.24-109.38,42.91-62.79,60.68-123.6,61.6-126.49-1.32-.79-118.33-45.54-119.52-180.33ZM493.39,142.33c31.07-37.65,52-90,46.34-142.16C495,2,440.74,29.91,408.62,67.56,379.93,101,354.53,154.3,361.38,205.37c49.88,3.95,100.95-25.4,132-63Z" transform="translate(0 -0.17)"/></g></g></g></svg>