<svg xmlns="http://www.w3.org/2000/svg" viewBox="0 0 862.77 767.54"><title>资源 285</title><g id="图层_2" data-name="图层 2"><g id="图层_4" data-name="图层 4"><path d="M316.41,326.43c14.81,0,35.39.29,49.66-.44l73-7,53-87s136-2.76,140.74-3V116.66C632.81,52.06,491,0,316.41,0S0,52.06,0,116.66v93.1C0,274,141.45,326.43,316.41,326.43Z"/><path d="M316.41,536.19c32.74,0,56.94-1.8,86.66-5.2l33-5,39-56-48-84c-25,7-63,9-63,9-15.56.87-31.44,1.36-47.66,1.36C141.77,396.35,0,344.29,0,279.69V419.53C0,483.75,141.45,536.19,316.41,536.19Z"/><path d="M436.07,594c-42,13-119.66,12.13-119.66,12.13C141.77,606.12.32,554.05.32,489.45V629.3C.32,693.52,141.77,746,316.73,746c89.1,0,175.81-16.11,233.34-38-44-11-55-12-55-12S449.07,624,436.07,594Z"/><path d="M572.44,473.83v81c6.13,0,11,2.48,13.91,6.68l70-41.26-26.54-46.45Z"/><path d="M572.44,345.54c6.24,0,11.19,2.58,14.07,6.91l66.53-38L626.45,267.9h-108l-54,94.53,54,97.9h50.64V379c-8.22-1.35-13.51-7.65-13.51-16.6C555.55,352.3,565.68,345.54,572.44,345.54Z"/><path d="M741.67,478.4l-67.91,38.81,27,44.4h50.64V483.68A15.69,15.69,0,0,1,741.67,478.4Z"/><path d="M739.2,461.3,670,420.49l-26.62,46.59,27.23,44.84,67.88-40a20.25,20.25,0,0,1-.58-4.84A14.82,14.82,0,0,1,739.2,461.3Z"/><path d="M587,371.61c-2.79,4.81-8,7.69-14.55,7.69v81h54l27.26-49.41Z"/><path d="M737.92,265.93c0-.46-.06-.93-.06-1.41,0-10.13,6.75-16.88,16.88-16.88s16.88,6.75,16.88,16.88-6.75,16.88-16.88,16.88v77.65h54l54-94.53L805.38,170h-108l-54,94.53,25,41.18Z"/><path d="M588.47,566a19.73,19.73,0,0,1,.84,5.78,22.78,22.78,0,0,1-.19,2.79l68.75,39.29,26-45.45-24.51-42.9Z"/><path d="M754.74,575.11v81c10.13,0,16.88,6.76,16.88,16.89s-6.75,16.87-16.88,16.87-16.88-6.75-16.88-16.87a18.87,18.87,0,0,1,1.42-7.39l-70.61-40.35-25.34,44.36,57.39,97.9v-3.37H805.38l54-94.53-54-94.53Z"/><path d="M680.46,362.43l-24.32-42.58-67.06,39.52a21.58,21.58,0,0,1,.23,3.06,20.25,20.25,0,0,1-.58,4.84l67.21,39.6Z"/><path d="M751.36,359.05V281.13A15.28,15.28,0,0,1,739,271.05l-67.5,39.78,29.27,48.22Z"/><path d="M751.36,450.59v-78h-54l-25.11,43.93,69.29,40.83A17.44,17.44,0,0,1,751.36,450.59Z"/><path d="M587.89,579.12c-2.48,5.88-8.06,9.49-15.45,9.49-10.13,0-16.89-6.75-16.89-16.88,0-8.53,7.2-14.67,13.51-16.39V473.83H518.42l-54,94.53,54,94.53H629.83l25.76-45.09Z"/><path d="M751.36,656.41v-81.3h-54L671,621.28l70.72,40.41A15.71,15.71,0,0,1,751.36,656.41Z"/><path d="M754.74,372.55V450.2c10.13,0,16.88,6.75,16.88,16.88S764.87,484,754.74,484v77.65h54l54-94.53-57.39-94.53Z"/><path d="M751.36,450.59l3.38-.39A14.9,14.9,0,0,0,751.36,450.59Z"/><path d="M754.74,484l-3.38-.28A20.46,20.46,0,0,0,754.74,484Z"/><path d="M739.2,461.3l2.33-4A20,20,0,0,0,739.2,461.3Z"/><path d="M741.67,478.4l-3.23-6.48A16,16,0,0,0,741.67,478.4Z"/></g></g></svg>