<?xml version="1.0" encoding="utf-8"?>
<!-- Generator: Adobe Illustrator 21.1.0, SVG Export Plug-In . SVG Version: 6.00 Build 0)  -->
<svg version="1.1" id="图层_1" xmlns="http://www.w3.org/2000/svg" xmlns:xlink="http://www.w3.org/1999/xlink" x="0px" y="0px"
	 viewBox="0 0 18 18" style="enable-background:new 0 0 18 18;" xml:space="preserve">
<path d="M16,2H2C1.5,2,1,2.5,1,3v9c0,0.5,0.5,1,1,1h5v2H4.5H4v1h0.5h9H14v-1h-0.5H11v-2h5c0.5,0,1-0.5,1-1V3C17,2.5,16.5,2,16,2z
	 M16,11.5c0,0.3-0.2,0.5-0.5,0.5h-13C2.2,12,2,11.8,2,11.5V10h14V11.5z"/>
</svg>
