<svg xmlns="http://www.w3.org/2000/svg" viewBox="0 0 830 830"><title>资源 265</title><g id="图层_2" data-name="图层 2"><g id="图层_4" data-name="图层 4"><path d="M798,0H32A32,32,0,0,0,0,32V798a32,32,0,0,0,32,32H798a32,32,0,0,0,32-32V32A32,32,0,0,0,798,0ZM597.54,773.13l-45.25-45.26L607.16,673H94.92V609H618.16l-54.87-54.87,45.25-45.26L735.17,635.5ZM735.17,453H211.92l54.88,54.87-45.26,45.26L94.92,426.5,232.54,288.87l45.26,45.26L222.92,389H735.17ZM597.54,333.13l-45.25-45.26L607.16,233H94.92V169H618.16l-54.87-54.87,45.25-45.26L735.17,195.5Z"/></g></g></svg>