<?xml version="1.0" encoding="utf-8"?>
<!-- Generator: Adobe Illustrator 22.0.1, SVG Export Plug-In . SVG Version: 6.00 Build 0)  -->
<svg version="1.1" id="图层_1" xmlns="http://www.w3.org/2000/svg" xmlns:xlink="http://www.w3.org/1999/xlink" x="0px" y="0px"
	 viewBox="0 0 18 18" style="enable-background:new 0 0 18 18;" xml:space="preserve">
<g>
	<path d="M-0.1,13.3l2.4,1c0,0,0.8,0.3,2.7-2.1l-1.1,2.8l1.6,0.6c0,0,1.6,0.6,2.7-2.1l-1.1,2.8l1.6,0.6c0,0,1.6,0.6,2.7-2.1
		l-1.1,2.8L12,18c0,0,1.2-0.5,3.4-6c0,0,0,0,0,0L4.1,7.4C4.1,7.4,0.7,13.6-0.1,13.3z"/>
	<path d="M16.9,8.2c0.2-0.5,0-1.1-0.4-1.3l-3.3-1.3l1.5-3.7c0.2-0.5,0-1.1-0.4-1.3l-1.6-0.6c-0.4-0.2-1,0.1-1.2,0.6L10,4.4L6.7,3.1
		c-0.4-0.2-1,0.1-1.2,0.6L4.8,5.6l11.4,4.5l0.1-0.3l0.4-1.1L16.9,8.2z"/>
</g>
</svg>
