<svg xmlns="http://www.w3.org/2000/svg" viewBox="0 0 895 767"><title>资源 312</title><g id="图层_2" data-name="图层 2"><g id="图层_4" data-name="图层 4"><path d="M863,0H32A32.09,32.09,0,0,0,0,32V735a32.09,32.09,0,0,0,32,32H863a32.09,32.09,0,0,0,32-32V32A32.09,32.09,0,0,0,863,0ZM121.05,203.82c0-51.35,43-92.89,96.12-93h458.7c53.08,0,96,41.66,96.12,93V456.66c-.11,51.34-43,92.88-96.12,93H444a53.37,53.37,0,0,0,8-19.73l20.43-19.74H675.76c30.46,0,55.15-23.87,55.15-53.42V203.82c0-29.42-24.69-53.31-55.15-53.31H217.05c-30.46,0-55,23.89-55.15,53.31V456.66C162,483.43,182.56,506,210,509.39v12.7a51.21,51.21,0,0,0,8.09,27.57h-1.16c-53.08-.12-96-41.66-96-93ZM230.67,522.2V384.76c0-24.12,18.12-45,43.62-50.08l18.58-3.7,38.65,74.55L370.19,331l18.57,3.7c25.4,5.19,43.62,26,43.62,50.08V495.55L553.66,378.19a9.17,9.17,0,0,1,6.59-2.66,9.34,9.34,0,0,1,6.57,2.66,8.92,8.92,0,0,1,2.77,6.34,8.75,8.75,0,0,1-2.77,6.35l-134.44,130v1.16c0,18.46-15.46,33.46-34.5,33.46l-.11,16.85-132.59.11V555.67C246.14,555.67,230.67,540.66,230.67,522.2Zm56.55-260.8c1.73-25.15,16.26-41.77,44.77-41.77,29.19,0,42,19.16,43.62,41.77,7.39,0,7.85,9.46,6.93,16.51-.93,6.69-6.47,14.88-11.9,17.65-16.37,48.23-62.08,48.23-78.58,0-5.42-2.77-11-11-11.88-17.65C279.25,270.86,279.83,261.4,287.22,261.4Zm31.15,428.79H121.05V665.76a59.57,59.57,0,0,1,18.46-43,63.81,63.81,0,0,1,44.42-17.77H255.6A63.83,63.83,0,0,1,300,622.71a59.45,59.45,0,0,1,18.34,43Zm227.91,0H348.84V665.76a59.57,59.57,0,0,1,18.46-43,63.81,63.81,0,0,1,44.43-17.77h71.66a64.35,64.35,0,0,1,44.43,17.77,60,60,0,0,1,18.46,43Zm227.79,0H576.63V665.76a59.61,59.61,0,0,1,18.46-43,63.9,63.9,0,0,1,44.54-17.77H711.3a63.81,63.81,0,0,1,44.42,17.77,59.9,59.9,0,0,1,18.35,43Z"/></g></g></svg>