<svg xmlns="http://www.w3.org/2000/svg" viewBox="0 0 832 832"><title>资源 328</title><g id="图层_2" data-name="图层 2"><g id="图层_4" data-name="图层 4"><path d="M800,768H767V370c0-17.6-12-25-32-32L544,288a32.09,32.09,0,0,0-32,32V768H448V37c0-22.6-14.4-37-32-37L95,110c-19,11-32,14.4-32,37V768H32A32,32,0,0,0,0,800H0a32,32,0,0,0,32,32H800a32,32,0,0,0,32-32h0A32,32,0,0,0,800,768ZM63,768c0-.83,0-.42.06,0ZM129.5,303.84V239.16H226v64.68ZM226,367.16v64.68H129.5V367.16Zm-96.5,128H226v64.68H129.5Zm256,64.68H290V495.16h95.5Zm0-128H290V367.16h95.5Zm0-128H290V239.16h95.5ZM448,768h-.06C448,767.58,448,767.17,448,768ZM702,609H576V544H702Zm1-128H577V416H703Z"/></g></g></svg>