<svg xmlns="http://www.w3.org/2000/svg" viewBox="0 0 831 832"><title>资源 330</title><g id="图层_2" data-name="图层 2"><g id="图层_4" data-name="图层 4"><path d="M799,545H708V382H446l1-96H573a32,32,0,0,0,32-32V32A32,32,0,0,0,573,0H256a32,32,0,0,0-32,32V254a32,32,0,0,0,32,32H383l-1,96H133V545H27A27,27,0,0,0,0,572V805a27,27,0,0,0,27,27H293a27,27,0,0,0,27-27V572a27,27,0,0,0-27-27H197V446H644v99H543a32,32,0,0,0-32,32V800a32,32,0,0,0,32,32H799a32,32,0,0,0,32-32V577A32,32,0,0,0,799,545ZM256,768H64V609H256Zm511,0H575V609H767Z"/></g></g></svg>