<?xml version="1.0" encoding="utf-8"?>
<!-- Generator: Adobe Illustrator 22.0.1, SVG Export Plug-In . SVG Version: 6.00 Build 0)  -->
<svg version="1.1" xmlns="http://www.w3.org/2000/svg" xmlns:xlink="http://www.w3.org/1999/xlink" x="0px" y="0px"
	 viewBox="0 0 1024 1024" style="enable-background:new 0 0 1024 1024;" xml:space="preserve">
<style type="text/css">
	.st0{fill:#070707;}
</style>
<g id="图层_2">
</g>
<g id="图层_1">
</g>
<g id="图层_3">
	<g>
	</g>
</g>
<g id="图层_4">
</g>
<g id="图层_5">
	<g>
		<polygon class="st0" points="160,384 96,384 96,96 384,96 384,160 160,160 		"/>
	</g>
	<g>
		<polygon class="st0" points="927,384 863,384 863,161 640,161 640,97 927,97 		"/>
	</g>
	<g>
		<polygon class="st0" points="926,927 640,927 640,863 862,863 862,640 926,640 		"/>
	</g>
	<g>
		<polygon class="st0" points="384,929 96,929 96,640 160,640 160,865 384,865 		"/>
	</g>
	<g>
		<path class="st0" d="M735,704H287V317.9l448,1.2V704z M351,640h320V382.9l-320-0.8V640z"/>
	</g>
	<g>
	</g>
	<g>
	</g>
	<g>
	</g>
	<g>
	</g>
	<g>
	</g>
	<g>
	</g>
	<g>
	</g>
	<g>
	</g>
	<g>
	</g>
	<g>
	</g>
	<g>
	</g>
	<g>
	</g>
	<g>
	</g>
	<g>
	</g>
	<g>
	</g>
</g>
</svg>
