<?xml version="1.0" encoding="utf-8"?>
<!-- Generator: Adobe Illustrator 21.1.0, SVG Export Plug-In . SVG Version: 6.00 Build 0)  -->
<svg version="1.1" id="图层_1" xmlns="http://www.w3.org/2000/svg" xmlns:xlink="http://www.w3.org/1999/xlink" x="0px" y="0px"
	 viewBox="0 0 18 18" style="enable-background:new 0 0 18 18;" xml:space="preserve">
<g>
	<polygon points="9,2 9,2 9,2 	"/>
	<path d="M16.6,8.6C13.9,6.3,9,2,9,2c0,0-4.9,4.3-7.6,6.6C1.2,8.7,1.1,8.9,1.1,9.2c0,0.4,0.4,0.8,0.8,0.8h1.6v6.4c0,0,0,0,0,0h3.9
		v-4h3.2v4h3.9V10h1.6c0.4,0,0.8-0.4,0.8-0.8C16.9,8.9,16.8,8.7,16.6,8.6z"/>
</g>
</svg>
