<?xml version="1.0" encoding="utf-8"?>
<!-- Generator: Adobe Illustrator 21.1.0, SVG Export Plug-In . SVG Version: 6.00 Build 0)  -->
<svg version="1.1" id="图层_1" xmlns="http://www.w3.org/2000/svg" xmlns:xlink="http://www.w3.org/1999/xlink" x="0px" y="0px"
	 viewBox="0 0 18 18" style="enable-background:new 0 0 18 18;" xml:space="preserve">
<g>
	<path d="M16,2H2C1.5,2,1,2.5,1,3v4c0,0.5,0.5,1,1,1h14c0.5,0,1-0.5,1-1V3C17,2.5,16.5,2,16,2z"/>
	<path d="M6.5,10h-5C1.2,10,1,10.2,1,10.5v5C1,15.8,1.2,16,1.5,16h5C6.8,16,7,15.8,7,15.5v-5C7,10.2,6.8,10,6.5,10z"/>
	<rect x="9" y="10" width="8" height="2"/>
	<rect x="9" y="14" width="8" height="2"/>
</g>
</svg>
