<svg xmlns="http://www.w3.org/2000/svg" xmlns:xlink="http://www.w3.org/1999/xlink" viewBox="0 0 893.68 891.9"><defs><style>.cls-1{fill:none;}.cls-2{clip-path:url(#clip-path);}</style><clipPath id="clip-path"><rect class="cls-1" x="0.13" y="0.19" width="893.93" height="892.8"/></clipPath></defs><title>资源 306</title><g id="图层_2" data-name="图层 2"><g id="图层_4" data-name="图层 4"><g class="cls-2"><path d="M762.83,761.48c7.14-7.14,14.28-14.73,21-22.33,68.34-78.6,109.87-180.88,109.87-293.42,0-212.59-148.72-390.8-347.91-435.46-.9,0-1.34-.44-2.23-.44A67.63,67.63,0,0,0,534.16,8c-.9,0-2.24-.45-3.13-.45-2.68-.44-5.36-.89-8.49-1.34-1.34,0-2.68-.44-4-.44-2.68-.45-5.37-.9-7.6-1.34-1.34,0-2.68-.45-4.46-.45-2.69-.45-4.92-.45-7.6-.89-1.34,0-3.12-.45-4.47-.45-2.23-.45-4.91-.45-7.14-.9-1.34,0-3.12-.44-4.47-.44-2.68,0-4.91-.45-7.59-.45a15.34,15.34,0,0,1-4.46-.44c-2.68,0-5.36-.45-8.05-.45H446.62c-4.92,0-9.83,0-14.74.45h-4a134,134,0,0,0-13.4.89h-1.34c-4.91.44-9.83.89-15.18,1.34a5.61,5.61,0,0,0-2.68.45c-4.91.44-9.38,1.34-14.29,1.78h-.45c-5.36.9-10.72,1.79-15.63,2.68h-.45C167,43.32,15.18,209.91.89,414.46v1.34a114.57,114.57,0,0,0-.44,12.5v3.58c0,4.47-.45,9.38-.45,13.85,0,5.35,0,10.71.45,15.63v3.57c.44,5.36.44,10.27.89,15.63v1.79c.44,4.91.89,9.38,1.34,14.29,0,1.34.45,2.23.45,3.57.44,4.92,1.34,10.27,2.23,15.19,0,.89.45,1.78.45,2.68C6.7,522.54,7.15,527,8,531.48c0,.89.44,1.78.44,2.68.9,4.91,2.24,9.82,3.13,14.73,0,.9.45,1.79.45,2.68,1.34,4.47,2.23,9.38,3.57,13.85,0,.45.45.89.45,1.34,1.34,4.91,3.12,9.82,4.46,14.74.45.89.45,1.78.9,2.23q4.68,14.74,10.72,29.47c.44.45.44,1.35.89,1.79,4,9.83,8.49,19.66,13.4,29a1.54,1.54,0,0,0,.44.89A446.6,446.6,0,0,0,414.46,890.56h.9c4.46.44,8.93.44,12.95.89h3.12c4.92,0,9.38.45,14.3.45a446.63,446.63,0,0,0,271.09-91.56c3.57-2.68,7.15-5.81,10.72-8.48,1.34-.9,2.23-1.79,3.57-2.69,3.58-2.68,6.7-5.8,9.83-8.48,8-6.25,14.74-12.51,21.89-19.21ZM848.57,452c-39.75,7.14-82.62,16.52-86.64,26.79-7.15,18.76,8,20.1,9.38,35.29s-54,52.7-54,65.65,11.61,42.43,11.61,58.95-15.19,22.33-20.1,38.86-18.76,16.53-33,33.05-27.25,24.56-37.52,22.33c-10.72-2.23-10.72-16.52-18.76-39.75-8-23.67-10.72-67-4.91-84.41s-3.58-24.56-13-36.62c-9.38-11.62,3.58-22.33,0-34.84s-18.75-4-42.42-.44-46.9-10.72-67-44.67,30.37-79.94,33.05-91.55c2.24-11.62-3.57-39.75,0-55.38,3.57-15.19,27.25-20.1,24.57-33.06-2.24-12.94,5.8-41.08,7.14-51.8s36.63-18.76,44.66-20.1S613.2,214.38,619,205c3.57-5.36,64.32-23.67,115.68-38.41,70.56,72.35,113.88,170.6,113.88,279.14ZM219.29,114.34c17.86,47.78,39.3,98.25,50.47,100.93,21,4.91,87.09,22.33,98.7,35.28S395.7,280,392.13,293s-61.19,33.95-77.71,50.47-36.62,64.76-29.48,78.6c7.15,14.3-29.47,37.52-14.29,54s33.05,28.14,54,24.57,33.95,9.38,49.58,17.42c15.18,8,24.56,0,30.37,7.14s-5.81,33.95,9.37,37.52,44.67-8,59.85,9.38,16.53,59-8,69.23c-24.56,10.71-50.46,55.37-55.38,75-4.91,20.09-58.95,59.84-63.42,77.71-1.34,5.36-5.36,20.09-10.27,37.51-10.72-3.12-21.44-6.7-31.71-10.27,6.7-18.76,11.16-33.94,10.27-38.85-3.57-15.19-1.34-41.09,8-61.19s8-41.09,3.58-56.28C322,649.83,302.36,637.77,301,626.16s-22.33-16.53-16.53-49.58,7.15-55.38-2.23-64.76-39.75-37.51-54-37.51-42.43-2.24-46-12.95-22.33-64.76-38.86-69.23c-16.52-4.91-31.71-2.23-39.74-28.14-3.13-9.82-21.89-19.2-44.22-26.8,25.46-91.1,83.07-169.71,159.89-222.85Z"/></g></g></g></svg>