<svg xmlns="http://www.w3.org/2000/svg" viewBox="0 0 767.9 880.81"><title>资源 294</title><g id="图层_2" data-name="图层 2"><g id="图层_4" data-name="图层 4"><path d="M645.49,526.59a122.35,122.35,0,0,0-112.91,74.94L321.25,498.11a170.46,170.46,0,0,0,10.49-57.95,96.34,96.34,0,0,0-.5-12L547.57,322.25A122.58,122.58,0,0,0,645,370.71c67.44,0,122.4-55,122.4-122.4S712.44,125.9,645,125.9s-122.41,55-122.41,122.41a121.92,121.92,0,0,0,8.5,45L325.25,394.69a164.84,164.84,0,0,0-142.89-119.4V169.37A85.71,85.71,0,0,0,251.3,85.43c0-47-38.46-85.43-85.43-85.43S80.44,38.47,80.44,85.43a85.71,85.71,0,0,0,68.94,83.94V275.29C65.45,283.78,0,354.22,0,440.16S65.45,597,149.38,605V711.44c-39.47,7.5-68.94,42.47-68.94,83.94,0,47,38.47,85.43,85.43,85.43s85.43-38.47,85.43-85.43a85.7,85.7,0,0,0-68.94-83.94V605c52.45-5,97.92-35,124.4-77.94L524.09,633.5c-.5,5-1,10-1,15,0,67.45,55,122.4,122.4,122.4S767.9,715.94,767.9,648.49c0-67-55-121.9-122.41-121.9Z"/></g></g></svg>