<svg xmlns="http://www.w3.org/2000/svg" viewBox="0 0 769 895"><title>资源 325</title><g id="图层_2" data-name="图层 2"><g id="图层_4" data-name="图层 4"><path d="M769,825.4V542.27H706.62c-21.8-.64-39-19.17-38.38-41.41V387.52c-.59-22.24,16.58-40.77,38.38-41.4H769V242.33a68.86,68.86,0,0,0-27-55.43L586.06,20.7v.16A60.12,60.12,0,0,0,540.93,0H62.38c-.47,0-.93,0-1.39,0S60,0,59.5,0h-28A31.59,31.59,0,0,0,0,31.5v832A31.59,31.59,0,0,0,31.5,895h706A31.59,31.59,0,0,0,769,863.5V825.4ZM385,96a32.09,32.09,0,0,1,32-32h0a32.09,32.09,0,0,1,32,32V287a32.09,32.09,0,0,1-32,32h0a32.09,32.09,0,0,1-32-32ZM257,95a32.09,32.09,0,0,1,32-32h0a32.09,32.09,0,0,1,32,32V287a32.09,32.09,0,0,1-32,32h0a32.09,32.09,0,0,1-32-32ZM129,94c0-17.6,14.4-30,32-30h0c17.6,0,32,12.4,32,30V286a32.09,32.09,0,0,1-32,32h0a32.09,32.09,0,0,1-32-32ZM577,767H129V575H577Zm0-480a32.09,32.09,0,0,1-32,32h0a32.09,32.09,0,0,1-32-32V96a32.09,32.09,0,0,1,32-32h0a32.09,32.09,0,0,1,32,32Z"/></g></g></svg>