<svg xmlns="http://www.w3.org/2000/svg" xmlns:xlink="http://www.w3.org/1999/xlink" viewBox="0 0 895.04 743.34"><defs><style>.cls-1{fill:none;}.cls-2{clip-path:url(#clip-path);}</style><clipPath id="clip-path" transform="translate(0 -0.47)"><rect class="cls-1" x="0.11" width="895.49" height="744.72"/></clipPath></defs><title>资源 287</title><g id="图层_2" data-name="图层 2"><g id="图层_4" data-name="图层 4"><g class="cls-2"><path d="M847.11,642.32a182.52,182.52,0,0,1,34,42.63l9.25,12.59c2.13,4,2.43,9,4.7,12.9v.91a463.84,463.84,0,0,1-70.54-22.91c-26.09-11.37-75.24-33.37-76.76-34.74-127.88-61.28-117-65.23-134.56-78.88A337.84,337.84,0,0,1,589.06,549a207.83,207.83,0,0,1-41.42-56.74c-3.94-11.07-7.73-22.3-11.68-33.37l.16-.91a29.06,29.06,0,0,0-3.64,10.46c-6.68,18.81-5.31,41.26-22.31,46.57-19.41,6.23-30.94-16.23-35.65-26.69a181.07,181.07,0,0,1,2.74-130.62,123.23,123.23,0,0,1,11.22-28.37,28,28,0,0,0-7.74-14.11,175.5,175.5,0,0,1-10.62-25,503.71,503.71,0,0,1-13.5-54c-1.82-7.29-1.51-14-3.79-20.79a177.42,177.42,0,0,0-15.17-30.94c-7.28-13.66-28.82-41-16.53-65.23a28.46,28.46,0,0,1,31.4-16.54,129.82,129.82,0,0,1,57.19,30.19,128.35,128.35,0,0,0,15,15c9,1.51,18.2,3,27.15,4.55A154.61,154.61,0,0,1,596.19,173a378.72,378.72,0,0,1,125.31,159,386.79,386.79,0,0,1,13.65,46c6.83,23.36,14.72,47.48,22.91,69.93a183.56,183.56,0,0,0,11.68,31.41,43.11,43.11,0,0,0,13.35,8.64c11.53,7.89,25,14.26,35.8,23.21a550.63,550.63,0,0,1,54.46,53.55c6.37,7.28,10,17.14,15.78,24.88l-.31,3.49c-6.07,1.21-12,2.28-17.9,3.49-13.19,2.27-24.12.3-36.86,2.58a156.43,156.43,0,0,1-25.49,3.49,2.87,2.87,0,0,0,.76,1.06c3.34,14.56,27.31,28.82,37.78,38.68ZM551.74,183.12a25.35,25.35,0,0,0-13.65-10,9.27,9.27,0,0,0-2.88,0c-12.14-3.64-26.55,7.89-15.48,16.84a125.76,125.76,0,0,1,17.45,41.41,31.76,31.76,0,0,0,14.56-48.24Zm2.73-68.57-6.37-2.43-28.52-5c-1.21-1.22-2.73-3-3.79-4.25a100.13,100.13,0,0,0-8.65-9,156.49,156.49,0,0,0-71.76-37.17,49.45,49.45,0,0,0-52.33,27.77c-15.78,31.09,3.64,63,14.11,80.24,1.67,2.74,3.18,5.16,4.24,7.29l4,7.13a133.76,133.76,0,0,1,11.38,23.66,53.73,53.73,0,0,1,1.81,9.56,86.51,86.51,0,0,0,2,12l3.64,16.39a338.51,338.51,0,0,0,11.68,44.6,222.72,222.72,0,0,0,12.74,29.73,809.66,809.66,0,0,1-131.83,10.62C141.84,325.72,0,273.69,0,209.52V116.68C0,52.51,141.84.47,316.75.47s316.61,52,316.61,116.21v47.48c-10.32-9.26-21.09-18.21-32-26.85a161.32,161.32,0,0,0-46.88-22.76ZM316.75,395.35a811.56,811.56,0,0,0,115.3-8,200.41,200.41,0,0,0,9.25,116.06,107.35,107.35,0,0,0,11.53,20,805.83,805.83,0,0,1-136.08,11.38C141.84,534.77,0,482.73,0,418.56V279.15c0,64.17,141.84,116.2,316.75,116.2Zm0,209c97.09,0,184-16.08,242.12-41.42,3.64,4.1,7.44,8.2,11.38,12,2.88,3,5.61,6.37,8.49,9.71A145.94,145.94,0,0,0,598,604.55a65.29,65.29,0,0,1,7.28,6.52,149.61,149.61,0,0,0,27.46,21.24c-6.67,61.9-145.48,111.5-316,111.5C141.84,743.81,0,691.78,0,627.61V488.35c0,64,141.84,116,316.75,116Z" transform="translate(0 -0.47)"/></g></g></g></svg>