<svg xmlns="http://www.w3.org/2000/svg" xmlns:xlink="http://www.w3.org/1999/xlink" viewBox="0 0 876.38 758.13"><defs><style>.cls-1{fill:none;}.cls-2{clip-path:url(#clip-path);}</style><clipPath id="clip-path" transform="translate(0 -0.96)"><rect class="cls-1" width="877.04" height="760.26"/></clipPath></defs><title>资源 298</title><g id="图层_2" data-name="图层 2"><g id="图层_4" data-name="图层 4"><g class="cls-2"><path d="M631,507.46c-9.91-.81-17.48-1.93-25.1-1.93-65.12-.16-130.31.15-195.48-.31-13.86-.13-28.25-1.09-41.39-4.86-38.09-11-57.83-39.86-55-77.23,2.49-32.45,29.74-60.26,65.71-65.68a311.72,311.72,0,0,1,47.15-3.68q215.58.89,431.16,2.47c5.39,0,10.78.46,18.32.8-2.28,5.52-3.59,9.87-5.73,13.8Q769,556.43,667.6,742c-6.6,12.15-13.92,17.13-28.25,17.07q-204.6-.8-409.24,0c-14.2.06-21.8-4.86-28.55-17Q103.64,565.89,4.52,390.4c-6.1-10.84-5.95-19.19,0-29.9Q99.17,188.74,192.78,16.41C198.72,5.45,205.23.9,218.09,1q214.65.75,429.39.28c10.71,0,17.84,2.43,23.76,12.27,51,85.18,102.61,170,154,255,1.8,3,3,6.44,4.55,10-2,1.22-3.46,2.9-5,2.93-53,.22-105.94.65-158.91-.22-6.08-.09-14-6.66-17.66-12.33q-32.65-50.25-63.38-101.71c-7-11.68-14.94-17.31-29-17.25-78.54.37-157.14.15-235.71-.25-12-.07-18.66,5-24.2,15.14q-55.81,103-112.86,205.25c-5.79,10.4-5.17,18.28.47,28.34q60.72,107.53,120.27,215.69c6.1,11.06,13.51,15.1,26.06,15q105.95-.75,212,0c12.53.06,19.91-4.2,26.17-15,17.9-30.89,37.05-61.1,55.53-91.65,2.39-4,4.17-8.31,7.44-15Z" transform="translate(0 -0.96)"/></g></g></g></svg>