<svg xmlns="http://www.w3.org/2000/svg" viewBox="0 0 894 766.97"><title>资源 322</title><g id="图层_2" data-name="图层 2"><g id="图层_4" data-name="图层 4"><path d="M868,64H71c-6.67,0-7.34,0-8,.07V32A32.09,32.09,0,0,0,31.5,0,32.09,32.09,0,0,0,0,32V735a32.09,32.09,0,0,0,31.5,32A32.09,32.09,0,0,0,63,735V574.92c.66,0,1.33.07,2,.07H192v97a33.87,33.87,0,0,0,32.94,33H735.06A32.06,32.06,0,0,0,767,673.49c0-.17,0-.34,0-.5,0-.34,0-.67,0-1V575h95a32.09,32.09,0,0,0,32-32V96C894,78.39,879.6,64,868,64ZM320,642H255V512h65Zm128,0H383V512h65ZM407.43,342.75q28.62-28.47,68.9-28.47t68.75,28.47l-22.86,23q-19.08-19.08-45.89-19.08t-45.88,19.08Zm68.9,68.9q-16.2,0-16.2-16.2t16.2-16.2q16.2,0,16.21,16.2T476.33,411.65ZM576,642H511V512h65Zm-7.9-322.1q-38-38.16-91.77-38.16-53.91,0-91.91,38.16l-23-23q47.7-47.55,114.93-47.55t114.79,47.55Zm46-46Q557,216.76,476.33,216.76t-137.8,57.09l-23-22.86A227,227,0,0,1,637,251h0ZM704,642H639V512h65Z"/></g></g></svg>