<?xml version="1.0" encoding="utf-8"?>
<!-- Generator: Adobe Illustrator 21.1.0, SVG Export Plug-In . SVG Version: 6.00 Build 0)  -->
<svg version="1.1" id="图层_1" xmlns="http://www.w3.org/2000/svg" xmlns:xlink="http://www.w3.org/1999/xlink" x="0px" y="0px"
	 viewBox="0 0 18 18" style="enable-background:new 0 0 18 18;" xml:space="preserve">
<path d="M1.5,6.2c0,0,1.4-4.3,6.2-5.1c0,0-0.7,1-1.4,2.7c0,0-1.5-0.2-1.8,1.3C4.4,5.1,2.9,5.4,1.5,6.2L1.5,6.2z M4.5,6
	c0,0-2,0.4-3.3,1.4c0,0-0.7,2.8,0.9,5.5c0,0,1.7,0.4,3.3,0.2c0,0,0-1,0.7-1.6c0,0-0.8-2.1-0.6-4.4C5.5,7.1,4.7,6.9,4.5,6L4.5,6z
	 M2.8,13.8c0,0,2.1,3.3,7.1,2.8c0,0-1.8-1.7-2.1-2.2c0,0-1.4,0.3-1.9-0.6C5.9,13.8,4.1,14.1,2.8,13.8L2.8,13.8z M8.5,14
	c0,0,0.3-0.2,0.5-1c0,0,2.7-1,4.4-3.5c0,0,0.6,0,0.9-0.3c0,0,1.3,1.2,1.9,2.8c0,0-1.2,3.4-5.1,4.5C11.1,16.5,9.3,15.3,8.5,14L8.5,14
	z M15.5,4.6c0,0,2,2.3,1.1,6.2c0,0-1.1-1.8-1.7-2.2c0,0,0.5-1-0.1-1.7C14.9,6.9,15.4,5.8,15.5,4.6L15.5,4.6z M7,4.1
	c0,0,0.6,0.5,0.6,0.9c0,0,2.5,0.2,4.6,1.5c0,0,1-0.8,1.9-0.2c0,0,0.5-0.9,0.6-2.7c0,0-1.9-2.5-5.9-2.6C8.9,1,7.3,3.1,7,4.1L7,4.1z
	 M6.4,7.1c0,0,1.2,0.1,1.4-1.3c0,0,2.3,0.2,4.1,1.3c0,0-0.4,1.4,0.7,2.1c0,0-1.2,1.7-3.7,3c0,0-0.5-1.2-1.9-1
	C6.9,11.2,6.4,10.1,6.4,7.1L6.4,7.1z M6.4,7.1"/>
</svg>
