<svg xmlns="http://www.w3.org/2000/svg" viewBox="0 0 833 833"><title>资源 320</title><g id="图层_2" data-name="图层 2"><g id="图层_4" data-name="图层 4"><path d="M801,0H352V128H224V0H32A32.09,32.09,0,0,0,0,32V801a32.09,32.09,0,0,0,32,32H801a32.09,32.09,0,0,0,32-32V32A32.09,32.09,0,0,0,801,0ZM224,513H96V385H224V257H96V129H224V257H352V385H224Zm175.33,80.54-76.56,46.94,76.56,48v49.19L289.46,661.86V619.79L399.33,544ZM505,758H458l40-239h47Zm199.37-96.14L594.5,738V688.81l76.78-48L594.5,593.54V544.7l109.87,75.44Z"/></g></g></svg>