<?xml version="1.0" encoding="utf-8"?>
<!-- Generator: Adobe Illustrator 22.1.0, SVG Export Plug-In . SVG Version: 6.00 Build 0)  -->
<svg version="1.1" id="图层_1" xmlns="http://www.w3.org/2000/svg" xmlns:xlink="http://www.w3.org/1999/xlink" x="0px" y="0px"
	 viewBox="0 0 22 22" style="enable-background:new 0 0 22 22;" xml:space="preserve">
<g>
	<g>
		<path d="M11,1.1c0.6,0,1.2,0.1,1.8,0.4c0.5,0.2,1,0.6,1.4,1s0.7,0.9,1,1.4c0.2,0.5,0.4,1.1,0.4,1.8l0,10c0,0.6-0.1,1.3-0.4,2
			c-0.2,0.7-0.6,1.3-1.1,1.8c-0.5,0.5-1.1,1-1.8,1.4c-0.7,0.4-1.5,0.5-2.4,0.5c-0.9,0-1.7-0.2-2.4-0.5c-0.7-0.3-1.3-0.8-1.8-1.3
			c-0.5-0.6-0.8-1.2-1.1-1.8c-0.2-0.7-0.4-1.3-0.4-1.9l0-8.9c0-0.2,0.1-0.3,0.3-0.4C4.7,6.3,4.8,6.3,5,6.3c0.1,0,0.3,0.1,0.5,0.2
			c0.2,0.1,0.3,0.2,0.3,0.4l0,8.9c0,0.5,0.1,0.9,0.2,1.4c0.2,0.5,0.4,0.9,0.7,1.3c0.3,0.4,0.7,0.7,1.2,0.9c0.5,0.2,1.1,0.4,1.8,0.4
			c0.6,0,1.2-0.1,1.7-0.4c0.5-0.2,0.9-0.6,1.3-1c0.3-0.4,0.6-0.8,0.8-1.3c0.2-0.5,0.3-0.9,0.3-1.4l0-10c0-0.5-0.1-0.9-0.2-1.2
			c-0.2-0.4-0.4-0.7-0.6-0.9c-0.3-0.2-0.6-0.4-0.9-0.6c-0.4-0.1-0.7-0.2-1.1-0.2c-0.7,0-1.3,0.3-1.8,0.7C8.7,4,8.5,4.7,8.5,5.7
			l0,9.1c0,0.4,0.1,0.7,0.4,1c0.2,0.2,0.5,0.4,0.8,0.4c0.4,0,0.7-0.1,0.9-0.4c0.2-0.3,0.3-0.6,0.3-0.9l0-8.2c0-0.2,0.1-0.3,0.3-0.4
			C11.4,6,11.6,6,11.8,6c0.2,0,0.3,0.1,0.5,0.2c0.2,0.1,0.3,0.2,0.3,0.4l0,8.2c0,0.6-0.1,1.2-0.2,1.6c-0.2,0.4-0.4,0.7-0.7,1
			c-0.3,0.2-0.6,0.4-0.9,0.5c-0.3,0.1-0.7,0.1-1.1,0.2c-0.3,0-0.6,0-0.9-0.1c-0.3-0.1-0.6-0.3-0.9-0.5c-0.3-0.2-0.5-0.6-0.7-1
			c-0.2-0.4-0.3-0.9-0.3-1.5c0-0.3,0-0.6,0-0.9c0-0.2,0-0.4,0-0.6c0-0.2,0-0.3,0-0.3l0-7.3c0-0.6,0.1-1.2,0.3-1.8
			c0.2-0.6,0.5-1,0.8-1.4c0.4-0.4,0.8-0.7,1.3-1C9.8,1.3,10.3,1.1,11,1.1L11,1.1z M11,1.1"/>
	</g>
</g>
</svg>
