<svg xmlns="http://www.w3.org/2000/svg" xmlns:xlink="http://www.w3.org/1999/xlink" viewBox="0 0 827.57 827.57"><defs><style>.cls-1{fill:none;}.cls-2{clip-path:url(#clip-path);}</style><clipPath id="clip-path" transform="translate(0 -0.68)"><rect class="cls-1" x="0.13" width="828.12" height="829.31"/></clipPath></defs><title>资源 266</title><g id="图层_2" data-name="图层 2"><g id="图层_4" data-name="图层 4"><g class="cls-2"><path d="M722.2,617.5a104.88,104.88,0,0,0-60.06,18.79l-156.49-113a184.21,184.21,0,0,0,23.79-90.81c0-5.89-.29-11.71-.83-17.45l160.26-94.67a64.26,64.26,0,1,0-26.69-32L519.54,372.61A185.61,185.61,0,0,0,435.6,271.43l28.51-142.55c2.05.2,4.12.31,6.22.31a64.28,64.28,0,1,0-44.61-18L397,255A185.38,185.38,0,0,0,249.3,273.69L160.56,195.6a84.83,84.83,0,1,0-26.85,31.14L216,299.19a185,185,0,0,0,9.4,275l-73.14,78a84.71,84.71,0,1,0,27.79,30.47l80.07-85.43a185.17,185.17,0,0,0,221.44-40.64l151.75,109.6A105.38,105.38,0,1,0,722.2,617.5Z" transform="translate(0 -0.68)"/></g></g></g></svg>