<?xml version="1.0" encoding="utf-8"?>
<!-- Generator: Adobe Illustrator 21.1.0, SVG Export Plug-In . SVG Version: 6.00 Build 0)  -->
<svg version="1.1" id="图层_1" xmlns="http://www.w3.org/2000/svg" xmlns:xlink="http://www.w3.org/1999/xlink" x="0px" y="0px"
	 viewBox="0 0 18 18" style="enable-background:new 0 0 18 18;" xml:space="preserve">
<g>
	<path d="M11.6,5.1c-0.1-0.2-0.3-0.3-0.6-0.3H7.1c-0.2,0-0.5,0.1-0.6,0.3l-2,3.6c-0.1,0.2-0.1,0.4,0,0.6l2,3.6
		c0.1,0.2,0.3,0.3,0.6,0.3H11c0.2,0,0.5-0.1,0.6-0.3l2-3.6c0.1-0.2,0.1-0.4,0-0.6L11.6,5.1z"/>
	<path d="M16.5,8.5l-3.4-6C13,2.2,12.7,2,12.3,2H5.8C5.4,2,5.1,2.2,4.9,2.5l-3.4,6c-0.2,0.3-0.2,0.7,0,0.9l3.4,6
		C5.1,15.8,5.4,16,5.8,16h4.1c0.3,0,0.6-0.2,0.8-0.4l0.5-0.9H6.5c-0.4,0-0.7-0.2-0.9-0.5L3.1,9.5c-0.2-0.3-0.2-0.6,0-0.9l2.5-4.7
		c0.2-0.3,0.5-0.5,0.9-0.5h5.1c0.4,0,0.7,0.2,0.9,0.5L15,8.5c0.2,0.3,0.2,0.6,0,0.9L14,11.4c-0.1,0.3-0.1,0.6,0,0.9l0.5,0.9l2-3.7
		C16.7,9.2,16.7,8.8,16.5,8.5z"/>
</g>
</svg>
