<svg xmlns="http://www.w3.org/2000/svg" viewBox="0 0 832 832"><defs><style>.cls-1{fill:#050505;}</style></defs><title>资源 318</title><g id="图层_2" data-name="图层 2"><g id="图层_4" data-name="图层 4"><path class="cls-1" d="M788,0H20C14.33,0,0,14.33,0,32V800a32,32,0,0,0,32,32H800a32,32,0,0,0,32-32V32C832,14.33,817.67,0,788,0ZM337.43,601.48H114.87v-92h173l38-49.4L388,536ZM282,325H214.87v75l-131-121,131-121v75h116.7L544.1,509.52h173v92H494.57Zm335.09,75V325H550l-49.53,64.43c-18.8-24.48-40.91-53.37-60-78.34l60-78h116.7V158l131,121Z"/></g></g></svg>