<?xml version="1.0" encoding="utf-8"?>
<!-- Generator: Adobe Illustrator 21.1.0, SVG Export Plug-In . SVG Version: 6.00 Build 0)  -->
<svg version="1.1" id="图层_1" xmlns="http://www.w3.org/2000/svg" xmlns:xlink="http://www.w3.org/1999/xlink" x="0px" y="0px"
	 viewBox="0 0 18 18" style="enable-background:new 0 0 18 18;" xml:space="preserve">
<g>
	<path d="M7,10H2c-0.5,0-1,0.5-1,1v5c0,0.5,0.5,1,1,1h5c0.5,0,1-0.5,1-1v-5C8,10.5,7.5,10,7,10z"/>
	<path d="M7,1H2C1.5,1,1,1.5,1,2v5c0,0.5,0.5,1,1,1h5c0.5,0,1-0.5,1-1V2C8,1.5,7.5,1,7,1z"/>
	<path d="M16,10h-5c-0.5,0-1,0.5-1,1v5c0,0.5,0.5,1,1,1h5c0.5,0,1-0.5,1-1v-5C17,10.5,16.5,10,16,10z"/>
	<path d="M16,1h-5c-0.5,0-1,0.5-1,1v5c0,0.5,0.5,1,1,1h5c0.5,0,1-0.5,1-1V2C17,1.5,16.5,1,16,1z M16,6.5C16,6.8,15.8,7,15.5,7h-4
		C11.2,7,11,6.8,11,6.5v-4C11,2.2,11.2,2,11.5,2h4C15.8,2,16,2.2,16,2.5V6.5z"/>
</g>
</svg>
