<?xml version="1.0" encoding="utf-8"?>
<!-- Generator: Adobe Illustrator 21.1.0, SVG Export Plug-In . SVG Version: 6.00 Build 0)  -->
<svg version="1.1" id="图层_1" xmlns="http://www.w3.org/2000/svg" xmlns:xlink="http://www.w3.org/1999/xlink" x="0px" y="0px"
	 viewBox="0 0 18 18" style="enable-background:new 0 0 18 18;" xml:space="preserve">
<g>
	<path d="M15,3h-0.8H14v1c0,0.6-0.4,1-1,1H5C4.4,5,4,4.6,4,4V3H3C2.5,3,2,3.5,2,4v12c0,0.5,0.5,1,1,1h4v0h5h3c0.6,0,1-0.4,1-1V4
		C16,3.4,15.6,3,15,3z M4,10h6v1H4V10z M12,14H4v-1h8V14z M14,8H4V7h10V8z"/>
	<path d="M6,4h6c0.5,0,1-0.5,1-1V2c0-0.5-0.5-1-1-1H6C5.5,1,5,1.5,5,2v1C5,3.5,5.5,4,6,4z"/>
</g>
</svg>
