<svg xmlns="http://www.w3.org/2000/svg" viewBox="0 0 830.6 829"><title>资源 311</title><g id="图层_2" data-name="图层 2"><g id="图层_4" data-name="图层 4"><path d="M818.61,689.9,790.4,673.45A152.24,152.24,0,0,0,793,647a154.14,154.14,0,0,0-2.57-26.49L818.61,604a24.33,24.33,0,0,0,8.76-33.12L803.44,529a24.15,24.15,0,0,0-32.91-9l-28.42,16.45A145.69,145.69,0,0,0,697,509.78V489.26a23.94,23.94,0,0,0-23.93-24.14H624.81a24.07,24.07,0,0,0-23.93,24.14v20.52c-16.88,6-31.84,15.38-45.09,26.7L527.37,520a23.94,23.94,0,0,0-32.9,9L470.32,571.1a24.38,24.38,0,0,0,8.76,33.12l28.21,16.45a152.24,152.24,0,0,0-2.57,26.5,154.24,154.24,0,0,0,2.57,26.49l-28.21,16.45a24.34,24.34,0,0,0-8.76,33.12l23.94,41.88a24.13,24.13,0,0,0,32.9,9l28.42-16.46a145.52,145.52,0,0,0,45.08,26.71v20.52A23.94,23.94,0,0,0,624.59,829h48.08a24.07,24.07,0,0,0,23.93-24.14V784.34c16.88-6,31.84-15.38,45.09-26.71l28.41,16.46a24,24,0,0,0,32.91-9l23.93-41.88C834,711.27,830.15,696.53,818.61,689.9ZM648.85,731a84,84,0,1,1,83.95-84A84,84,0,0,1,648.85,731Z"/><path d="M477.75,462V29.57A29.64,29.64,0,0,0,448.21,0H29.54A29.64,29.64,0,0,0,0,29.57V735.43A29.64,29.64,0,0,0,29.54,765H431a247,247,0,0,1,46.8-303ZM238.87,573.75c-28.66,0-47.77-19.12-47.77-47.81,0-26.12,21.67-47.82,47.78-47.82,28.66,0,47.77,19.13,47.77,47.81C286.65,552.06,265,573.75,238.87,573.75ZM382.2,286.88H95.55V239.06H382.2Zm0-143.44H95.55V95.62H382.2Z"/></g></g></svg>