<?xml version="1.0" encoding="utf-8"?>
<!-- Generator: Adobe Illustrator 22.0.1, SVG Export Plug-In . SVG Version: 6.00 Build 0)  -->
<svg version="1.1" id="图层_1" xmlns="http://www.w3.org/2000/svg" xmlns:xlink="http://www.w3.org/1999/xlink" x="0px" y="0px"
	 viewBox="0 0 18 18" style="enable-background:new 0 0 18 18;" xml:space="preserve">
<path d="M15,9.2V8.4V5.2V5h0.2H17V1h-4v1.4V3h-1.2H9.2H7.8H5V1H1v4h2v2.8v1.4v2.6v0.8V13H1v4h4v-2h8v2h4v-4h-2v-1V9.2z M4,5h1V4h1.8
	L4,6.8V5z M4,8.2L8.2,4h2.6L4,10.8V8.2z M4,13v-0.8L12.2,4H13v1h0.8L5,13.8V13H4z M14,13h-1v1h-2.8l3.8-3.8V13z M14,8.8L8.8,14H6.2
	L14,6.2V8.8z"/>
</svg>
