<?xml version="1.0" encoding="utf-8"?>
<!-- Generator: Adobe Illustrator 21.1.0, SVG Export Plug-In . SVG Version: 6.00 Build 0)  -->
<svg version="1.1" id="图层_1" xmlns="http://www.w3.org/2000/svg" xmlns:xlink="http://www.w3.org/1999/xlink" x="0px" y="0px"
	 viewBox="0 0 18 18" style="enable-background:new 0 0 18 18;" xml:space="preserve">
<path d="M14,11c-0.1,0-0.2,0-0.4,0l-2.5-5C11.7,5.5,12,4.8,12,4c0-1.7-1.3-3-3-3S6,2.3,6,4c0,0.8,0.3,1.5,0.8,2.1l-2.5,5
	c-0.1,0-0.2,0-0.4,0c-1.7,0-3,1.3-3,3s1.3,3,3,3c1.3,0,2.4-0.8,2.8-2h4.4c0.4,1.2,1.5,2,2.8,2c1.7,0,3-1.3,3-3S15.7,11,14,11z
	 M6.2,11.9l2.5-5C8.8,7,8.9,7,9,7s0.2,0,0.4,0l2.5,5c-0.3,0.3-0.5,0.7-0.7,1.1H6.8C6.7,12.6,6.5,12.2,6.2,11.9z"/>
</svg>
