<svg xmlns="http://www.w3.org/2000/svg" xmlns:xlink="http://www.w3.org/1999/xlink" viewBox="0 0 827.62 827.62"><defs><style>.cls-1{fill:none;}.cls-2{clip-path:url(#clip-path);}</style><clipPath id="clip-path"><rect class="cls-1" x="0.15" width="827.62" height="828.8"/></clipPath></defs><title>资源 277</title><g id="图层_2" data-name="图层 2"><g id="图层_4" data-name="图层 4"><g class="cls-2"><path d="M752.38,125.4H702.23V75.24C702.23,32.6,669.62,0,627,0H200.64C158,0,125.4,32.6,125.4,75.24V250.8H75.24C32.6,250.8,0,283.4,0,326V752.38C0,795,32.6,827.62,75.24,827.62H501.59c42.63,0,75.24-32.6,75.24-75.24V702.23H752.38c42.64,0,75.24-32.61,75.24-75.24V200.64c0-42.64-32.6-75.24-75.24-75.24ZM175.56,75.24c0-15,10-25.08,25.08-25.08H627c15,0,25.08,10,25.08,25.08V125.4H326c-42.63,0-75.23,32.6-75.23,75.24V250.8H175.56ZM301,576.83H526.67v75.24H326C311,652.07,301,642,301,627Zm0-50.16V301H501.59c15.05,0,25.08,10,25.08,25.07V526.67ZM175.56,301H250.8V526.67H200.64c-15,0-25.08-10-25.08-25.08Zm326-50.16H301V200.64c0-15,10-25.08,25.07-25.08h326v326c0,15.05-10,25.08-25.08,25.08H576.83V326c0-42.63-32.61-75.23-75.24-75.23Zm25.08,501.58c0,15-10,25.08-25.08,25.08H75.24c-15,0-25.08-10-25.08-25.08V326c0-15,10-25.07,25.08-25.07H125.4V501.59c0,42.63,32.6,75.24,75.24,75.24H250.8V627c0,42.63,32.6,75.24,75.23,75.24H526.67ZM777.46,627c0,15-10,25.08-25.08,25.08H576.83V576.83H627c42.63,0,75.24-32.61,75.24-75.24v-326h50.15c15,0,25.08,10,25.08,25.08Z"/></g></g></g></svg>