<?xml version="1.0" encoding="utf-8"?>
<!-- Generator: Adobe Illustrator 21.1.0, SVG Export Plug-In . SVG Version: 6.00 Build 0)  -->
<svg version="1.1" id="图层_1" xmlns="http://www.w3.org/2000/svg" xmlns:xlink="http://www.w3.org/1999/xlink" x="0px" y="0px"
	 viewBox="0 0 18 18" style="enable-background:new 0 0 18 18;" xml:space="preserve">
<g>
	<path d="M7.5,8.7C6.9,8.4,6.2,8.1,5.3,8.1c-0.1,0-0.2,0-0.3,0C4.2,8.2,3.4,8.4,2.9,8.6C2.7,8.7,2.6,8.7,2.4,8.8L0.9,14
		c1.1-0.5,2-0.6,2.8-0.6c1.2,0,2.1,0.5,2.9,1c0.3-1,1.3-4.6,1.5-5.3C7.9,9,7.7,8.8,7.5,8.7L7.5,8.7z M9.1,9.8l-1.5,5.2
		c0,0,1.7,1.1,3,1.1c0.8,0,1.8-0.2,3-0.7l1.4-5c-1.1,0.4-2,0.5-2.8,0.5C10.5,10.8,9.5,10.1,9.1,9.8L9.1,9.8z M5.6,6.9
		c1.2,0,2,0.5,2.8,1c0.3-1,1.2-4.1,1.5-5.2v0c0,0-1.1-0.6-1.8-0.8C7.8,1.8,7.4,1.8,7,1.8h0C6.2,1.8,5.3,2,4.2,2.4L2.8,7.6
		C3.9,7.1,4.8,6.9,5.6,6.9L5.6,6.9z M14,4.5c-1.6,0-2.7-0.7-3.2-1.1L9.4,8.6c0,0,0,0,0,0c0.8,0.6,1.9,1,3.2,1c0.9,0,1.8-0.2,2.8-0.7
		v0c0,0,0,0,0,0l1.5-5.1C15.8,4.3,14.8,4.5,14,4.5L14,4.5z M14,4.5"/>
</g>
</svg>
