<?xml version="1.0" encoding="utf-8"?>
<!-- Generator: Adobe Illustrator 21.1.0, SVG Export Plug-In . SVG Version: 6.00 Build 0)  -->
<svg version="1.1" id="图层_1" xmlns="http://www.w3.org/2000/svg" xmlns:xlink="http://www.w3.org/1999/xlink" x="0px" y="0px"
	 viewBox="0 0 18 18" style="enable-background:new 0 0 18 18;" xml:space="preserve">
<path d="M9,1C4.6,1,1,4.6,1,9s3.6,8,8,8s8-3.6,8-8S13.4,1,9,1z M7.5,13.5c-0.5,0-0.9-0.2-0.9-0.8c0-0.7,0.5-1.9,0.6-2.1l1-2.6
	c0.1-0.3,0-0.4-0.1-0.4c-0.5,0-1.2,1.3-1.5,1.3c-0.1,0-0.2-0.1-0.2-0.2c0-0.3,0.6-0.9,0.8-1.1c0.6-0.6,1.3-1,2.2-1
	c0.6,0,1.3,0.4,0.8,1.8l-1,2.8c-0.1,0.2-0.2,0.6-0.2,0.8c0,0.1,0.1,0.2,0.2,0.2c0.4,0,1.2-1.2,1.4-1.2c0.1,0,0.2,0.1,0.2,0.2
	C10.7,11.7,9,13.5,7.5,13.5z M10,6.1c-0.6,0-1-0.4-1-1C9,4.5,9.6,4,10.2,4c0.6,0,1,0.4,1,1C11.2,5.7,10.6,6.1,10,6.1z"/>
</svg>
