<svg xmlns="http://www.w3.org/2000/svg" xmlns:xlink="http://www.w3.org/1999/xlink" viewBox="0 0 816.23 788.02"><defs><style>.cls-1{fill:none;}.cls-2{clip-path:url(#clip-path);}</style><clipPath id="clip-path" transform="translate(0 -0.25)"><rect class="cls-1" width="817.04" height="789.38"/></clipPath></defs><title>资源 297</title><g id="图层_2" data-name="图层 2"><g id="图层_4" data-name="图层 4"><g class="cls-2"><path d="M93.83,190.68a20.34,20.34,0,0,1,27.64,9c1.47,2.72,119.81,230,325.89,354.16C590,639.93,735.55,708,814.93,743.18c7.12-27.85-14.45-40-76.23-101.78-36.24-36.24-89-103-144.94-171.12C537.42,490,467.89,491,453.65,491h-1.26a20.63,20.63,0,0,1,0-41.26h.21a553.45,553.45,0,0,0,71.84-5.66,363.17,363.17,0,0,0,40.63-8.38c-14-16.75-28.06-33.3-41.88-49-28.49,3.35-58.44,4.39-85.25,4.39-49,0-88.18-3.55-91.31-4a20.35,20.35,0,0,1-18.44-22.41,20.65,20.65,0,0,1,22.42-18.65c1,0,69.74,6.5,138,2.31-23.25-24.71-45.44-46.5-65.76-62.62C325.47,207.43,182.63,145.65,88,149.84L34.35,11.61A17.87,17.87,0,0,0,12.15,1.13,17.62,17.62,0,0,0,1.26,24.38L54.87,163.45s-148.28,217,142.84,436.48C453.86,793.24,714.4,805.8,787.92,776.07,705.39,739.2,564.24,672.18,425.79,588.82,209,458.34,89.43,228,84.4,218.11a21.15,21.15,0,0,1,9.43-27.43Z" transform="translate(0 -0.25)"/></g></g></g></svg>