<?xml version="1.0" encoding="utf-8"?>
<!-- Generator: Adobe Illustrator 21.1.0, SVG Export Plug-In . SVG Version: 6.00 Build 0)  -->
<svg version="1.1" id="图层_1" xmlns="http://www.w3.org/2000/svg" xmlns:xlink="http://www.w3.org/1999/xlink" x="0px" y="0px"
	 viewBox="0 0 18 18" style="enable-background:new 0 0 18 18;" xml:space="preserve">
<g>
	<path d="M1,17h3V8.4C4,8.1,3.9,8,3.7,7.9l-2-0.7C1.3,7.1,1,7.4,1,7.7V17z"/>
	<rect x="14" y="9" width="3" height="8"/>
	<polygon points="14,7 14,8 17,8 17,6 	"/>
	<path d="M11,2.8h-1V1H8v1.8H7V4H5v1v12h8V5V4h-2V2.8z M8,16H7v-2h1V16z M8,12H7v-2h1V12z M8,8H7V6h1V8z M11,16H9v-2h2V16z M11,12H9
		v-2h2V12z M11,8H9V6h2V8z"/>
</g>
</svg>
