<svg xmlns="http://www.w3.org/2000/svg" viewBox="0 0 894.06 769"><title>资源 314</title><g id="图层_2" data-name="图层 2"><g id="图层_4" data-name="图层 4"><path d="M841.58,306.91A179.2,179.2,0,1,0,612.47,580.74V739.3a26.4,26.4,0,0,0,41,22l61.36-40.88,61.36,40.88a26.18,26.18,0,0,0,14.64,4.4,26.36,26.36,0,0,0,26.4-26.4V580.67a179.19,179.19,0,0,0,24.32-273.76ZM766.06,693l-51.2-34.16L663.67,693v-87.6a179.14,179.14,0,0,0,51.19,7.36,182.12,182.12,0,0,0,51.2-7.36Zm-51.2-131.36a128.07,128.07,0,0,1-128-128c0-70.55,57.44-128,128-128s128,57.44,128,128S785.42,561.62,714.86,561.62Z"/><path d="M714.86,356.11a76.8,76.8,0,1,0,76.8,76.8A76.92,76.92,0,0,0,714.86,356.11Zm0,102.4A25.19,25.19,0,0,1,696.78,451a25.56,25.56,0,1,1,18.08,7.53Z"/><path d="M475,424c0-117,86-205,163-213V32A32.09,32.09,0,0,0,606,0H32A32.09,32.09,0,0,0,0,32V737a32.09,32.09,0,0,0,32,32H551V600.31C496.87,557.93,475,494.68,475,424ZM126,130H512v64H126ZM382,576H126V512H382Zm1-191H126V321H383Z"/></g></g></svg>