<?xml version="1.0" encoding="utf-8"?>
<!-- Generator: Adobe Illustrator 21.1.0, SVG Export Plug-In . SVG Version: 6.00 Build 0)  -->
<svg version="1.1" id="图层_1" xmlns="http://www.w3.org/2000/svg" xmlns:xlink="http://www.w3.org/1999/xlink" x="0px" y="0px"
	 viewBox="0 0 18 18" style="enable-background:new 0 0 18 18;" xml:space="preserve">
<path d="M16,2h-5c-0.5,0-1,0.5-1,1v5H8V3.5C8,3.2,7.8,3,7.5,3H4V2.5C4,2.2,3.8,2,3.5,2h-2C1.2,2,1,2.2,1,2.5v3C1,5.8,1.2,6,1.5,6h2
	C3.8,6,4,5.8,4,5.5V5h2v3H4V7.5C4,7.2,3.8,7,3.5,7h-2C1.2,7,1,7.2,1,7.5v3C1,10.8,1.2,11,1.5,11h2C3.8,11,4,10.8,4,10.5V10h2v3H4
	v-0.5C4,12.2,3.8,12,3.5,12h-2C1.2,12,1,12.2,1,12.5v3C1,15.8,1.2,16,1.5,16h2C3.8,16,4,15.8,4,15.5V15h3.5C7.8,15,8,14.8,8,14.5V10
	h2v5c0,0.5,0.5,1,1,1h5c0.5,0,1-0.5,1-1V3C17,2.5,16.5,2,16,2z M15,6h-3V4h3V6z M15,10h-3V8h3V10z M15,14h-3v-2h3V14z"/>
</svg>
