<?xml version="1.0" encoding="utf-8"?>
<!-- Generator: Adobe Illustrator 21.1.0, SVG Export Plug-In . SVG Version: 6.00 Build 0)  -->
<svg version="1.1" id="图层_1" xmlns="http://www.w3.org/2000/svg" xmlns:xlink="http://www.w3.org/1999/xlink" x="0px" y="0px"
	 viewBox="0 0 18 18" style="enable-background:new 0 0 18 18;" xml:space="preserve">
<path d="M17,3.5C17,2.1,15.9,1,14.5,1S12,2.1,12,3.5c0,0.9,0.4,1.6,1.1,2.1L11.8,10c-0.1,0-0.2,0-0.3,0c-0.2,0-0.4,0-0.7,0.1l-2-2.8
	C8.9,7.1,9,6.8,9,6.5C9,5.1,7.9,4,6.5,4S4,5.1,4,6.5c0,0.8,0.4,1.6,1,2L3.9,12c-0.1,0-0.2,0-0.4,0C2.1,12,1,13.1,1,14.5
	C1,15.9,2.1,17,3.5,17S6,15.9,6,14.5c0-0.7-0.3-1.3-0.8-1.8L6.5,9c0,0,0,0,0,0c0.5,0,1-0.2,1.4-0.4l1.7,2.3c-0.4,0.4-0.6,1-0.6,1.6
	c0,1.4,1.1,2.5,2.5,2.5s2.5-1.1,2.5-2.5c0-0.7-0.3-1.4-0.8-1.8L14.5,6C15.9,6,17,4.9,17,3.5z"/>
</svg>
