<?xml version="1.0" encoding="utf-8"?>
<!-- Generator: Adobe Illustrator 21.1.0, SVG Export Plug-In . SVG Version: 6.00 Build 0)  -->
<svg version="1.1" id="图层_1" xmlns="http://www.w3.org/2000/svg" xmlns:xlink="http://www.w3.org/1999/xlink" x="0px" y="0px"
	 viewBox="0 0 18 18" style="enable-background:new 0 0 18 18;" xml:space="preserve">
<g>
	<path d="M2,14h4V7c0-0.6-0.4-1-1-1H3C2.5,6,2,6.4,2,7V14z"/>
	<rect x="1" y="15" width="16" height="2"/>
	<path d="M7,14h4V4c0-0.5-0.4-1-1-1H8C7.4,3,7,3.5,7,4V14z"/>
	<path d="M12,14h4V2c0-0.5-0.4-1-1-1h-2c-0.6,0-1,0.5-1,1V14z"/>
</g>
</svg>
