<?xml version="1.0" encoding="utf-8"?>
<!-- Generator: Adobe Illustrator 22.0.1, SVG Export Plug-In . SVG Version: 6.00 Build 0)  -->
<svg version="1.1" id="图层_1" xmlns="http://www.w3.org/2000/svg" xmlns:xlink="http://www.w3.org/1999/xlink" x="0px" y="0px"
	 viewBox="0 0 18 18" style="enable-background:new 0 0 18 18;" xml:space="preserve">
<g>
	<path d="M9,13.5C9,11,11,9,13.5,9c0.2,0,0.3,0,0.5,0.1V8.2V8V7V6V2c0-0.5-0.5-1-1-1H9H7H2C1.5,1,1,1.5,1,2v14c0,0.5,0.5,1,1,1h7
		h1.7C9.7,16.2,9,14.9,9,13.5z M7,10H4c-0.5,0-1-0.5-1-1s0.5-1,1-1h3c0.5,0,1,0.5,1,1S7.5,10,7,10z M4,6C3.5,6,3,5.5,3,5s0.5-1,1-1
		h7c0.5,0,1,0.5,1,1s-0.5,1-1,1H4z"/>
	<path d="M13.7,10.1c-1.9,0-3.5,1.6-3.5,3.5s1.6,3.5,3.5,3.5s3.5-1.6,3.5-3.5C17.2,11.6,15.6,10.1,13.7,10.1z M15.1,15.6L13.7,15
		l-1.4,0.6l0.2-1.5l-1-1.1l1.5-0.3l0.7-1.3l0.7,1.3l1.5,0.3l-1,1.1L15.1,15.6z"/>
</g>
</svg>
