<svg xmlns="http://www.w3.org/2000/svg" viewBox="0 0 862.94 795.53"><defs><style>.cls-1{fill:#020202;}</style></defs><title>资源 283</title><g id="图层_2" data-name="图层 2"><g id="图层_4" data-name="图层 4"><path class="cls-1" d="M462.63,550.11H412.19V795.53h52.69c52.24,0,87.35-39.42,87.35-123.77S517.12,550.11,462.63,550.11Zm-2.45,200.75h-7.65V594.78h7.65c30.26,0,50.71,18.28,50.71,77S490.44,750.86,460.18,750.86Z"/><path class="cls-1" d="M689.26,665.47V664c14.56-7.53,23.51-31,23.51-53,0-46.87-28.76-60.87-65.8-60.87H585.9V795.53h66.16c38.8,0,69.5-22.37,69.5-72.29C721.56,690.45,707.49,672,689.26,665.47Zm-63-72.55h19.15c18.8,0,27.94,7.35,27.94,26.26,0,17.85-8.66,29.23-28.23,29.23H626.24Zm22.53,159.8H626.24V689.36h22.53c22.19,0,33.35,8.76,33.35,30.29C682.12,742,670.76,752.72,648.77,752.72Z"/><path class="cls-1" d="M828,749c-8.06,0-20.17,1.37-29.12,2.75,28.46-40.5,55.8-83.4,55.8-123.67,0-46.12-23.38-76.2-57.65-76.2-24.87,0-41.1,12.71-58.2,37.88l21.81,29.87c8.69-12.62,18.51-24.32,30.88-24.32,15.29,0,24.63,12.76,24.63,35.88,0,34.24-31.18,75.08-75.42,132.61v31.73H862.94V749Z"/><path class="cls-1" d="M316.41,326.43c174.63,0,316.4-52.06,316.4-116.67v-93.1C632.81,52.06,491,0,316.41,0S0,52.06,0,116.66v93.1C0,274,141.45,326.43,316.41,326.43Z"/><path class="cls-1" d="M316.41,536.19c17.59,0,34.85-.52,51.67-1.54,0-13.33-.23-21.49-.23-21.49s13.74-.17,48.22-.17h93c74.37-21.31,123.74-55.92,123.74-93.46V279.69c0,64.6-141.77,116.66-316.4,116.66S0,344.29,0,279.69V419.53C0,483.75,141.45,536.19,316.41,536.19Z"/><path class="cls-1" d="M.32,489.45V629.3C.32,693.52,141.77,746,316.73,746c17.27,0,34.22-.51,50.75-1.49,0-66.48.69-107.48.69-139.9-16.85,1-34.14,1.55-51.76,1.55C141.77,606.12.32,554.05.32,489.45Z"/></g></g></svg>