<?xml version="1.0" encoding="utf-8"?>
<!-- Generator: Adobe Illustrator 21.1.0, SVG Export Plug-In . SVG Version: 6.00 Build 0)  -->
<svg version="1.1" id="图层_1" xmlns="http://www.w3.org/2000/svg" xmlns:xlink="http://www.w3.org/1999/xlink" x="0px" y="0px"
	 viewBox="0 0 18 18" style="enable-background:new 0 0 18 18;" xml:space="preserve">
<g>
	<path d="M15,3h-3V2c0-0.5-0.5-1-1-1H7C6.5,1,6,1.5,6,2v1H3C2.5,3,2,3.5,2,4v1c0,0.5,0.5,1,1,1h12c0.5,0,1-0.5,1-1V4
		C16,3.5,15.5,3,15,3z M11,3H7V2.5C7,2.2,7.2,2,7.5,2h3C10.8,2,11,2.2,11,2.5V3z"/>
	<path d="M3,15.5C3,16.3,3.7,17,4.5,17h9c0.8,0,1.5-0.7,1.5-1.5V7H3V15.5z M12,8.5C12,8.2,12.2,8,12.5,8S13,8.2,13,8.5v6
		c0,0.3-0.2,0.5-0.5,0.5S12,14.8,12,14.5V8.5z M8,9c0-0.5,0.5-1,1-1s1,0.5,1,1v5c0,0.5-0.5,1-1,1s-1-0.5-1-1V9z M5,8.5
		C5,8.2,5.2,8,5.5,8S6,8.2,6,8.5v6C6,14.8,5.8,15,5.5,15S5,14.8,5,14.5V8.5z"/>
</g>
</svg>
