<svg xmlns="http://www.w3.org/2000/svg" viewBox="0 0 764.49 885.2"><title>资源 269</title><g id="图层_2" data-name="图层 2"><g id="图层_4" data-name="图层 4"><path d="M382.25,379.35q118,0,220.45-21.25t161.75-62.72v84q0,34.09-51.3,63.25T573.81,488.79q-88.06,17-191.56,17.06T190.64,488.79Q102.53,471.7,51.26,442.6T0,379.35v-84q59.15,41.52,161.75,62.76t220.5,21.21Zm0,379.39q118,0,220.45-21.25t161.75-62.76v84q0,34.1-51.3,63.21T573.81,868.14q-88.06,17-191.56,17.06T190.64,868.14q-88.11-17-139.38-46.19T0,758.74v-84q59.15,41.47,161.75,62.73t220.5,21.25Zm0-189.68q118,0,220.45-21.24t161.75-62.73v84q0,34.11-51.3,63.25t-139.34,46.2q-88.06,17-191.56,17t-191.61-17q-88.11-17-139.38-46.19T0,569V485.09q59.15,41.52,161.75,62.77t220.5,21.2ZM382.25,0q103.5,0,191.6,17T713.23,63.25q51.24,29.1,51.26,63.21v63.26q0,34.1-51.26,63.25T573.85,299.16q-88.12,17-191.6,17T190.64,299.08q-88.11-17-139.38-46.19T0,189.64V126.46Q0,92.37,51.26,63.25T190.64,17Q278.75.07,382.25,0Z"/></g></g></svg>