<svg xmlns="http://www.w3.org/2000/svg" viewBox="0 0 769 895"><title>资源 324</title><g id="图层_2" data-name="图层 2"><g id="图层_4" data-name="图层 4"><path d="M769,32A32.16,32.16,0,0,0,736.87,0H32.13A32.16,32.16,0,0,0,0,32V863a32.16,32.16,0,0,0,32.13,32H736.87A32.16,32.16,0,0,0,769,863ZM141.67,801.77a46.62,46.62,0,1,1,46.9-46.61A46.77,46.77,0,0,1,141.67,801.77ZM327.92,590.14C215.76,564.22,132.3,464.28,132.3,345c0-139.1,113.28-251.72,253.2-251.72S638.71,205.85,638.71,345a249.85,249.85,0,0,1-80.27,183.84c-25.32-19-49-37.68-62.46-51.27A103.09,103.09,0,0,0,327.92,590.14ZM656.53,782.19a67.78,67.78,0,0,1-95.28,0c-22.51-22.37-151.76-205.1-157.93-211.07a28.7,28.7,0,0,1,0-40.65,29.08,29.08,0,0,1,40.89,0c6.58,6.72,191,135.75,212.32,157A66.83,66.83,0,0,1,656.53,782.19Z"/><path d="M385.5,391.56A46.62,46.62,0,1,0,338.61,345,46.76,46.76,0,0,0,385.5,391.56Z"/></g></g></svg>