<?xml version="1.0" encoding="UTF-8"?>
<svg width="53px" height="53px" viewBox="0 0 53 53" version="1.1" xmlns="http://www.w3.org/2000/svg" xmlns:xlink="http://www.w3.org/1999/xlink">
    <!-- Generator: Sketch 54 (76480) - https://sketchapp.com -->
    <title>为定义图标</title>
    <desc>Created with Sketch.</desc>
    <defs>
        <path d="M12.5829784,1.71875 L15.7179682,1.71875 L15.7179682,11.3867184 L12.5829281,11.3867184 L12.5829281,1.71875 L12.5829784,1.71875 Z M31.3671863,1.71875 L34.4970401,1.71875 L34.4970401,11.3867184 L31.3671863,11.3867184 L31.3671863,1.71875 Z M9.4531247,17.8320306 L37.6294618,17.8320306 L37.6294618,21.0546867 L9.4531247,21.0546867 L9.4531247,17.8320306 Z M9.4531247,27.499999 L25.1049109,27.499999 L25.1049109,30.7226551 L9.4531247,30.7226551 L9.4531247,27.499999 Z M28.3894521,48.1249982 L1.71875,48.1249982 L1.71875,4.2968749 L42.9687484,4.2968749 L42.9687484,24.7955359 C48.9397259,26.4790716 53.281248,32.0710346 53.281248,38.7792954 C53.281248,46.8359357 47.0189725,53.281248 39.1943635,53.281248 C34.9993415,53.2834866 31.0284255,51.3880613 28.3920201,48.1249982 L28.3894521,48.1249982 Z M39.7950867,24.2902335 L39.7950867,7.42929667 L4.8924117,7.42929667 L4.8924117,44.9925764 L26.4455862,44.9925764 C25.557504,43.0418527 25.1002325,40.9226552 25.1049109,38.7792954 C25.1049109,30.7226551 31.3671863,24.2773428 39.1943635,24.2773429 C39.3954774,24.2773429 39.5965409,24.282479 39.7950867,24.2902335 L39.7950867,24.2902335 Z M9.4531247,37.1679674 L21.9750572,37.1679674 L21.9750572,40.3906235 L9.4531247,40.3906235 L9.4531247,37.1679674 Z M39.1943635,27.499999 C33.2466495,27.499999 28.2373326,32.6562488 28.2373326,38.7792954 C28.2373326,44.902342 33.2466494,50.0585918 39.1943635,50.0585919 C45.1420775,50.0585919 50.1513943,44.9023421 50.1513943,38.7792954 C50.1513942,32.6562487 45.1421278,27.499999 39.1943635,27.499999 Z M37.8124986,30.0781239 L41.0222641,30.0781239 L41.0222641,41.0351547 L37.8124986,41.0351547 L37.8124986,30.0781239 Z M41.0222641,42.9687484 L41.0222641,46.1785139 L37.8124986,46.1785139 L37.8124986,42.9687484 L41.0222641,42.9687484 L41.0222641,42.9687484 Z" id="path-1"></path>
        <filter x="-3.9%" y="-3.9%" width="107.8%" height="107.8%" filterUnits="objectBoundingBox" id="filter-2">
            <feGaussianBlur stdDeviation="1.5" in="SourceAlpha" result="shadowBlurInner1"></feGaussianBlur>
            <feOffset dx="0" dy="1" in="shadowBlurInner1" result="shadowOffsetInner1"></feOffset>
            <feComposite in="shadowOffsetInner1" in2="SourceAlpha" operator="arithmetic" k2="-1" k3="1" result="shadowInnerInner1"></feComposite>
            <feColorMatrix values="0 0 0 0 0   0 0 0 0 0   0 0 0 0 0  0 0 0 0.5 0" type="matrix" in="shadowInnerInner1"></feColorMatrix>
        </filter>
    </defs>
    <g id="服务目录" stroke="none" stroke-width="1" fill="none" fill-rule="evenodd">
        <g id="业务拓扑-模版尚未定义进程" transform="translate(-819.000000, -268.000000)" fill-rule="nonzero">
            <g id="为定义图标" transform="translate(818.000000, 267.000000)">
                <rect id="矩形" fill="#C4C6CC" opacity="0" x="0" y="0" width="55" height="55"></rect>
                <g id="形状">
                    <use fill="#979BA5" xlink:href="#path-1"></use>
                    <use fill="black" fill-opacity="1" filter="url(#filter-2)" xlink:href="#path-1"></use>
                </g>
            </g>
        </g>
    </g>
</svg>