<?xml version="1.0" encoding="UTF-8"?>
<svg width="28px" height="28px" viewBox="0 0 28 28" version="1.1" xmlns="http://www.w3.org/2000/svg" xmlns:xlink="http://www.w3.org/1999/xlink">
    <!-- Generator: Sketch 53.2 (72643) - https://sketchapp.com -->
    <title>提示</title>
    <desc>Created with Sketch.</desc>
    <defs>
        <path d="M14,0 C6.26875,0 0,6.26875 0,14 C0,21.73125 6.26875,28 14,28 C21.73125,28 28,21.73125 28,14 C28,6.26875 21.73125,0 14,0 L14,0 Z M14,2 C15.621875,2 17.190625,2.315625 18.66875,2.94375 C20.096875,3.546875 21.38125,4.4125 22.484375,5.515625 C23.5875,6.61875 24.453125,7.903125 25.05625,9.33125 C25.68125,10.809375 26,12.38125 26,14 C26,15.61875 25.684375,17.190625 25.05625,18.66875 C24.453125,20.096875 23.5875,21.38125 22.484375,22.484375 C21.38125,23.5875 20.096875,24.453125 18.66875,25.05625 C17.190625,25.68125 15.61875,26 14,26 C12.38125,26 10.809375,25.684375 9.33125,25.05625 C7.903125,24.453125 6.61875,23.5875 5.515625,22.484375 C4.4125,21.38125 3.546875,20.096875 2.94375,18.66875 C2.31875,17.190625 2,15.61875 2,14 C2,12.38125 2.315625,10.809375 2.94375,9.33125 C3.546875,7.903125 4.4125,6.61875 5.515625,5.515625 C6.61875,4.4125 7.903125,3.546875 9.33125,2.94375 C10.809375,2.315625 12.378125,2 14,2 Z M13.4325361,10.5786983 C12.5870219,10.7430496 11.7848279,11.183303 11.0259301,11.8994718 C10.2670322,12.6156405 11.0691015,13.2766686 11.5416645,12.7603235 C12.0142275,12.2439785 12.4345264,11.9500398 12.8025737,11.8784986 C13.1507266,11.8108245 13.3525528,11.9197616 13.4080584,12.2053132 C13.453063,12.4368415 13.4017577,12.8632869 13.254141,13.4846622 C13.1065244,14.1060376 12.8321708,15.0844164 12.4310722,16.419828 C11.7047372,18.8436381 11.3910793,20.3102023 11.4900893,20.8195645 C11.6071012,21.4215381 11.9067476,21.8478427 12.3890375,22.0984911 C12.8713275,22.3491394 13.4805107,22.4029216 14.2166054,22.2598393 C15.0919613,22.0896874 15.931555,21.6161347 16.7354116,20.839167 C17.5392682,20.0621993 16.6242483,19.4972118 16.1939207,19.9653011 C15.763593,20.4333904 15.3544645,20.7051351 14.9665227,20.7805434 C14.5188975,20.8675529 14.2553349,20.7065434 14.1758268,20.2975101 C14.1233215,20.0273937 14.1788503,19.5961228 14.3424148,19.0036844 C15.5748373,14.7755391 16.1317842,12.3566572 16.0132722,11.746966 C15.9202628,11.2684742 15.6534001,10.9178902 15.2126761,10.6952037 C14.7719521,10.4725172 14.178578,10.4336825 13.4325361,10.5786983 Z M15.5,9 C16.3284271,9 17,8.32842712 17,7.5 C17,6.67157288 16.3284271,6 15.5,6 C14.6715729,6 14,6.67157288 14,7.5 C14,8.32842712 14.6715729,9 15.5,9 Z" id="path-1"></path>
    </defs>
    <g id="展示效果" stroke="none" stroke-width="1" fill="none" fill-rule="evenodd">
        <g transform="translate(-831.000000, -496.000000)" id="tittle">
            <g>
                <g id="icon/提示" transform="translate(831.000000, 496.000000)">
                    <mask id="mask-2" fill="white">
                        <use xlink:href="#path-1"></use>
                    </mask>
                    <use id="提示" fill="#000000" fill-rule="nonzero" xlink:href="#path-1"></use>
                </g>
            </g>
        </g>
    </g>
</svg>