<svg xmlns="http://www.w3.org/2000/svg" viewBox="0 0 892.14 766.66"><defs><style>.cls-1{fill:#070707;}</style></defs><title>资源 280</title><g id="图层_2" data-name="图层 2"><g id="图层_4" data-name="图层 4"><path class="cls-1" d="M489.26,632.53s33.33,71.72,109.84,110.28a300.3,300.3,0,0,0,63-110.28Z"/><path class="cls-1" d="M809.38,632.53H677.13a311.87,311.87,0,0,1-64.36,116.59,226.06,226.06,0,0,0,88.63,17.54c110.83,0,157.45-56.6,190.74-96.56C862.18,631.1,809.38,632.53,809.38,632.53Z"/><path class="cls-1" d="M473.56,462.24s-24.73,66.59.95,132.23H671.35a300.75,300.75,0,0,0-6.86-133.71C576.85,460.8,472.39,461.07,473.56,462.24Z"/><path class="cls-1" d="M774.18,594.47s69.45-2.38,69.45-65.64c0-37.58-34.73-68-64.22-68-10.34,0-51.29-.06-100-.05a317.75,317.75,0,0,1,6.49,133.71Z"/><path class="cls-1" d="M598.07,320.41a313.57,313.57,0,0,1,69.41,104.72h140s52.79,1.43,82.76-37.58C856.94,347.6,810.33,291,699.5,291c-41.78,0-76.75,10.44-105.46,25.48C595.39,317.78,596.74,319.08,598.07,320.41Z"/><path class="cls-1" d="M580.94,323.9c-65,39.72-93.58,101.23-93.58,101.23H651.87A301.33,301.33,0,0,0,580.94,323.9Z"/><path class="cls-1" d="M316.41,326.43c174.63,0,316.4-52.06,316.4-116.67v-93.1C632.81,52.06,491,0,316.41,0S0,52.06,0,116.66v93.1C0,274,141.45,326.43,316.41,326.43Z"/><path class="cls-1" d="M316.41,606.12C141.77,606.12.32,554.05.32,489.45V629.3C.32,693.52,141.77,746,316.73,746c65.62,0,126.6-7.35,177.16-20a285.41,285.41,0,0,1-68.65-127A818,818,0,0,1,316.41,606.12Z"/><path class="cls-1" d="M316.41,536.19a827.46,827.46,0,0,0,96.68-5.54c0-.55,0-1.1,0-1.66a284.69,284.69,0,0,1,38.76-143.82c-41.06,7.17-87,11.18-135.42,11.18C141.77,396.35,0,344.29,0,279.69V419.53C0,483.75,141.45,536.19,316.41,536.19Z"/></g></g></svg>