<?xml version="1.0" encoding="UTF-8"?>
<svg width="16px" height="16px" viewBox="0 0 16 16" version="1.1" xmlns="http://www.w3.org/2000/svg" xmlns:xlink="http://www.w3.org/1999/xlink">
    <!-- Generator: Sketch 54 (76480) - https://sketchapp.com -->
    <title>Shape</title>
    <desc>Created with Sketch.</desc>
    <g id="页面1" stroke="none" stroke-width="1" fill="none" fill-rule="evenodd">
        <g id="编辑与展开" transform="translate(-599.000000, -407.000000)" fill="#3C96FF" fill-rule="nonzero">
            <g id="内容" transform="translate(57.000000, 324.000000)">
                <path d="M557.386973,97.8705882 L542.613027,97.8705882 C542.306513,97.8705882 542.061303,98.1215686 542.061303,98.4352941 C542.061303,98.7490196 542.306513,99 542.613027,99 L557.448276,99 C557.754789,99 558,98.7490196 558,98.4352941 C557.938697,98.1843137 557.693487,97.8705882 557.386973,97.8705882 Z M542.551724,96.1764706 L545.187739,96.1764706 C545.310345,96.1764706 545.494253,96.1137255 545.555556,95.9882353 L554.628352,86.7019608 C554.873563,86.4509804 554.873563,86.1372549 554.628352,85.8862745 L552.05364,83.1882353 C551.808429,82.9372549 551.501916,82.9372549 551.256705,83.1882353 L549.417625,85.0705882 L542.183908,92.4745098 C542.061303,92.6 542,92.7254902 542,92.8509804 L542,95.5490196 C542,95.6745098 542.061303,95.8627451 542.183908,95.9882353 C542.245211,96.1137255 542.429119,96.1764706 542.551724,96.1764706 Z M551.624521,84.3803922 L553.463602,86.2627451 L552.421456,87.3294118 L550.582375,85.4470588 L551.624521,84.3803922 Z M543.164751,93.1019608 L549.846743,86.2627451 L551.685824,88.145098 L545.003831,94.9843137 L543.164751,94.9843137 L543.164751,93.1019608 L543.164751,93.1019608 Z" id="Shape"></path>
            </g>
        </g>
    </g>
</svg>