<?xml version="1.0" encoding="utf-8"?>
<!-- Generator: Adobe Illustrator 21.1.0, SVG Export Plug-In . SVG Version: 6.00 Build 0)  -->
<svg version="1.1" id="图层_1" xmlns="http://www.w3.org/2000/svg" xmlns:xlink="http://www.w3.org/1999/xlink" x="0px" y="0px"
	 viewBox="0 0 18 18" style="enable-background:new 0 0 18 18;" xml:space="preserve">
<g>
	<path d="M16,7H2C1.5,7,1,7.5,1,8v2c0,0.5,0.5,1,1,1h14c0.5,0,1-0.5,1-1V8C17,7.5,16.5,7,16,7z M9,10H8V8h1V10z M11,10h-1V8h1V10z
		 M15,10h-3V8h3V10z"/>
	<path d="M16,13H2c-0.5,0-1,0.5-1,1v2c0,0.5,0.5,1,1,1h14c0.5,0,1-0.5,1-1v-2C17,13.5,16.5,13,16,13z M9,16H8v-2h1V16z M11,16h-1v-2
		h1V16z M15,16h-3v-2h3V16z"/>
	<path d="M16,1H2C1.5,1,1,1.5,1,2v2c0,0.5,0.5,1,1,1h14c0.5,0,1-0.5,1-1V2C17,1.5,16.5,1,16,1z M9,4H8V2h1V4z M11,4h-1V2h1V4z M15,4
		h-3V2h3V4z"/>
</g>
</svg>
