<svg xmlns="http://www.w3.org/2000/svg" xmlns:xlink="http://www.w3.org/1999/xlink" viewBox="0 0 888.13 761.25"><defs><style>.cls-1{fill:none;}.cls-2{clip-path:url(#clip-path);}</style><clipPath id="clip-path" transform="translate(0 -0.62)"><rect class="cls-1" width="888.08" height="762.96"/></clipPath></defs><title>资源 274</title><g id="图层_2" data-name="图层 2"><g id="图层_4" data-name="图层 4"><g class="cls-2"><path d="M664.17,640.83c-.21-.17-.42-.36-.63-.52-5.88-5-12.23-10-18.86-15.08-.47-.36-1-.72-1.42-1.08-6.58-5-13.45-10-20.55-15l-1.23-.85c-7.42-5.22-15.05-10.42-22.8-15.58C526.28,544.51,444.34,500,444.06,487V465.83c47.54-43.67,84.59-103.76,84.59-169.16,0-77.49-13.73-167.5-87.65-205.48a152.25,152.25,0,0,0-23.2-9.39c-2.26-.72-4.48-1.46-6.85-2.09-3.38-.94-6.89-1.74-10.49-2.5s-7.51-1.37-11.4-1.94c-3-.45-6-1-9.15-1.32-7.85-.78-16-1.28-24.66-1.28-150.39,0-186.08,122.85-186.08,224,0,65.4,37.05,125.39,84.58,169.16V487C253.33,507.89,98,571.12,0,675.68v86.19H697.81V675.68A145.23,145.23,0,0,0,681,656.14c-5.05-5-10.7-10.13-16.81-15.31" transform="translate(0 -0.62)"/><path d="M528.65.62C679,.62,719,104.72,719,190.94c0,65.4-16.42,125.5-64,169.16v21.15c.33,16.3,190.84,148,233.13,187.08v87.82H782.4c-148-126.88-252.69-168.77-274.89-190.31V444.69C555,401,592.09,362.14,592.09,254.37s-36-211-169.17-232.6C447.52,7,485.53.62,528.65.62" transform="translate(0 -0.62)"/></g></g></g></svg>