<?xml version="1.0" encoding="utf-8"?>
<!-- Generator: Adobe Illustrator 21.1.0, SVG Export Plug-In . SVG Version: 6.00 Build 0)  -->
<svg version="1.1" id="图层_1" xmlns="http://www.w3.org/2000/svg" xmlns:xlink="http://www.w3.org/1999/xlink" x="0px" y="0px"
	 viewBox="0 0 18 18" style="enable-background:new 0 0 18 18;" xml:space="preserve">
<g>
	<path d="M16.9,16l-5-8.7l0,0c-0.1-0.1-0.3-0.2-0.5-0.2c-0.2,0-0.4,0.1-0.5,0.2l-5,8.7C6,16.1,6,16.2,6,16.3c0,0.3,0.3,0.6,0.6,0.6
		h9.8c0.3,0,0.6-0.3,0.6-0.6C17,16.2,16.9,16,16.9,16z M11.5,15.7c-0.3,0-0.6-0.3-0.6-0.6c0-0.3,0.3-0.6,0.6-0.6s0.6,0.3,0.6,0.6
		C12.1,15.4,11.8,15.7,11.5,15.7z M12.1,12.6c0,0.3-0.3,0.6-0.6,0.6s-0.6-0.3-0.6-0.6v-1.8c0-0.3,0.3-0.6,0.6-0.6s0.6,0.3,0.6,0.6
		V12.6z"/>
	<path d="M7,12H5c-0.5,0-1-0.5-1-1s0.5-1,1-1h2c0.5,0,0.8,0.3,0.9,0.7L11,5.4V2c0-0.5-0.5-1-1-1H2C1.5,1,1,1.5,1,2v13
		c0,0.5,0.5,1,1,1h2.9l2.3-4.1C7.2,12,7.1,12,7,12z M3,3h6v1H3V3z M3,6h6v1H3V6z"/>
</g>
</svg>
