<?xml version="1.0" encoding="UTF-8"?>
<svg width="23px" height="23px" viewBox="0 0 23 23" version="1.1" xmlns="http://www.w3.org/2000/svg" xmlns:xlink="http://www.w3.org/1999/xlink">
    <!-- Generator: Sketch 55.2 (78181) - https://sketchapp.com -->
    <title>实例总数</title>
    <desc>Created with Sketch.</desc>
    <g id="页面1" stroke="none" stroke-width="1" fill="none" fill-rule="evenodd">
        <g id="统计首页" transform="translate(-1264.000000, -123.000000)" fill-rule="nonzero">
            <g id="编组-2" transform="translate(1041.000000, 82.000000)">
                <g id="编组" transform="translate(205.000000, 22.000000)">
                    <g id="实例总数" transform="translate(16.000000, 18.000000)">
                        <rect id="矩形" fill="#000000" opacity="0" x="0" y="0" width="21.12" height="21.12"></rect>
                        <path d="M11.2545652,11.0565728 L3.64363065,11.0565728 C3.23813085,11.0565728 2.91012925,10.7285462 2.91012925,10.3230464 L2.91012925,2.70929334 C2.91012925,2.30379355 3.23813088,1.97579194 3.64363065,1.97579194 L11.2545652,1.97579194 C11.660065,1.97579194 11.9880666,2.30379357 11.9880666,2.70929334 L11.9880666,10.3230714 C11.9880666,10.7285462 11.660065,11.0565728 11.2545652,11.0565728 L11.2545652,11.0565728 Z M23.4360962,11.0565728 L15.8223182,11.0565728 C15.4167934,11.0565728 15.0887669,10.7285462 15.0887669,10.3230464 L15.0887669,2.70929334 C15.0887669,2.30379355 15.4167934,1.97579194 15.8223182,1.97579194 L23.4360962,1.97579194 C23.8416209,1.97579194 24.1695726,2.30379357 24.1695726,2.70929334 L24.1695726,10.3230714 C24.1695726,10.7285462 23.8416209,11.0565728 23.4360962,11.0565728 L23.4360962,11.0565728 Z M11.2545652,23.3726717 L3.64363065,23.3726717 C3.23813085,23.3726717 2.91012925,23.0446452 2.91012925,22.6393699 L2.91012925,15.0282358 C2.91012925,14.622736 3.23813088,14.2947344 3.64363065,14.2947344 L11.2545652,14.2947344 C11.660065,14.2947344 11.9880666,14.6227361 11.9880666,15.0282358 L11.9880666,22.6393699 C11.9880666,23.0446452 11.660065,23.3726717 11.2545652,23.3726717 L11.2545652,23.3726717 Z M23.4360962,23.3726717 L15.8223182,23.3726717 C15.4167934,23.3726717 15.0887669,23.0446452 15.0887669,22.6393699 L15.0887669,15.0282358 C15.0887669,14.622736 15.4167934,14.2947344 15.8223182,14.2947344 L23.4360962,14.2947344 C23.8416209,14.2947344 24.1695726,14.6227361 24.1695726,15.0282358 L24.1695726,22.6393699 C24.1695726,23.0446452 23.8416209,23.3726717 23.4360962,23.3726717 L23.4360962,23.3726717 Z" id="形状" fill="#FFFFFF"></path>
                    </g>
                </g>
            </g>
        </g>
    </g>
</svg>