<svg xmlns="http://www.w3.org/2000/svg" viewBox="0 0 893.78 763.59"><defs><style>.cls-1{fill:#070707;}</style></defs><title>资源 281</title><g id="图层_2" data-name="图层 2"><g id="图层_4" data-name="图层 4"><path class="cls-1" d="M316.41,326.43c174.63,0,316.4-52.06,316.4-116.67v-93.1C632.81,52.06,491,0,316.41,0S0,52.06,0,116.66v93.1C0,274,141.45,326.43,316.41,326.43Z"/><path class="cls-1" d="M316.41,536.19c67.66,1.8,92.66-3.2,92.66-3.2s-3-8-6-23c-9-36,7-49,7-49l83.2-84.52C442.76,389,381.9,396.35,316.41,396.35,141.77,396.35,0,344.29,0,279.69V419.53C0,483.75,141.45,536.19,316.41,536.19Z"/><path class="cls-1" d="M446.07,687l-20-87c-24.54,2.25-83.24,6.13-109.66,6.13C141.77,606.12.32,554.05.32,489.45V629.3C.32,693.52,141.77,746,316.73,746c125.26-1.67,168-12.26,181.34-18l-20.5-7C448.07,710,446.07,687,446.07,687Z"/><path class="cls-1" d="M892.12,575c-9.34-37.63-39.25-165.33-39.25-165.33s-.8-22.67-34.17-31.86c-35.66-9.83-175-53.57-175-53.57s-23.09-10.16-39.72,5.54S471,452.61,471,452.61,452,465.08,457.1,490.48l43.41,188s1.56,22.55,27.71,30.94c29.34,9.41,169,51.72,169,51.72s23.09,9.24,41.1-7.85S876.88,623,876.88,623,900.07,607,892.12,575ZM792.84,408.74l-84.05,18.47-58.65-62.8Zm-54.5,201.35L580.4,564.37,699.55,451.23ZM505.59,468.77c11.54-12,105.75-97.9,105.75-97.9s13.4-13.39,26.33.92,49.41,53.11,49.41,53.11,10.16,11.09-2.77,22.63S579.48,545,579.48,545s-12,13.86-28.63-5.08-45.26-48.49-45.26-48.49S494,480.78,505.59,468.77Zm-7.39,38.8L558.7,569l-26.33,82.66Zm188.42,211s-111.27-33.32-132.54-40.17c-20-6.45-10.16-21.25-10.16-21.25s18.47-61.88,23.55-74.35,20.32-3.69,20.32-3.69,117,34.75,136.24,40.64c17,5.2,11.54,19.39,11.54,19.39s-14.85,52.3-21.24,73.43C709.07,730,686.62,718.61,686.62,718.61Zm96.52-54L730.49,708,754,629l83.13-19.85Zm51.72-69.27c-28.18,5.94-62.34,14.32-62.34,14.32S754.07,616,749.42,599c-5.32-19.46-35.09-144.09-35.09-144.09s-6.26-14.93,11.08-17.55c11.19-1.69,70.2-14.31,70.2-14.31s20.46-9.07,24.93,10.16c4.81,20.63,32.79,145,32.79,145S860.07,590,834.86,595.31Z"/></g></g></svg>