<svg xmlns="http://www.w3.org/2000/svg" xmlns:xlink="http://www.w3.org/1999/xlink" viewBox="0 0 864.03 764.68"><defs><style>.cls-1{fill:none;}.cls-2{clip-path:url(#clip-path);}</style><clipPath id="clip-path" transform="translate(0 -0.02)"><rect class="cls-1" width="864.08" height="765.7"/></clipPath></defs><title>资源 270</title><g id="图层_2" data-name="图层 2"><g id="图层_4" data-name="图层 4"><g class="cls-2"><path d="M0,437.06V614.53a56.08,56.08,0,0,0,7.57,28.56,50.11,50.11,0,0,0,20.56,20L206,758.73a46.12,46.12,0,0,0,45.32,0L429.2,663.1a16,16,0,0,0,2.76-1.68,9.4,9.4,0,0,0,2.81,1.68l177.9,95.63a46.14,46.14,0,0,0,45.33,0L835.85,663.1a49.44,49.44,0,0,0,20.61-20A56.35,56.35,0,0,0,864,614.53V437.06a54.9,54.9,0,0,0-8.6-29.86A55.53,55.53,0,0,0,833,386.65l-172.32-79.3V136.65a54.69,54.69,0,0,0-8.55-29.81,55.53,55.53,0,0,0-22.4-20.55L451.87,4.4a47.3,47.3,0,0,0-39.65-.05L234.32,86.29a53.85,53.85,0,0,0-22.4,20.55,54.9,54.9,0,0,0-8.54,29.81v170.7L31,386.65A52.52,52.52,0,0,0,8.28,407.2,57,57,0,0,0,0,437Zm635.34,65.72L474.91,429l160.43-73.78,160.42,73.72ZM609.91,696.42,457.44,614.53v-134L610,550.49v146ZM432.07,216.1,256.92,135.41,432.07,54.76l175.14,80.59-175.14,80.7ZM406.65,377.83,254.17,307.25V193.82l152.48,69.94Zm-177.91,125L68.32,429l160.42-73.78L389.23,429,228.8,502.78ZM203.32,696.53,51,614.47V480.55l152.48,69.94v146Z" transform="translate(0 -0.02)"/></g></g></g></svg>