<svg xmlns="http://www.w3.org/2000/svg" viewBox="0 0 815.58 819.2"><title>资源 271</title><g id="图层_2" data-name="图层 2"><g id="图层_4" data-name="图层 4"><path d="M247.66,477.77l6,68.36H704.27c19.37,0,35.07,16.14,35.07,34.8a34.76,34.76,0,0,1-35.07,34.8H239.87a34.28,34.28,0,0,1-11.05-1.82l-4.15.36A34.52,34.52,0,0,1,187,582.69L142.08,69.5l-107.9-.23C15.3,69.23,0,53.13,0,34.57,0,15.44,16.24,0,34.18,0L172.79.29A34.11,34.11,0,0,1,199.5,13.6a34.7,34.7,0,0,1,9.39,21l8.92,101.93H759.73c37.47,0,61.81,30.43,54.58,66.93l-41.4,209.06c-7.31,37-44.29,66.83-81.38,66.71ZM204.8,750.93a68.27,68.27,0,1,1,68.27,68.27,68.1,68.1,0,0,1-68.27-68.27Zm409.6,0a68.27,68.27,0,1,1,68.27,68.27,68.1,68.1,0,0,1-68.27-68.27Z"/></g></g></svg>