<?xml version="1.0" encoding="utf-8"?>
<!-- Generator: Adobe Illustrator 21.1.0, SVG Export Plug-In . SVG Version: 6.00 Build 0)  -->
<svg version="1.1" id="图层_1" xmlns="http://www.w3.org/2000/svg" xmlns:xlink="http://www.w3.org/1999/xlink" x="0px" y="0px"
	 viewBox="0 0 18 18" style="enable-background:new 0 0 18 18;" xml:space="preserve">
<g>
	<ellipse cx="9" cy="4" rx="8" ry="2.3"/>
	<path d="M15,12.5c-1.5,0.5-3.6,0.8-6,0.8S4.4,13,3,12.5c-1.2,0.4-2,0.9-2,1.5c0,1.3,3.6,2.3,8,2.3s8-1,8-2.3
		C17,13.4,16.3,12.9,15,12.5z"/>
	<path d="M15,7.5C13.6,8,11.4,8.3,9,8.3S4.4,8,3,7.5C1.7,7.9,1,8.4,1,9c0,1.3,3.6,2.3,8,2.3s8-1,8-2.3C17,8.4,16.3,7.9,15,7.5z"/>
</g>
</svg>
