<svg xmlns="http://www.w3.org/2000/svg" viewBox="0 0 830 832"><title>资源 264</title><g id="图层_2" data-name="图层 2"><g id="图层_4" data-name="图层 4"><rect x="129.27" y="385.44" width="63" height="65" rx="12" ry="12"/><path d="M363.27,190.44h104a12,12,0,0,0,12-12v-41a12,12,0,0,0-12-12h-104a12,12,0,0,0-12,12v41A12,12,0,0,0,363.27,190.44Z"/><rect x="129.27" y="123.44" width="69" height="65" rx="12" ry="12"/><rect x="352.27" y="385.44" width="127" height="65" rx="12" ry="12"/><rect x="129.27" y="635.44" width="63" height="65" rx="12" ry="12"/><path d="M798,0H32A32.09,32.09,0,0,0,0,32V800a32.09,32.09,0,0,0,32,32H798a32.09,32.09,0,0,0,32-32V32A32.09,32.09,0,0,0,798,0ZM651.27,397.44a12,12,0,0,1,12-12h39c6.61,0,11,5.4,11,12v41c0,6.6-4.39,12-11,12h-39a12,12,0,0,1-12-12ZM542.27,767H64.5V575.44H542.27Zm0-255.56H64.5v-192H542.27Zm0-256H64.5V65H542.27Zm172,433a12,12,0,0,1-12,12h-39a12,12,0,0,1-12-12v-41a12,12,0,0,1,12-12h39a12,12,0,0,1,12,12Zm6-512a12,12,0,0,1-12,12h-45a12,12,0,0,1-12-12v-41a12,12,0,0,1,12-12h45a12,12,0,0,1,12,12Z"/><rect x="223.27" y="385.44" width="63" height="65" rx="12" ry="12"/><rect x="223.27" y="123.44" width="69" height="65" rx="12" ry="12"/><rect x="223.27" y="635.44" width="63" height="65" rx="12" ry="12"/><rect x="352.27" y="635.44" width="127" height="65" rx="12" ry="12"/></g></g></svg>