<svg xmlns="http://www.w3.org/2000/svg" viewBox="0 0 822.19 772.92"><title>资源 267</title><g id="图层_2" data-name="图层 2"><g id="图层_4" data-name="图层 4"><path d="M432.9,501.16a449.5,449.5,0,0,0,46-23.57l50.56-33.9c66.77-52.49,115-117.1,140.72-195.7a317.07,317.07,0,0,1,27,118.17,232.32,232.32,0,0,1,56.7-.26C749.26,205.29,642.46,59.58,479.67,14.75a375.46,375.46,0,1,0-57.85,734.83,298.14,298.14,0,0,1-2.66-58.43,317.19,317.19,0,0,1-88-.69l-.18-.41a373.12,373.12,0,0,1-79.38-155.18C313,536.37,374.81,526.26,432.9,501.16ZM511.61,88.08a315.81,315.81,0,0,1,115.1,89.21C610.52,259.36,569.24,332,508,385.53a426.61,426.61,0,0,0-40-71.6A431.92,431.92,0,0,0,339.64,194,371.17,371.17,0,0,1,511.61,88.08ZM421.67,62.17A429.05,429.05,0,0,0,286.75,166.78c-40.42-17.49-75.68-26.72-114.45-30.2A317.55,317.55,0,0,1,421.67,62.17ZM123.85,189.38a376.62,376.62,0,0,1,127.31,25.48,434.36,434.36,0,0,0-52.81,117.57c-12.54,45.56-16.64,92.19-14.11,138.06a374.73,374.73,0,0,1-118.43-48A315.31,315.31,0,0,1,123.85,189.38ZM87.45,499.5a414.91,414.91,0,0,0,60.14,21.59c14.37,4,29.17,5.7,43.81,8.23A435.43,435.43,0,0,0,242,662.5,317.76,317.76,0,0,1,87.45,499.5Zm154.82-21.72a367.23,367.23,0,0,1,61.45-237.73,366,366,0,0,1,157,180.83A369,369,0,0,1,410,448.17,373.64,373.64,0,0,1,242.27,477.78Z"/><path d="M810.79,640.75,784,625.12a145.15,145.15,0,0,0,2.44-25.18A147.07,147.07,0,0,0,784,574.77l26.8-15.63a23.11,23.11,0,0,0,8.32-31.47l-22.73-39.8a22.94,22.94,0,0,0-31.27-8.52l-27,15.63a138.45,138.45,0,0,0-42.84-25.38V450.11a22.74,22.74,0,0,0-22.74-22.94H626.65a22.87,22.87,0,0,0-22.74,22.94V469.6c-16,5.69-30.25,14.62-42.84,25.38l-27-15.63a22.76,22.76,0,0,0-31.27,8.52l-22.94,40a23.16,23.16,0,0,0,8.32,31.47L515,575a145.16,145.16,0,0,0-2.43,25.18A147.07,147.07,0,0,0,515,625.32L488.18,641a23.11,23.11,0,0,0-8.32,31.47l22.74,39.79a22.93,22.93,0,0,0,31.27,8.52l27-15.63a138.33,138.33,0,0,0,42.84,25.38V750a22.74,22.74,0,0,0,22.73,22.94h45.68A22.87,22.87,0,0,0,694.86,750V730.49c16-5.69,30.25-14.62,42.84-25.38l27,15.63A22.76,22.76,0,0,0,796,712.22l22.74-39.79C825.41,661.06,821.75,647.05,810.79,640.75Zm-161.3,13.47a54.18,54.18,0,1,1,54.18-54.17A54.18,54.18,0,0,1,649.49,654.22Z"/></g></g></svg>