<?xml version="1.0" encoding="UTF-8"?>
<svg width="136px" height="81px" viewBox="0 0 136 81" version="1.1" xmlns="http://www.w3.org/2000/svg" xmlns:xlink="http://www.w3.org/1999/xlink">
    <!-- Generator: Sketch 54 (76480) - https://sketchapp.com -->
    <title>无权限图标</title>
    <desc>Created with Sketch.</desc>
    <defs>
        <polygon id="path-1" points="53.511675 43.4755183 53.546206 49.7716721 47.2505187 49.7371436 47.2598302 51.4349523 53.5555176 51.4694808 53.590046 57.7651682 55.2890986 57.7744866 55.2545702 51.4787992 61.5494801 51.5133234 61.5401686 49.8155147 55.2452586 49.7809905 55.2107276 43.4848367"></polygon>
    </defs>
    <g id="有浮云合作开发" stroke="none" stroke-width="1" fill="none" fill-rule="evenodd">
        <g id="无业务权限页面" transform="translate(-718.000000, -170.000000)">
            <g id="无权限图标" transform="translate(718.000000, 170.000000)">
                <g transform="translate(38.000000, 0.000000)">
                    <g id="权限" transform="translate(0.641958, 0.000000)" fill="#979BA5" fill-rule="nonzero">
                        <g id="分组-2">
                            <path d="M57.8548604,34.755244 C57.2910665,34.5548628 56.7134612,34.3839002 56.123867,34.2441895 C56.1268859,34.0870396 56.1284007,33.9298351 56.1284007,33.7726004 L56.1284007,11.2433228 L28.9294207,2.125 L1.72840067,11.2413112 L1.72840067,34.3076707 C1.72840067,43.6955402 7.16901266,52.9695953 16.1449005,56.9926806 L28.3847475,62.625 L37.3873591,58.5567737 C37.6762098,59.1082866 37.9944914,59.6417761 38.3401021,60.1551278 L28.3502015,64.7726954 L15.3325839,58.6455485 C5.78633101,54.269015 -9.9475983e-14,45.2249086 -9.9475983e-14,35.0122678 L-9.9475983e-14,9.91941311 L28.9273159,3.55271368e-14 L28.9294855,0.00218826673 L57.8568013,9.92160138 L57.8568013,34.4301888 C57.8568013,34.5386667 57.8561534,34.6470199 57.8548604,34.755244 Z" id="合并形状"></path>
                        </g>
                    </g>
                    <path d="M29.0545455,33.3 C34.278123,33.3 38.5090909,29.022367 38.5090909,23.75 C38.5090909,18.477633 34.278123,14.2 29.0545455,14.2 C23.830968,14.2 19.6,18.477633 19.6,23.75 C19.6,29.022367 23.830968,33.3 29.0545455,33.3 Z M29.0545455,31.7 C24.718576,31.7 21.2,28.1426162 21.2,23.75 C21.2,19.3573838 24.718576,15.8 29.0545455,15.8 C33.3905149,15.8 36.9090909,19.3573838 36.9090909,23.75 C36.9090909,28.1426162 33.3905149,31.7 29.0545455,31.7 Z" id="椭圆形" fill="#979BA5" fill-rule="nonzero"></path>
                    <circle id="椭圆形" fill="#F3F3F7" cx="54.4" cy="50.625" r="10"></circle>
                    <path d="M54.4,64.45 C61.9579887,64.45 68.0818182,58.2586283 68.0818182,50.625 C68.0818182,42.9913717 61.9579887,36.8 54.4,36.8 C46.8420113,36.8 40.7181818,42.9913717 40.7181818,50.625 C40.7181818,58.2586283 46.8420113,64.45 54.4,64.45 Z M54.4,63.05 C47.6186683,63.05 42.1181818,57.4888464 42.1181818,50.625 C42.1181818,43.7611536 47.6186683,38.2 54.4,38.2 C61.1813317,38.2 66.6818182,43.7611536 66.6818182,50.625 C66.6818182,57.4888464 61.1813317,63.05 54.4,63.05 Z" id="椭圆形" fill="#979BA5" fill-rule="nonzero"></path>
                    <mask id="mask-2" fill="white">
                        <use xlink:href="#path-1"></use>
                    </mask>
                    <use id="路径-5" fill="#979BA5" fill-rule="nonzero" transform="translate(54.399999, 50.625002) rotate(-315.000000) translate(-54.399999, -50.625002) " xlink:href="#path-1"></use>
                </g>
                <g id="Icon/常用图标/叉号" transform="translate(65.000000, 32.000000)"></g>
                <rect id="矩形" fill="#979BA5" x="66" y="32" width="2" height="20"></rect>
                <rect id="矩形" fill="#979BA5" x="67" y="37" width="8" height="2"></rect>
                <rect id="矩形" fill="#979BA5" x="67" y="45" width="8" height="2"></rect>
                <path d="M109.5,21.5 C111.156854,21.5 112.5,20.1568542 112.5,18.5 C112.5,16.8431458 111.156854,15.5 109.5,15.5 C107.843146,15.5 106.5,16.8431458 106.5,18.5 C106.5,20.1568542 107.843146,21.5 109.5,21.5 Z M109.5,20.5 C108.395431,20.5 107.5,19.6045695 107.5,18.5 C107.5,17.3954305 108.395431,16.5 109.5,16.5 C110.604569,16.5 111.5,17.3954305 111.5,18.5 C111.5,19.6045695 110.604569,20.5 109.5,20.5 Z" id="椭圆形" fill="#C4C6CC" fill-rule="nonzero"></path>
                <path d="M120.434478,8.36307587 L119.746247,8.36307587 L119.746247,7.64391504 C119.735778,7.45616396 119.647067,7.2810263 119.501119,7.15997192 C119.355172,7.03891754 119.164967,6.98271094 118.975542,7.00466097 C118.618078,7.00619656 118.328683,7.29150279 118.327125,7.64391504 L118.327125,8.36307587 L117.638894,8.36307587 C117.281379,8.37932943 117,8.66981985 117,9.02265709 C117,9.37549433 117.281379,9.66598475 117.638894,9.68223832 L118.327125,9.68223832 L118.327125,10.3607448 C118.327125,10.7137951 118.617431,10.9999989 118.975542,10.9999989 C119.340887,11.0006433 119.64335,10.7202839 119.665195,10.3607448 L119.665195,9.641584 L120.353426,9.641584 C120.695511,9.63914751 120.977374,9.37619636 120.998713,9.03959341 C121.020053,8.70299046 120.773593,8.40748573 120.434478,8.36307587 L120.434478,8.36307587 Z" id="路径" fill="#C4C6CC" fill-rule="nonzero"></path>
                <path d="M108.344869,2.36092599 L107.673096,2.36092599 L107.673096,1.680463 C107.673096,1.30465366 107.3692,1 106.994326,1 C106.619451,1 106.315555,1.30465366 106.315555,1.680463 L106.315555,2.36092599 L105.678771,2.36092599 C105.318634,2.35886679 105.020126,2.64022571 105,3.00070151 C105.020202,3.36755584 105.312788,3.66026636 105.678771,3.67976149 L106.315555,3.67976149 L106.315555,4.319537 C106.317089,4.6947076 106.620088,4.9984624 106.994326,5 C107.360534,4.97981036 107.652957,4.68665856 107.673096,4.319537 L107.673096,3.8004209 L108.31128,3.8004209 C108.685608,3.79964717 108.988652,3.49522001 108.988651,3.11995791 C109.024869,2.93060454 108.973388,2.73500671 108.848699,2.58821466 C108.724675,2.44104974 108.541216,2.35759173 108.349068,2.36092599 L108.344869,2.36092599 Z" id="路径" fill="#C4C6CC" fill-rule="nonzero"></path>
                <path d="M30.5,60.5 C32.1568542,60.5 33.5,59.1568542 33.5,57.5 C33.5,55.8431458 32.1568542,54.5 30.5,54.5 C28.8431458,54.5 27.5,55.8431458 27.5,57.5 C27.5,59.1568542 28.8431458,60.5 30.5,60.5 Z M30.5,59.5 C29.3954305,59.5 28.5,58.6045695 28.5,57.5 C28.5,56.3954305 29.3954305,55.5 30.5,55.5 C31.6045695,55.5 32.5,56.3954305 32.5,57.5 C32.5,58.6045695 31.6045695,59.5 30.5,59.5 Z" id="椭圆形" fill="#C4C6CC" fill-rule="nonzero"></path>
                <g id="搜索为空图标-01" fill-rule="nonzero">
                    <path d="M122.223873,1.40857572 C122.239514,1.74305684 122.514941,2.00619195 122.849404,2.00619195 C123.183868,2.00619195 123.459294,1.74305684 123.474935,1.40857572 C123.485725,1.17784577 123.368915,0.959865961 123.170931,0.841269401 C122.972946,0.722672841 122.725862,0.722672841 122.527877,0.841269401 C122.329893,0.959865961 122.213084,1.17784577 122.223873,1.40857572 L122.223873,1.40857572 Z" id="路径" fill="#C4C6CC"></path>
                    <path d="M0.737415872,57.8327243 C0.753057137,58.1672054 1.02848336,58.4303406 1.36294691,58.4303406 C1.69741047,58.4303406 1.97283669,58.1672054 1.98847795,57.8327243 C1.99926753,57.6019944 1.88245794,57.3840146 1.68447357,57.265418 C1.4864892,57.1468214 1.23940463,57.1468214 1.04142026,57.265418 C0.843435889,57.3840146 0.726626299,57.6019944 0.737415872,57.8327243 L0.737415872,57.8327243 Z" id="路径" fill="#C4C6CC"></path>
                    <path d="M6.23623703,64.6996904 L1.50119374,64.6996904 C1.09395502,64.6996904 0.736728061,64.4054236 0.736728061,64.0602426 C0.736728061,63.7150616 1.09395502,63.4458204 1.50119374,63.4458204 L6.23623703,63.4458204 C6.69348753,63.4458204 6.99891658,63.7167875 6.99891658,64.0602426 C6.99891658,64.4036977 6.69348753,64.6996904 6.23623703,64.6996904 Z M16.4398415,64.6996904 L7.61654718,64.6996904 C7.28675847,64.6996904 6.99891658,64.4054236 6.99891658,64.0602426 C6.99891658,63.7150616 7.28820492,63.4458204 7.61654718,63.4458204 L16.4398415,63.4458204 C16.7696302,63.4458204 17.0184182,63.7167875 17.0184182,64.0602426 C17.0184182,64.4036977 16.7710767,64.6996904 16.4398415,64.6996904 Z M135.375719,64.6996904 L131.502685,64.6996904 C131.302861,64.6854154 131.129538,64.6114041 131.04394,64.5038002 C130.972352,64.3589709 130.972352,64.2050719 131.04394,64.0602426 C130.982579,63.9151953 130.982579,63.7634583 131.04394,63.6184109 C131.144269,63.5225541 131.3132,63.4589983 131.502685,63.4458204 L135.375719,63.4458204 C135.557303,63.4543732 135.716728,63.5204557 135.792096,63.6184109 C135.924479,63.7526861 135.995937,63.9048732 135.999554,64.0602426 C136.006405,64.2169758 135.934191,64.3713721 135.792096,64.5038002 C135.738971,64.6151553 135.571349,64.6940154 135.375719,64.6996904 L135.375719,64.6996904 Z M129.041342,64.6788646 L120.196367,64.6788646 C119.999383,64.6703715 119.831493,64.594114 119.772913,64.4865283 C119.700109,64.3443266 119.700109,64.1932197 119.772913,64.051018 C119.710509,63.9086021 119.710509,63.759618 119.772913,63.6172022 C119.815247,63.5064901 119.999398,63.4327959 120.196367,63.4477429 L129.259755,63.4477429 C129.444425,63.4561405 129.606559,63.5210241 129.683208,63.6172022 C129.745612,63.759618 129.745612,63.9086021 129.683208,64.051018 C129.756013,64.1932197 129.756013,64.3443266 129.683208,64.4865283 C129.655655,64.56424 129.568394,64.6307966 129.44548,64.6678498 C129.322675,64.7060305 129.175994,64.710088 129.047285,64.6788646 L129.041342,64.6788646 Z M116.698484,64.6996904 L18.8780122,64.6996904 C18.5319331,64.6996904 18.2708559,64.4054236 18.2708559,64.0602426 C18.2708559,63.7150616 18.5319331,63.4458204 18.8780122,63.4458204 L116.698484,63.4458204 C116.894874,63.4591261 117.06983,63.5226829 117.173583,63.6184109 C117.217615,63.7646244 117.217615,63.9140291 117.173583,64.0602426 C117.226718,64.2065521 117.226718,64.3574906 117.173583,64.5038002 C117.084931,64.6111652 116.905529,64.6851349 116.698484,64.6996904 L116.698484,64.6996904 Z" id="形状" fill="#979BA5"></path>
                    <path d="M46.4662569,70.9690402 L42.6792686,70.9690402 C42.3531986,70.9690402 42.0671723,70.6927489 42.0671723,70.3416653 C42.0671723,69.9905817 42.3531986,69.7151703 42.6792686,69.7151703 L46.4662569,69.7151703 C46.7908968,69.7151703 47.0769231,69.9905817 47.0769231,70.3416653 C47.0769231,70.6927489 46.7908968,70.9690402 46.4662569,70.9690402 Z M69.0669409,70.9690402 L48.8445802,70.9690402 C48.5509051,70.9690402 48.3293608,70.6927489 48.3293608,70.3416653 C48.3293608,69.9905817 48.5496171,69.7151703 48.8445802,69.7151703 L69.070805,69.7151703 C69.3644801,69.7151703 69.6208017,69.9905817 69.6208017,70.3416653 C69.6208017,70.6927489 69.363192,70.9690402 69.070805,70.9690402 L69.0669409,70.9690402 Z M104.253599,70.965001 L98.8324888,70.965001 C98.6812819,70.9447262 98.5497169,70.8810331 98.4706583,70.789832 C98.4173283,70.6420256 98.4173283,70.4874541 98.4706583,70.3396477 C98.4122725,70.1925863 98.4122725,70.0374006 98.4706583,69.8903393 C98.5417714,69.7942121 98.6772689,69.7286152 98.8324888,69.7151703 L104.261216,69.7151703 C104.429724,69.7199582 104.581496,69.7868611 104.658595,69.8903393 C104.699212,70.0387982 104.699212,70.1911888 104.658595,70.3396477 C104.695419,70.488634 104.695419,70.6408457 104.658595,70.789832 C104.545241,70.9179975 104.331774,70.9869739 104.116484,70.965001 L104.253599,70.965001 Z M95.5255746,70.9690402 L72.6227541,70.9690402 C72.3394202,70.9690402 72.1256771,70.6927489 72.1256771,70.3416653 C72.1256771,69.9905817 72.3381775,69.7151703 72.6227541,69.7151703 L95.3913639,69.7151703 C95.6746977,69.7151703 95.9219935,69.9905817 95.9219935,70.3416653 C95.9219935,70.6927489 95.673455,70.9690402 95.3913639,70.9690402 L95.5255746,70.9690402 Z" id="形状" fill="#C4C6CC"></path>
                    <path d="M57.0964247,79.74613 L60.8537378,79.74613 L60.8537378,81 L57.0964247,81 L57.0964247,79.74613 Z M63.3586132,79.74613 L83.3976165,79.74613 L83.3976165,81 L63.3586132,81 L63.3586132,79.74613 Z M87.1549296,79.74613 L88.4073673,79.74613 L88.4073673,81 L87.1549296,81 L87.1549296,79.74613 Z" id="形状" fill="#F0F1F5"></path>
                    <g id="编组" transform="translate(16.366896, 52.160991)" fill="#DCDEE5">
                        <path d="M2.38329757,4.42486003 C1.96856201,4.42486003 1.55382646,4.07102021 1.55382646,3.6799341 L1.55382646,0.744925931 C1.55382646,0.35508136 1.96856201,0 2.38329757,0 C2.79803313,0 3.15055836,0.352598274 3.15055836,0.744925931 L3.15055836,3.68241719 C3.21069501,4.07102021 2.79595946,4.42734312 2.38329757,4.42734312 L2.38329757,4.42486003 Z" id="形状"></path>
                        <path d="M2.38329757,4.42486003 C1.96856201,4.42486003 1.55382646,4.07102021 1.55382646,3.6799341 L1.55382646,0.744925931 C1.55382646,0.35508136 1.96856201,0 2.38329757,0 C2.79803313,0 3.15055836,0.352598274 3.15055836,0.744925931 L3.15055836,3.68241719 C3.21069501,4.07102021 2.79595946,4.42734312 2.38329757,4.42734312 L2.38329757,4.42486003 Z" id="形状" transform="translate(2.355112, 2.213672) rotate(-270.000000) translate(-2.355112, -2.213672) "></path>
                    </g>
                </g>
            </g>
        </g>
    </g>
</svg>