<svg xmlns="http://www.w3.org/2000/svg" viewBox="0 0 64 64"><title>icon·kit</title><g id="图层_12" data-name="图层 12"><path d="M60,35.49a3.44,3.44,0,0,0-1.94-3.27L46.84,26.9s0-9.29,0-11.79a3.75,3.75,0,0,0-2-3.39s-8.86-4-11.5-5.43a3.14,3.14,0,0,0-2.8,0s-8.32,4.18-10.9,5.36a3.87,3.87,0,0,0-2.31,3.4l0,11.83s-7.33,3.6-10.41,5A4.53,4.53,0,0,0,4,35.94s0,9.44,0,11.9a3.66,3.66,0,0,0,2.1,3.49s7.13,4,10.54,5.78a3.93,3.93,0,0,0,4.15,0L32,50.9s8.85,4.69,10.93,6.17c2.42,1.71,4.06.28,4.06.28s9.84-5.66,11.38-6.46a3.52,3.52,0,0,0,1.64-3s-.12-10,0-12.45ZM18.88,40.26,8.63,35.2l10.23-5.09,10.43,5L18.88,40.26Zm11.49,7.51-9.83,5.58,0-9.93,9.84-4.82Zm1.57-27.29L20.86,15.15,31.92,9.6l11.52,5.51-11.5,5.37Zm1.77,3.27,9.74-4.82,0,8.08-9.74,4.93ZM45.38,40.21l-10.2-5.06,9.74-5.09,10.63,5.06Zm11.25,7.84L47,53.31l0-9.94,9.65-4.82Zm0,0"/></g></svg>