<svg xmlns="http://www.w3.org/2000/svg" viewBox="0 0 64 64"><defs><style>.cls-1{fill:none;}.cls-2{fill:#231815;}</style></defs><title>icon·kit</title><g id="图层_6" data-name="图层 6"><polygon class="cls-1" points="25.9 41.24 15.59 46 32.02 53.59 48.46 46 37.93 41.14 31.81 43.97 25.9 41.24"/><polygon class="cls-1" points="37.93 36.73 48.24 31.97 38 27.24 32.02 30 25.83 27.14 15.38 31.97 25.9 36.83 32.02 34 37.93 36.73"/><polygon class="cls-1" points="33.16 38.93 32.02 38.41 30.67 39.03 31.81 39.56 33.16 38.93"/><polygon class="cls-2" points="43.6 24.5 59.99 16.92 32.02 4 4.05 16.92 20.22 24.39 31.79 19.04 43.6 24.5"/><polygon class="cls-2" points="38 27.24 31.81 24.37 25.83 27.14 32.02 30 38 27.24"/><polygon class="cls-2" points="31.81 39.56 30.67 39.03 25.9 41.24 31.81 43.97 37.93 41.14 33.16 38.93 31.81 39.56"/><polygon class="cls-2" points="15.38 31.97 25.83 27.14 21.06 24.93 5.84 31.97 21.13 39.03 25.9 36.83 15.38 31.97"/><polygon class="cls-2" points="49.49 31.96 38.39 37.09 43.52 39.47 59.76 31.96 43.6 24.5 38.46 26.87 49.49 31.96"/><polygon class="cls-2" points="31.81 24.37 38 27.24 42.77 25.03 31.81 19.97 21.06 24.93 25.83 27.14 31.81 24.37"/><polygon class="cls-2" points="38.39 41.84 49.72 47.08 32.02 55.26 14.32 47.08 25.43 41.95 20.29 39.57 4.05 47.08 32.02 60 59.99 47.08 43.52 39.47 38.39 41.84"/><polygon class="cls-2" points="33.16 38.93 37.93 41.14 42.7 38.93 37.93 36.73 33.16 38.93"/><polygon class="cls-2" points="30.67 39.03 25.9 36.83 21.13 39.03 25.9 41.24 30.67 39.03"/></g></svg>