<svg xmlns="http://www.w3.org/2000/svg" viewBox="0 0 64 64"><defs><style>.cls-1{fill:#231815;}</style></defs><title>画板 2</title><g id="图层_8" data-name="图层 8"><rect class="cls-1" x="31.59" y="16.06" width="10" height="4"/><rect class="cls-1" x="31.59" y="23.6" width="10" height="4"/><circle class="cls-1" cx="36.59" cy="33" r="2.13"/><path class="cls-1" d="M4,53.93a2,2,0,0,0,2,2H58a2,2,0,0,0,2-2V39.58H4Z"/><path class="cls-1" d="M60,39.58,49,30.8V11.93A3.69,3.69,0,0,0,45.52,8h-18A3.69,3.69,0,0,0,24,11.93V14H18.48A3.46,3.46,0,0,0,15,17.44V30.8L4,39.58Zm-8.56-3H49V34.64ZM28,12H45V36.58H28V18h0Zm-4,6V36.58H19V18ZM15,36.58H12.56L15,34.64Z"/></g></svg>