<?xml version="1.0" encoding="UTF-8"?>
<svg width="16px" height="16px" viewBox="0 0 16 16" version="1.1" xmlns="http://www.w3.org/2000/svg" xmlns:xlink="http://www.w3.org/1999/xlink">
    <!-- Generator: Sketch 51.3 (57544) - http://www.bohemiancoding.com/sketch -->
    <title>发现</title>
    <desc>Created with Sketch.</desc>
    <defs>
        <polygon id="path-1" points="0.0030989957 0.0190215097 16.9442755 0.0190215097 16.9442755 16.994602 0.0030989957 16.994602"></polygon>
    </defs>
    <g id="导航修改" stroke="none" stroke-width="1" fill="none" fill-rule="evenodd">
        <g id="删除收藏" transform="translate(-22.000000, -405.000000)">
            <g id="Group" transform="translate(-1.000000, 0.000000)">
                <g id="侧边导航">
                    <g id="发现" transform="translate(23.000000, 405.000000)">
                        <path d="M7.24319224,6.02275639 C6.84888679,6.09141742 6.50390453,6.30921257 6.2736176,6.63712289 C6.04319063,6.9644734 5.9538151,7.36213639 6.02263229,7.75677639 C6.1628995,8.56069549 6.92885142,9.1251267 7.75729058,8.97607655 C8.15139997,8.90741552 8.4959621,8.68962037 8.72692123,8.36218589 C8.95706812,8.0347794 9.04602352,7.63711641 8.97743039,7.24317618 C8.85237187,6.52252922 8.23147663,6 7.50227203,6 C7.41670568,6 7.33004699,6.00733355 7.24319224,6.02275639 Z" id="Fill-1" fill="#737987"></path>
                        <g id="Group-5">
                            <mask id="mask-2" fill="white">
                                <use xlink:href="#path-1"></use>
                            </mask>
                            <g id="Clip-4"></g>
                            <path d="M8.07120516,10.0813277 L8.07939168,10.0749372 C8.0293429,10.0781713 7.97919082,10.0876924 7.92958106,10.0876924 C6.80175323,10.0876924 5.84300143,9.27883837 5.6497274,8.16453287 C5.59051076,7.82342898 5.61512195,7.48294602 5.70349498,7.15832295 L5.68714778,7.17206128 L3.97301578,3.09865879 L7.76827834,5.46064286 C7.82336298,5.45660674 7.87842181,5.44597311 7.93371306,5.44597311 C9.06133429,5.44597311 10.0200861,6.25490473 10.2133601,7.36975355 C10.2724735,7.71114205 10.2478623,8.051625 10.1591019,8.37624807 L11.8715036,12.4460025 L8.07120516,10.0813277 Z M7.93218938,0.0190215097 C3.55839598,0.0190215097 0,3.58387287 0,7.96593506 C0,12.3478679 3.55839598,15.9126416 7.93218938,15.9126416 C12.3061894,15.9126416 15.8645079,12.3478679 15.8645079,7.96593506 C15.8645079,3.58387287 12.3061894,0.0190215097 7.93218938,0.0190215097 Z" id="Fill-3" fill="#757C85" mask="url(#mask-2)"></path>
                        </g>
                    </g>
                </g>
            </g>
        </g>
    </g>
</svg>