<svg xmlns="http://www.w3.org/2000/svg" viewBox="0 0 859 797.35"><title>资源 266</title><g id="图层_2" data-name="图层 2"><g id="图层_4" data-name="图层 4"><path d="M367.05,124.45s24.09,20.08,24.09,36.13c0,0,100.36,8,184.67,60.22,0,0,40.15-32.11,76.28-8,0,0,20.07-36.13,24.08-108.39C676.17,104.38,599.9,4,439.31,0,443.33,0,379.09,84.31,367.05,124.45Z"/><path d="M736.39,441.61c-24.08-64.24-76.27-112.41-76.27-112.41-12,12-36.14,12-36.14,12C555.74,441.61,447.34,481.75,447.34,481.75c-8,32.12-20.07,40.15-20.07,40.15,32.12,52.19,104.38,100.36,104.38,100.36C688.22,578.1,736.39,441.61,736.39,441.61Z"/><path d="M322.89,513.87s-72.26,12-124.45,0c0,0,84.3,132.48,285,112.41,0,0-72.26-68.25-84.3-88.32C399.17,538,343,550,322.89,513.87Z"/><path d="M399.17,192.7c-8,56.21-56.21,52.19-56.21,52.19,0,120.44,20.08,164.6,24.09,164.6,56.2-8,76.28,40.15,76.28,40.15C543.69,397.45,591.87,329.2,591.87,329.2c-44.16-28.1-28.1-84.31-28.1-84.31C491.5,200.73,399.17,192.7,399.17,192.7Z"/><path d="M684.2,305.11c24.09,16.06,68.25,88.32,68.25,88.32,36.13-156.57-44.16-248.9-44.16-248.9-4,48.17-24.09,92.33-28.1,92.33C704.28,265,684.2,305.11,684.2,305.11Z"/><path d="M339,112.41C367.05,44.16,395.15,4,395.15,4c-192.7,32.12-248.9,204.75-248.9,204.75,56.2-32.12,116.42-44.16,120.44-44.16C278.73,104.38,339,112.41,339,112.41Z"/><path d="M302.82,485.77s0-40.15,28.1-64.24c0,0-32.12-84.3-24.09-176.64a58.79,58.79,0,0,1-40.14-44.16s-80.3,16.06-132.49,56.2c0,0-28.1,112.41,36.13,220.81C170.33,477.74,238.58,493.8,302.82,485.77Z"/><path d="M827,732.35H635v64H827a32,32,0,0,0,32-32h0A32,32,0,0,0,827,732.35Z"/><polygon points="507 670.35 379 670.35 379 732.35 317 732.35 317 796.35 571 796.35 571 732.35 507 732.35 507 670.35"/><path d="M0,765.35H0a32,32,0,0,0,32,32H224v-64H32A32,32,0,0,0,0,765.35Z"/></g></g></svg>