<svg xmlns="http://www.w3.org/2000/svg" xmlns:xlink="http://www.w3.org/1999/xlink" viewBox="0 0 839.5 832.16"><defs><style>.cls-1{fill:none;}.cls-2{clip-path:url(#clip-path);}</style><clipPath id="clip-path" transform="translate(0 -0.86)"><rect class="cls-1" x="0.12" width="840.16" height="834.01"/></clipPath></defs><title>资源 264</title><g id="图层_2" data-name="图层 2"><g id="图层_4" data-name="图层 4"><g class="cls-2"><path d="M330.8,716.84a351.07,351.07,0,0,0-112.67-33.07c1.34-9.57,2.61-19,3.87-28.36,8.66-5.7,14.85-14.07,15.41-21,1.06-8.73,2-17.45,3-26.32a7.16,7.16,0,0,0,4.57,2.46,7.63,7.63,0,0,0,8.31-6.82l4.08-40.54a7.55,7.55,0,0,0-11-7.53c.91-7.67,1.76-15.34,2.67-23,.71-10.63,5.7-38.7-14.14-56.93-28.64-28.85-91.9-28.85-120.62,0-19.84,18.23-14.77,46.3-14.07,56.93.91,7.74,1.76,15.41,2.67,23a7.43,7.43,0,0,0-4.29-.84,7.64,7.64,0,0,0-6.69,8.37L96,603.69a7.56,7.56,0,0,0,8.23,6.82,7.06,7.06,0,0,0,4.65-2.46c.91,8.87,2,17.59,3,26.32.63,7,6.76,15.27,15.48,21q1.91,14,3.8,28.29A352.78,352.78,0,0,0,18.42,716.77C7,723-1.08,738.94.12,751.32,1.46,765.54,2.86,779.75,4.34,794c1.2,12.32,11.61,24.63,23.15,27a906.28,906.28,0,0,0,294.44,0c11.54-2.39,21.82-14.63,23.15-27,1.34-14.29,2.75-28.43,4.09-42.72,1.19-12.38-6.9-28.35-18.37-34.48Zm490.21,0a350.67,350.67,0,0,0-112.6-33.07c1.27-9.5,2.54-18.93,4-28.36,8.58-5.7,14.77-14.07,15.4-21,1-8.73,2-17.45,3-26.32a7.35,7.35,0,0,0,4.64,2.46,7.45,7.45,0,0,0,8.17-6.82l4.15-40.54a7.59,7.59,0,0,0-6.69-8.37,7.81,7.81,0,0,0-4.36.84c.92-7.67,1.83-15.34,2.67-23,.64-10.63,5.84-38.7-14-56.93-28.78-28.85-92-28.85-120.69,0-19.84,18.23-14.78,46.3-14.07,56.93.84,7.67,1.62,15.34,2.6,23a7.67,7.67,0,0,0-4.43-.84,7.59,7.59,0,0,0-6.62,8.37l4.16,40.54a7.49,7.49,0,0,0,8.16,6.82,6.71,6.71,0,0,0,4.64-2.46c1,8.87,2,17.59,3,26.32.7,7,6.82,15.27,15.48,21,1.27,9.36,2.53,18.79,3.87,28.29A352.26,352.26,0,0,0,508.7,716.77c-11.48,6.2-19.57,22.17-18.37,34.56q2.1,21.31,4.22,42.71c1.27,12.32,11.61,24.63,23.08,27a906.28,906.28,0,0,0,294.44,0c11.54-2.39,21.88-14.63,23.15-27,1.41-14.28,2.82-28.43,4.15-42.71,1.27-12.39-6.82-28.36-18.36-34.49ZM575.9,263.65a356.48,356.48,0,0,0-112.66-33.08c1.33-9.36,2.6-18.93,3.87-28.36,8.72-5.63,14.85-13.93,15.41-20.9,1.06-8.87,2-17.59,3.09-26.32a8,8,0,0,0,4.65,2.39,7.47,7.47,0,0,0,8.09-6.82L502.5,110a7.63,7.63,0,0,0-6.68-8.37,7.89,7.89,0,0,0-4.37.92c1-7.75,1.91-15.42,2.68-23.16.7-10.55,5.84-38.7-14.08-56.86-28.64-28.92-91.9-28.92-120.54,0-19.85,18.16-14.78,46.31-14.08,56.86.85,7.74,1.83,15.41,2.68,23.16A7.51,7.51,0,0,0,337,110l4.08,40.54a7.66,7.66,0,0,0,8.16,6.82A7.81,7.81,0,0,0,354,155c.92,8.73,2,17.45,2.95,26.32.64,7,6.83,15.27,15.49,20.9,1.26,9.43,2.53,18.86,3.8,28.36a355.91,355.91,0,0,0-112.6,33.15c-11.54,6.12-19.63,22.16-18.36,34.55,1.33,14.21,2.74,28.5,4.21,42.72,1.2,12.38,11.62,24.63,23.09,26.88a902.89,902.89,0,0,0,294.43,0c11.55-2.25,21.82-14.5,23.16-26.88,1.4-14.22,2.81-28.51,4.08-42.72,1.2-12.38-6.83-28.43-18.3-34.62ZM536.56,610.16,441,553.65V440.7a21.29,21.29,0,1,0-42.58,0V553.58l-95.49,56.58A22,22,0,0,0,295.19,640a21.12,21.12,0,0,0,18.51,11,20.46,20.46,0,0,0,10.55-3l95.5-56.44L515.31,648a20.86,20.86,0,0,0,29.06-8,22.18,22.18,0,0,0-7.81-29.84Z" transform="translate(0 -0.86)"/></g></g></g></svg>