<svg xmlns="http://www.w3.org/2000/svg" viewBox="0 0 895.35 763.31"><title>资源 275</title><g id="图层_2" data-name="图层 2"><g id="图层_4" data-name="图层 4"><path d="M895.34,728.2V255.78H0V728.2c0,21.52,12.94,35.11,32.09,35.11H863.76C882.91,763.31,895.86,749.72,895.34,728.2Zm-603.9-90.42h-129v-66h129ZM271.75,486.65,219.44,539l-43.17-43.17L131.44,451l52.31-52.31,44.83,44.83,79.69-79.69,43.17,39ZM769.44,637.78h-324v-66h324Zm0-125h-324v-66h324Z"/><path d="M895.34,35.1c0-21.52-13-35.1-32.1-35.1H32.09C12.94,0,0,13.58,0,35.1V189.78H895.34Zm-235.9,89.68h-64v-62h64Zm128,0h-64v-62h64Z"/></g></g></svg>