<?xml version="1.0" encoding="utf-8"?>
<!-- Generator: Adobe Illustrator 21.1.0, SVG Export Plug-In . SVG Version: 6.00 Build 0)  -->
<svg version="1.1" id="图层_1" xmlns="http://www.w3.org/2000/svg" xmlns:xlink="http://www.w3.org/1999/xlink" x="0px" y="0px"
	 viewBox="0 0 18 18" style="enable-background:new 0 0 18 18;" xml:space="preserve">
<g>
	<path d="M5,2c0-0.6-0.4-1-1-1H3C2.4,1,2,1.4,2,2v2h3V2z"/>
	<path d="M2,16c0,0.6,0.4,1,1,1h1c0.6,0,1-0.4,1-1v-6H2V16z"/>
	<path d="M6,5.5C6,5.2,5.8,5,5.5,5h-4C1.2,5,1,5.2,1,5.5v3C1,8.8,1.2,9,1.5,9h4C5.8,9,6,8.8,6,8.5V5.5z"/>
</g>
<g>
	<path d="M10,2c0-0.6-0.4-1-1-1H8C7.4,1,7,1.4,7,2v7h3V2z"/>
	<path d="M7,16c0,0.6,0.4,1,1,1h1c0.6,0,1-0.4,1-1l0,0H7L7,16z"/>
	<path d="M11,11.5c0-0.3-0.2-0.5-0.5-0.5h-4C6.2,11,6,11.2,6,11.5v3C6,14.8,6.2,15,6.5,15h4c0.3,0,0.5-0.2,0.5-0.5V11.5z"/>
</g>
<g>
	<path d="M16,2c0-0.6-0.4-1-1-1h-1c-0.6,0-1,0.4-1,1v3h3V2z"/>
	<path d="M13,16c0,0.6,0.4,1,1,1h1c0.6,0,1-0.4,1-1v-5h-3V16z"/>
	<path d="M17,6.5C17,6.2,16.8,6,16.5,6h-4C12.2,6,12,6.2,12,6.5v3c0,0.3,0.2,0.5,0.5,0.5h4c0.3,0,0.5-0.2,0.5-0.5V6.5z"/>
</g>
</svg>
