<?xml version="1.0" encoding="utf-8"?>
<!-- Generator: Adobe Illustrator 21.1.0, SVG Export Plug-In . SVG Version: 6.00 Build 0)  -->
<svg version="1.1" id="图层_1" xmlns="http://www.w3.org/2000/svg" xmlns:xlink="http://www.w3.org/1999/xlink" x="0px" y="0px"
	 viewBox="0 0 18 18" style="enable-background:new 0 0 18 18;" xml:space="preserve">
<g>
	<path d="M15,2h-4c-0.5,0-1,0.5-1,1v4c0,0.5,0.5,1,1,1h4c0.5,0,1-0.5,1-1V3C16,2.5,15.5,2,15,2z"/>
	<path d="M15,10h-4c-0.5,0-1,0.5-1,1v4c0,0.5,0.5,1,1,1h4c0.5,0,1-0.5,1-1v-4C16,10.5,15.5,10,15,10z"/>
	<path d="M3.4,4.2c-0.8,1.1-5,7.3,3.4,11.8c0,0-5.6-4.9,0.1-8.9L8,8V2.9c0-0.5-0.4-0.8-0.9-0.7L2,3L3.4,4.2z"/>
</g>
</svg>
