<svg xmlns="http://www.w3.org/2000/svg" viewBox="0 0 895 767"><title>资源 309</title><g id="图层_2" data-name="图层 2"><g id="图层_4" data-name="图层 4"><path d="M127.34,604.05c0,21.52,12.94,35.11,32.09,35.11H236a12,12,0,0,1-12-12v-296a32.09,32.09,0,0,1,32-32h33v-30a32.09,32.09,0,0,1,32-32H577a32.09,32.09,0,0,1,32,32v30h30a32.09,32.09,0,0,1,32,32v296a12,12,0,0,1-12,12h76.58c19.16,0,32.1-13.59,32.1-35.11V163c0-21.52-12.94-35.11-32.1-35.11H158.92c-19.16,0-32.1,13.59-31.58,35.11Z"/><rect x="287" y="505.16" width="64" height="134"/><rect x="415" y="506.16" width="64" height="133"/><rect x="544" y="504.16" width="64" height="135"/><path d="M863,0H32A32.09,32.09,0,0,0,0,32V735a32.09,32.09,0,0,0,32,32H863a32.09,32.09,0,0,0,32-32V32A32.09,32.09,0,0,0,863,0ZM830,702.5H65V64.5H830Z"/></g></g></svg>