<svg xmlns="http://www.w3.org/2000/svg" viewBox="0 0 892 892"><defs><style>.cls-1{fill:#050505;}</style></defs><title>资源 319</title><g id="图层_2" data-name="图层 2"><g id="图层_4" data-name="图层 4"><path class="cls-1" d="M446,892C206.31,892,5.75,696.86.12,457.12-5.51,211.81,189.57,5.63,434.81,0H446C685.68,0,886.25,195.14,891.88,434.82,897.5,680.12,702.36,886.37,457.12,892Zm22.3-351.17,72.39,72.39-39,39.11,184,33.34L652.2,501.79l-39.11,39-72.4-72.53-72.46,72.53ZM423.7,351.24l-78.09-78.08,39.11-39-184-33.42,33.42,183.89,39-39,72.46,72.52,78-66.9ZM351.24,468.3l-78,78-33.49-39L206.31,691.23l183.9-33.41-39-39,72.46-72.53Zm189.52-44.6,72.39-72.53,39.12,39.11,33.41-184L507.27,239.74l39.12,39-78.16,72.59,72.46,72.39Z"/></g></g></svg>