<svg xmlns="http://www.w3.org/2000/svg" xmlns:xlink="http://www.w3.org/1999/xlink" viewBox="0 0 885.47 758.94"><defs><style>.cls-1{fill:none;}.cls-2{clip-path:url(#clip-path);}</style><clipPath id="clip-path" transform="translate(0 -0.89)"><rect class="cls-1" x="0.13" width="886.16" height="760.86"/></clipPath></defs><title>资源 295</title><g id="图层_2" data-name="图层 2"><g id="图层_4" data-name="图层 4"><g class="cls-2"><path d="M885.25,466.69c-.37,8.45-11.55,17.89-34.5,29.88C803.53,521.18,558.7,621.87,506.6,649s-81.06,26.9-122.23,7.2S82.72,531.29,35.79,508.89C12.36,497.68.41,488.23,0,479.31v89.5c0,8.93,12.32,18.41,35.79,29.63,46.93,22.43,307.44,127.65,348.58,147.32s70.1,20,122.23-7.23,296.89-127.8,344.15-152.45c24-12.51,34.68-22.25,34.68-31.07V466.76Z" transform="translate(0 -0.89)"/><path d="M885.21,320.77c-.37,8.45-11.55,17.86-34.46,29.85-47.22,24.61-292,125.29-344.15,152.45S425.54,530,384.37,510.3,82.72,385.37,35.79,362.94C12.36,351.76.41,342.28,0,333.39V422.9c0,8.92,12.32,18.37,35.79,29.58,46.93,22.44,307.4,127.66,348.58,147.32s70.1,20,122.23-7.19S803.49,464.77,850.75,440.16c24-12.54,34.68-22.28,34.68-31.1V320.81Z" transform="translate(0 -0.89)"/><path d="M885.21,169.43c.44-9-11.33-16.9-35-25.6C804.15,127,560.83,30.12,514.24,13S448.67-3.31,394,16.35,80.06,137.59,34,155.59C10.92,164.67-.33,173,0,182v89.55c0,8.92,12.32,18.37,35.79,29.58,46.93,22.44,307.4,127.7,348.58,147.36s70.09,19.92,122.23-7.23S803.53,313.39,850.79,288.78c24-12.54,34.68-22.28,34.68-31.1V169.43h-.26ZM317.07,254.17l205.17-31.5-62,90.87L317.11,254.17Zm453.81-81.83-121.35,48-13.18,5.16-121.27-48,134.37-53.13,121.39,48ZM414.62,84.42,394.77,47.83,456.68,72l58.37-19.11L499.26,90.73,558.73,113,482,121l-17.19,41.32-27.75-46.08-88.55-8ZM261.77,136.08c60.58,0,109.65,19,109.65,42.46s-49.07,42.51-109.65,42.51S152.08,202,152.08,178.54,201.19,136,261.77,136Z" transform="translate(0 -0.89)"/></g></g></g></svg>