<svg xmlns="http://www.w3.org/2000/svg" viewBox="0 0 894 767"><title>资源 273</title><g id="图层_2" data-name="图层 2"><g id="图层_4" data-name="图层 4"><path d="M862,513.62H837a31.56,31.56,0,0,0-6.77.74V253.09a32.33,32.33,0,0,0,5.77.53h25a32.09,32.09,0,0,0,32-32v-61a32.09,32.09,0,0,0-32-32H836a31.44,31.44,0,0,0-5.77.54V32a32.09,32.09,0,0,0-32-32h-704a32.09,32.09,0,0,0-32,32v97.06a32.19,32.19,0,0,0-5.23-.44H32a32.09,32.09,0,0,0-32,32v61a32.09,32.09,0,0,0,32,32H57a32.19,32.19,0,0,0,5.23-.43V511.91a32.78,32.78,0,0,0-4.23-.29H33a32.09,32.09,0,0,0-32,32v61a32.09,32.09,0,0,0,32,32H58a31.09,31.09,0,0,0,4.23-.29V735a32.09,32.09,0,0,0,32,32h704a32.09,32.09,0,0,0,32-32V637.89a31.56,31.56,0,0,0,6.77.73h25a32.09,32.09,0,0,0,32-32v-61A32.09,32.09,0,0,0,862,513.62ZM765.23,702.5h-638V64.5h638Z"/><path d="M221.38,639.18H671c19.16,0,32.1-13.59,31.58-35.1V163c0-21.51-12.94-35.1-32.09-35.1H221.38c-19.16,0-32.1,13.59-32.1,35.1V604.08C189.28,625.59,202.22,639.18,221.38,639.18Zm224.7-120.46q-27,0-27-27t27-27q27,0,27,27T446.08,518.72Zm76.43-76.42q-31.78-31.79-76.43-31.78-44.9,0-76.42,31.78L331.32,404Q379,356.55,446.08,356.54T560.59,404Zm-76.43-194q112,0,191.19,79.2l-38.33,38.34q-63.32-63.56-152.86-63.56-89.79,0-153.1,63.56l-38.33-38.34Q334.09,248.33,446.08,248.33Z"/></g></g></svg>