<?xml version="1.0" encoding="utf-8"?>
<!-- Generator: Adobe Illustrator 21.1.0, SVG Export Plug-In . SVG Version: 6.00 Build 0)  -->
<svg version="1.1" id="图层_1" xmlns="http://www.w3.org/2000/svg" xmlns:xlink="http://www.w3.org/1999/xlink" x="0px" y="0px"
	 viewBox="0 0 18 18" style="enable-background:new 0 0 18 18;" xml:space="preserve">
<g>
	<path d="M12.7,8.5c0.4,0,0.8,0.1,1.2,0.2V5.4L9.5,1H2C1.5,1,1,1.5,1,2.1v12.8c0,0.6,0.5,1.1,1,1.1l7.2,0c-0.6-0.9-0.9-1.9-0.9-3
		C8.2,10.4,10.3,8.5,12.7,8.5z M3.5,6.1h3.2v1H3.5V6.1z M6.7,11.3H3.5v-1h3.2L6.7,11.3z M7.5,9.2h-4v-1h4V9.2z M9,2.7L12.3,6H9V2.7z
		"/>
	<path d="M13.1,13l2-3c-0.6-0.3-1.2-0.5-1.7-0.5c-2,0-3.7,1.7-3.7,3.8s1.5,3.8,3.5,3.8h0.2c2,0,3.5-1.6,3.7-3.6L13.1,13z"/>
</g>
</svg>
