<?xml version="1.0" encoding="utf-8"?>
<!-- Generator: Adobe Illustrator 21.1.0, SVG Export Plug-In . SVG Version: 6.00 Build 0)  -->
<svg version="1.1" id="图层_1" xmlns="http://www.w3.org/2000/svg" xmlns:xlink="http://www.w3.org/1999/xlink" x="0px" y="0px"
	 viewBox="0 0 18 18" style="enable-background:new 0 0 18 18;" xml:space="preserve">
<style type="text/css">
	.st0{fill:#020202;}
</style>
<g>
	<path class="st0" d="M15,8h1.8c0.4,0,0.7-0.5,0.4-0.8l-4.3-4.3C12.5,2.5,12,2.8,12,3.2v1.3C12,4.8,11.8,5,11.5,5h-10
		C1.2,5,1,5.2,1,5.5v2C1,7.8,1.2,8,1.5,8H12H15z"/>
	<path class="st0" d="M16.5,10H6H3H1.2c-0.4,0-0.7,0.5-0.4,0.8l4.3,4.3C5.5,15.5,6,15.2,6,14.8v-1.3C6,13.2,6.2,13,6.5,13h10
		c0.3,0,0.5-0.2,0.5-0.5v-2C17,10.2,16.8,10,16.5,10z"/>
</g>
</svg>
