<svg xmlns="http://www.w3.org/2000/svg" viewBox="0 0 768 893.87"><title>资源 315</title><g id="图层_2" data-name="图层 2"><g id="图层_4" data-name="图层 4"><path d="M0,573.87H768V320H0ZM608.91,409.6c19.21,0,34.29,16.43,35.66,35.84,0,20.91-15.08,37.33-32.91,38.82S577.37,467.84,576,448.43C576,427.52,591.08,409.6,608.91,409.6Zm-109.71,0c13.71,0,26.06,9,31.54,22.4s2.74,29.86-6.85,40.32a34.76,34.76,0,0,1-37,9c-12.34-6-21.95-19.42-21.95-34.35C466.29,426,481.37,409.6,499.2,409.6Zm-389.49,0h192v74.66h-192Z"/><path d="M0,861.87a32,32,0,0,0,32,32H736a32,32,0,0,0,32-32V640H0ZM608.91,729.6c19.21,0,34.29,16.43,35.66,35.84,0,20.91-15.08,37.33-32.91,38.82S577.37,787.84,576,768.43C576,747.52,591.08,729.6,608.91,729.6Zm-109.71,0c13.71,0,26.06,9,31.54,22.4s2.74,29.86-6.85,40.32a34.76,34.76,0,0,1-37,9c-12.34-6-21.95-19.42-21.95-34.35C466.29,746,481.37,729.6,499.2,729.6Zm-389.49,0h192v74.66h-192Z"/><path d="M736,0H32A32,32,0,0,0,0,32V253.87H768V32A32,32,0,0,0,736,0ZM301.72,164.26h-192V89.6h192Zm222.17-11.94a34.76,34.76,0,0,1-37,9c-12.34-6-21.95-19.42-21.95-34.35C466.29,106,481.37,89.6,499.2,89.6c13.71,0,26.06,9,31.54,22.4S533.48,141.86,523.89,152.32Zm87.77,11.94c-17.83,1.5-34.29-16.42-35.66-35.83,0-20.91,15.08-38.83,32.91-38.83,19.21,0,34.29,16.43,35.66,35.84C644.57,146.35,629.49,162.77,611.66,164.26Z"/></g></g></svg>