<svg xmlns="http://www.w3.org/2000/svg" viewBox="0 0 893.07 768.23"><title>资源 282</title><g id="图层_2" data-name="图层 2"><g id="图层_4" data-name="图层 4"><path d="M872.24,303.75c-20.35-18.15-45-10.94-69.3,10.55a.81.81,0,0,1-.56.21h-297a37.29,37.29,0,0,0-37.18,37.18v327.1A37.29,37.29,0,0,0,505.41,716H700.14a.86.86,0,0,1,.85.78c1.84,21.74,5.2,40.47,9.48,51a.85.85,0,0,0,1.19.42l1.62-.88a.86.86,0,0,0,.4-1c-6.46-20.46-9.07-47.15-7.91-77.88,1.78-47.47,12.7-104.73,32.89-164.4,30.57-80.75,71.76-147.2,111.16-185a.85.85,0,0,1,1.24,1.16c-37.55,45.12-82.18,142.27-96.56,180.69-16.69,44.62-28.86,86.67-36.62,127a.85.85,0,0,0,1.6.52c15.14-33,49.58-48.15,52.45-49.37a.75.75,0,0,0,.32-.24c1.8-2.23,21.26-26.52,44.06-60.74a.85.85,0,0,0-.89-1.3c-14.75,3.39-37,8.74-44.68,12l-.35.15a.83.83,0,0,1-.72-1.5c14.12-7.76,36.7-19.3,57.22-25.93a.86.86,0,0,0,.45-.35C872.71,449.59,922,348.15,872.24,303.75Z"/><path d="M316.41,326.43a818.79,818.79,0,0,0,109.5-7.16c0-17.28,2.16-37.78,2.16-37.78s104-4,146.08-4c36.93-19.08,58.66-42.45,58.66-67.75v-93.1C632.81,52.06,491,0,316.41,0S0,52.06,0,116.66v93.1C0,274,141.45,326.43,316.41,326.43Z"/><path d="M316.41,396.35C141.77,396.35,0,344.29,0,279.69V419.53c0,64.22,141.45,116.66,316.41,116.66,41.19,0,76.55-3.92,112.66-9.2,0-51-1-78-1-138.1A816.72,816.72,0,0,1,316.41,396.35Z"/><path d="M.32,489.45V629.29C.32,693.52,141.77,746,316.73,746c41.84,0,75.77-2.53,112.34-8V598c-37,5.58-70.27,8.13-112.66,8.13C141.77,606.12.32,554.05.32,489.45Z"/></g></g></svg>