<svg xmlns="http://www.w3.org/2000/svg" xmlns:xlink="http://www.w3.org/1999/xlink" viewBox="0 0 761.46 846.06"><defs><style>.cls-1{fill:none;}.cls-2{clip-path:url(#clip-path);}</style><clipPath id="clip-path" transform="translate(0 -0.58)"><rect class="cls-1" x="0.12" width="762.12" height="847.68"/></clipPath></defs><title>资源 261</title><g id="图层_2" data-name="图层 2"><g id="图层_4" data-name="图层 4"><g class="cls-2"><path d="M738.61,67.28,381.49.58,31.22,67.28,0,72V503.11q0,38.79,19.83,77.13T71.58,654.7a565.5,565.5,0,0,0,72.72,68.23,763.25,763.25,0,0,0,83,57.39,674.1,674.1,0,0,0,81.47,41.9Q348,838.89,377.68,845.1l8.38,1.55,9.14-1.55q28.95-6.24,67.38-22.88a620.4,620.4,0,0,0,79.19-41.9,762.46,762.46,0,0,0,80.34-57.39,544,544,0,0,0,70.43-68.23c20.56-24.06,37.16-48.81,49.88-74.46s19-51.27,19-77.13V71.94ZM684.7,511.6q0,29.85-14.24,58.86a248.9,248.9,0,0,1-38.07,55.84,379.23,379.23,0,0,1-54.87,50.36A606.62,606.62,0,0,1,513,719.29a570.74,570.74,0,0,1-67.81,33.26q-34.38,14.07-63.62,20.89V386.24H76.75v-272l300.63-52,4.22.84V386.24H684.7Z" transform="translate(0 -0.58)"/></g></g></g></svg>