<?xml version="1.0" encoding="utf-8"?>
<!-- Generator: Adobe Illustrator 22.0.1, SVG Export Plug-In . SVG Version: 6.00 Build 0)  -->
<svg version="1.1" id="图层_1" xmlns="http://www.w3.org/2000/svg" xmlns:xlink="http://www.w3.org/1999/xlink" x="0px" y="0px"
	 viewBox="0 0 18 18" style="enable-background:new 0 0 18 18;" xml:space="preserve">
<style type="text/css">
	.st0{clip-path:url(#SVGID_2_);}
</style>
<g>
	<g>
		<defs>
			<rect id="SVGID_1_" x="0.4" y="2" width="16.1" height="13.8"/>
		</defs>
		<clipPath id="SVGID_2_">
			<use xlink:href="#SVGID_1_"  style="overflow:visible;"/>
		</clipPath>
		<path class="st0" d="M9.5,11.9c-2.3,0-3.3-0.1-4.6,0.4c-2,0.8-3.3,1.9-4.6,3.6c0-0.2,0-0.3,0.1-0.5l0.1-0.5c0.4-1.8,1.3-4,2.1-5.7
			C4.4,5.8,9.2,6,9.5,5.9V2.1c0,0,0,0,0,0l6.9,6.9c-2.3,2.3-4.7,4.6-7,6.9C9.5,14.5,9.5,13.2,9.5,11.9L9.5,11.9z M9.5,11.9"/>
	</g>
</g>
</svg>
