<svg xmlns="http://www.w3.org/2000/svg" viewBox="0 0 895 767"><title>资源 308</title><g id="图层_2" data-name="图层 2"><g id="图层_4" data-name="图层 4"><path d="M863,0H32A32.09,32.09,0,0,0,0,32V735a32.09,32.09,0,0,0,32,32H863a32.09,32.09,0,0,0,32-32V32A32.09,32.09,0,0,0,863,0ZM830,702.5H65V64.5H830Z"/><path d="M504.71,348.32q0-31.47-36.69-31.47H449.41v63.71h18.22Q504.71,380.56,504.71,348.32Z"/><path d="M159.42,639.16H736.08c19.16,0,32.1-13.59,31.58-35.11V163c0-21.52-12.94-35.11-32.09-35.11H159.42c-19.16,0-32.1,13.59-32.1,35.11v441.1C127.32,625.57,140.26,639.16,159.42,639.16ZM590,296.14q21-15.22,55.49-15.22,28.93,0,48.55,7.51v39.51q-19.87-13.51-46.51-13.51-15.55,0-24.85,5.67t-9.3,15.23q0,7.64,6.37,14.08t31.48,17.39q29.43,12.61,40.45,26.63t11,33.39q0,28.41-20.14,43.32t-57.21,14.91q-33.9,0-55.56-11V431.92q23.82,19.75,54.16,19.75,17.19,0,25.86-5.93t8.67-15.23q0-8-6.88-15.16T615.32,396q-46.26-19.62-46.26-57.09Q569.06,311.38,590,296.14ZM407.36,284.23h67.92q73.65,0,73.65,62.44,0,30.33-22.23,48.61T471.07,412.8H449.41v68.81H407.36Zm-204.65,0h42.18V399.3q0,49.31,38.87,49.31,38.22,0,38.22-47.53V284.23H364V396.75q0,88.31-82.07,88.3-79.26,0-79.26-86Z"/></g></g></svg>