<?xml version="1.0" encoding="utf-8"?>
<!-- Generator: Adobe Illustrator 22.0.1, SVG Export Plug-In . SVG Version: 6.00 Build 0)  -->
<svg version="1.1" xmlns="http://www.w3.org/2000/svg" xmlns:xlink="http://www.w3.org/1999/xlink" x="0px" y="0px"
	 viewBox="0 0 1024 1024" style="enable-background:new 0 0 1024 1024;" xml:space="preserve">
<g id="图层_2">
</g>
<g id="图层_1">
</g>
<g id="图层_3">
	<g>
	</g>
</g>
<g id="图层_4">
</g>
<g id="图层_5">
	<path d="M943.4,390.7c-2.9-11.2-13.6-50.4-32.4-82.6C836.9,163.2,686,64,512,64C264.5,64,64,264.5,64,512s200.5,448,448,448
		s448-200.5,448-448C960,470,954.2,429.3,943.4,390.7z M512,885.5c-206.2,0-373.5-167.2-373.5-373.5S305.8,138.6,512,138.6
		c155,0,288,94.5,344.5,229.1c-71.2,78.6-186.5,205.6-186.5,205.6V342.8L437.7,589.6v-126H260.8l-1.7,78.6h99.2v247.7L588,546.5V783
		l294.2-321.3c2.2,16.4,3.3,33.2,3.3,50.3C885.5,718.2,718.2,885.5,512,885.5z"/>
	<g>
	</g>
	<g>
	</g>
	<g>
	</g>
	<g>
	</g>
	<g>
	</g>
	<g>
	</g>
	<g>
	</g>
	<g>
	</g>
	<g>
	</g>
	<g>
	</g>
	<g>
	</g>
	<g>
	</g>
	<g>
	</g>
	<g>
	</g>
	<g>
	</g>
</g>
</svg>
