<?xml version="1.0" encoding="UTF-8"?>
<svg width="12px" height="15px" viewBox="0 0 12 15" version="1.1" xmlns="http://www.w3.org/2000/svg" xmlns:xlink="http://www.w3.org/1999/xlink">
    <g stroke="none" stroke-width="1" fill="none" fill-rule="evenodd">
        <g transform="translate(-458.000000, -681.000000)" fill="#63656E" fill-rule="nonzero">
            <g transform="translate(60.000000, 183.000000)">
                <g transform="translate(30.000000, 56.000000)">
                    <g transform="translate(0.000000, 431.000000)">
                        <path d="M378.875,18 L379.454545,18 C379.75625,18 380,18.25025 380,18.56 L380,25.44 C380,25.74975 379.75625,26 379.454545,26 L368.545455,26 C368.24375,26 368,25.74975 368,25.44 L368,18.56 C368,18.25025 368.24375,18 368.545455,18 L369.704545,18 L369.704545,13.24 C369.704545,12.00275 370.68125,11 371.886364,11 L376.113636,11 C377.31875,11 378.295455,12.00275 378.295455,13.24 L378.295455,17 L377.068182,17 L377.068182,13.24 C377.068182,12.69925 376.640341,12.26 376.113636,12.26 L371.886364,12.26 C371.359659,12.26 370.931818,12.69925 370.931818,13.24 L370.931818,18 L377,18 L378.875,18 Z">
                        </path>
                    </g>
                </g>
            </g>
        </g>
    </g>
</svg>