<?xml version="1.0" encoding="UTF-8"?>
<svg width="217px" height="36px" viewBox="0 0 217 36" version="1.1" xmlns="http://www.w3.org/2000/svg" xmlns:xlink="http://www.w3.org/1999/xlink">
    <!-- Generator: Sketch 50.2 (55047) - http://www.bohemiancoding.com/sketch -->
    <title>Combined Shape</title>
    <desc>Created with Sketch.</desc>
    <defs></defs>
    <g id="第三版" stroke="none" stroke-width="1" fill="none" fill-rule="evenodd">
        <g id="6" transform="translate(-14.000000, -12.000000)" fill="#FFFFFF" fill-rule="nonzero">
            <path d="M44.1680705,19.432713 C45.4973555,20.1978452 46.3153771,21.6152791 46.3153771,23.1490695 L46.3153771,36.8438786 C46.3153771,38.377669 45.4973555,39.7951028 44.1680705,40.5602351 L32.3067581,47.4076396 C30.980999,48.1727718 29.3449559,48.1727718 28.0156709,47.4076396 L16.1543585,40.5602351 C14.8250735,39.7951028 14.0070519,38.377669 14.0070519,36.8438786 L14.0070519,23.1490695 C14.0070519,21.6152791 14.8250735,20.1978452 16.1543585,19.432713 L28.0156709,12.5817826 C29.34143,11.8166503 30.9774731,11.8166503 32.3067581,12.5817826 L44.1680705,19.432713 Z M33.6959843,33.0252693 C33.6854065,33.0323213 33.6783546,33.0393732 33.6677767,33.0428991 L31.0479922,34.5555338 C30.4979432,34.8728697 29.8209598,34.8728697 29.2709109,34.5555338 L26.6511263,33.0428991 C26.1010774,32.7255632 25.7625857,32.1402547 25.7625857,31.5055828 L25.7625857,28.4803134 C25.7625857,27.8456415 26.1010774,27.260333 26.6511263,26.9429971 L29.2709109,25.4303624 C29.8209598,25.1130264 30.4979432,25.1130264 31.0479922,25.4303624 L33.1071499,26.6186092 L34.5668952,27.3943193 L38.967287,24.8485798 C38.7698335,24.524192 38.498335,24.2562194 38.1704212,24.0658178 L31.2912831,20.0991185 C30.593144,19.6971596 29.732811,19.6971596 29.0346719,20.0991185 L22.1555338,24.0693438 C21.4573947,24.4713026 21.0272282,25.2188051 21.0272282,26.0262488 L21.0272282,33.9666993 C21.0272282,34.774143 21.4573947,35.5181195 22.1555338,35.9200784 L29.0346719,39.8903036 C29.732811,40.2922625 30.593144,40.2922625 31.2912831,39.8903036 L38.1704212,35.9200784 C38.8685602,35.5181195 39.2987267,34.770617 39.2987267,33.9666993 L39.2987267,29.7884427 L33.6959843,33.0252693 Z M68.3779297,28.9755859 L64.6777344,28.9755859 L64.6777344,26.4970703 C64.6777344,25.7763636 64.638184,25.326661 64.559082,25.1479492 C64.4799801,24.9692374 64.3056654,24.8798828 64.0361328,24.8798828 C63.7314438,24.8798828 63.5380863,24.9882802 63.4560547,25.2050781 C63.374023,25.4218761 63.3330078,25.8906214 63.3330078,26.6113281 L63.3330078,33.2207031 C63.3330078,33.9121128 63.374023,34.3632802 63.4560547,34.5742188 C63.5380863,34.7851573 63.7226548,34.890625 64.0097656,34.890625 C64.2851576,34.890625 64.4653316,34.7851573 64.550293,34.5742188 C64.6352543,34.3632802 64.6777344,33.868168 64.6777344,33.0888672 L64.6777344,31.3046875 L68.3779297,31.3046875 L68.3779297,31.8583984 C68.3779297,33.3291089 68.2739268,34.3720672 68.065918,34.9873047 C67.8579091,35.6025421 67.3979528,36.1415992 66.6860352,36.6044922 C65.9741175,37.0673851 65.0966849,37.2988281 64.0537109,37.2988281 C62.9697211,37.2988281 62.0761754,37.102541 61.3730469,36.7099609 C60.6699184,36.3173808 60.2041027,35.7739293 59.9755859,35.0795898 C59.7470692,34.3852504 59.6328125,33.3408273 59.6328125,31.9462891 L59.6328125,27.7890625 C59.6328125,26.7636667 59.6679684,25.9946315 59.7382812,25.4819336 C59.8085941,24.9692357 60.0180647,24.4755883 60.3666992,24.0009766 C60.7153338,23.5263648 61.1987274,23.1528334 61.8168945,22.8803711 C62.4350617,22.6079088 63.1455038,22.4716797 63.9482422,22.4716797 C65.0380914,22.4716797 65.9374965,22.6826151 66.6464844,23.1044922 C67.3554723,23.5263693 67.8212879,24.0522429 68.0439453,24.6821289 C68.2666027,25.3120149 68.3779297,26.2919855 68.3779297,27.6220703 L68.3779297,28.9755859 Z M78.1601562,31.1025391 C78.1601562,32.5322337 78.1264652,33.5444306 78.059082,34.1391602 C77.9916989,34.7338897 77.7807635,35.2773413 77.4262695,35.7695312 C77.0717756,36.2617212 76.5927765,36.6396471 75.9892578,36.9033203 C75.3857392,37.1669935 74.6826212,37.2988281 73.8798828,37.2988281 C73.1181603,37.2988281 72.4340851,37.1743177 71.8276367,36.925293 C71.2211884,36.6762683 70.7334003,36.3027369 70.3642578,35.8046875 C69.9951153,35.3066381 69.775391,34.7646514 69.7050781,34.1787109 C69.6347653,33.5927705 69.5996094,32.5673901 69.5996094,31.1025391 L69.5996094,28.6679688 C69.5996094,27.2382741 69.6333004,26.2260772 69.7006836,25.6313477 C69.7680667,25.0366181 69.9790021,24.4931665 70.3334961,24.0009766 C70.6879901,23.5087866 71.1669892,23.1308607 71.7705078,22.8671875 C72.3740265,22.6035143 73.0771444,22.4716797 73.8798828,22.4716797 C74.6416054,22.4716797 75.3256806,22.5961902 75.9321289,22.8452148 C76.5385773,23.0942395 77.0263653,23.4677709 77.3955078,23.9658203 C77.7646503,24.4638697 77.9843746,25.0058564 78.0546875,25.5917969 C78.1250004,26.1777373 78.1601562,27.2031177 78.1601562,28.6679688 L78.1601562,31.1025391 Z M74.4599609,26.4267578 C74.4599609,25.7646451 74.4233402,25.3413095 74.3500977,25.1567383 C74.2768551,24.972167 74.1259777,24.8798828 73.8974609,24.8798828 C73.7041006,24.8798828 73.5561529,24.9545891 73.4536133,25.1040039 C73.3510737,25.2534187 73.2998047,25.6943323 73.2998047,26.4267578 L73.2998047,33.0712891 C73.2998047,33.8974651 73.3334958,34.4072256 73.4008789,34.6005859 C73.4682621,34.7939463 73.6249988,34.890625 73.8710938,34.890625 C74.1230481,34.890625 74.2841793,34.779298 74.3544922,34.5566406 C74.424805,34.3339833 74.4599609,33.8037151 74.4599609,32.9658203 L74.4599609,26.4267578 Z M87.8017578,22.7705078 L87.8017578,37 L84.5585938,37 L82.6337891,30.53125 L82.6337891,37 L79.5400391,37 L79.5400391,22.7705078 L82.6337891,22.7705078 L84.7080078,29.1777344 L84.7080078,22.7705078 L87.8017578,22.7705078 Z M89.2871094,22.7705078 L95.5537109,22.7705078 L95.5537109,25.6181641 L92.9873047,25.6181641 L92.9873047,28.3164062 L95.2724609,28.3164062 L95.2724609,31.0234375 L92.9873047,31.0234375 L92.9873047,37 L89.2871094,37 L89.2871094,22.7705078 Z M100.150391,22.7705078 L100.150391,37 L96.4501953,37 L96.4501953,22.7705078 L100.150391,22.7705078 Z M110.125977,28.0087891 L106.425781,28.0087891 L106.425781,26.7167969 C106.425781,25.9023397 106.390625,25.3925792 106.320312,25.1875 C106.25,24.9824208 106.083009,24.8798828 105.819336,24.8798828 C105.590819,24.8798828 105.435547,24.9677726 105.353516,25.1435547 C105.271484,25.3193368 105.230469,25.7705042 105.230469,26.4970703 L105.230469,33.3261719 C105.230469,33.9648469 105.271484,34.3852529 105.353516,34.5874023 C105.435547,34.7895518 105.599608,34.890625 105.845703,34.890625 C106.115236,34.890625 106.298339,34.7763683 106.39502,34.5478516 C106.4917,34.3193348 106.540039,33.8740267 106.540039,33.2119141 L106.540039,31.5244141 L105.792969,31.5244141 L105.792969,29.3623047 L110.125977,29.3623047 L110.125977,37 L107.796875,37 L107.454102,35.9804688 C107.202147,36.4199241 106.884279,36.7495106 106.500488,36.9692383 C106.116697,37.1889659 105.664065,37.2988281 105.142578,37.2988281 C104.521481,37.2988281 103.939944,37.1479507 103.397949,36.8461914 C102.855954,36.5444321 102.444337,36.1709007 102.163086,35.7255859 C101.881835,35.2802712 101.706055,34.8129907 101.635742,34.3237305 C101.565429,33.8344702 101.530273,33.1005908 101.530273,32.1220703 L101.530273,27.8945312 C101.530273,26.5351495 101.603515,25.5478546 101.75,24.9326172 C101.896485,24.3173797 102.316891,23.7534205 103.01123,23.2407227 C103.70557,22.7280248 104.60351,22.4716797 105.705078,22.4716797 C106.789068,22.4716797 107.688473,22.6943337 108.40332,23.1396484 C109.118168,23.5849632 109.583983,24.1137665 109.800781,24.7260742 C110.017579,25.338382 110.125977,26.2275332 110.125977,27.3935547 L110.125977,28.0087891 Z M119.969727,22.7705078 L119.969727,32.2802734 C119.969727,33.3584038 119.934571,34.1157205 119.864258,34.5522461 C119.793945,34.9887717 119.585939,35.4370094 119.240234,35.8969727 C118.89453,36.3569359 118.438968,36.7055652 117.873535,36.9428711 C117.308103,37.180177 116.641605,37.2988281 115.874023,37.2988281 C115.02441,37.2988281 114.274417,37.1582045 113.624023,36.8769531 C112.97363,36.5957017 112.487306,36.2294944 112.165039,35.7783203 C111.842772,35.3271462 111.652344,34.8510767 111.59375,34.3500977 C111.535156,33.8491186 111.505859,32.7959065 111.505859,31.1904297 L111.505859,22.7705078 L115.206055,22.7705078 L115.206055,33.4404297 C115.206055,34.0615265 115.239746,34.4584952 115.307129,34.6313477 C115.374512,34.8042001 115.510741,34.890625 115.71582,34.890625 C115.950196,34.890625 116.101074,34.7954111 116.168457,34.6049805 C116.23584,34.4145498 116.269531,33.9648473 116.269531,33.2558594 L116.269531,22.7705078 L119.969727,22.7705078 Z M121.402344,22.7705078 L124.021484,22.7705078 C125.767587,22.7705078 126.949704,22.83789 127.567871,22.9726562 C128.186038,23.1074225 128.689939,23.4516574 129.07959,24.0053711 C129.46924,24.5590848 129.664062,25.4423767 129.664062,26.6552734 C129.664062,27.7627008 129.526369,28.506834 129.250977,28.8876953 C128.975585,29.2685566 128.433598,29.4970699 127.625,29.5732422 C128.357426,29.7548837 128.849608,29.9980454 129.101562,30.3027344 C129.353517,30.6074234 129.510254,30.8872058 129.571777,31.1420898 C129.633301,31.3969739 129.664062,32.0986271 129.664062,33.2470703 L129.664062,37 L126.227539,37 L126.227539,32.2714844 C126.227539,31.5097618 126.167481,31.0380868 126.047363,30.8564453 C125.927245,30.6748038 125.612307,30.5839844 125.102539,30.5839844 L125.102539,37 L121.402344,37 L121.402344,22.7705078 Z M125.102539,25.2050781 L125.102539,28.3691406 C125.518557,28.3691406 125.810058,28.3120123 125.977051,28.1977539 C126.144044,28.0834955 126.227539,27.7128938 126.227539,27.0859375 L126.227539,26.3037109 C126.227539,25.8525368 126.146973,25.5566413 125.98584,25.4160156 C125.824706,25.2753899 125.530276,25.2050781 125.102539,25.2050781 Z M137.486328,22.7705078 L139.604492,37 L135.816406,37 L135.631836,34.4423828 L134.304688,34.4423828 L134.084961,37 L130.25293,37 L132.133789,22.7705078 L137.486328,22.7705078 Z M135.526367,31.9199219 C135.338866,30.3085857 135.151368,28.3193478 134.963867,25.9521484 C134.588865,28.670912 134.354493,30.66015 134.260742,31.9199219 L135.526367,31.9199219 Z M147.69043,22.7705078 L147.69043,25.6181641 L145.493164,25.6181641 L145.493164,37 L141.792969,37 L141.792969,25.6181641 L139.604492,25.6181641 L139.604492,22.7705078 L147.69043,22.7705078 Z M152.234375,22.7705078 L152.234375,37 L148.53418,37 L148.53418,22.7705078 L152.234375,22.7705078 Z M162.174805,31.1025391 C162.174805,32.5322337 162.141114,33.5444306 162.07373,34.1391602 C162.006347,34.7338897 161.795412,35.2773413 161.440918,35.7695312 C161.086424,36.2617212 160.607425,36.6396471 160.003906,36.9033203 C159.400388,37.1669935 158.69727,37.2988281 157.894531,37.2988281 C157.132809,37.2988281 156.448734,37.1743177 155.842285,36.925293 C155.235837,36.6762683 154.748049,36.3027369 154.378906,35.8046875 C154.009764,35.3066381 153.790039,34.7646514 153.719727,34.1787109 C153.649414,33.5927705 153.614258,32.5673901 153.614258,31.1025391 L153.614258,28.6679688 C153.614258,27.2382741 153.647949,26.2260772 153.715332,25.6313477 C153.782715,25.0366181 153.993651,24.4931665 154.348145,24.0009766 C154.702638,23.5087866 155.181638,23.1308607 155.785156,22.8671875 C156.388675,22.6035143 157.091793,22.4716797 157.894531,22.4716797 C158.656254,22.4716797 159.340329,22.5961902 159.946777,22.8452148 C160.553226,23.0942395 161.041014,23.4677709 161.410156,23.9658203 C161.779299,24.4638697 161.999023,25.0058564 162.069336,25.5917969 C162.139649,26.1777373 162.174805,27.2031177 162.174805,28.6679688 L162.174805,31.1025391 Z M158.474609,26.4267578 C158.474609,25.7646451 158.437989,25.3413095 158.364746,25.1567383 C158.291504,24.972167 158.140626,24.8798828 157.912109,24.8798828 C157.718749,24.8798828 157.570801,24.9545891 157.468262,25.1040039 C157.365722,25.2534187 157.314453,25.6943323 157.314453,26.4267578 L157.314453,33.0712891 C157.314453,33.8974651 157.348144,34.4072256 157.415527,34.6005859 C157.48291,34.7939463 157.639647,34.890625 157.885742,34.890625 C158.137697,34.890625 158.298828,34.779298 158.369141,34.5566406 C158.439453,34.3339833 158.474609,33.8037151 158.474609,32.9658203 L158.474609,26.4267578 Z M171.816406,22.7705078 L171.816406,37 L168.573242,37 L166.648438,30.53125 L166.648438,37 L163.554688,37 L163.554688,22.7705078 L166.648438,22.7705078 L168.722656,29.1777344 L168.722656,22.7705078 L171.816406,22.7705078 Z M184.314453,27.0771484 L180.87793,27.0771484 L180.87793,26.0224609 C180.87793,25.530271 180.833985,25.2167975 180.746094,25.0820312 C180.658203,24.947265 180.51172,24.8798828 180.306641,24.8798828 C180.083983,24.8798828 179.915528,24.9707022 179.80127,25.1523438 C179.687011,25.3339853 179.629883,25.6093732 179.629883,25.9785156 C179.629883,26.4531274 179.694335,26.8105457 179.823242,27.0507812 C179.94629,27.2910168 180.294919,27.581053 180.869141,27.9208984 C182.515633,28.899419 183.552732,29.7021453 183.980469,30.3291016 C184.408205,30.9560578 184.62207,31.9667899 184.62207,33.3613281 C184.62207,34.3750051 184.503419,35.1220679 184.266113,35.6025391 C184.028807,36.0830102 183.570316,36.4858382 182.890625,36.8110352 C182.210934,37.1362321 181.419926,37.2988281 180.517578,37.2988281 C179.527339,37.2988281 178.682132,37.11133 177.981934,36.7363281 C177.281735,36.3613262 176.823243,35.883792 176.606445,35.3037109 C176.389647,34.7236299 176.28125,33.900396 176.28125,32.8339844 L176.28125,31.9023438 L179.717773,31.9023438 L179.717773,33.6337891 C179.717773,34.1669949 179.766113,34.5097649 179.862793,34.6621094 C179.959473,34.8144539 180.130858,34.890625 180.376953,34.890625 C180.623048,34.890625 180.806152,34.7939463 180.92627,34.6005859 C181.046387,34.4072256 181.106445,34.1201191 181.106445,33.7392578 C181.106445,32.901363 180.992189,32.3535169 180.763672,32.0957031 C180.529296,31.8378893 179.952153,31.4072296 179.032227,30.8037109 C178.1123,30.1943329 177.502931,29.7519545 177.204102,29.4765625 C176.905272,29.2011705 176.657716,28.8203149 176.461426,28.3339844 C176.265136,27.8476538 176.166992,27.2265663 176.166992,26.4707031 C176.166992,25.3808539 176.306151,24.5839869 176.584473,24.0800781 C176.862794,23.5761694 177.312497,23.1821303 177.933594,22.8979492 C178.554691,22.6137681 179.304683,22.4716797 180.183594,22.4716797 C181.144536,22.4716797 181.963376,22.6269516 182.640137,22.9375 C183.316898,23.2480484 183.765136,23.6391578 183.984863,24.1108398 C184.204591,24.5825219 184.314453,25.3837834 184.314453,26.5146484 L184.314453,27.0771484 Z M193.666016,22.7705078 L190.967773,31.8496094 L190.967773,37 L187.540039,37 L187.540039,31.8496094 L184.938477,22.7705078 L188.339844,22.7705078 C188.87305,25.542006 189.171875,27.4081983 189.236328,28.3691406 C189.441407,26.8515549 189.784177,24.9853626 190.264648,22.7705078 L193.666016,22.7705078 Z M202.138672,27.0771484 L198.702148,27.0771484 L198.702148,26.0224609 C198.702148,25.530271 198.658204,25.2167975 198.570312,25.0820312 C198.482421,24.947265 198.335939,24.8798828 198.130859,24.8798828 C197.908202,24.8798828 197.739747,24.9707022 197.625488,25.1523438 C197.51123,25.3339853 197.454102,25.6093732 197.454102,25.9785156 C197.454102,26.4531274 197.518554,26.8105457 197.647461,27.0507812 C197.770508,27.2910168 198.119138,27.581053 198.693359,27.9208984 C200.339852,28.899419 201.376951,29.7021453 201.804688,30.3291016 C202.232424,30.9560578 202.446289,31.9667899 202.446289,33.3613281 C202.446289,34.3750051 202.327638,35.1220679 202.090332,35.6025391 C201.853026,36.0830102 201.394535,36.4858382 200.714844,36.8110352 C200.035153,37.1362321 199.244145,37.2988281 198.341797,37.2988281 C197.351558,37.2988281 196.506351,37.11133 195.806152,36.7363281 C195.105954,36.3613262 194.647462,35.883792 194.430664,35.3037109 C194.213866,34.7236299 194.105469,33.900396 194.105469,32.8339844 L194.105469,31.9023438 L197.541992,31.9023438 L197.541992,33.6337891 C197.541992,34.1669949 197.590332,34.5097649 197.687012,34.6621094 C197.783692,34.8144539 197.955077,34.890625 198.201172,34.890625 C198.447267,34.890625 198.63037,34.7939463 198.750488,34.6005859 C198.870606,34.4072256 198.930664,34.1201191 198.930664,33.7392578 C198.930664,32.901363 198.816407,32.3535169 198.587891,32.0957031 C198.353514,31.8378893 197.776372,31.4072296 196.856445,30.8037109 C195.936519,30.1943329 195.32715,29.7519545 195.02832,29.4765625 C194.729491,29.2011705 194.481935,28.8203149 194.285645,28.3339844 C194.089354,27.8476538 193.991211,27.2265663 193.991211,26.4707031 C193.991211,25.3808539 194.13037,24.5839869 194.408691,24.0800781 C194.687013,23.5761694 195.136716,23.1821303 195.757812,22.8979492 C196.378909,22.6137681 197.128902,22.4716797 198.007812,22.4716797 C198.968755,22.4716797 199.787594,22.6269516 200.464355,22.9375 C201.141117,23.2480484 201.589354,23.6391578 201.809082,24.1108398 C202.02881,24.5825219 202.138672,25.3837834 202.138672,26.5146484 L202.138672,27.0771484 Z M211.05957,22.7705078 L211.05957,25.6181641 L208.862305,25.6181641 L208.862305,37 L205.162109,37 L205.162109,25.6181641 L202.973633,25.6181641 L202.973633,22.7705078 L211.05957,22.7705078 Z M211.90332,22.7705078 L218.073242,22.7705078 L218.073242,25.6181641 L215.603516,25.6181641 L215.603516,28.3164062 L217.915039,28.3164062 L217.915039,31.0234375 L215.603516,31.0234375 L215.603516,34.1523438 L218.319336,34.1523438 L218.319336,37 L211.90332,37 L211.90332,22.7705078 Z M230.799805,22.7705078 L230.799805,37 L227.56543,37 L227.56543,27.3935547 L226.273438,37 L223.979492,37 L222.617188,27.6132812 L222.617188,37 L219.382812,37 L219.382812,22.7705078 L224.172852,22.7705078 C224.313477,23.6259808 224.46289,24.6337833 224.621094,25.7939453 L225.130859,29.4150391 L225.974609,22.7705078 L230.799805,22.7705078 Z" id="Combined-Shape"></path>
        </g>
    </g>
</svg>