<?xml version="1.0" encoding="UTF-8"?>
<svg width="169px" height="36px" viewBox="0 0 169 36" version="1.1" xmlns="http://www.w3.org/2000/svg" xmlns:xlink="http://www.w3.org/1999/xlink">
    <!-- Generator: Sketch 50.2 (55047) - http://www.bohemiancoding.com/sketch -->
    <title>LOGO</title>
    <desc>Created with Sketch.</desc>
    <defs></defs>
    <g id="第三版" stroke="none" stroke-width="1" fill="none" fill-rule="evenodd">
        <g id="6" transform="translate(-14.000000, -12.000000)" fill="#FFFFFF" fill-rule="nonzero">
            <g id="侧边导航">
                <g id="LOGO" transform="translate(14.000000, 12.000000)">
                    <path d="M30.1680705,7.43271303 C31.4973555,8.19784525 32.3153771,9.61527914 32.3153771,11.1490695 L32.3153771,24.8438786 C32.3153771,26.377669 31.4973555,27.7951028 30.1680705,28.5602351 L18.3067581,35.4076396 C16.980999,36.1727718 15.3449559,36.1727718 14.0156709,35.4076396 L2.15435847,28.5602351 C0.825073457,27.7951028 0.00705190989,26.377669 0.00705190989,24.8438786 L0.00705190989,11.1490695 C0.00705190989,9.61527914 0.825073457,8.19784525 2.15435847,7.43271303 L14.0156709,0.581782566 C15.34143,-0.183349657 16.9774731,-0.183349657 18.3067581,0.581782566 L30.1680705,7.43271303 Z M19.6959843,21.0252693 C19.6854065,21.0323213 19.6783546,21.0393732 19.6677767,21.0428991 L17.0479922,22.5555338 C16.4979432,22.8728697 15.8209598,22.8728697 15.2709109,22.5555338 L12.6511263,21.0428991 C12.1010774,20.7255632 11.7625857,20.1402547 11.7625857,19.5055828 L11.7625857,16.4803134 C11.7625857,15.8456415 12.1010774,15.260333 12.6511263,14.9429971 L15.2709109,13.4303624 C15.8209598,13.1130264 16.4979432,13.1130264 17.0479922,13.4303624 L19.1071499,14.6186092 L20.5668952,15.3943193 L24.967287,12.8485798 C24.7698335,12.524192 24.498335,12.2562194 24.1704212,12.0658178 L17.2912831,8.09911851 C16.593144,7.69715965 15.732811,7.69715965 15.0346719,8.09911851 L8.15553379,12.0693438 C7.45739471,12.4713026 7.02722821,13.2188051 7.02722821,14.0262488 L7.02722821,21.9666993 C7.02722821,22.774143 7.45739471,23.5181195 8.15553379,23.9200784 L15.0346719,27.8903036 C15.732811,28.2922625 16.593144,28.2922625 17.2912831,27.8903036 L24.1704212,23.9200784 C24.8685602,23.5181195 25.2987267,22.770617 25.2987267,21.9666993 L25.2987267,17.7884427 L19.6959843,21.0252693 Z" id="Combined-Shape"></path>
                    <path d="M45.6122504,11.654366 L45.6122504,9.80242598 L50.9266782,9.80242598 L50.9266782,8.35325849 L53.0200105,8.35325849 L53.0200105,9.80242598 L57.6902735,9.80242598 L57.6902735,8.35325849 L59.783877,8.35325849 L59.783877,9.80242598 L64.9371958,9.80242598 L64.9371958,11.654366 L59.783877,11.654366 L59.783877,12.7013034 L57.6902735,12.7013034 L57.6902735,11.654366 L53.0200105,11.654366 L53.0200105,12.6207489 L50.9266782,12.6207489 L50.9266782,11.654366 L45.6122504,11.654366 Z M45.6122504,27.0329541 L45.6122504,25.3418519 L47.6263844,25.3418519 L47.6263844,20.4312815 L62.9236043,20.4312815 L62.9236043,25.3429368 L64.9366534,25.3429368 L64.9366534,27.034039 L45.6122504,27.0329541 Z M47.1419724,19.3843442 L47.1419724,13.6674151 L49.1550215,13.6674151 L49.1550215,19.3843442 L47.1419724,19.3843442 Z M49.8,22.1221126 L49.8,25.3429368 L52.2158216,25.3429368 L52.2158216,22.1221126 L49.8,22.1221126 Z M51.3299932,19.5454532 L51.3299932,13.1043472 L53.4235968,13.1043472 L53.4235968,19.5459956 L51.3299932,19.5454532 Z M55.5169291,19.5454532 C55.3017554,19.3843442 54.9260152,19.1159195 54.3897084,18.7401793 C54.1206509,18.5793415 53.9329617,18.4458977 53.8260981,18.337678 C55.1672267,16.7813757 56.1335192,15.0098998 56.7249755,13.0232502 L58.8183078,13.3454682 L58.335252,14.4726889 L64.6157915,14.4726889 L64.6157915,16.2440744 L57.609719,16.2440744 C56.9769212,17.3844749 56.2778557,18.486823 55.5161154,19.5454532 L55.5169291,19.5454532 Z M54.1483161,22.1221126 L54.1483161,25.3429368 L56.483312,25.3429368 L56.483312,22.1221126 L54.1483161,22.1221126 Z M61.3949672,20.1090635 C60.2136819,19.1429519 59.1132223,18.3377684 58.0935885,17.6935131 L59.3016349,16.4051835 C60.6968281,17.3714759 61.8240488,18.1498079 62.6832969,18.7401793 L61.3949672,20.1090635 Z M60.7508024,22.1221126 L58.4158065,22.1221126 L58.4158065,25.3429368 L60.7508024,25.3429368 L60.7508024,22.1221126 Z" id="Shape"></path>
                    <path d="M66.7891358,15.3585173 C66.5198975,14.6072177 66.2514729,13.9899043 65.983862,13.5065773 C67.1110826,12.0571386 68.0773751,10.3393656 68.8827394,8.35325849 L70.7346794,8.59465079 C70.680434,8.75575981 70.5998795,8.97048143 70.4930159,9.23881564 C70.4387704,9.34730656 70.3031568,9.64158819 70.0905146,10.124644 L73.31161,10.124644 L73.31161,11.7349205 L72.1038349,13.9090786 L74.0363294,13.9090786 L74.0363294,23.2482483 L66.9502449,23.2482483 L66.9502449,15.1974083 L66.7891358,15.3585173 Z M75.2438333,26.550712 C74.8108195,26.1723844 74.353551,25.822751 73.8749491,25.5040458 L73.8749491,26.0690123 C71.1371807,26.3369849 68.6410759,26.578558 66.3866345,26.7937316 L66.144971,25.1029006 C67.3251714,24.9958562 69.391833,24.8347472 72.3449559,24.6195736 C73.0420101,24.5667747 73.5520078,24.5131621 73.8749491,24.4587358 L73.8749491,25.3442929 C74.8479818,24.1528585 75.6849312,22.8564966 76.3702403,21.4793038 L77.9807881,22.3651322 C77.3372561,23.5455134 76.4249378,24.9407067 75.2438333,26.550712 Z M71.4593988,11.815475 L69.2046862,11.815475 C68.8390304,12.5506405 68.407842,13.2513443 67.9163565,13.9090786 L70.3319069,13.9090786 L71.4593988,11.815475 Z M68.4799668,15.5182702 L68.4799668,17.8535373 L69.8488511,17.8535373 L69.8488511,15.5182702 L68.4799668,15.5182702 Z M68.4799668,19.302976 L68.4799668,21.6379718 L69.8488511,21.6379718 L69.8488511,19.3040609 L68.4799668,19.302976 Z M72.5866195,15.5182702 L71.2177353,15.5182702 L71.2177353,17.8535373 L72.5866195,17.8535373 L72.5866195,15.5182702 Z M71.2177353,19.3040609 L71.2177353,21.6390567 L72.5866195,21.6390567 L72.5866195,19.3040609 L71.2177353,19.3040609 Z M74.5996685,12.4596399 L74.5996685,10.609056 L79.1088224,10.609056 C79.054577,10.3949672 78.9471709,10.0460785 78.7866044,9.56238981 C78.6256762,9.13330822 78.4915091,8.81118059 78.3841031,8.59600693 L80.5582611,8.35461463 C80.6108792,8.51545242 80.6914337,8.7308069 80.7996534,8.99877948 C81.067626,9.69691856 81.2286446,10.2336774 81.2827093,10.609056 L85.6310254,10.609056 L85.6310254,12.460996 L74.5996685,12.4596399 Z M76.9346644,27.4365403 C76.8261734,26.7924659 76.6920063,26.1483011 76.532163,25.5040458 C76.7458902,25.5040458 77.0417991,25.5311685 77.4177202,25.585414 L78.222994,25.585414 C78.8672493,25.585414 79.1893769,25.2901379 79.1893769,24.6995856 L79.1893769,20.4312815 L75.5657802,20.4312815 L75.5657802,14.1507421 L84.5035335,14.1507421 L84.5035335,20.4312815 L81.1229564,20.4312815 L81.1229564,25.3429368 C81.1229564,26.6842462 80.4787915,27.3821141 79.1904618,27.4365403 L76.9346644,27.4365403 Z M77.4982747,15.8415731 L77.4982747,18.659896 L82.5702253,18.659896 L82.5702253,15.8415731 L77.4982747,15.8415731 Z M84.1815867,26.3898742 C84.1273412,26.2287652 84.0199352,26.0140435 83.8593686,25.7457093 C83.1073457,24.3503353 82.4364198,23.1961727 81.8465908,22.2832216 L83.4568673,21.4779477 C83.7790854,22.0692232 83.8864914,22.2839449 83.7790854,22.1221126 C84.6370677,23.5715513 85.3348452,24.6988624 85.8724177,25.5040458 L84.1815867,26.3898742 Z" id="Shape"></path>
                    <path d="M86.9193551,11.0907557 L86.9193551,9.39992466 L97.0648836,9.39992466 L97.0648836,11.0907557 L94.406856,11.0907557 L94.406856,13.5065773 L96.7418519,13.5065773 L96.7418519,27.5170949 L94.9704664,27.5170949 L94.9704664,26.3898742 L89.0932419,26.3898742 L89.0932419,27.5170949 L87.4024109,27.5170949 L87.4024109,13.5065773 L89.7374068,13.5065773 L89.7374068,11.0907557 L86.9193551,11.0907557 Z M88.9324041,15.1168538 L88.9324041,19.7065622 C89.844632,18.7400889 90.2740752,17.2638891 90.2207338,15.2779628 L90.2207338,15.1168538 L88.9324041,15.1168538 Z M94.2465607,19.7065622 C93.1721389,19.7065622 92.6353801,19.1429519 92.6362842,18.0157312 L92.6362842,15.1168538 L91.5090635,15.1168538 L91.5090635,15.198222 C91.6159271,17.4526633 91.1596323,19.2241392 90.1401793,20.5126497 C90.0859339,20.5126497 90.0316884,20.4584043 89.9790703,20.3515407 C89.5489038,20.0835681 89.2536277,19.895698 89.0932419,19.7879304 L89.0932419,21.3982069 L94.97128,21.3982069 L94.97128,19.7065622 L94.2465607,19.7065622 Z M89.0932419,22.9273864 L89.0932419,24.9404355 L94.97128,24.9404355 L94.97128,22.9273864 L89.0932419,22.9273864 Z M91.5090635,11.0907557 L91.5090635,13.5065773 L92.6362842,13.5065773 L92.6362842,11.0907557 L91.5090635,11.0907557 Z M95.2129436,15.1168538 L93.8435169,15.1168538 L93.8435169,17.4518496 C93.7892715,18.1503503 94.0845476,18.472478 94.7293453,18.4182325 L95.2124011,18.4182325 L95.2129436,15.1168538 Z M100.124599,18.0157312 L100.124599,23.8934981 C100.070353,24.8599714 100.5535,25.3162661 101.574038,25.2623823 L102.540149,25.2623823 C103.506622,25.3166277 104.043472,24.8871845 104.150697,23.9740526 C104.311806,23.16905 104.419122,22.2028479 104.472644,21.0754464 C104.740888,21.1839373 105.197363,21.3168387 105.841528,21.4779477 C106.055436,21.5321932 106.216545,21.5858962 106.324855,21.6390567 C106.27061,22.283312 106.190055,23.0616439 106.083191,23.9740526 C106.028946,24.3503353 106.001823,24.6187599 106.001823,24.7793265 C105.78665,26.3356287 104.766745,27.0871996 102.942108,27.034039 L100.929059,27.034039 C99.0485497,27.0866571 98.1359602,26.2277707 98.1912906,24.4573796 L98.1912906,16.0832366 L103.263241,16.0832366 L103.263241,11.3324192 L97.950712,11.3324192 L97.950712,9.48047917 L105.197363,9.48047917 L105.197363,18.0157312 L100.124599,18.0157312 Z" id="Shape"></path>
                    <path d="M107.774022,15.8415731 L107.774022,14.4726889 L115.987328,14.4726889 L115.987328,13.4260228 L118.161214,13.4260228 L118.161214,14.4726889 L126.374248,14.4726889 L126.374248,15.8415731 L118.161214,15.8415731 L118.161214,16.8882393 L124.361471,16.8882393 L124.361471,25.6651548 L126.856762,25.6651548 L126.856762,27.034039 L107.371521,27.034039 L107.371521,25.6651548 L109.866812,25.6651548 L109.866812,16.8882393 L115.986514,16.8882393 L115.986514,15.8415731 L107.774022,15.8415731 Z M108.659851,13.2649137 L108.659851,9.15826113 L125.488691,9.15826113 L125.488691,13.2649137 L108.659851,13.2649137 Z M110.753454,10.4463196 L110.753454,11.9763128 L113.652061,11.9763128 L113.652061,10.4463196 L110.753454,10.4463196 Z M111.961501,18.1762977 L111.961501,19.2232351 L122.268138,19.2232351 L122.268138,18.1762977 L111.961501,18.1762977 Z M111.961501,20.3504558 L111.961501,21.397122 L122.268138,21.397122 L122.268138,20.350727 L111.961501,20.3504558 Z M111.961501,22.5246139 L111.961501,23.57128 L122.268138,23.57128 L122.268138,22.5246139 L111.961501,22.5246139 Z M111.961501,24.7790552 L111.961501,25.6648836 L122.268138,25.6648836 L122.268138,24.7790552 L111.961501,24.7790552 Z M115.66511,10.4463196 L115.66511,11.9763128 L118.563987,11.9763128 L118.563987,10.4463196 L115.66511,10.4463196 Z M123.476456,10.4463196 L120.496482,10.4463196 L120.496482,11.9763128 L123.475642,11.9763128 L123.476456,10.4463196 Z" id="Shape"></path>
                    <path d="M129.031462,11.4129737 L129.031462,9.31937015 L146.423913,9.31937015 L146.423913,11.4129737 L138.855044,11.4129737 L138.855044,19.0615837 L147.390296,19.0615837 L147.390296,21.1551872 L138.855044,21.1551872 L138.855044,27.6773902 L136.600603,27.6773902 L136.600603,21.1560009 L128.065351,21.1560009 L128.065351,19.0623973 L136.600603,19.0623973 L136.600603,11.4137874 L129.031462,11.4129737 Z M133.138115,18.0949296 C132.010894,16.6458525 130.82988,15.2233557 129.595073,13.8274392 L131.20562,12.5391095 C132.485083,13.8711649 133.694488,15.2687837 134.828946,16.7263166 L133.138115,18.0949296 Z M141.995314,18.1762977 L140.386122,16.8076848 C141.566323,15.6276652 142.800949,14.2051684 144.090002,12.5401944 L145.780833,13.7479696 C144.54476,15.3057184 143.28292,16.7818278 141.995314,18.1762977 Z" id="Shape"></path>
                    <path d="M166.312469,17.8546222 C165.829323,17.318677 165.346267,16.8086793 164.863301,16.3246289 C159.226656,16.4331199 155.200558,16.5405259 152.785007,16.646847 C151.657786,16.7553379 150.745287,16.889505 150.04751,17.0493483 L149.000573,14.8751902 C149.751872,14.6072177 150.476592,14.1777744 151.174731,13.5868605 C153.213998,11.8690876 155.012326,10.0977021 156.569713,8.27270399 L158.985263,9.31937015 C158.833265,9.4640075 158.671897,9.59846621 158.502207,9.72187147 C156.139275,11.9236947 154.260393,13.587855 152.865562,14.7143524 L163.090831,14.3921344 L160.675281,11.976584 L162.285828,10.7688089 C164.54027,12.8625028 166.472764,14.7681459 168.083312,16.485738 L166.312469,17.8546222 Z M150.933881,27.6782039 L150.933881,18.659896 L165.749672,18.659896 L165.749672,27.6782039 L163.494688,27.6782039 L163.494688,26.3898742 L153.106683,26.3898742 L153.106683,27.6782039 L150.933881,27.6782039 Z M153.106683,20.5923906 L153.106683,24.6182174 L163.494688,24.6182174 L163.494688,20.5923906 L153.106683,20.5923906 Z" id="Shape"></path>
                </g>
            </g>
        </g>
    </g>
</svg>