<?xml version="1.0" encoding="utf-8"?>
<!-- Generator: Adobe Illustrator 22.1.0, SVG Export Plug-In . SVG Version: 6.00 Build 0)  -->
<svg version="1.1" id="图层_2" xmlns="http://www.w3.org/2000/svg" xmlns:xlink="http://www.w3.org/1999/xlink" x="0px" y="0px"
	 viewBox="0 0 1024 1024" style="enable-background:new 0 0 1024 1024;" xml:space="preserve">
<style type="text/css">
	.st0{fill:#c3cdd7;}
</style>
<g id="上传">
	<path class="st0" d="M897,422.9c-28.4-28.4-63.3-47.8-101.3-57c-10.1-57.9-37.6-111.2-80-153.6C661.3,158,588.9,128,512,128
		s-149.3,30-203.6,84.4c-42.4,42.4-69.9,95.7-80,153.6c-38.1,9.2-73,28.6-101.3,57c-40.6,40.6-63,94.6-63,152v10
		c0,57.4,22.4,111.4,63,152s94.6,63,152,63h41v-64h-41c-83.3,0-151-67.7-151-151v-10c0-83.3,67.7-151,151-151h9.2
		c-0.1-2.6-0.2-5.3-0.2-7.9l0,0l0,0c0-1.7,0-3.3,0.1-4.9c0-0.4,0-0.8,0-1.3c0-1.6,0.1-3.2,0.2-4.7c0-0.4,0-0.7,0.1-1.1
		c0.1-1.2,0.1-2.5,0.2-3.7c0-0.6,0.1-1.2,0.1-1.8c0.1-1.4,0.2-2.7,0.3-4.1c0.1-0.8,0.2-1.6,0.3-2.5c0.1-0.6,0.1-1.2,0.2-1.9
		c1.2-10.3,3.1-20.4,5.6-30.2l0,0c9.8-38.4,29.8-73.6,58.6-102.3C395.9,215.3,452.2,192,512,192s116.1,23.3,158.4,65.6
		c28.7,28.7,48.7,63.9,58.6,102.3l0,0c2.5,9.8,4.4,19.9,5.6,30.2c0.1,0.6,0.1,1.2,0.2,1.9c0.1,0.8,0.2,1.6,0.3,2.5
		c0.1,1.4,0.2,2.7,0.3,4.1c0,0.6,0.1,1.2,0.1,1.8c0.1,1.2,0.2,2.5,0.2,3.7c0,0.4,0,0.7,0.1,1.1c0.1,1.6,0.1,3.2,0.2,4.7
		c0,0.4,0,0.8,0,1.3c0,1.6,0.1,3.3,0.1,4.9l0,0l0,0c0,2.7-0.1,5.3-0.2,7.9h9.2c83.3,0,151,67.7,151,151v10c0,83.3-67.7,151-151,151
		h-41v64h41c57.4,0,111.4-22.4,152-63s63-94.6,63-152v-10C960,517.5,937.6,463.5,897,422.9z"/>
	<polygon class="st0" points="376.2,602.9 421.5,648.1 480,589.6 480,896 544,896 544,589.6 602.5,648.1 647.8,602.9 512,467.1 	"/>
</g>
</svg>

