<?xml version="1.0" standalone="no"?>
<!DOCTYPE svg PUBLIC "-//W3C//DTD SVG 1.1//EN" "http://www.w3.org/Graphics/SVG/1.1/DTD/svg11.dtd" >
<svg>
<metadata>
Created by FontForge 20090914 at Wed Mar 22 05:13:01 2017
 By www-data
Copyright &#194;&#169; 2015 Apple Inc. All rights reserved.
</metadata>
<defs>
<font id="PingFangSCLight" horiz-adv-x="600" vert-adv-y="1000" >
  <font-face 
    font-family="PingFang SC Light"
    font-weight="400"
    font-stretch="normal"
    units-per-em="1000"
    panose-1="2 11 2 0 0 0 0 0 0 0"
    ascent="860"
    descent="-140"
    x-height="517"
    cap-height="714"
    bbox="-15 -212 898 860"
    underline-thickness="33"
    underline-position="-84"
    unicode-range="U+000D-U+00A0"
  />
<missing-glyph horiz-adv-x="1000" 
 />
    <glyph glyph-name=".notdef" unicode="ffi" horiz-adv-x="1000" 
 />
    <glyph glyph-name="uni0000" horiz-adv-x="0" 
 />
    <glyph glyph-name="uni0000" horiz-adv-x="0" 
 />
    <glyph glyph-name="uni000D" unicode="&#xd;" horiz-adv-x="333" 
 />
    <glyph glyph-name="space" unicode=" " horiz-adv-x="333" 
 />
    <glyph glyph-name="exclam" unicode="!" horiz-adv-x="333" 
d="M146 714h42l-4 -537h-34zM195 68c8 -6.66699 12 -16 12 -28c0 -10.667 -4 -20 -12 -28s-17.333 -12 -28 -12c-11.333 0 -20.666 4 -27.999 12c-8 8 -12 17.333 -12 28c0 12 4 21.333 12 28c7.33301 8 16.666 12 27.999 12c10.667 0 20 -4 28 -12z" />
    <glyph glyph-name="quotedbl" unicode="&#x22;" horiz-adv-x="364" 
d="M304 662c0 -70.667 -28.333 -122.333 -85 -155l-16 26c43.333 30 66 69 68 117l-13 -1c-13.333 0 -23.333 3.33301 -30 10c-7.33301 6.66699 -11 16 -11 28c0 14 3.33301 24.333 10 31s16.667 10 30 10c31.333 0 47 -22 47 -66zM161 662.001c0 -71.333 -28 -123 -84 -155
l-17 26c43.333 30 66 69 68 117l-13 -1c-13.333 0 -23.333 3.33301 -30 10c-7.33301 6.66699 -11 16 -11 28c0 14 3.33301 24.333 10 31s16.667 10 30 10c31.333 0 47 -22 47 -66z" />
    <glyph glyph-name="numbersign" unicode="#" 
d="M72 529h129l30 185h35l-29 -185h181l30 185h35l-30 -185h118l-6 -33h-117l-44 -281h130l-6 -33h-129l-29 -182h-36l29 182h-181l-29 -182h-36l29 182h-117l6 33h116l45 281h-130zM187 215h181l45 281h-181z" />
    <glyph glyph-name="dollar" unicode="$" 
d="M283 809l31 0.000976562v-81c56 -2.66699 102.667 -21 140 -55c39.333 -35.333 64 -86.333 74 -153h-39c-8.66699 55.333 -30 98 -64 128c-30.667 26.667 -67.667 41 -111 43v-312l116 -41c72.667 -34 109 -83.667 109 -149c0 -70.667 -22 -123 -66 -157
c-38.667 -28.667 -91.667 -44 -159 -46v-87h-31v87c-65.333 4 -116 26.333 -152 67c-36 40 -58.667 98.333 -68 175h40c8 -68.667 27 -119.334 57 -152.001c29.333 -32 70.333 -50 123 -54v330l-96 34c-72.667 34 -109 83.667 -109 149c0 63.333 21.333 112 64 146
c35.333 29.333 82.333 45 141 47v81zM314 22.001c60 2 106.334 16.667 139.001 44c31.333 29.333 47 70 47 122c0 54 -36.333 96 -109 126c-28.667 11.333 -54.334 20.333 -77.001 27v-319zM283.001 692.001c-49.333 -2 -87.667 -14.333 -115 -37c-34 -28 -51 -68 -51 -120
c0 -53.333 36.333 -95 109 -125c12.667 -4 31.667 -10.667 57 -20v302z" />
    <glyph glyph-name="percent" unicode="%" horiz-adv-x="938" 
d="M832 333c24 -34 36 -79.667 36 -137c0 -56 -12 -101.667 -36 -137c-26 -39.333 -64 -59 -114 -59c-50.667 0 -89 19.667 -115 59c-23.333 33.333 -35 79 -35 137s11.667 103.667 35 137c26 38.667 64.333 58 115 58c50 0 88 -19.333 114 -58zM650 728h37l-400 -742h-36z
M334 656c24 -34 36 -79.667 36 -137c0 -56 -12 -101.667 -36 -137c-26 -39.333 -64.333 -59 -115 -59c-50 0 -88 19.667 -114 59c-23.333 33.333 -35 79 -35 137s11.667 103.667 35 137c26 38.667 64 58 114 58c50.667 0 89 -19.333 115 -58zM633 314
c-18.667 -27.333 -28 -66.666 -28 -117.999c0 -50 9.33301 -89.333 28 -118c18.667 -30.667 47 -46 85 -46c36.667 0 65 15.667 85 47c18.667 29.333 28 68.333 28 117c0 49.333 -9.33301 88.666 -28 117.999c-20 30 -48.333 45 -85 45c-38.667 0 -67 -15 -85 -45zM134 637
c-18 -28 -27 -67.334 -27 -118.001c0 -49.333 9 -88.666 27 -117.999c19.333 -30.667 47.666 -46 84.999 -46s66 15.667 86 47c18.667 29.333 28 68.333 28 117c0 50 -9.66699 89.333 -29 118c-20 30 -48.333 45 -85 45c-37.333 0 -65.666 -15 -84.999 -45z" />
    <glyph glyph-name="ampersand" unicode="&#x26;" horiz-adv-x="696" 
d="M206 664c-22.667 -18.667 -34.001 -45 -34.001 -79c0 -24 12.333 -52.667 37 -86c8.66699 -12 29.334 -35.333 62.001 -70l51 28c65.333 38 98 81.667 98 131c0 30.667 -10 55 -30 73c-24 22 -55.333 33 -94 33c-36.667 0 -66.667 -10 -90 -30zM237.999 411
c-32.667 34 -55.999 61.002 -69.999 81.002c-23.333 33.333 -35 64.333 -35 93c0 45.333 16.667 80.666 50 105.999c29.333 24.667 67.333 37 114 37c49.333 0 88.666 -13.333 117.999 -40c28.667 -26.667 43 -59.667 43 -99c0 -34 -12.333 -66 -37 -96
c-24 -24 -53 -47 -87 -69c-14 -6 -27 -13 -39 -21l224 -234c36.667 65.333 58 148.333 64 249h38c-6 -112.667 -30.667 -205.334 -74 -278.001l134 -140h-53l-103 108c-60 -81.333 -140.333 -122 -241 -122c-68 0 -125 18.333 -171 55c-46 38 -69 87.333 -69 148
c0 68 32.667 124.333 98 169zM498 136.002l-235.001 249.002c-27.333 -14.667 -58.333 -32.334 -93 -53.001c-58 -38.667 -87 -86.334 -87 -143.001c0 -48 19 -88 57 -120c38.667 -30.667 86.334 -46 143.001 -46c89.333 0 161 37.667 215 113z" />
    <glyph glyph-name="quotesingle" unicode="'" horiz-adv-x="221" 
d="M161 662c0 -71.333 -28 -123 -84 -155l-17 26c43.333 30 66 69 68 117l-13 -1c-13.333 0 -23.333 3.33301 -30 10c-7.33301 6.66699 -11 16 -11 28c0 14 3.33301 24.333 10 31s16.667 10 30 10c31.333 0 47 -22 47 -66z" />
    <glyph glyph-name="parenleft" unicode="(" horiz-adv-x="333" 
d="M254 827c-38.667 -63.333 -70 -132.667 -94 -208c-28.667 -86.667 -43 -173 -43 -259c0 -84.667 14.333 -171 43 -259c24.667 -76.667 56 -146 94 -208h-39c-38 62.667 -69.333 131.667 -94 207c-28 89.333 -42 176 -42 260c0 84.667 14 171 42 259
c24 76.667 55.333 146 94 208h39z" />
    <glyph glyph-name="parenright" unicode=")" horiz-adv-x="333" 
d="M118 827c39.333 -66 70.666 -135.332 93.999 -207.999c28 -88 42 -174.333 42 -259c0 -84 -14 -170.667 -42 -260c-23.333 -71.333 -54.666 -140.333 -93.999 -207h-39c38.667 66 70 135.333 94 208c28.667 91.333 43 177.666 43 258.999c0 82.667 -14.333 169 -43 259
c-22.667 72 -54 141.333 -94 208h39z" />
    <glyph glyph-name="asterisk" unicode="*" horiz-adv-x="494" 
d="M229 714h36l-2 -213l194 69l12 -34l-197 -65l130 -165l-28 -23l-127 167l-126 -167l-29 23l130 165l-197 65l12 34l194 -69z" />
    <glyph glyph-name="plus" unicode="+" horiz-adv-x="605" 
d="M285 511h36v-234h234v-36h-234v-235h-36v235h-235v36h235v234z" />
    <glyph glyph-name="comma" unicode="," horiz-adv-x="251" 
d="M172 14c0 -72 -28.333 -123.668 -85 -155.001l-17 26c43.333 30 66 68.667 68 116l-13 -1c-12 0 -22 3.33301 -30 10c-7.33301 6.66699 -11 16.334 -11 29.001c0 13.333 3.33301 23.333 10 30c7.33301 6.66699 17.333 10 30 10c32 0 48 -21.667 48 -65z" />
    <glyph glyph-name="hyphen" unicode="-" horiz-adv-x="605" 
d="M50 277h505v-36h-505v36z" />
    <glyph glyph-name="period" unicode="." horiz-adv-x="251" 
d="M154 68c7.33301 -7.33301 11 -16.667 11 -28c0 -10.667 -4 -20 -12 -28s-17.333 -12 -28 -12c-11.333 0 -20.666 4 -27.999 12c-8 8 -12 17.333 -12 28c0 12 4 21.333 12 28c7.33301 8 16.666 12 27.999 12s21 -4 29 -12z" />
    <glyph glyph-name="slash" unicode="/" horiz-adv-x="500" 
d="M413 820h37l-363 -920h-37z" />
    <glyph glyph-name="zero" unicode="0" 
d="M491 605c30.667 -63.333 46 -145.999 46 -247.999c0 -100.667 -15.333 -183.334 -46 -248.001c-40 -82 -103.667 -123 -191 -123s-151 41 -191 123c-30.667 61.333 -46 144 -46 248s15.333 186.667 46 248c40 82 103.667 123 191 123s151 -41 191 -123zM140 581.001
c-25.333 -53.333 -38 -127.999 -38 -223.999c0 -94.667 12.667 -169.334 38 -224.001c33.333 -74 86.666 -111 159.999 -111c72.667 0 126 37 160 111c26 56 39 130.667 39 224s-13 168 -39 224c-34 74 -87.333 111 -160 111c-73.333 0 -126.666 -37 -159.999 -111z" />
    <glyph glyph-name="one" unicode="1" 
d="M339 714l-0.000976562 -714h-39v664c-48 -55.333 -106.333 -92.666 -175 -111.999v41c32.667 9.33301 65.334 24.666 98.001 45.999c30 20 57 45 81 75h35z" />
    <glyph glyph-name="two" unicode="2" 
d="M463 674c40.667 -36.667 60.999 -85.001 60.999 -145.001c0 -62.667 -23.667 -118.667 -71 -168c-21.333 -22.667 -70.666 -60.667 -147.999 -114c-112.667 -76.667 -174 -146.667 -184 -210h404v-37h-450c0 56.667 23.667 110.667 71 162c30 34 78 74 144 120
c69.333 50 112.666 83.667 129.999 101c43.333 45.333 65 94 65 146c0 50 -16.667 89.667 -50 119c-31.333 29.333 -73.666 44 -126.999 44c-56 0 -100 -18 -132 -54c-36 -38 -54 -92.333 -54 -163h-38c0 80.667 21.333 143.334 64 188.001
c39.333 43.333 92.666 65 159.999 65c62.667 0 114.334 -18 155.001 -54z" />
    <glyph glyph-name="three" unicode="3" 
d="M462 676c39.333 -35.333 58.999 -81.002 58.999 -137.002c0 -84.667 -38.333 -140 -115 -166c40.667 -13.333 72.334 -34.666 95.001 -63.999c23.333 -30.667 35 -66.667 35 -108c0 -63.333 -22 -115 -66 -155s-100.333 -60 -169 -60c-58.667 0 -108.667 15.667 -150 47
c-52 40 -81 100 -87 180h39c4 -67.333 28 -118 72 -152c36 -26.667 78 -40 126 -40c58.667 0 106 17 142 51s54 76.667 54 128c0 46.667 -16.333 84.334 -49 113.001c-31.333 28.667 -74 43 -128 43h-68v34h60c55.333 0 97.333 13 126 39c29.333 25.333 44 61.333 44 108
c0 45.333 -15.333 82.333 -46 111c-31.333 29.333 -74.333 44 -129 44s-97.667 -15.667 -129 -47c-32 -30 -51.667 -72.667 -59 -128h-38c7.33301 65.333 31 117 71 155c38 37.333 89.667 56 155 56c64 0 115.667 -17.333 155 -52z" />
    <glyph glyph-name="four" unicode="4" 
d="M404 714h40v-507h128v-35h-128v-172h-38v172h-377v39zM403 658l-335 -451h338v451h-3z" />
    <glyph glyph-name="five" unicode="5" 
d="M120 714l391.998 0.00195312v-37h-358l-27 -290h3c20.667 26.667 47.334 47 80.001 61c28.667 13.333 60.667 20 96 20c68.667 0 123.667 -20.667 165 -62c43.333 -43.333 65 -103.333 65 -180c0 -68.667 -22.667 -126.334 -68 -173.001
c-46 -44.667 -103.333 -67 -172 -67c-59.333 0 -110.333 16.667 -153 50c-47.333 36 -73.666 86 -78.999 150h40c4 -52 25.333 -93.333 64 -124c35.333 -27.333 78 -41 128 -41c58 0 106.333 19.333 145 58c38 40 57 89 57 147c0 66 -18.667 117.667 -56 155
c-35.333 34.667 -82.333 52 -141 52c-38 0 -73 -9 -105 -27c-32.667 -18.667 -57 -44.334 -73 -77.001h-38z" />
    <glyph glyph-name="six" unicode="6" 
d="M526 542l-39 0.000976562c-18 100 -77 150 -177 150c-66 0 -117.333 -33.333 -154 -100c-36 -62 -54 -142.667 -54 -242c0 -13.333 0.333008 -28.666 1 -45.999h3c15.333 47.333 41.666 84.666 78.999 111.999c37.333 28.667 80.333 43 129 43
c67.333 0 121.333 -21.667 162 -65c40.667 -42.667 61 -98 61 -166c0 -68.667 -20.667 -126.334 -62 -173.001c-42.667 -46 -97.667 -69 -165 -69c-85.333 0 -149.333 33.333 -192 100c-36 60 -54 144.667 -54 254c0 110 20.333 200.667 61 272
c43.333 77.333 105.333 116 186 116c122.667 0 194.334 -62 215.001 -186zM175 367.001c-38.667 -38 -57.999 -84.333 -57.999 -139c0 -55.333 16.333 -102.666 49 -141.999c36 -43.333 83.667 -65 143 -65c56 0 101.667 19.667 137 59s53 88.666 53 147.999
c0 58 -17.333 105.333 -52 142c-34.667 36 -80.334 54 -137.001 54c-52 0 -97 -19 -135 -57z" />
    <glyph glyph-name="seven" unicode="7" 
d="M74 714h452v-34l-278 -680h-43l279 677h-410v37z" />
    <glyph glyph-name="eight" unicode="8" 
d="M466 673c36 -32 54.0029 -73.999 54.0029 -125.999c0 -38.667 -10.333 -72.334 -31 -101.001c-21.333 -29.333 -52 -50 -92 -62v-4c43.333 -8 78.666 -29.333 105.999 -64c28.667 -36 43 -77.333 43 -124c0 -59.333 -20.333 -108.333 -61 -147
c-44.667 -39.333 -106.334 -59 -185.001 -59c-80 0 -141.667 19.667 -185 59c-40.667 38 -61 87 -61 147c0 48 14.333 89.333 43 124c27.333 34.667 63 56 107 64v4c-40.667 12 -71.667 32.667 -93 62c-20.667 27.333 -31 61 -31 101c0 52 18 94 54 126
c38.667 36.667 94 55 166 55c71.333 0 126.666 -18.333 165.999 -55zM160.003 647.001c-28 -26 -42 -59.667 -42 -101c0 -42 13.667 -75.667 41 -101c32 -30.667 79 -46 141 -46c61.333 0 108.333 15.333 141 46c27.333 26 41 59.667 41 101s-14 75 -42 101
c-31.333 30.667 -78 46 -140 46s-108.667 -15.333 -140 -46zM144.003 313.001c-34 -30.667 -51 -70.999 -51 -120.999s16.333 -90.333 49 -121c36 -34 88.667 -51 158 -51s122.333 17 159 51c32 31.333 48 71.666 48 120.999c0 50 -17 90.333 -51 121c-38 34 -90 51 -156 51
c-66.667 0 -118.667 -17 -156 -51z" />
    <glyph glyph-name="nine" unicode="9" 
d="M482 629c36.667 -60 55 -145 55 -255c0 -108 -20.333 -198.667 -61 -272c-45.333 -77.333 -107.333 -116 -186 -116c-123.333 0 -195 62 -215 186h39c18 -100 77 -150 177 -150c64 0 115.333 33.333 154 100c36 63.333 54 144 54 242l-1 46h-2
c-16 -46 -42.333 -83.333 -79 -112c-40 -28.667 -83.333 -43 -130 -43c-68 0 -122 21.667 -162 65c-40.667 42.667 -61 98 -61 166c0 69.333 21 127 63 173s96.667 69 164 69c85.333 0 149 -33 191 -99zM155 634c-35.333 -37.333 -53 -86.667 -53 -148
c0 -59.333 17.333 -106.666 52 -141.999c34 -36 79.667 -54 137 -54c52 0 97.333 19 136 57c38 39.333 57 85.666 57 138.999c0 54.667 -16.333 102 -49 142c-35.333 43.333 -83 65 -143 65c-58 0 -103.667 -19.667 -137 -59z" />
    <glyph glyph-name="colon" unicode=":" horiz-adv-x="251" 
d="M154 434c7.33301 -7.33301 11 -16.667 11 -28c0 -10.667 -4 -20 -12 -28s-17.333 -12 -28 -12c-11.333 0 -20.666 4 -27.999 12c-8 8 -12 17.333 -12 28c0 12 4 21.333 12 28c7.33301 8 16.666 12 27.999 12s21 -4 29 -12zM154 67.999
c7.33301 -7.33301 11 -16.667 11 -28c0 -10.667 -4 -20 -12 -28s-17.333 -12 -28 -12c-11.333 0 -20.666 4 -27.999 12c-8 8 -12 17.333 -12 28c0 12 4 21.333 12 28c7.33301 8 16.666 12 27.999 12s21 -4 29 -12z" />
    <glyph glyph-name="semicolon" unicode=";" horiz-adv-x="251" 
d="M154 434c7.33301 -7.33301 11 -16.667 11 -28c0 -10.667 -4 -20 -12 -28s-17.333 -12 -28 -12c-11.333 0 -20.666 4 -27.999 12c-8 8 -12 17.333 -12 28c0 12 4 21.333 12 28c7.33301 8 16.666 12 27.999 12s21 -4 29 -12zM173 13.999
c0 -72 -28.333 -123.668 -85 -155.001l-17 26c43.333 30 66 68.667 68 116l-13 -1c-12 0 -22 3.33301 -30 10c-7.33301 6.66699 -11 16.334 -11 29.001c0 13.333 3.33301 23.333 10 30c7.33301 6.66699 17.333 10 30 10c32 0 48 -21.667 48 -65z" />
    <glyph glyph-name="less" unicode="&#x3c;" horiz-adv-x="605" 
d="M555 512v-39l-461 -214l461 -214v-39l-505 234v37z" />
    <glyph glyph-name="equal" unicode="=" horiz-adv-x="605" 
d="M50 378h505v-35h-505v35zM50 175h505v-35h-505v35z" />
    <glyph glyph-name="greater" unicode="&#x3e;" horiz-adv-x="605" 
d="M50 512l505 -235v-37l-505 -234v39l461 214l-461 214v39z" />
    <glyph glyph-name="question" unicode="?" horiz-adv-x="512" 
d="M410 674c34.667 -33.333 52.002 -78.334 52.002 -135.001c0 -38.667 -12.333 -75.334 -37 -110.001c-10.667 -14 -36.334 -39.333 -77.001 -76c-26 -22.667 -44 -42.667 -54 -60c-16 -24.667 -24 -52 -24 -82v-35h-39v35c0 26.667 5.66699 51 17 73
c13.333 30.667 40.333 64.334 81 101.001c32 30 52.667 51 62 63c21.333 28.667 32 58.334 32 89.001c0 46 -13.667 83.333 -41 112c-28.667 28.667 -69 43 -121 43c-58 0 -101.667 -19.667 -131 -59c-26 -34 -40 -79 -42 -135h-38c2 65.333 19.333 118.333 52 159
c37.333 47.333 90.666 71 159.999 71c62.667 0 112 -18 148 -54zM279.002 67.999c8 -6.66699 12 -16 12 -28c0 -10.667 -4 -20 -12 -28s-17.333 -12 -28 -12c-11.333 0 -20.666 4 -27.999 12c-8 8 -12 17.333 -12 28c0 12 4 21.333 12 28c7.33301 8 16.666 12 27.999 12
c10.667 0 20 -4 28 -12z" />
    <glyph glyph-name="at" unicode="@" horiz-adv-x="848" 
d="M674 639c59.333 -58 89.001 -132.668 89.001 -224.001c0 -72 -22.667 -136.333 -68 -193c-42.667 -50.667 -86.667 -76 -132 -76c-40.667 0 -62 23.667 -64 71c-40 -49.333 -86 -74 -138 -74c-39.333 0 -70.666 13.333 -93.999 40c-22.667 26.667 -34 60.334 -34 101.001
c0 81.333 23.667 148.666 71 201.999c44 52 95.667 78 155 78c53.333 0 87.333 -27.333 102 -82l17 63h35l-75 -283c-5.33301 -18 -8 -35.667 -8 -53c0 -20 11.667 -30 35 -30c33.333 0 68.333 21.333 105 64c40 49.333 60 106.666 60 171.999c0 81.333 -26.667 148 -80 200
c-56 54 -128.667 81 -218 81c-96.667 0 -177.667 -32.667 -243 -98c-66 -64.667 -99 -145.667 -99 -243c0 -104 31.333 -186.333 94 -247c62 -60 142.333 -90 241 -90c75.333 0 143.666 15.333 204.999 46c51.333 26.667 92.666 62.334 123.999 107.001h39
c-35.333 -55.333 -83.666 -99.333 -144.999 -132c-66.667 -35.333 -141 -53 -223 -53c-108.667 0 -197.334 33.333 -266.001 100c-70 68 -105 158 -105 270c0 104.667 36.667 192.334 110 263.001c72.667 72.667 162.334 109 269.001 109
c101.333 0 181.666 -29.667 240.999 -89zM331.001 462.999c-42 -48 -63 -108 -63 -180c0 -32 8.66699 -57.667 26 -77c16 -20 38.667 -30 68 -30c32.667 0 64.667 13.667 96 41c28 26 46 53 54 81l25 93c6 22 9 36.667 9 44c0 21.333 -6.33301 41.333 -19 60
c-15.333 23.333 -37 35 -65 35c-49.333 0 -93 -22.333 -131 -67z" />
    <glyph glyph-name="A" unicode="A" horiz-adv-x="629" 
d="M291 714h48l290 -714h-43l-90 226h-361l-91 -226h-44zM149 262h333l-165 410h-3z" />
    <glyph glyph-name="B" unicode="B" horiz-adv-x="662" 
d="M74 714l310.001 -0.000976562c60 0 109 -15 147 -45c39.333 -32 59 -76.667 59 -134c0 -40 -12.667 -75.333 -38 -106c-24.667 -28.667 -55.334 -47.667 -92.001 -57c46.667 -7.33301 84.667 -26.666 114 -57.999c29.333 -32.667 44 -72 44 -118
c0 -66.667 -24 -117 -72 -151c-42.667 -30 -98.667 -45 -168 -45h-304v714zM113.001 677.999v-290h265c50 0 91 12.333 123 37c33.333 26 50 62 50 108c0 48 -16.333 84.667 -49 110c-30 23.333 -71.667 35 -125 35h-264zM113.001 351.999l-0.000976562 -316h270
c56.667 0 102.334 12 137.001 36c39.333 28 59 69 59 123c0 52 -19.667 92 -59 120c-35.333 24.667 -82 37 -140 37h-267z" />
    <glyph glyph-name="C" unicode="C" horiz-adv-x="723" 
d="M570 668c58 -42 90.999 -97.665 98.999 -166.998h-38c-8 58 -36.667 104.667 -86 140c-47.333 33.333 -102 50 -164 50c-92.667 0 -166.667 -33 -222 -99c-50.667 -62.667 -76 -142.334 -76 -239.001c0 -96 25.333 -174.333 76 -235c52 -63.333 123 -95 213 -95
c64 0 120.333 17.667 169 53c52.667 40.667 86 96 100 166h38c-16 -82 -53.333 -146.333 -112 -193c-54.667 -42 -119.667 -63 -195 -63c-101.333 0 -182.333 36.333 -243 109c-56.667 67.333 -85 153.333 -85 258c0 105.333 28.667 192.666 86 261.999
c60.667 75.333 144.334 113 251.001 113c72 0 135 -20 189 -60z" />
    <glyph glyph-name="D" unicode="D" horiz-adv-x="690" 
d="M74 714l251 0.000976562c110.667 0 192.667 -33.667 246 -101c50 -60 75 -145.333 75 -256c0 -106.667 -28.667 -192.334 -86 -257.001c-60.667 -66.667 -145 -100 -253 -100h-233v714zM113 678.001v-642h190c98 0 173.667 29.333 227 88c51.333 57.333 77 135 77 233
c0 102 -21.333 180 -64 234c-48 58 -121.667 87 -221 87h-209z" />
    <glyph glyph-name="E" unicode="E" horiz-adv-x="630" 
d="M74 714h495v-36h-456v-289h433v-36h-433v-317h473v-36h-512v714z" />
    <glyph glyph-name="F" unicode="F" horiz-adv-x="570" 
d="M74 714h467v-36h-428v-291h407v-36h-407v-351h-39v714z" />
    <glyph glyph-name="G" unicode="G" horiz-adv-x="738" 
d="M581 659c48.667 -42.667 79.6689 -102.332 93.002 -178.999h-40c-12 64.667 -39 115 -81 151c-46 40 -106 60 -180 60c-90.667 0 -162.334 -33.333 -215.001 -100c-50 -62 -75 -141.333 -75 -238s25.667 -174.667 77 -234c55.333 -64.667 133 -97 233 -97
c42.667 0 86.667 6.66699 132 20c43.333 13.333 78 29.666 104 48.999v225h-266v36h305v-280c-32 -25.333 -72 -46 -120 -62c-52 -16 -104.667 -24 -158 -24c-110.667 0 -197.334 36.333 -260.001 109c-57.333 66 -86 152 -86 258c0 105.333 28 192.333 84 261
c60 76 141.667 114 245 114c86 0 155.333 -23 208 -69z" />
    <glyph glyph-name="H" unicode="H" horiz-adv-x="702" 
d="M74 714h39v-325h475v325h39v-714h-39v353h-475v-353h-39v714z" />
    <glyph glyph-name="I" unicode="I" horiz-adv-x="212" 
d="M87 714h39v-714h-39v714z" />
    <glyph glyph-name="J" unicode="J" horiz-adv-x="493" 
d="M380 714l38 0.00195312v-489c0 -72.667 -14.333 -129.334 -43 -170.001c-34 -46 -88.333 -69 -163 -69c-60 0 -107.333 16.667 -142 50c-36.667 36 -55 88.333 -55 157v28h39v-27c0 -114 53 -171 159 -171c58.667 0 101.667 17.333 129 52
c25.333 33.333 38 83.666 38 150.999v488z" />
    <glyph glyph-name="K" unicode="K" horiz-adv-x="662" 
d="M562 714h55l-333 -304l378 -410h-54l-352 385l-143 -131v-254h-39v714h39v-413z" />
    <glyph glyph-name="L" unicode="L" horiz-adv-x="584" 
d="M74 714h39v-678h446v-36h-485v714z" />
    <glyph glyph-name="M" unicode="M" horiz-adv-x="856" 
d="M74 714h59l294 -668h3l293 668h59v-714h-39v661h-3l-291 -661h-42l-291 661h-3v-661h-39v714z" />
    <glyph glyph-name="N" unicode="N" horiz-adv-x="703" 
d="M74 714h50l464 -661h2v661h39v-714h-48l-466 665h-2v-665h-39v714z" />
    <glyph glyph-name="O" unicode="O" horiz-adv-x="757" 
d="M627 619c57.333 -68.667 85.999 -156 85.999 -262s-28.667 -193.667 -86 -263c-62 -72 -144.667 -108 -248 -108c-104.667 0 -187.334 36.333 -248.001 109c-58 68 -87 155.333 -87 262s29 194 87 262c60.667 72.667 143.334 109 248.001 109
s187.334 -36.333 248.001 -109zM159.999 595c-51.333 -61.333 -77 -140.666 -77 -237.999c0 -98.667 25.667 -178 77 -238c54 -64 127 -96 219 -96c91.333 0 164 32 218 96c51.333 61.333 77 140.666 77 237.999c0 98 -25.667 177.333 -77 238c-54 64 -126.667 96 -218 96
c-92 0 -165 -32 -219 -96z" />
    <glyph glyph-name="P" unicode="P" horiz-adv-x="626" 
d="M74 714h288c152.667 0 229 -66.333 229 -199c0 -134 -76.667 -201 -230 -201h-248v-314h-39v714zM113 678l-0.000976562 -328h247c64.667 0 113.334 14.333 146.001 43c30.667 27.333 46 68 46 122s-15.333 94.333 -46 121c-32 28 -80.667 42 -146 42h-247z" />
    <glyph glyph-name="Q" unicode="Q" horiz-adv-x="757" 
d="M627 619c57.333 -68.667 85.999 -156 85.999 -262s-28.667 -193.667 -86 -263l-17 -18c31.333 -41.333 60 -81.333 86 -120l-28 -24c-16.667 25.333 -45 65 -85 119c-56.667 -43.333 -124.667 -65 -204 -65c-104.667 0 -187.334 36.333 -248.001 109
c-58 68 -87 155.333 -87 262s29 194 87 262c60.667 72.667 143.334 109 248.001 109s187.334 -36.333 248.001 -109zM159.999 595c-51.333 -61.333 -77 -140.666 -77 -237.999c0 -98.667 25.667 -178 77 -238c54 -64 127 -96 219 -96c71.333 0 131.333 19.667 180 59
c-46.667 60.667 -92.667 115.334 -138 164.001l26 25c42.667 -46.667 89 -101.334 139 -164.001l11 12c51.333 61.333 77 140.666 77 237.999c0 98 -25.667 177.333 -77 238c-54 64 -126.667 96 -218 96c-92 0 -165 -32 -219 -96z" />
    <glyph glyph-name="R" unicode="R" horiz-adv-x="652" 
d="M74 714l296 -0.000976562c69.333 0 123.666 -16.667 162.999 -50s59 -80.666 59 -141.999c0 -44 -12 -82 -36 -114c-24 -31.333 -58.667 -52 -104 -62v-2c76.667 -16 118.334 -61 125.001 -135l9 -104c4 -44.667 14.333 -79.667 31 -105h-43
c-13.333 23.333 -22 56 -26 98l-9 103c-4 46 -22 79 -54 99c-28 18 -66.667 27 -116 27h-256v-327h-39v714zM113 677.999v-315.002h255c60 0 106.333 15 139 45c30.667 28.667 46 66.334 46 113.001c0 50.667 -14.333 89.334 -43 116.001c-31.333 27.333 -79 41 -143 41
h-254z" />
    <glyph glyph-name="S" unicode="S" horiz-adv-x="610" 
d="M481 669c46 -39.333 72 -94.6689 78 -166.002h-39c-7.33301 60.667 -29.333 107.334 -66 140.001c-37.333 32.667 -89 49 -155 49c-64 0 -113.667 -11.667 -149 -35c-40.667 -24.667 -61 -61.667 -61 -111c0 -43.333 25 -78 75 -104c21.333 -12 69 -28 143 -48
c88.667 -24 149.334 -46 182.001 -66c58 -34.667 87 -84.334 87 -149.001c0 -60 -25.667 -107.667 -77 -143c-49.333 -33.333 -112.333 -50 -189 -50c-80 0 -143.333 19.667 -190 59c-51.333 43.333 -80 107 -86 191h38c6 -71.333 31 -125.666 75 -162.999
c40.667 -33.333 94.667 -50 162 -50s122 14 164 42c42.667 28.667 64 66.334 64 113.001c0 52.667 -25.333 93.667 -76 123c-27.333 16.667 -82.333 36 -165 58c-85.333 24.667 -140 43.334 -164 56.001c-54.667 30.667 -82 74 -82 130c0 61.333 25.667 107.666 77 138.999
c43.333 29.333 101 44 173 44c77.333 0 137.666 -19.667 180.999 -59z" />
    <glyph glyph-name="T" unicode="T" horiz-adv-x="623" 
d="M19 714h585v-36h-272v-678h-39v678h-274v36z" />
    <glyph glyph-name="U" unicode="U" horiz-adv-x="689" 
d="M74 714h38.998v-436c0 -82.667 17.667 -144.667 53 -186c38.667 -46.667 98 -70 178 -70c80.667 0 140.334 23.333 179.001 70c35.333 42.667 53 104.667 53 186v436h39v-435c0 -92.667 -21 -163.667 -63 -213c-45.333 -53.333 -114.666 -80 -207.999 -80
c-92.667 0 -161.667 26.333 -207 79c-42 50 -63 121.333 -63 214v435z" />
    <glyph glyph-name="V" unicode="V" horiz-adv-x="614" 
d="M5 714h45l256 -676h2l257 676h44l-275 -714h-53z" />
    <glyph glyph-name="W" unicode="W" horiz-adv-x="903" 
d="M5 714h44l185 -667h3l189 667h51l188 -667h4l185 667h44l-206 -714h-50l-189 665h-3l-190 -665h-50z" />
    <glyph glyph-name="X" unicode="X" horiz-adv-x="604" 
d="M28 714h49l225 -310l224 310h50l-250 -342l273 -372h-50l-247 342l-247 -342h-50l273 372z" />
    <glyph glyph-name="Y" unicode="Y" horiz-adv-x="626" 
d="M5 714h49l259 -380l260 380h48l-288 -417v-297h-39v297z" />
    <glyph glyph-name="Z" unicode="Z" horiz-adv-x="605" 
d="M55 714h501v-38l-482 -640h506v-36h-555v37l483 641h-453v36z" />
    <glyph glyph-name="bracketleft" unicode="[" horiz-adv-x="333" 
d="M56 827h221v-35h-184v-864h184v-35h-221v934z" />
    <glyph glyph-name="backslash" unicode="\" horiz-adv-x="500" 
d="M50 820h37l363 -920h-37z" />
    <glyph glyph-name="bracketright" unicode="]" horiz-adv-x="333" 
d="M56 827h221v-934h-221v35h184v864h-184v35z" />
    <glyph glyph-name="asciicircum" unicode="^" horiz-adv-x="485" 
d="M221 714h43l161 -344h-37l-145 306l-146 -306h-37z" />
    <glyph glyph-name="underscore" unicode="_" horiz-adv-x="500" 
d="M0 -105h500v-35h-500v35z" />
    <glyph glyph-name="grave" unicode="`" horiz-adv-x="333" 
d="M87 722h50l110 -146h-32z" />
    <glyph glyph-name="a" unicode="a" horiz-adv-x="543" 
d="M435 471c29.333 -33.333 43.998 -79 43.998 -137v-334h-37v111c-21.333 -30.667 -50.333 -58.334 -87 -83.001c-44 -28 -91.667 -42 -143 -42c-49.333 0 -89.666 12.667 -120.999 38c-31.333 26.667 -47 62 -47 106c0 66 27.667 113.667 83 143
c42.667 23.333 101 35 175 35l139 1v21c0 110.667 -55 166 -165 166c-49.333 0 -89 -11 -119 -33c-33.333 -23.333 -53 -56.666 -59 -99.999h-38c8 56 31.667 98.333 71 127c36 27.333 84.667 41 146 41c70.667 0 123.334 -20 158.001 -60zM440.998 275l-138 -1
c-146.667 -0.666992 -220 -49 -220 -145c0 -32.667 12.333 -59 37 -79c24.667 -19.333 57.667 -29 99 -29c56 0 107.667 19.667 155 59c44.667 39.333 67 79.333 67 120v75z" />
    <glyph glyph-name="b" unicode="b" horiz-adv-x="566" 
d="M64 728h39v-336c36 92.667 99.667 139 191 139c72 0 129 -28 171 -84c38 -50 57 -113 57 -189c0 -75.333 -18.667 -138.333 -56 -189c-42 -55.333 -99.667 -83 -173 -83c-92.667 0 -156.667 45 -192 135v-121h-37v728zM150 428c-32 -42.667 -47.998 -97.667 -47.998 -165
v-13c0 -66 15.667 -119.667 47 -161c33.333 -45.333 80.666 -68 141.999 -68s109.666 23.333 144.999 70c31.333 43.333 47 99 47 167c0 69.333 -16 125 -48 167c-34.667 47.333 -83 71 -145 71c-60 0 -106.667 -22.667 -140 -68z" />
    <glyph glyph-name="c" unicode="c" horiz-adv-x="529" 
d="M423 486c38 -30 60.999 -75.333 68.999 -136h-38c-6.66699 48 -25.334 84.333 -56.001 109c-31.333 24.667 -71.666 37 -120.999 37c-59.333 0 -107 -23.333 -143 -70c-34 -44 -51 -101.667 -51 -173c0 -70 16.333 -125.667 49 -167c33.333 -43.333 81.333 -65 144 -65
c102.667 0 163 53.667 181 161h38c-10 -63.333 -34 -112 -72 -146c-38.667 -33.333 -87.667 -50 -147 -50c-75.333 0 -133.666 26 -174.999 78c-38 48 -57 111 -57 189c0 79.333 20 144.333 60 195c41.333 55.333 99 83 173 83c59.333 0 108 -15 146 -45z" />
    <glyph glyph-name="d" unicode="d" horiz-adv-x="566" 
d="M463 728h38.999v-728h-37v121c-36 -90 -100.333 -135 -193 -135c-73.333 0 -130.666 27.667 -171.999 83c-37.333 49.333 -56 112.333 -56 189c0 76 19 139 57 189c41.333 56 98 84 170 84c92 0 156 -46 192 -138v335zM130.999 425c-32 -42 -48 -97.668 -48 -167.001
s15.667 -125 47 -167c34.667 -46.667 83 -70 145 -70c60.667 0 108 22.667 142 68c31.333 42.667 47 96.334 47 161.001v13c0 67.333 -16 122.333 -48 165c-34.667 45.333 -81.334 68 -140.001 68c-63.333 0 -111.666 -23.667 -144.999 -71z" />
    <glyph glyph-name="e" unicode="e" horiz-adv-x="540" 
d="M449 449c34 -46.667 52.999 -114.333 56.999 -203h-432c2 -69.333 20.333 -123.666 55 -162.999c36 -41.333 83 -62 141 -62c51.333 0 93.333 14.333 126 43c26.667 24.667 46 58.667 58 102h41c-12 -50 -34.667 -91.333 -68 -124
c-41.333 -37.333 -93.666 -56 -156.999 -56c-72 0 -129 25 -171 75c-43.333 50 -65 116 -65 198c0 75.333 20.667 138.666 62 189.999c44 54.667 101.667 82 173 82c80 0 140 -27.333 180 -82zM131.999 435.001c-34.667 -40.667 -54 -92.333 -58 -155h392
c-10.667 144 -76 216 -196 216c-57.333 0 -103.333 -20.333 -138 -61z" />
    <glyph glyph-name="f" unicode="f" horiz-adv-x="367" 
d="M362 714l-0.000976562 -36h-84c-31.333 0 -53.666 -7.66699 -66.999 -23c-13.333 -14 -20 -39 -20 -75v-63h164v-35h-164v-482h-38v482h-148v35h148v63c0 44 9.66699 76.667 29 98c20 24 51.333 36 94 36h86z" />
    <glyph glyph-name="g" unicode="g" horiz-adv-x="577" 
d="M474 397l-0.000976562 120h39v-477c0 -168 -75.667 -252 -227 -252c-66.667 0 -118 15 -154 45c-34.667 28.667 -56 69.667 -64 123h38c8 -42 25.333 -74 52 -96c30.667 -24.667 73.334 -37 128.001 -37c125.333 0 188 71.333 188 214v108
c-38 -88.667 -104 -133 -198 -133c-72.667 0 -130.667 26.333 -174 79c-38.667 48.667 -58 108.667 -58 180c0 72.667 19.333 132.667 58 180c42.667 53.333 100.667 80 174 80c94 0 160 -44.667 198 -134zM132.999 428c-33.333 -40 -49.999 -92.333 -49.999 -157
c0 -61.333 16 -113 48 -155c35.333 -46 84.666 -69 147.999 -69c60.667 0 109.334 22.333 146.001 67c32.667 42.667 49 95 49 157c0 62.667 -16.333 115 -49 157c-35.333 45.333 -84 68 -146 68c-62.667 0 -111.334 -22.667 -146.001 -68z" />
    <glyph glyph-name="h" unicode="h" horiz-adv-x="532" 
d="M64 728h39v-315c18 36.667 42.667 65.667 74 87c29.333 20.667 63.333 31 102 31c57.333 0 103 -17 137 -51c34 -34.667 51 -83.667 51 -147v-333h-38v330c0 52.667 -14.333 94 -43 124c-28 28 -66 42 -114 42c-46 0 -85.333 -18.667 -118 -56c-34 -38 -51 -84 -51 -138
v-302h-39v728z" />
    <glyph glyph-name="i" unicode="i" horiz-adv-x="234" 
d="M145 681c8 -6.66699 12 -16 12 -28c0 -10.667 -4 -20 -12 -28s-17.333 -12 -28 -12c-11.333 0 -20.666 4 -27.999 12c-8 8 -12 17.333 -12 28c0 12 4 21.333 12 28c7.33301 8 16.666 12 27.999 12c10.667 0 20 -4 28 -12zM98 517h38v-517h-38v517z" />
    <glyph glyph-name="j" unicode="j" horiz-adv-x="255" 
d="M167 681c7.33301 -7.33301 11 -16.666 11 -27.999c0 -10 -3.66699 -19.333 -11 -28c-8 -8 -17.667 -12 -29 -12s-21 4 -29 12c-7.33301 7.33301 -11 16.666 -11 27.999c0 12 3.66699 21.333 11 28c8 8 17.667 12 29 12s21 -4 29 -12zM119 517h38v-593
c0 -81.333 -41.667 -122 -125 -122h-47v35h46c58.667 0 88 29.333 88 88v592z" />
    <glyph glyph-name="k" unicode="k" horiz-adv-x="499" 
d="M64 728h39v-494l317 283h56l-227 -201l250 -316h-51l-227 290l-118 -106v-184h-39v728z" />
    <glyph glyph-name="l" unicode="l" horiz-adv-x="212" 
d="M87 728h38v-728h-38v728z" />
    <glyph glyph-name="m" unicode="m" horiz-adv-x="820" 
d="M418 416c16 36 38.333 64 67 84c27.333 20.667 59.666 31 96.999 31c54.667 0 97.334 -16.667 128.001 -50c30.667 -34 46 -81.667 46 -143v-338h-38v335c0 52.667 -11 92 -33 118c-24 28.667 -60.667 43 -110 43c-42 0 -76.333 -15.667 -103 -47
c-28 -30 -42 -68.333 -42 -115v-334h-39v335c0 107.333 -46.667 161 -140 161c-42 0 -77 -17 -105 -51c-28.667 -32.667 -43 -73.667 -43 -123v-322h-39v517h39v-88c34 68 85 102 153 102c84 0 138 -38.333 162 -115z" />
    <glyph glyph-name="n" unicode="n" horiz-adv-x="532" 
d="M468 317l0.000976562 -317h-39v316c0 120 -52.667 180 -158 180c-46.667 0 -85.667 -17 -117 -51c-32 -32.667 -49 -76.667 -51 -132v-313h-39v517h39v-94c15.333 32 38.666 58.333 69.999 79c30 19.333 64.667 29 104 29c127.333 0 191 -71.333 191 -214z" />
    <glyph glyph-name="o" unicode="o" horiz-adv-x="570" 
d="M465 446c40.667 -50.667 61 -113.332 61 -187.999c0 -72.667 -20.333 -135.334 -61 -188.001c-44.667 -56 -104.667 -84 -180 -84c-76 0 -136 28 -180 84c-40.667 51.333 -61 114 -61 188c0 76 20.333 138.667 61 188c44 56.667 104 85 180 85
c75.333 0 135.333 -28.333 180 -85zM134 423.002c-34 -44 -50.999 -99 -50.999 -165c0 -65.333 17 -120 51 -164c37.333 -48.667 87.666 -73 150.999 -73c62 0 112.333 24.333 151 73c34 44 51 98.667 51 164c0 66 -17 121 -51 165c-38 48.667 -88.333 73 -151 73
c-64 0 -114.333 -24.333 -151 -73z" />
    <glyph glyph-name="p" unicode="p" horiz-adv-x="566" 
d="M465 447c38 -50 56.999 -113 56.999 -189c0 -75.333 -18.667 -138.333 -56 -189c-41.333 -55.333 -98.666 -83 -171.999 -83c-91.333 0 -155 45.333 -191 136v-320h-39v715h37v-121c39.333 90 103.333 135 192 135c72.667 0 130 -28 172 -84zM148.999 425
c-31.333 -41.333 -47.001 -96 -47.001 -164v-12c0 -66 16 -120 48 -162c34 -44 80.667 -66 140 -66c62.667 0 111 23 145 69c31.333 43.333 47 99.333 47 168c0 68 -15.667 123.333 -47 166c-34 48 -82 72 -144 72c-61.333 0 -108.666 -23.667 -141.999 -71z" />
    <glyph glyph-name="q" unicode="q" horiz-adv-x="566" 
d="M465 396v121h37v-715h-39v320c-36 -90.667 -100 -136 -192 -136c-74 0 -131 27.667 -171 83c-37.333 49.333 -56 112.333 -56 189c0 76 19 139 57 189c41.333 56 98.333 84 171 84c88.667 0 153 -45 193 -135zM131 424c-31.333 -41.333 -47.001 -96.668 -47.001 -166.001
c0 -70 15.667 -126 47 -168c34 -46 82.333 -69 145 -69c59.333 0 106 22 140 66c32 42 48 96 48 162v12c0 66.667 -15.667 121.334 -47 164.001c-33.333 47.333 -80.666 71 -141.999 71c-62 0 -110 -24 -144 -72z" />
    <glyph glyph-name="r" unicode="r" horiz-adv-x="355" 
d="M350 521l0.000976562 -41c-28 8 -55.333 12 -82 12c-52.667 0 -94.334 -24.333 -125.001 -73c-26.667 -41.333 -40 -90 -40 -146v-273h-39v517h39v-108c12.667 33.333 32.667 61 60 83c31.333 26 67 39 107 39c34 0 60.667 -3.33301 80 -10z" />
    <glyph glyph-name="s" unicode="s" horiz-adv-x="480" 
d="M432 374h-38.001c-6.66699 38.667 -22 68 -46 88c-27.333 22.667 -66 34 -116 34c-42.667 0 -76.667 -9.33301 -102 -28c-28 -18 -42 -41 -42 -69c0 -30 16.333 -54 49 -72c21.333 -11.333 58.333 -24 111 -38c64 -16 109 -31.667 135 -47c42 -24 63 -58 63 -102
c0 -102.667 -67 -154 -201 -154c-128.667 0 -199 58 -211 174h39c6 -50.667 23.667 -86.667 53 -108c26.667 -20.667 66.334 -31 119.001 -31c108 0 162 39.333 162 118c0 34 -18 60 -54 78c-18 10 -58 23 -120 39c-60.667 16 -102.667 31.333 -126 46
c-38 23.333 -57 55.333 -57 96s18 73 54 97c35.333 24 78 36 128 36c117.333 0 184 -52.333 200 -157z" />
    <glyph glyph-name="t" unicode="t" horiz-adv-x="346" 
d="M174 684v-167h143v-35h-143v-373c0 -28 4.66699 -47 14 -57c8 -11.333 25.333 -17 52 -17h65v-35h-68c-38.667 0 -65.667 9.66699 -81 29c-13.333 17.333 -20 44 -20 80v373h-117v35h117v150z" />
    <glyph glyph-name="u" unicode="u" horiz-adv-x="532" 
d="M64 517h39v-317c0 -58.667 12.333 -102.667 37 -132c26 -31.333 66.333 -47 121 -47c46.667 0 86 17 118 51s49 78 51 132v313h38v-517h-38v96c-39.333 -73.333 -98 -110 -176 -110c-126.667 0 -190 71 -190 213v318z" />
    <glyph glyph-name="v" unicode="v" horiz-adv-x="452" 
d="M5 517h43l178 -467l178 467h43l-200 -517h-42z" />
    <glyph glyph-name="w" unicode="w" horiz-adv-x="728" 
d="M5 517h43l155 -463l141 463h40l141 -463l155 463h43l-179 -517h-38l-141 463l-143 -463h-38z" />
    <glyph glyph-name="x" unicode="x" horiz-adv-x="476" 
d="M26 517h48l164 -215l164 215h47l-188 -245l210 -272h-48l-185 243l-186 -243h-47l210 272z" />
    <glyph glyph-name="y" unicode="y" horiz-adv-x="459" 
d="M5 517h43l182 -456l180 456h44l-287 -715h-43l86 211z" />
    <glyph glyph-name="z" unicode="z" horiz-adv-x="465" 
d="M35 517h389v-35l-351 -447h367v-35h-415v35l352 447h-342v35z" />
    <glyph glyph-name="braceleft" unicode="{" horiz-adv-x="333" 
d="M300 827v-34h-52c-53.333 0 -80 -29.333 -80 -88v-228c0 -58 -25 -97 -75 -117c50 -20 75 -59 75 -117v-229c0 -58 26.667 -87 80 -87h52v-34h-55c-36 0 -64 11 -84 33s-30 51.667 -30 89v228c0 32 -6.66699 55.667 -20 71c-15.333 17.333 -41.333 26 -78 26v40
c36.667 0.666992 62.667 9.33398 78 26.001c13.333 15.333 20 38.666 20 69.999v228c0 38 10 68 30 90s48 33 84 33h55z" />
    <glyph glyph-name="bar" unicode="|" horiz-adv-x="172" 
d="M68 860h36v-1000h-36v1000z" />
    <glyph glyph-name="braceright" unicode="}" horiz-adv-x="333" 
d="M33 827l55.001 0.000976562c35.333 0 63.333 -11 84 -33c20 -22 30 -52 30 -90v-228c0 -32.667 6.66699 -56 20 -70c14 -16.667 40 -25.334 78 -26.001v-40c-36.667 0 -62.334 -8.33301 -77.001 -25c-14 -16 -21 -40 -21 -72v-228c0 -37.333 -10 -67 -30 -89
c-20.667 -22 -48.667 -33 -84 -33h-55v34h52c53.333 0 80 29 80 87v229c0 58 25 97 75 117c-50 20 -75 59 -75 117v228c0 58.667 -26.667 88 -80 88h-52v34z" />
    <glyph glyph-name="asciitilde" unicode="~" horiz-adv-x="500" 
d="M255 378c45.333 -32 79 -48 101 -48c28 0 59 25 93 75l27 -20c-42 -59.333 -82 -89 -120 -89c-28 0 -64.667 16 -110 48c-46 32 -80 48 -102 48c-28 0 -59 -25 -93 -75l-27 20c40.667 59.333 80.667 89 120 89c28 0 65 -16 111 -48z" />
    <glyph glyph-name="uni007F" horiz-adv-x="0" 
 />
    <glyph glyph-name="uni00A0" unicode="&#xa0;" horiz-adv-x="333" 
 />
  </font>
</defs>
</svg>
