<?xml version="1.0" encoding="UTF-8"?>
<svg width="12px" height="16px" viewBox="0 0 12 16" version="1.1" xmlns="http://www.w3.org/2000/svg" xmlns:xlink="http://www.w3.org/1999/xlink">
    <g stroke="none" stroke-width="1" fill="none" fill-rule="evenodd">
        <g transform="translate(-474.000000, -680.000000)" fill="#63656E" fill-rule="nonzero">
            <g transform="translate(60.000000, 183.000000)">
                <g transform="translate(30.000000, 56.000000)">
                    <g transform="translate(0.000000, 431.000000)">
                        <path d="M394.875,18 L395.454545,18 C395.75625,18 396,18.25025 396,18.56 L396,25.44 C396,25.74975 395.75625,26 395.454545,26 L384.545455,26 C384.24375,26 384,25.74975 384,25.44 L384,18.56 C384,18.25025 384.24375,18 384.545455,18 L385.704545,18 L385.704545,12.24 C385.704545,11.00275 386.68125,10 387.886364,10 L392.113636,10 C393.31875,10 394.295455,11.00275 394.295455,12.24 L394.295455,16 L393.068182,16 L393.068182,12.24 C393.068182,11.69925 392.640341,11.26 392.113636,11.26 L387.886364,11.26 C387.359659,11.26 386.931818,11.69925 386.931818,12.24 L386.931818,18 L393,18 L394.875,18 Z">
                        </path>
                    </g>
                </g>
            </g>
        </g>
    </g>
</svg>