<?xml version="1.0" encoding="UTF-8"?>
<svg width="12px" height="14px" viewBox="0 0 12 14" version="1.1" xmlns="http://www.w3.org/2000/svg" xmlns:xlink="http://www.w3.org/1999/xlink">
    <g stroke="none" stroke-width="1" fill="none" fill-rule="evenodd">
        <g transform="translate(-442.000000, -682.000000)" fill="#63656E" fill-rule="nonzero">
            <g transform="translate(60.000000, 183.000000)">
                <g transform="translate(30.000000, 56.000000)">
                    <g transform="translate(0.000000, 431.000000)">
                        <path d="M363.454545,18 L362.295455,18 L362.295455,14.24 C362.295455,13.00275 361.31875,12 360.113636,12 L355.886364,12 C354.68125,12 353.704545,13.00275 353.704545,14.24 L353.704545,18 L352.545455,18 C352.24375,18 352,18.25025 352,18.56 L352,25.44 C352,25.74975 352.24375,26 352.545455,26 L363.454545,26 C363.75625,26 364,25.74975 364,25.44 L364,18.56 C364,18.25025 363.75625,18 363.454545,18 Z M361.068182,18 L354.931818,18 L354.931818,14.24 C354.931818,13.69925 355.359659,13.26 355.886364,13.26 L360.113636,13.26 C360.640341,13.26 361.068182,13.69925 361.068182,14.24 L361.068182,18 Z">
                        </path>
                    </g>
                </g>
            </g>
        </g>
    </g>
</svg>