<svg class="bk-icon" style="width: 1em; height: 1em;vertical-align: middle;fill: currentColor;overflow: hidden;" viewBox="0 0 64 64" version="1.1" xmlns="http://www.w3.org/2000/svg"><path fill="#737987" d="M32,4C16.5,4,4,16.5,4,32s12.5,28,28,28s28-12.5,28-28S47.5,4,32,4z M32,8c13.3,0,24,10.7,24,24	c0,4.5-1.2,8.7-3.4,12.3C42,34.1,25,33.2,13.2,42.7c-0.6,0.5-1.2,1.1-1.8,1.6C9.2,40.7,8,36.5,8,32C8,18.7,18.7,8,32,8z M32,56	c-7.3,0-13.9-3.3-18.3-8.4c0.6-0.6,1.3-1.2,2-1.8c10.4-8.4,25.3-7.4,34.6,1.8C45.9,52.7,39.3,56,32,56z"/><path fill="#737987" d="M32,16c3.6,0,6.5,2.9,6.5,6.5S35.6,29,32,29s-6.5-2.9-6.5-6.5S28.4,16,32,16 M32,12c-5.8,0-10.5,4.7-10.5,10.5	S26.2,33,32,33s10.5-4.7,10.5-10.5S37.8,12,32,12z"/></svg>