<?xml version="1.0" encoding="utf-8"?>
<!-- Generator: Adobe Illustrator 22.1.0, SVG Export Plug-In . SVG Version: 6.00 Build 0)  -->
<svg version="1.1" id="图层_1" xmlns="http://www.w3.org/2000/svg" xmlns:xlink="http://www.w3.org/1999/xlink" x="0px" y="0px"
	 viewBox="0 0 106 106" style="enable-background:new 0 0 106 106;" xml:space="preserve">
<style type="text/css">
	.st0{fill:#3A84FF;}
</style>
<g transform="rotate(0 50 50)">
	<path class="st0" d="M53,7L53,7c3.9,0,7,3.4,7,7.6v4.9c0,4.2-3.1,7.6-7,7.6l0,0c-3.9,0-7-3.4-7-7.6v-4.9C46,10.4,49.1,7,53,7z	">
<animate  accumulate="none" additive="replace" attributeName="opacity" begin="-0.875s" calcMode="linear" dur="1s" fill="remove" keyTimes="0;1" repeatCount="indefinite" restart="always" values="1;0">
			</animate>
	</path>
</g>
<g transform="rotate(45 50 50)">
	<path class="st0" d="M54.2,4L54.2,4c3.9,0,7,3.4,7,7.6v4.9c0,4.2-3.1,7.6-7,7.6l0,0c-3.9,0-7-3.4-7-7.6v-4.9
		C47.2,7.4,50.4,4,54.2,4z	">
<animate  accumulate="none" additive="replace" attributeName="opacity" begin="-0.75s" calcMode="linear" dur="1s" fill="remove" keyTimes="0;1" repeatCount="indefinite" restart="always" values="1;0">
			</animate>
	</path>
</g>
<g transform="rotate(90 50 50)">
	<path class="st0" d="M53,1L53,1c3.9,0,7,3.4,7,7.6v4.9c0,4.2-3.1,7.6-7,7.6l0,0c-3.9,0-7-3.4-7-7.6V8.6C46,4.4,49.1,1,53,1z	">
<animate  accumulate="none" additive="replace" attributeName="opacity" begin="-0.625s" calcMode="linear" dur="1s" fill="remove" keyTimes="0;1" repeatCount="indefinite" restart="always" values="1;0">
			</animate>
	</path>
</g>
<g transform="rotate(135 50 50)">
	<path class="st0" d="M50-0.2L50-0.2c3.9,0,7,3.4,7,7.6v4.9c0,4.2-3.1,7.6-7,7.6l0,0c-3.9,0-7-3.4-7-7.6V7.3C43,3.1,46.1-0.2,50-0.2
		z	">
<animate  accumulate="none" additive="replace" attributeName="opacity" begin="-0.5s" calcMode="linear" dur="1s" fill="remove" keyTimes="0;1" repeatCount="indefinite" restart="always" values="1;0">
			</animate>
	</path>
</g>
<g transform="rotate(180 50 50)">
	<path class="st0" d="M47,1L47,1c3.9,0,7,3.4,7,7.6v4.9c0,4.2-3.1,7.6-7,7.6l0,0c-3.9,0-7-3.4-7-7.6V8.6C40,4.4,43.1,1,47,1z	">
<animate  accumulate="none" additive="replace" attributeName="opacity" begin="-0.375s" calcMode="linear" dur="1s" fill="remove" keyTimes="0;1" repeatCount="indefinite" restart="always" values="1;0">
			</animate>
	</path>
</g>
<g transform="rotate(225 50 50)">
	<path class="st0" d="M45.8,4L45.8,4c3.9,0,7,3.4,7,7.6v4.9c0,4.2-3.1,7.6-7,7.6l0,0c-3.9,0-7-3.4-7-7.6v-4.9
		C38.8,7.4,41.9,4,45.8,4z	">
<animate  accumulate="none" additive="replace" attributeName="opacity" begin="-0.25s" calcMode="linear" dur="1s" fill="remove" keyTimes="0;1" repeatCount="indefinite" restart="always" values="1;0">
			</animate>
	</path>
</g>
<g transform="rotate(270 50 50)">
	<path class="st0" d="M47,7L47,7c3.9,0,7,3.4,7,7.6v4.9c0,4.2-3.1,7.6-7,7.6l0,0c-3.9,0-7-3.4-7-7.6v-4.9C40,10.4,43.1,7,47,7z	">
<animate  accumulate="none" additive="replace" attributeName="opacity" begin="-0.125s" calcMode="linear" dur="1s" fill="remove" keyTimes="0;1" repeatCount="indefinite" restart="always" values="1;0">
			</animate>
	</path>
</g>
<g transform="rotate(315 50 50)">
	<path class="st0" d="M50,8.2L50,8.2c3.9,0,7,3.4,7,7.6v4.9c0,4.2-3.1,7.6-7,7.6l0,0c-3.9,0-7-3.4-7-7.6v-4.9
		C43,11.6,46.1,8.2,50,8.2z	">
<animate  accumulate="none" additive="replace" attributeName="opacity" begin="0s" calcMode="linear" dur="1s" fill="remove" keyTimes="0;1" repeatCount="indefinite" restart="always" values="1;0">
			</animate>
	</path>
</g>
</svg>
