<?xml version="1.0" standalone="no"?>
<!DOCTYPE svg PUBLIC "-//W3C//DTD SVG 1.1//EN" "http://www.w3.org/Graphics/SVG/1.1/DTD/svg11.dtd" >
<svg xmlns="http://www.w3.org/2000/svg">
<metadata>Generated by IcoMoon</metadata>
<defs>
<font id="icomoon" horiz-adv-x="1024">
<font-face units-per-em="1024" ascent="960" descent="-64" />
<missing-glyph horiz-adv-x="1024" />
<glyph unicode="&#x20;" horiz-adv-x="512" d="" />
<glyph unicode="&#xe900;" glyph-name="cc-angle-left" d="M704 0c-6.4 0-19.2 6.4-25.6 12.8l-384 416c-12.8 12.8-12.8 32 0 44.8l384 416c12.8 12.8 32 12.8 44.8 0s12.8-32 0-44.8l-358.4-396.8 364.8-396.8c12.8-12.8 12.8-32 0-44.8-12.8-6.4-19.2-6.4-25.6-6.4z" />
<glyph unicode="&#xe901;" glyph-name="cc-angle-right" d="M320 0c-6.4 0-12.8 0-19.2 6.4-12.8 12.8-12.8 32 0 44.8l358.4 396.8-364.8 396.8c-12.8 12.8-12.8 32 0 44.8s32 12.8 44.8 0l384-416c12.8-12.8 12.8-32 0-44.8l-384-416c0-6.4-12.8-12.8-19.2-12.8z" />
<glyph unicode="&#xe902;" glyph-name="cc-architecture" d="M341.333 561.778h341.333c28.444 0 56.889 28.444 56.889 56.889v170.667c0 28.444-28.444 56.889-56.889 56.889h-341.333c-28.444 0-56.889-28.444-56.889-56.889v-170.667c0-28.444 28.444-56.889 56.889-56.889zM341.333 334.222h-227.556c-28.444 0-56.889-28.444-56.889-56.889v-170.667c0-28.444 28.444-56.889 56.889-56.889h227.556c28.444 0 56.889 28.444 56.889 56.889v170.667c0 28.444-28.444 56.889-56.889 56.889zM910.222 334.222h-227.556c-28.444 0-56.889-28.444-56.889-56.889v-170.667c0-28.444 28.444-56.889 56.889-56.889h227.556c28.444 0 56.889 28.444 56.889 56.889v170.667c0 28.444-28.444 56.889-56.889 56.889zM398.222 504.889h227.556v-113.778h-227.556v113.778zM739.556 504.889h113.778v-113.778h-113.778v113.778zM170.667 504.889h113.778v-113.778h-113.778v113.778z" />
<glyph unicode="&#xe903;" glyph-name="cc-attribute" d="M512 903.111c-250.311 0-455.111-204.8-455.111-455.111s204.8-455.111 455.111-455.111 455.111 204.8 455.111 455.111-204.8 455.111-455.111 455.111zM426.667 192c-28.444 0-51.2 11.378-51.2 45.511 0 39.822 28.444 108.089 34.133 119.467l56.889 147.911c5.689 17.067 0 22.756-5.689 22.756-28.444 0-68.267-73.956-85.333-73.956-5.689 0-11.378 5.689-11.378 11.378 0 17.067 34.133 51.2 45.511 62.578 34.133 34.133 73.956 56.889 125.156 56.889 34.133 0 73.956-22.756 45.511-102.4l-56.889-159.289c-5.689-11.378-11.378-34.133-11.378-45.511 0-5.689 5.689-11.378 11.378-11.378 22.756 0 68.267 68.267 79.644 68.267 5.689 0 11.378-5.689 11.378-11.378-5.689-28.444-102.4-130.844-187.733-130.844zM568.889 612.978c-34.133 0-56.889 22.756-56.889 56.889s34.133 62.578 68.267 62.578c34.133 0 56.889-22.756 56.889-56.889 0-39.822-34.133-62.578-68.267-62.578z" />
<glyph unicode="&#xe904;" glyph-name="cc-backstage" d="M910.222 846.222h-796.444c-28.444 0-56.889-28.444-56.889-56.889v-512c0-28.444 28.444-56.889 56.889-56.889h284.444v-113.778h-170.667v-56.889h568.889v56.889h-170.667v113.778h284.444c28.444 0 56.889 28.444 56.889 56.889v512c0 28.444-28.444 56.889-56.889 56.889zM910.222 305.778c0-17.067-11.378-28.444-28.444-28.444h-739.556c-17.067 0-28.444 11.378-28.444 28.444v85.333h796.444v-85.333z" />
<glyph unicode="&#xe905;" glyph-name="cc-backward" d="M396.8 448l364.8 396.8c12.8 12.8 12.8 32 0 44.8s-32 12.8-44.8 0l-384-416c-12.8-19.2-12.8-32-6.4-44.8l384-416c6.4-6.4 12.8-12.8 25.6-12.8 6.4 0 12.8 0 19.2 6.4 12.8 12.8 12.8 32 0 44.8l-358.4 396.8zM192 768c-19.2 0-32-12.8-32-32v-576c0-19.2 12.8-32 32-32s32 12.8 32 32v576c0 19.2-12.8 32-32 32z" />
<glyph unicode="&#xe906;" glyph-name="cc-broom" d="M-5.689 203.378l136.533-56.889c0 0 45.511-17.067 153.6 119.467l-62.578-159.289 91.022-34.133c0 0 91.022-34.133 153.6 119.467l-62.578-159.289 91.022-34.133c0 0 91.022-34.133 153.6 119.467l-62.578-159.289 96.711-22.756c0 0 68.267 28.444 193.422 341.333 0 0 0 0 0 0l-642.844 261.689c0 0-193.422-352.711-238.933-335.644zM961.422 493.511c11.378 28.444 0 62.578-22.756 73.956l-187.733 73.956 85.333 210.489c11.378 28.444 0 62.578-22.756 73.956l-91.022 34.133c-22.756 11.378-56.889-5.689-68.267-34.133l-85.333-216.178-187.733 73.956c-22.756 11.378-56.889-5.689-68.267-34.133l-39.822-108.089 648.533-256 5.689 17.067 22.756 62.578 11.378 28.444z" />
<glyph unicode="&#xe907;" glyph-name="cc-business" d="M910.222 698.311h-164.978v17.067c0 91.022-73.956 164.978-170.667 164.978h-130.844c-91.022 0-170.667-73.956-170.667-164.978v-17.067h-159.289c-28.444 0-56.889-28.444-56.889-56.889v-125.156h910.222v125.156c0 28.444-28.444 56.889-56.889 56.889zM676.978 698.311h-329.956v17.067c0 51.2 39.822 96.711 96.711 96.711h136.533c51.2 0 96.711-39.822 96.711-96.711v-17.067zM676.978 300.089h-329.956v142.222h-290.133v-341.333c0-28.444 28.444-56.889 56.889-56.889h796.444c28.444 0 56.889 28.444 56.889 56.889v341.333h-290.133v-142.222zM398.222 448h227.556v-113.778h-227.556v113.778z" />
<glyph unicode="&#xe908;" glyph-name="cc-cabinet" d="M910.222 903.111h-796.444c-28.444 0-56.889-28.444-56.889-56.889v-796.444c0-34.133 28.444-56.889 56.889-56.889h796.444c34.133 0 56.889 28.444 56.889 56.889v796.444c0 28.444-28.444 56.889-56.889 56.889zM910.222 49.778h-796.444v796.444h796.444v-796.444zM170.667 789.333v-170.667h682.667v170.667h-682.667zM796.444 675.556h-113.778v56.889h113.778v-56.889zM170.667 277.333v-170.667h682.667v170.667h-682.667zM796.444 163.556h-113.778v56.889h113.778v-56.889zM170.667 533.333v-170.667h682.667v170.667h-682.667zM796.444 419.556h-113.778v56.889h113.778v-56.889z" />
<glyph unicode="&#xe909;" glyph-name="cc-cbd" d="M56.889-7.111h170.667v489.244c0 17.067-5.689 22.756-17.067 28.444l-113.778 39.822c-22.756 5.689-39.822-11.378-39.822-28.444v-529.067zM796.444 448h170.667v-455.111h-170.667v455.111zM796.444 561.778v-56.889h170.667v113.778zM625.778 800.711h-56.889v102.4h-113.778v-102.4h-56.889v-68.267h-113.778v-739.556h455.111v739.556h-113.778v68.267zM455.111 49.778h-56.889v113.778h56.889v-113.778zM455.111 277.333h-56.889v113.778h56.889v-113.778zM455.111 504.889h-56.889v113.778h56.889v-113.778zM625.778 49.778h-113.778v113.778h113.778v-113.778zM625.778 277.333h-113.778v113.778h113.778v-113.778zM625.778 504.889h-113.778v113.778h113.778v-113.778z" />
<glyph unicode="&#xe90a;" glyph-name="cc-clear" d="M56.889-7.111h170.667c0 0 56.889 0 113.778 170.667v-170.667h113.778c0 0 113.778 0 113.778 170.667v-170.667h113.778c0 0 113.778 0 113.778 170.667v-170.667h113.778c0 0 56.889 56.889 56.889 398.222 0 0 0 0 0 0h-796.444c0 0-56.889-398.222-113.778-398.222zM967.111 561.778c0 34.133-28.444 56.889-56.889 56.889h-227.556v227.556c0 28.444-22.756 56.889-56.889 56.889h-113.778c-34.133 0-56.889-28.444-56.889-56.889v-227.556h-227.556c-28.444 0-56.889-22.756-56.889-56.889v-113.778h796.444v113.778z" />
<glyph unicode="&#xe90b;" glyph-name="cc-cloud-host" d="M512 374.044c0 0 5.689 0 0 0 39.822 34.133 79.644 56.889 130.844 62.578v352.711c0 34.133-22.756 56.889-56.889 56.889h-472.178c-34.133 0-56.889-22.756-56.889-56.889v-682.667c0-34.133 22.756-56.889 56.889-56.889h256c-28.444 34.133-51.2 79.644-51.2 130.844 0 108.089 85.333 193.422 193.422 193.422zM187.733 715.378h324.267v-62.578h-324.267v62.578zM187.733 521.956v62.578h324.267v-62.578h-324.267zM853.333 277.333c-11.378 0-17.067 0-28.444-5.689-22.756 56.889-79.644 102.4-147.911 102.4-56.889 0-102.4-28.444-130.844-68.267-11.378 0-17.067 5.689-28.444 5.689-73.956 0-130.844-56.889-130.844-130.844-5.689-73.956 51.2-130.844 125.156-130.844h324.267c0 0 11.378 0 17.067 0 62.578 0 113.778 51.2 113.778 113.778s-51.2 113.778-113.778 113.778z" />
<glyph unicode="&#xe90c;" glyph-name="cc-cloud-to-uploa" d="M802.133 578.844c-51.2 130.844-170.667 227.556-307.2 227.556-176.356 0-324.267-153.6-335.644-341.333-91.022-11.378-159.289-91.022-159.289-193.422 0-108.089 79.644-193.422 176.356-193.422h256v170.667h-125.156c-11.378 11.378-11.378 34.133 0 45.511l182.044 210.489c11.378 11.378 34.133 11.378 45.511 0l182.044-210.489c11.378-11.378 11.378-34.133 0-45.511h-130.844v-170.667h210.489c125.156 0 227.556 113.778 227.556 250.311s-96.711 244.622-221.867 250.311v0z" />
<glyph unicode="&#xe90d;" glyph-name="cc-collect" d="M910.222 846.222h-284.444c-28.444 0-56.889-28.444-56.889-56.889v-284.444h-113.778v256c0 17.067-11.378 28.444-28.444 28.444h-199.111v28.444c0 17.067-11.378 28.444-28.444 28.444h-113.778c-17.067 0-28.444-11.378-28.444-28.444v-170.667c0-17.067 11.378-28.444 28.444-28.444h113.778c17.067 0 28.444 11.378 28.444 28.444v28.444h113.778v-170.667h-113.778v28.444c0 17.067-11.378 28.444-28.444 28.444h-113.778c-17.067 0-28.444-11.378-28.444-28.444v-170.667c0-17.067 11.378-28.444 28.444-28.444h113.778c17.067 0 28.444 11.378 28.444 28.444v28.444h113.778v-170.667h-113.778v28.444c0 17.067-11.378 28.444-28.444 28.444h-113.778c-17.067 0-28.444-11.378-28.444-28.444v-170.667c0-17.067 11.378-28.444 28.444-28.444h113.778c17.067 0 28.444 11.378 28.444 28.444v28.444h199.111c17.067 0 28.444 11.378 28.444 28.444v256h113.778v-284.444c0-28.444 28.444-56.889 56.889-56.889h284.444c28.444 0 56.889 28.444 56.889 56.889v682.667c0 28.444-28.444 56.889-56.889 56.889zM853.333 618.667h-170.667v113.778h170.667v-113.778zM853.333 391.111h-170.667v113.778h170.667v-113.778zM853.333 163.556h-170.667v113.778h170.667v-113.778z" />
<glyph unicode="&#xe90e;" glyph-name="cc-collection" d="M779.378 647.111h73.956v113.778h102.4v73.956h-102.4v113.778h-73.956v-113.778h-108.089v-73.956h108.089zM961.422 504.889l62.578 68.267-341.333 62.578-164.978 324.267-170.667-318.578-347.022-73.956 238.933-267.378-39.822-364.089 312.889 153.6 51.2-22.756c96.711-51.2 267.378-130.844 267.378-130.844l-39.822 369.778 170.667 199.111z" />
<glyph unicode="&#xe90f;" glyph-name="cc-columnar" d="M113.778 163.556h227.556v398.222c0 34.133-22.756 56.889-56.889 56.889h-113.778c-28.444 0-56.889-22.756-56.889-56.889v-398.222zM56.889 106.667h910.222v-113.778h-910.222v113.778zM398.222 163.556h227.556v568.889c0 28.444-22.756 56.889-56.889 56.889h-113.778c-34.133 0-56.889-28.444-56.889-56.889v-568.889zM682.667 163.556h227.556v682.667c0 28.444-22.756 56.889-56.889 56.889h-113.778c-34.133 0-56.889-28.444-56.889-56.889v-682.667z" />
<glyph unicode="&#xe910;" glyph-name="cc-compact" d="M512 192c0 142.222 113.778 256 256 256 11.378 0 17.067 0 28.444-5.689v403.911c0 28.444-28.444 56.889-56.889 56.889h-625.778c-28.444 0-56.889-28.444-56.889-56.889v-796.444c0-28.444 28.444-56.889 56.889-56.889h494.933c-56.889 45.511-96.711 119.467-96.711 199.111zM398.222 391.111h-170.667c-28.444 0-56.889 28.444-56.889 56.889s28.444 56.889 56.889 56.889h170.667c28.444 0 56.889-28.444 56.889-56.889s-28.444-56.889-56.889-56.889zM227.556 618.667c-28.444 0-56.889 28.444-56.889 56.889s28.444 56.889 56.889 56.889h398.222c28.444 0 56.889-28.444 56.889-56.889s-28.444-56.889-56.889-56.889h-398.222zM779.378 385.422c-108.089 0-199.111-91.022-199.111-199.111s91.022-199.111 199.111-199.111 199.111 91.022 199.111 199.111c0 113.778-91.022 199.111-199.111 199.111zM859.022 72.533l-79.644 34.133-79.644-34.133 11.378 85.333-56.889 62.578 85.333 17.067 39.822 73.956 39.822-73.956 85.333-17.067-56.889-62.578 11.378-85.333z" />
<glyph unicode="&#xe911;" glyph-name="cc-copy" d="M739.556 163.556h-568.889v455.111c0 28.444-28.444 56.889-56.889 56.889s-56.889-28.444-56.889-56.889v-512c0-28.444 28.444-56.889 56.889-56.889h625.778c28.444 0 56.889 28.444 56.889 56.889s-28.444 56.889-56.889 56.889zM910.222 846.222h-625.778c-28.444 0-56.889-28.444-56.889-56.889v-512c0-28.444 28.444-56.889 56.889-56.889h625.778c28.444 0 56.889 28.444 56.889 56.889v512c0 28.444-28.444 56.889-56.889 56.889zM824.889 334.222h-455.111c-17.067 0-28.444 11.378-28.444 28.444s11.378 28.444 28.444 28.444h455.111c17.067 0 28.444-11.378 28.444-28.444s-11.378-28.444-28.444-28.444zM824.889 504.889h-455.111c-17.067 0-28.444 11.378-28.444 28.444s11.378 28.444 28.444 28.444h455.111c17.067 0 28.444-11.378 28.444-28.444s-11.378-28.444-28.444-28.444zM824.889 675.556h-455.111c-17.067 0-28.444 11.378-28.444 28.444s11.378 28.444 28.444 28.444h455.111c17.067 0 28.444-11.378 28.444-28.444s-11.378-28.444-28.444-28.444z" />
<glyph unicode="&#xe912;" glyph-name="cc-create-business" d="M910.222 277.333h-113.778v113.778c0 28.444-28.444 56.889-56.889 56.889s-56.889-28.444-56.889-56.889v-113.778h-113.778c-28.444 0-56.889-28.444-56.889-56.889s28.444-56.889 56.889-56.889h113.778v-113.778c0-28.444 28.444-56.889 56.889-56.889s56.889 28.444 56.889 56.889v113.778h113.778c28.444 0 56.889 28.444 56.889 56.889s-28.444 56.889-56.889 56.889zM455.111 209.067v22.756c0 56.889 45.511 102.4 102.4 102.4h68.267v68.267c0 56.889 45.511 102.4 102.4 102.4h22.756c17.067 0 34.133-5.689 45.511-11.378v352.711c0 28.444-28.444 56.889-56.889 56.889h-625.778c-28.444 0-56.889-28.444-56.889-56.889v-796.444c0-28.444 28.444-56.889 56.889-56.889h512v113.778h-68.267c-56.889 0-102.4 45.511-102.4 102.4zM227.556 732.444h398.222c28.444 0 56.889-28.444 56.889-56.889s-28.444-56.889-56.889-56.889h-398.222c-28.444 0-56.889 28.444-56.889 56.889s28.444 56.889 56.889 56.889zM398.222 391.111h-170.667c-28.444 0-56.889 28.444-56.889 56.889s28.444 56.889 56.889 56.889h170.667c28.444 0 56.889-28.444 56.889-56.889s-28.444-56.889-56.889-56.889z" />
<glyph unicode="&#xe913;" glyph-name="cc-cube" d="M68.267 203.378l438.044-204.8c5.689-5.689 11.378-5.689 17.067 0l438.044 204.8c5.689 5.689 11.378 11.378 11.378 17.067v500.622c0 5.689 0 5.689-5.689 11.378 0 0 0 0 0 0s0 5.689-5.689 5.689c0 0 0 0 0 0s0 0 0 0l-438.044 170.667c-5.689 0-11.378 0-17.067 0l-438.044-170.667c0 0 0 0 0 0s0 0 0 0 0 0-5.689-5.689c0 0 0 0 0 0-5.689-5.689-5.689-5.689-5.689-11.378v-500.622c0-5.689 5.689-11.378 11.378-17.067v0zM102.4 692.622l392.533-147.911v-494.933l-392.533 187.733v455.111zM534.756 49.778v489.244l392.533 147.911v-455.111l-392.533-182.044zM517.689 863.289l375.467-142.222-375.467-142.222-381.156 142.222 381.156 142.222z" />
<glyph unicode="&#xe914;" glyph-name="cc-cube-entity" d="M420.978 521.956l-324.267 136.533c-17.067 5.689-39.822-5.689-39.822-28.444v-381.156c0-22.756 11.378-39.822 28.444-51.2l324.267-187.733c22.756-5.689 45.511 11.378 45.511 34.133v420.978c0 22.756-11.378 45.511-34.133 56.889zM927.289 658.489l-324.267-136.533c-22.756-11.378-34.133-34.133-34.133-56.889v-426.667c0-22.756 22.756-34.133 45.511-22.756l324.267 187.733c17.067 11.378 28.444 28.444 28.444 51.2v375.467c0 22.756-22.756 34.133-39.822 28.444zM898.844 760.889l-364.089 136.533c-17.067 5.689-28.444 5.689-45.511 0l-364.089-136.533c-22.756-11.378-22.756-45.511 0-51.2l364.089-136.533c17.067-11.378 28.444-11.378 45.511-5.689l364.089 136.533c22.756 11.378 22.756 45.511 0 56.889z" />
<glyph unicode="&#xe915;" glyph-name="cc-curve" d="M967.111 760.889c0 79.644-62.578 142.222-142.222 142.222s-142.222-62.578-142.222-142.222c0-51.2 22.756-91.022 62.578-119.467l-73.956-250.311c-5.689 0-11.378 0-17.067 0-11.378 0-22.756 0-39.822-5.689l-113.778 159.289c5.689 11.378 11.378 28.444 11.378 45.511 0 79.644-62.578 142.222-142.222 142.222s-142.222-62.578-142.222-142.222c0-45.511 22.756-91.022 56.889-113.778l-62.578-199.111c-5.689 0-11.378 0-22.756 0-79.644 0-142.222-62.578-142.222-142.222s62.578-142.222 142.222-142.222 142.222 62.578 142.222 142.222c0 39.822-17.067 73.956-45.511 102.4l73.956 210.489c0 0 0 0 0 0 28.444 0 56.889 11.378 79.644 22.756l96.711-130.844c-22.756-22.756-34.133-56.889-34.133-91.022 0-79.644 62.578-142.222 142.222-142.222s142.222 62.578 142.222 142.222c0 39.822-17.067 79.644-45.511 102.4l73.956 267.378c79.644 0 142.222 62.578 142.222 142.222z" />
<glyph unicode="&#xe916;" glyph-name="cc-del" d="M853.333 789.333h-170.667v56.889c0 28.444-28.444 56.889-56.889 56.889h-227.556c-28.444 0-56.889-28.444-56.889-56.889v-56.889h-170.667c-28.444 0-56.889-28.444-56.889-56.889v-56.889c0-28.444 28.444-56.889 56.889-56.889h682.667c28.444 0 56.889 28.444 56.889 56.889v56.889c0 28.444-28.444 56.889-56.889 56.889zM625.778 789.333h-227.556v28.444c0 17.067 11.378 28.444 28.444 28.444h170.667c17.067 0 28.444-11.378 28.444-28.444v-28.444zM170.667 78.222c0-45.511 39.822-85.333 85.333-85.333h512c45.511 0 85.333 39.822 85.333 85.333v483.556h-682.667v-483.556zM682.667 476.444c0 17.067 11.378 28.444 28.444 28.444s28.444-11.378 28.444-28.444v-341.333c0-17.067-11.378-28.444-28.444-28.444s-28.444 11.378-28.444 28.444v341.333zM455.111 448c0 28.444 28.444 56.889 56.889 56.889s56.889-28.444 56.889-56.889v-284.444c0-28.444-28.444-56.889-56.889-56.889s-56.889 28.444-56.889 56.889v284.444zM284.444 476.444c0 17.067 11.378 28.444 28.444 28.444s28.444-11.378 28.444-28.444v-341.333c0-17.067-11.378-28.444-28.444-28.444s-28.444 11.378-28.444 28.444v341.333z" />
<glyph unicode="&#xe917;" glyph-name="cc-derivation" d="M728.178 487.822l5.689-79.644 204.8 204.8c17.067 17.067 17.067 51.2-5.689 68.267l-238.933 170.667 11.378-102.4c-73.956-11.378-477.867-91.022-347.022-585.956h-159.289c-17.067 0-28.444 11.378-28.444 28.444v398.222c0 17.067 11.378 28.444 28.444 28.444h56.889c17.067 0 28.444 11.378 28.444 28.444v56.889c0 17.067-11.378 28.444-28.444 28.444h-170.667c-17.067 0-28.444-11.378-28.444-28.444v-625.778c0-17.067 11.378-28.444 28.444-28.444h796.444c17.067 0 28.444 11.378 28.444 28.444v284.444c0 17.067-11.378 28.444-28.444 28.444h-56.889c-17.067 0-28.444-11.378-28.444-28.444v-170.667c0-17.067-11.378-28.444-28.444-28.444h-398.222c0 96.711 34.133 381.156 358.4 324.267z" />
<glyph unicode="&#xe918;" glyph-name="cc-edit" d="M39.822 322.844l341.333-347.022h-347.022zM898.844 493.511l22.756 22.756c39.822 39.822 39.822 102.4 0 142.222l-199.111 199.111c-39.822 45.511-102.4 45.511-142.222 5.689l-22.756-22.756 341.333-347.022zM82.653 365.819l434.442 434.442 68.384-68.384-434.442-434.442-68.384 68.384zM355.928 93.259l434.442 434.442 72.407-72.407-434.442-434.442-72.407 72.407zM195.528 254.576l434.442 434.442 120.678-120.678-434.442-434.442-120.678 120.678z" />
<glyph unicode="&#xe919;" glyph-name="cc-engine-room" d="M398.222 903.111h-284.444c-28.444 0-56.889-28.444-56.889-56.889v-796.444c0-28.444 28.444-56.889 56.889-56.889h284.444c28.444 0 56.889 28.444 56.889 56.889v796.444c0 28.444-28.444 56.889-56.889 56.889zM256 220.444c-45.511 0-85.333 39.822-85.333 85.333s39.822 85.333 85.333 85.333 85.333-39.822 85.333-85.333-39.822-85.333-85.333-85.333zM398.222 561.778h-284.444v56.889h284.444v-56.889zM398.222 675.556h-284.444v56.889h284.444v-56.889zM910.222 903.111h-284.444c-28.444 0-56.889-28.444-56.889-56.889v-796.444c0-28.444 28.444-56.889 56.889-56.889h284.444c28.444 0 56.889 28.444 56.889 56.889v796.444c0 28.444-28.444 56.889-56.889 56.889zM768 220.444c-45.511 0-85.333 39.822-85.333 85.333s39.822 85.333 85.333 85.333 85.333-39.822 85.333-85.333-39.822-85.333-85.333-85.333zM910.222 561.778h-284.444v56.889h284.444v-56.889zM910.222 675.556h-284.444v56.889h284.444v-56.889z" />
<glyph unicode="&#xe91a;" glyph-name="cc-equipment" d="M910.222 561.778h-796.444c-28.444 0-56.889-28.444-56.889-56.889v-113.778c0-28.444 28.444-56.889 56.889-56.889h796.444c28.444 0 56.889 28.444 56.889 56.889v113.778c0 28.444-28.444 56.889-56.889 56.889zM512 391.111h-56.889v113.778h56.889v-113.778zM625.778 391.111h-56.889v113.778h56.889v-113.778zM853.333 391.111h-170.667v113.778h170.667v-113.778zM910.222 220.444h-796.444c-28.444 0-56.889-28.444-56.889-56.889v-113.778c0-28.444 28.444-56.889 56.889-56.889h796.444c28.444 0 56.889 28.444 56.889 56.889v113.778c0 28.444-28.444 56.889-56.889 56.889zM512 49.778h-56.889v113.778h56.889v-113.778zM625.778 49.778h-56.889v113.778h56.889v-113.778zM853.333 49.778h-170.667v113.778h170.667v-113.778zM910.222 903.111h-796.444c-28.444 0-56.889-28.444-56.889-56.889v-113.778c0-28.444 28.444-56.889 56.889-56.889h796.444c28.444 0 56.889 28.444 56.889 56.889v113.778c0 28.444-28.444 56.889-56.889 56.889zM512 732.444h-56.889v113.778h56.889v-113.778zM625.778 732.444h-56.889v113.778h56.889v-113.778zM853.333 732.444h-170.667v113.778h170.667v-113.778z" />
<glyph unicode="&#xe91b;" glyph-name="cc-failure" d="M1018.311 78.222l-460.8 807.822c-11.378 11.378-28.444 17.067-45.511 17.067s-34.133-5.689-45.511-22.756l-460.8-807.822c-5.689-5.689-5.689-11.378-5.689-22.756 0-34.133 22.756-56.889 56.889-56.889h910.222c34.133 0 56.889 22.756 56.889 56.889 0 11.378-5.689 28.444-5.689 28.444zM512 106.667c-34.133 0-56.889 22.756-56.889 56.889s22.756 56.889 56.889 56.889 56.889-22.756 56.889-56.889c0-34.133-22.756-56.889-56.889-56.889zM568.889 391.111c0-28.444-28.444-56.889-56.889-56.889s-56.889 28.444-56.889 56.889v170.667c0 28.444 28.444 56.889 56.889 56.889s56.889-28.444 56.889-56.889v-170.667z" />
<glyph unicode="&#xe91c;" glyph-name="cc-forward" d="M217.6 883.2c-12.8 12.8-32 19.2-44.8 6.4s-12.8-32 0-44.8l358.4-396.8-364.8-396.8c-12.8-12.8-12.8-32 0-44.8 12.8-6.4 19.2-6.4 25.6-6.4s19.2 6.4 25.6 12.8l384 416c12.8 12.8 12.8 32 0 44.8l-384 409.6zM736 768c-19.2 0-32-12.8-32-32v-576c0-19.2 12.8-32 32-32s32 12.8 32 32v576c0 19.2-12.8 32-32 32z" />
<glyph unicode="&#xe91d;" glyph-name="cc-free-pool" d="M910.222 732.444h-796.444c-34.133 0-56.889 22.756-56.889 56.889v0c0 28.444 22.756 56.889 56.889 56.889h796.444c28.444 0 56.889-22.756 56.889-56.889v0c0-34.133-22.756-56.889-56.889-56.889zM910.222 675.556h-796.444c-28.444 0-56.889-22.756-56.889-56.889v-512c0-34.133 28.444-56.889 56.889-56.889h796.444c28.444 0 56.889 22.756 56.889 56.889v512c0 34.133-28.444 56.889-56.889 56.889zM853.333 391.111v-170.667h-682.667v170.667h682.667z" />
<glyph unicode="&#xe91e;" glyph-name="cc-funnel" d="M56.889 903.111h910.222l-341.333-512v-284.444l-227.556-113.778v398.222z" />
<glyph unicode="&#xe91f;" glyph-name="cc-hide" d="M961.422 459.378c-11.378 28.444-28.444 51.2-39.822 73.956s-28.444 39.822-45.511 62.578c-11.378 17.067-28.444 34.133-45.511 45.511-28.444 28.444-56.889 51.2-96.711 68.267-28.444 17.067-62.578 28.444-96.711 39.822-22.756 5.689-45.511 11.378-68.267 17.067-11.378 0-22.756 5.689-34.133 5.689 0 0-5.689 0-5.689 0h-56.889c0 0 0 0-5.689 0-11.378 0-28.444 0-39.822-5.689-17.067 0-28.444-5.689-45.511-11.378s-39.822-17.067-68.267-28.444l-136.533 142.222-85.333-85.333 125.156-125.156c-17.067-11.378-34.133-22.756-45.511-39.822-22.756-17.067-39.822-39.822-51.2-62.578-22.756-22.756-39.822-51.2-51.2-79.644 0-5.689-5.689-11.378-5.689-17.067 0 0 0 0 0 0v-5.689c0 0 0 0 5.689-5.689 11.378-28.444 28.444-56.889 51.2-85.333 11.378-22.756 28.444-39.822 45.511-56.889 11.378-11.378 22.756-22.756 34.133-34.133 34.133-28.444 68.267-56.889 102.4-79.644 22.756-11.378 51.2-22.756 79.644-34.133 22.756-5.689 51.2-11.378 73.956-17.067 5.689 0 28.444 0 28.444 0s79.644 0 79.644 0c39.822 0 73.956 11.378 108.089 22.756 11.378 5.689 28.444 11.378 39.822 17.067l147.911-147.911 79.644 79.644-130.844 130.844c0 0 5.689 0 5.689 5.689 17.067 17.067 34.133 34.133 51.2 51.2 22.756 22.756 45.511 51.2 62.578 79.644 11.378 17.067 17.067 28.444 28.444 45.511 0 5.689 5.689 17.067 11.378 22.756 0 0 0 0 0 0l-5.689 11.378c5.689 0 5.689 0 0 0zM512 265.956c-102.4 0-199.111 85.333-193.422 199.111 0 28.444 11.378 51.2 22.756 79.644l73.956-73.956c0 0 0-5.689 0-5.689 0-56.889 45.511-102.4 96.711-96.711 5.689 0 5.689 0 5.689 0l73.956-73.956c-22.756-22.756-51.2-28.444-79.644-28.444zM608.711 430.933c0 5.689 0 11.378 0 22.756 0 51.2-39.822 96.711-96.711 96.711-5.689 0-11.378 0-17.067 0l-73.956 68.267c28.444 17.067 56.889 22.756 96.711 22.756 108.089 0 193.422-85.333 193.422-193.422 0-34.133-11.378-62.578-28.444-91.022l-73.956 73.956z" />
<glyph unicode="&#xe920;" glyph-name="cc-home" d="M512 846.222v0 0zM944.356 470.756c-153.6 130.844-432.356 375.467-432.356 375.467s-278.756-244.622-432.356-375.467c-11.378-5.689-17.067-17.067-17.067-34.133 0-22.756 22.756-45.511 45.511-45.511h91.022v-364.089c0 0 0 0 0 0h221.867v227.556h182.044v-227.556h221.867v364.089h91.022c22.756 0 45.511 22.756 45.511 45.511 0 17.067-5.689 28.444-17.067 34.133z" />
<glyph unicode="&#xe921;" glyph-name="cc-host" d="M739.556 903.111h-455.111c-28.444 0-56.889-28.444-56.889-56.889v-796.444c0-28.444 28.444-56.889 56.889-56.889h455.111c28.444 0 56.889 28.444 56.889 56.889v796.444c0 28.444-28.444 56.889-56.889 56.889zM512 220.444c-34.133 0-56.889 22.756-56.889 56.889s22.756 56.889 56.889 56.889 56.889-22.756 56.889-56.889c0-34.133-22.756-56.889-56.889-56.889zM682.667 561.778h-341.333v56.889h341.333v-56.889zM682.667 732.444h-341.333v56.889h341.333v-56.889z" />
<glyph unicode="&#xe922;" glyph-name="cc-host-breakdown" d="M961.422 49.778l-284.444 494.933c-5.689 5.689-17.067 11.378-28.444 11.378s-22.756-5.689-28.444-11.378l-284.444-494.933c5.689-5.689 5.689-11.378 5.689-17.067 0-17.067 17.067-34.133 34.133-34.133h557.511c17.067 0 34.133 17.067 34.133 34.133 0 5.689-5.689 17.067-5.689 17.067zM654.222 66.844c-17.067 0-34.133 17.067-34.133 34.133s17.067 34.133 34.133 34.133 34.133-17.067 34.133-34.133c0-17.067-17.067-34.133-34.133-34.133zM688.356 243.2c0-17.067-17.067-34.133-34.133-34.133s-34.133 17.067-34.133 34.133v102.4c0 17.067 17.067 34.133 34.133 34.133s34.133-17.067 34.133-34.133v-102.4zM398.222 277.333h-113.778c-28.444 0-56.889 28.444-56.889 56.889s28.444 56.889 56.889 56.889h113.778c28.444 0 45.511-17.067 51.2-39.822l176.356 301.511v193.422c0 28.444-28.444 56.889-56.889 56.889h-455.111c-28.444 0-56.889-28.444-56.889-56.889v-739.556c0-28.444 28.444-56.889 56.889-56.889h164.978l130.844 233.244c0-5.689-5.689-5.689-11.378-5.689zM170.667 789.333h341.333v-56.889h-341.333v56.889zM170.667 618.667h341.333v-56.889h-341.333v56.889z" />
<glyph unicode="&#xe923;" glyph-name="cc-host-free-pool" d="M910.222 561.778h-512c-28.444 0-56.889-28.444-56.889-56.889v-455.111c0-28.444 28.444-56.889 56.889-56.889h512c28.444 0 56.889 28.444 56.889 56.889v455.111c0 28.444-28.444 56.889-56.889 56.889zM910.222 220.444h-512v284.444h512v-284.444zM170.667 618.667h455.111v227.556c0 28.444-28.444 56.889-56.889 56.889h-455.111c-28.444 0-56.889-28.444-56.889-56.889v-739.556c0-28.444 28.444-56.889 56.889-56.889h170.667v170.667c-28.444 0-56.889 28.444-56.889 56.889s28.444 56.889 56.889 56.889v227.556h-113.778v56.889zM170.667 789.333h341.333v-56.889h-341.333v56.889z" />
<glyph unicode="&#xe924;" glyph-name="cc-icon-city" d="M113.778 732.444h-56.889v-739.556h56.889v682.667h455.111v-682.667h113.778v711.111c0 17.067-11.378 28.444-28.444 28.444h-540.444zM170.667 618.667h341.333v-113.778h-341.333v113.778zM170.667 448h341.333v-113.778h-341.333v113.778zM170.667 277.333h341.333v-113.778h-341.333v113.778zM170.667 106.667h341.333v-113.778h-341.333v113.778zM398.222 903.111v-113.778h369.778c17.067 0 28.444-11.378 28.444-28.444v-768h170.667v881.778c0 17.067-11.378 28.444-28.444 28.444h-540.444z" />
<glyph unicode="&#xe925;" glyph-name="cc-import" d="M45.511 755.2c91.022-11.378 352.711-22.756 347.022-329.956h-136.533l244.622-221.867c17.067-22.756 51.2-22.756 68.267 0l193.422 221.867h-102.4c-34.133 136.533-91.022 420.978-614.4 341.333zM665.6 106.667h159.289c17.067 0 28.444 11.378 28.444 28.444v398.222c0 17.067-11.378 28.444-28.444 28.444h-56.889c-17.067 0-28.444 11.378-28.444 28.444v56.889c0 17.067 11.378 28.444 28.444 28.444h170.667c17.067 0 28.444-11.378 28.444-28.444v-625.778c0-17.067-11.378-28.444-28.444-28.444h-796.444c-17.067 0-28.444 11.378-28.444 28.444v284.444c0 17.067 11.378 28.444 28.444 28.444h56.889c17.067 0 28.444-11.378 28.444-28.444v-170.667c0-17.067 11.378-28.444 28.444-28.444h398.222z" />
<glyph unicode="&#xe926;" glyph-name="cc-information" d="M910.222 846.222h-796.444c-28.444 0-56.889-28.444-56.889-56.889v-227.556c0-28.444 28.444-56.889 56.889-56.889h796.444c28.444 0 56.889 28.444 56.889 56.889v227.556c0 28.444-28.444 56.889-56.889 56.889zM369.778 391.111h-284.444c-17.067 0-28.444-11.378-28.444-28.444v-284.444c0-17.067 11.378-28.444 28.444-28.444h284.444c17.067 0 28.444 11.378 28.444 28.444v284.444c0 17.067-11.378 28.444-28.444 28.444zM512 391.111h455.111v-113.778h-455.111v113.778zM512 163.556h455.111v-113.778h-455.111v113.778z" />
<glyph unicode="&#xe927;" glyph-name="cc-ip" d="M620.089 647.111h-68.267v-204.8h62.578c39.822 0 73.956 11.378 91.022 28.444s34.133 39.822 34.133 73.956c0 68.267-39.822 102.4-119.467 102.4zM910.222 903.111h-796.444c-28.444 0-56.889-28.444-56.889-56.889v-796.444c0-34.133 28.444-56.889 56.889-56.889h796.444c34.133 0 56.889 28.444 56.889 56.889v796.444c0 28.444-28.444 56.889-56.889 56.889zM403.911 647.111h-51.2v-403.911h51.2v-56.889h-164.978v56.889h45.511v403.911h-45.511v56.889h164.978v-56.889zM756.622 425.244c-34.133-34.133-79.644-45.511-136.533-45.511h-68.267v-193.422h-62.578v517.689h147.911c56.889 0 96.711-11.378 130.844-39.822s45.511-62.578 45.511-113.778c-5.689-51.2-22.756-91.022-56.889-125.156z" />
<glyph unicode="&#xe928;" glyph-name="cc-lang" d="M512.002 960c-282.77 0-512-229.23-512-512v0c-0.002-0.473-0.003-1.033-0.003-1.594 0-115.32 38.485-221.652 103.312-306.853l-0.91 1.246 17.749-22.187c94.539-111.78 234.885-182.274 391.695-182.274 159.616 0 302.172 73.039 396.070 187.519l0.715 0.899 12.971 16.043c63.918 83.955 102.403 190.286 102.403 305.606 0 0.561-0.001 1.121-0.003 1.681v-0.087c0 282.77-229.23 512-512 512v0zM887.469 662.699c29.334-50.309 49.086-109.664 55.16-173.013l0.136-1.75h-207.189c-2.389 50.933-8.368 98.762-17.75 145.359l1.024-6.095c65.102 9.231 122.114 21.63 177.557 37.72l-8.938-2.222zM838.658 730.965c-36.741-9.957-82.988-19.268-130.099-25.884l-6.435-0.74c-17.689 60.522-36.965 111.371-59.6 160.348l2.939-7.089c76.984-25.135 142.119-68.792 192.448-125.825l0.406-0.469zM472.408 878.421c11.866 1.139 25.654 1.788 39.595 1.788s27.729-0.649 41.337-1.919l-1.742 0.131c24.398-50.416 47.626-110.777 66.055-173.196l2.212-8.734c-32.45-2.719-70.231-4.269-108.373-4.269s-75.925 1.55-113.284 4.591l4.911-0.322c21.039 71.178 44.597 131.508 72.515 189.338l-3.224-7.408zM639.661 618.667c8.094-37.864 13.945-82.602 16.297-128.265l0.087-2.125h-288.085c2.578 47.876 8.546 92.593 17.738 136.12l-1.013-5.73c38.203-3.629 82.604-5.698 127.488-5.698s89.284 2.069 133.11 6.117l-5.622-0.419zM378.541 857.6c-18.935-41.266-37.535-91.588-52.589-143.417l-2.024-8.135c-53.006 7.947-98.467 17.709-142.892 29.968l8.407-1.979c50.049 55.905 113.811 98.53 186.036 122.675l3.062 0.888zM139.608 666.112c46.245-13.987 102.886-26.499 160.824-35.022l6.77-0.818c-8.635-41.502-14.741-90.393-16.993-140.288l-0.074-2.048h-208.555c6.323 67.109 27.078 128.243 59.119 181.855l-1.092-1.972zM150.53 209.408c-37.013 55.955-61.556 123.193-68.144 195.618l-0.123 1.673h206.165c2.67-58.999 10.243-114.62 22.37-168.517l-1.207 6.384c-61.793-9.065-115.549-20.857-167.894-35.976l8.833 2.184zM205.144 141.141c32.879 8.953 75.037 17.651 117.933 24.096l6.654 0.822c16.421-51.68 32.971-93.954 51.816-134.954l-3.006 7.295c-68.054 22.253-126.286 58.465-173.773 105.506l0.034-0.034zM551.597 14.848c-11.866-1.139-25.654-1.788-39.595-1.788s-27.729 0.649-41.337 1.919l1.742-0.131c-21.485 44.34-42.797 98.273-60.366 153.87l-2.439 8.946c30.651 2.454 66.362 3.853 102.4 3.853s71.747-1.399 107.079-4.145l-4.679 0.292c-20.148-63.539-41.44-116.536-66.079-167.614l3.274 7.528zM389.122 253.781c-10.636 44.563-18.078 96.736-20.739 150.168l-0.082 2.067h287.744c-2.744-54.91-10.062-106.5-21.637-156.46l1.157 5.932c-37.514 3.483-81.126 5.469-125.203 5.469-42.678 0-84.921-1.862-126.653-5.509l5.413 0.381zM645.464 38.4c16.491 35.921 33.313 80.524 47.348 126.344l2.146 8.142c50.483-6.604 93.906-14.853 136.461-25.31l-8.461 1.758c-48.063-49.55-107.634-87.66-174.418-110.040l-3.075-0.894zM876.546 217.259c-44.169 13.077-98.741 24.99-154.495 33.283l-6.956 0.85c10.531 46.674 17.86 101.37 20.404 157.314l0.076 2.089h206.848c-6.406-73.041-30.091-139.453-66.906-196.607l1.029 1.705z" />
<glyph unicode="&#xe929;" glyph-name="cc-link" d="M625.778 618.667v227.556c0 28.444-22.756 56.889-56.889 56.889h-455.111c-28.444 0-56.889-28.444-56.889-56.889v-455.111c0-34.133 28.444-56.889 56.889-56.889h227.556v284.444h284.444zM910.222 561.778h-227.556v-284.444h-284.444v-227.556c0-28.444 22.756-56.889 56.889-56.889h455.111c28.444 0 56.889 28.444 56.889 56.889v455.111c0 34.133-28.444 56.889-56.889 56.889zM398.222 561.778h227.556v-227.556h-227.556v227.556z" />
<glyph unicode="&#xe92a;" glyph-name="cc-list" d="M56.889 846.222v-113.778c0-28.444 28.444-56.889 56.889-56.889h170.667v227.556h-170.667c-28.444 0-56.889-28.444-56.889-56.889zM910.222 903.111h-512v-227.556h512c28.444 0 56.889 28.444 56.889 56.889v113.778c0 28.444-28.444 56.889-56.889 56.889zM56.889 504.889v-113.778c0-28.444 28.444-56.889 56.889-56.889h170.667v227.556h-170.667c-28.444 0-56.889-28.444-56.889-56.889zM910.222 561.778h-512v-227.556h512c28.444 0 56.889 28.444 56.889 56.889v113.778c0 28.444-28.444 56.889-56.889 56.889zM56.889 163.556v-113.778c0-28.444 28.444-56.889 56.889-56.889h170.667v227.556h-170.667c-28.444 0-56.889-28.444-56.889-56.889zM910.222 220.444h-512v-227.556h512c28.444 0 56.889 28.444 56.889 56.889v113.778c0 28.444-28.444 56.889-56.889 56.889z" />
<glyph unicode="&#xe92b;" glyph-name="cc-lock" d="M551.822 243.2v-79.644c0-17.067-17.067-34.133-39.822-34.133s-39.822 17.067-39.822 34.133v79.644c-22.756 11.378-39.822 34.133-39.822 56.889 0 39.822 34.133 68.267 79.644 68.267s79.644-28.444 79.644-68.267c0-22.756-17.067-45.511-39.822-56.889v0zM853.333 539.022h-682.667c-62.578 0-113.778-45.511-113.778-102.4v-341.333c0-56.889 51.2-102.4 113.778-102.4h682.667c62.578 0 113.778 45.511 113.778 102.4v341.333c0 56.889-51.2 102.4-113.778 102.4v0zM358.4 612.978c0 51.2 17.067 170.667 153.6 170.667s153.6-108.089 153.6-170.667v-39.822h113.778v39.822c0 164.978-108.089 273.067-273.067 273.067s-273.067-108.089-273.067-273.067v-39.822h113.778v39.822z" />
<glyph unicode="&#xe92c;" glyph-name="cc-logo" d="M639.283 544.051l-108.339 62.566c-12.083 6.963-27.034 6.963-39.219 0l-108.339-62.566c-12.083-6.963-19.558-19.968-19.558-33.997v-125.030c0-14.029 7.475-26.931 19.558-33.894l108.339-62.566c12.083-6.963 27.034-6.963 39.219 0l108.339 62.566c12.083 6.963 19.558 19.968 19.558 33.894v125.133c0 14.029-7.475 26.931-19.558 33.894zM594.842 411.341c0-7.373-3.891-14.131-10.342-17.818l-62.874-36.25c-6.349-3.686-14.234-3.686-20.582 0l-62.771 36.25c-6.349 3.686-10.342 10.445-10.342 17.818v72.499c0 7.373 3.891 14.131 10.342 17.818l62.771 36.25c6.349 3.686 14.234 3.686 20.582 0l62.874-36.25c3.072-1.741 5.53-4.198 7.27-7.168l-40.141-23.245-13.312 7.066-18.739 10.854c-5.018 2.867-11.162 2.867-16.179 0l-23.962-13.824c-5.018-2.867-8.090-8.294-8.090-14.029v-27.648c0-5.837 3.072-11.162 8.090-14.029l23.962-13.824c5.018-2.867 11.162-2.867 16.179 0l23.962 13.824c0.102 0 0.205 0.102 0.205 0.205l51.2 29.594v-38.093z" />
<glyph unicode="&#xe92d;" d="M187.699 844.8c0-40.21-32.597-72.806-72.806-72.806s-72.806 32.597-72.806 72.806c0 40.21 32.597 72.806 72.806 72.806s72.806-32.597 72.806-72.806z" />
<glyph unicode="&#xe92e;" d="M196.506 906.035l-70.349 40.653c-7.885 4.506-17.51 4.506-25.498 0l-70.349-40.653c-7.885-4.506-12.698-13.005-12.698-22.118v-81.203c0-9.114 4.813-17.51 12.698-22.016l70.349-40.653c7.885-4.506 17.51-4.506 25.498 0l70.349 40.653c7.885 4.506 12.698 13.005 12.698 22.016v81.306c0 9.114-4.915 17.408-12.698 22.016zM167.629 819.814c0-4.813-2.56-9.216-6.758-11.571l-40.858-23.552c-4.096-2.355-9.216-2.355-13.414 0l-40.755 23.552c-4.096 2.355-6.758 6.758-6.758 11.571v47.104c0 4.813 2.56 9.216 6.758 11.571l40.755 23.552c4.096 2.355 9.216 2.355 13.414 0l40.858-23.552c1.946-1.126 3.584-2.765 4.71-4.608l-26.112-15.053-8.602 4.608-12.186 7.066c-3.277 1.843-7.27 1.843-10.547 0l-15.565-9.011c-3.277-1.843-5.222-5.427-5.222-9.114v-17.92c0-3.789 1.946-7.27 5.222-9.114l15.565-9.011c3.277-1.843 7.27-1.843 10.547 0l15.565 9.011c0.102 0 0.102 0.102 0.102 0.102l33.28 19.251v-24.883z" />
<glyph unicode="&#xe92f;" d="M265.011 881.050v11.059h31.642v8.602h12.493v-8.602h27.853v8.602h12.493v-8.602h30.72v-11.059h-30.72v-6.246h-12.493v6.246h-27.853v-5.734h-12.493v5.734h-31.642zM265.011 789.299v10.035h11.981v29.286h91.238v-29.286h11.981v-10.035h-115.2zM274.125 834.97v34.099h11.981v-34.099h-11.981zM289.997 818.586v-19.251h14.438v19.251h-14.438zM299.11 833.946v38.4h12.493v-38.4h-12.493zM324.096 833.946c-1.331 0.922-3.482 2.56-6.758 4.813-1.638 0.922-2.765 1.741-3.379 2.355 7.987 9.318 13.722 19.866 17.306 31.642l12.493-1.946-2.867-6.758h37.478v-10.547h-41.779c-3.584-6.246-7.68-12.8-12.493-19.558zM315.904 818.586v-19.251h13.926v19.251h-13.926zM359.117 830.669c-7.066 5.734-13.619 10.547-19.661 14.438l7.168 7.68c8.294-5.734 15.053-10.445 20.173-13.926l-7.68-8.192zM355.226 818.586h-13.926v-19.251h13.926v19.251z" />
<glyph unicode="&#xe930;" d="M391.27 858.931c-1.638 4.506-3.174 8.192-4.813 11.059 6.758 8.602 12.493 18.842 17.306 30.72l11.059-1.434c-0.307-0.922-0.819-2.253-1.434-3.891-0.307-0.614-1.126-2.355-2.355-5.325h19.251v-9.626l-7.168-13.005h11.469v-55.706h-42.394v48.128l-0.922-0.922zM441.651 792.269c-2.56 2.253-5.325 4.301-8.192 6.246 0-1.229 0-2.355 0-3.379-16.282-1.638-31.232-3.072-44.646-4.301l-1.434 10.035c7.066 0.614 19.354 1.638 36.966 2.867 4.198 0.307 7.168 0.614 9.114 0.922 0-2.253 0-3.994 0-5.325 5.734 7.066 10.752 14.746 14.848 23.040l9.626-5.325c-3.789-6.861-9.216-15.258-16.282-24.781zM419.123 880.026h-13.414c-2.253-4.506-4.813-8.602-7.68-12.493h14.438l6.656 12.493zM401.306 858.010v-13.926h8.192v13.926h-8.192zM401.306 835.379v-13.926h8.192v13.926h-8.192zM425.779 858.010h-8.192v-13.926h8.192v13.926zM417.69 835.379v-13.926h8.192v13.926h-8.192zM437.862 876.237v11.059h26.829c-0.307 1.229-0.922 3.379-1.946 6.246-0.922 2.56-1.741 4.506-2.355 5.734l13.005 1.434c0.307-0.922 0.819-2.253 1.434-3.891 1.638-4.198 2.56-7.373 2.867-9.626h25.907v-11.059h-65.741zM451.789 786.944c-0.614 3.891-1.434 7.68-2.355 11.469 1.229 0 3.072-0.205 5.325-0.512 2.253 0 3.891 0 4.813 0 3.891 0 5.734 1.741 5.734 5.325v25.395h-21.606v37.478h53.248v-37.478h-20.173v-29.286c0-7.987-3.891-12.186-11.469-12.493-3.994 0.102-8.397 0.102-13.517 0.102zM455.066 856.064v-16.794h30.31v16.794h-30.31zM494.899 793.19c-0.307 0.922-0.922 2.253-1.946 3.891-4.506 8.294-8.499 15.155-11.981 20.685l9.626 4.813c1.946-3.482 2.56-4.813 1.946-3.891 5.12-8.602 9.318-15.36 12.493-20.173l-10.138-5.325z" />
<glyph unicode="&#xe931;" d="M511.283 884.429v10.035h60.518v-10.035h-15.872v-14.438h13.926v-83.558h-10.547v6.758h-35.021v-6.758h-10.035v83.558h13.926v14.438h-16.896zM523.264 860.365v-27.341c5.427 5.734 7.987 14.541 7.68 26.419v0.922h-7.68zM554.906 833.024c-6.451 0-9.626 3.379-9.626 10.035v17.306h-6.656v-0.512c0.614-13.414-2.048-23.962-8.192-31.642-0.307 0-0.614 0.307-0.922 0.922-2.56 1.638-4.301 2.765-5.325 3.379v-9.626h35.021v10.138h-4.301zM524.186 813.875v-11.981h35.021v11.981h-35.021zM538.624 884.429v-14.438h6.758v14.438h-6.758zM560.742 860.365h-8.192v-13.926c-0.307-4.198 1.434-6.042 5.325-5.734h2.867v19.661zM590.029 843.059v-35.021c-0.307-5.734 2.56-8.499 8.602-8.192h5.734c5.734-0.307 8.909 2.253 9.626 7.68 0.922 4.813 1.638 10.547 1.946 17.306 1.638-0.614 4.301-1.434 8.192-2.355 1.229-0.307 2.253-0.614 2.867-0.922-0.307-3.891-0.819-8.499-1.434-13.926-0.307-2.253-0.512-3.891-0.512-4.813-1.331-9.318-7.373-13.722-18.227-13.414h-11.981c-11.162-0.307-16.691 4.813-16.282 15.36v49.869h30.208v28.365h-31.642v10.957h43.213v-50.893h-30.31z" />
<glyph unicode="&#xe932;" d="M635.597 856.064v8.192h48.947v6.246h13.005v-6.246h48.947v-8.192h-48.947v-6.246h36.966v-52.326h14.848v-8.192h-116.224v8.192h14.848v52.326h36.454v6.246h-48.845zM640.819 871.424v24.474h100.352v-24.474h-100.352zM653.312 888.218v-9.114h17.306v9.114h-17.306zM660.582 842.138v-6.246h61.44v6.246h-61.44zM660.582 829.235v-6.246h61.44v6.246h-61.44zM660.582 816.23v-6.246h61.44v6.246h-61.44zM660.582 802.816v-5.325h61.44v5.325h-61.44zM682.598 888.218v-9.114h17.306v9.114h-17.306zM729.19 888.218h-17.715v-9.114h17.715v9.114z" />
<glyph unicode="&#xe933;" d="M762.266 882.483v12.493h103.629v-12.493h-45.158v-45.568h50.893v-12.493h-50.893v-38.912h-13.414v38.912h-50.893v12.493h50.893v45.568h-45.056zM786.739 842.65c-6.758 8.602-13.722 17.101-21.094 25.395l9.626 7.68c7.68-7.987 14.848-16.282 21.606-24.986l-10.138-8.090zM839.578 842.138l-9.626 8.192c7.066 7.066 14.438 15.565 22.118 25.395l10.035-7.168c-7.373-9.318-14.848-18.125-22.528-26.419z" />
<glyph unicode="&#xe934;" d="M984.576 844.083c-2.867 3.174-5.734 6.246-8.602 9.114-33.587-0.614-57.549-1.331-71.987-1.946-6.758-0.614-12.186-1.434-16.282-2.355l-6.246 13.005c4.506 1.638 8.806 4.198 13.005 7.68 12.186 10.24 22.835 20.787 32.154 31.642l14.438-6.246c-0.614-0.614-1.638-1.434-2.867-2.355-14.131-13.107-25.293-23.040-33.587-29.798l60.928 1.946-14.541 14.336 9.626 7.168c13.414-12.493 24.986-23.859 34.611-34.099l-10.65-8.090zM892.826 785.51v53.76h88.269v-53.76h-13.414v7.68h-61.952v-7.68h-12.902zM905.83 827.699v-23.962h61.952v23.962h-61.952z" />
<glyph unicode="&#xe935;" glyph-name="cc-logout" d="M574.578 305.778h-5.689c-85.333 0-170.667 0-256 0-11.378 0-22.756 5.689-22.756 17.067 0 0 0 5.689 0 5.689 0 79.644 0 164.978 0 244.622 0 17.067 5.689 22.756 22.756 22.756 85.333 0 170.667 0 261.689 0h5.689v11.378c0 73.956 0 147.911 0 216.178 0 11.378 5.689 17.067 11.378 22.756 11.378 5.689 17.067 0 22.756-5.689s5.689-5.689 11.378-11.378c51.2-51.2 96.711-102.4 147.911-153.6 62.578-68.267 125.156-130.844 187.733-199.111 5.689-17.067 5.689-28.444-5.689-39.822-91.022-96.711-182.044-193.422-267.378-284.444-22.756-28.444-51.2-56.889-73.956-79.644-5.689-5.689-11.378-11.378-22.756-5.689s-11.378 11.378-11.378 22.756c0 68.267 0 142.222 0 210.489-5.689 0-5.689 0-5.689 5.689v0zM415.289 840.533v-85.333h-11.378c-68.267 0-130.844 0-199.111 0-34.133 5.689-68.267-28.444-68.267-73.956 0-153.6 0-307.2 0-460.8 0-39.822 28.444-68.267 56.889-73.956 5.689 0 11.378 0 17.067 0 62.578 0 130.844 0 193.422 0h5.689v-79.644c0 0 0 0-5.689 0-68.267 0-136.533 0-204.8 0s-125.156 56.889-142.222 125.156c0 11.378 0 22.756 0 28.444 0 153.6 0 312.889 0 466.489 0 62.578 28.444 113.778 85.333 142.222 17.067 11.378 39.822 17.067 62.578 17.067 68.267-5.689 136.533-5.689 210.489-5.689-5.689 0-5.689 0 0 0v0z" />
<glyph unicode="&#xe936;" glyph-name="cc-model" d="M967.111 732.444c0-72.263-203.76-130.844-455.111-130.844s-455.111 58.581-455.111 130.844c0 72.263 203.76 130.844 455.111 130.844s455.111-58.581 455.111-130.844zM853.333 248.889c-85.333-28.444-204.8-45.511-341.333-45.511s-261.689 17.067-341.333 45.511c-68.267-22.756-113.778-51.2-113.778-85.333 0-73.956 204.8-130.844 455.111-130.844s455.111 56.889 455.111 130.844c0 34.133-39.822 62.578-113.778 85.333zM853.333 533.333c-79.644-28.444-204.8-45.511-341.333-45.511s-261.689 17.067-341.333 45.511c-73.956-22.756-113.778-51.2-113.778-85.333 0-73.956 204.8-130.844 455.111-130.844s455.111 56.889 455.111 130.844c0 34.133-39.822 62.578-113.778 85.333z" />
<glyph unicode="&#xe937;" glyph-name="cc-module" d="M728.178 692.622c0 0-182.044-11.378-244.622-11.378-45.511 0-62.578 28.444-28.444 62.578 28.444 28.444 34.133 34.133 34.133 79.644-11.378 62.578-68.267 79.644-113.778 79.644-51.2 0-102.4-28.444-119.467-73.956-11.378-28.444-11.378-56.889 17.067-79.644 11.378-11.378 45.511-28.444 11.378-56.889-22.756-11.378-221.867 5.689-221.867 5.689s-11.378-164.978 0-216.178c5.689-28.444 39.822-39.822 62.578-11.378 34.133 45.511 130.844 17.067 136.533-73.956s-96.711-108.089-119.467-73.956c-22.756 34.133-79.644 39.822-79.644 0-5.689-68.267 28.444-284.444 28.444-284.444s130.844-28.444 193.422-22.756c22.756 11.378 56.889 34.133 5.689 79.644-22.756 22.756-28.444 125.156 96.711 113.778 96.711-11.378 79.644-91.022 56.889-108.089-22.756-11.378-22.756-56.889 28.444-68.267 68.267-17.067 267.378 22.756 267.378 22.756s-28.444 159.289-17.067 210.489c11.378 56.889 73.956 22.756 85.333 11.378 51.2-56.889 159.289-28.444 164.978 85.333 0 142.222-91.022 176.356-170.667 96.711-34.133-34.133-56.889-28.444-73.956-5.689-45.511 51.2 0 238.933 0 238.933v0z" />
<glyph unicode="&#xe938;" glyph-name="cc-net-port" d="M967.111 675.556h-56.889v56.889c0 34.133-28.444 56.889-56.889 56.889h-56.889v56.889c0 34.133-28.444 56.889-56.889 56.889h-455.111c-28.444 0-56.889-28.444-56.889-56.889v-56.889h-56.889c-28.444 0-56.889-28.444-56.889-56.889v-56.889h-56.889c-28.444 0-56.889-28.444-56.889-56.889v-568.889c0-34.133 28.444-56.889 56.889-56.889h910.222c34.133 0 56.889 28.444 56.889 56.889v568.889c0 28.444-28.444 56.889-56.889 56.889zM227.556 106.667h-113.778v398.222h113.778v-398.222zM398.222 106.667h-113.778v398.222h113.778v-398.222zM568.889 106.667h-113.778v398.222h113.778v-398.222zM739.556 106.667h-113.778v398.222h113.778v-398.222zM910.222 106.667h-113.778v398.222h113.778v-398.222z" />
<glyph unicode="&#xe939;" glyph-name="cc-network-equipment" d="M51.2 123.733c0-39.822 34.133-73.956 73.956-73.956h762.311c39.822 0 73.956 34.133 73.956 73.956v199.111c0 39.822-34.133 73.956-73.956 73.956h-227.556v125.156c0 22.756-22.756 45.511-45.511 45.511-28.444 0-45.511-22.756-45.511-45.511v-130.844h-443.733c-39.822 0-73.956-34.133-73.956-73.956v-193.422zM147.911 220.444c0 22.756 22.756 45.511 45.511 45.511 28.444 0 45.511-22.756 45.511-45.511s-22.756-45.511-45.511-45.511c-22.756 0-45.511 22.756-45.511 45.511v0zM318.578 220.444c0 22.756 22.756 45.511 45.511 45.511 28.444 0 45.511-22.756 45.511-45.511s-22.756-45.511-45.511-45.511c-22.756 0-45.511 22.756-45.511 45.511v0zM614.4 709.689c-108.089 0-199.111-85.333-199.111-187.733 0-22.756 22.756-45.511 45.511-45.511 28.444 0 51.2 17.067 51.2 45.511 0 51.2 45.511 96.711 102.4 96.711s102.4-45.511 102.4-96.711c0-22.756 22.756-45.511 45.511-45.511 28.444 0 45.511 22.756 45.511 45.511 5.689 102.4-85.333 187.733-193.422 187.733v0zM614.4 851.911c-193.422 0-352.711-147.911-352.711-329.956 0-22.756 22.756-45.511 45.511-45.511 28.444 0 45.511 22.756 45.511 45.511 0 130.844 113.778 238.933 256 238.933s256-108.089 256-238.933c0-22.756 22.756-45.511 45.511-45.511 28.444 0 45.511 22.756 45.511 45.511 11.378 182.044-147.911 329.956-341.333 329.956v0z" />
<glyph unicode="&#xe93a;" glyph-name="cc-networks" d="M85.333 607.289c0 0 79.644 244.622 352.711 290.133 0 0-39.822-56.889-79.644-153.6 0 0-85.333 11.378-102.4-73.956-5.689 0-91.022-17.067-170.667-62.578v0zM256 618.667c0 0-113.778-22.756-187.733-79.644 0 0-39.822-159.289 51.2-312.889 0 0 96.711-22.756 187.733-11.378 0 0 0 56.889 39.822 91.022 0 0-45.511 119.467-34.133 250.311 0 0-45.511 11.378-56.889 62.578v0zM159.289 174.933c0 0 119.467-187.733 403.911-159.289 0 0-102.4 96.711-119.467 125.156 0 0-79.644-17.067-108.089 34.133 0 0-102.4-17.067-176.356 0v0zM483.556 163.556c0 0 17.067 11.378 28.444 56.889 0 0 153.6 56.889 250.311 199.111 0 0 34.133 0 51.2 17.067 0 0 73.956-68.267 108.089-159.289 0 0-68.267-193.422-290.133-256 0 0-102.4 68.267-147.911 142.222v0zM881.778 698.311c0 0 113.778-130.844 62.578-352.711 0 0-62.578 102.4-96.711 125.156 0 0 28.444 56.889-5.689 96.711 5.689 0 34.133 62.578 39.822 130.844v0zM398.222 726.756c0 0 34.133-28.444 34.133-51.2 0 0 142.222-11.378 261.689-85.333 0 0 56.889 45.511 108.089 11.378 0 0 28.444 51.2 34.133 153.6 0 0-108.089 142.222-335.644 147.911 5.689 0-85.333-119.467-102.4-176.356v0zM364.089 556.089c0 0 68.267-5.689 79.644 73.956 0 0 130.844-11.378 233.244-73.956 0 0-22.756-79.644 39.822-119.467 0 0-68.267-96.711-210.489-170.667 0 0-28.444 68.267-108.089 56.889-5.689 0-34.133 62.578-34.133 233.244v0z" />
<glyph unicode="&#xe93b;" glyph-name="cc-node" d="M910.222 846.222h-796.444c-28.444 0-56.889-28.444-56.889-56.889v-284.444c0-28.444 28.444-56.889 56.889-56.889h341.333v-284.444h-341.333c-28.444 0-56.889-28.444-56.889-56.889s28.444-56.889 56.889-56.889h796.444c28.444 0 56.889 28.444 56.889 56.889s-28.444 56.889-56.889 56.889h-341.333v284.444h341.333c28.444 0 56.889 28.444 56.889 56.889v284.444c0 28.444-28.444 56.889-56.889 56.889zM113.778 220.444h284.444v113.778h-284.444c-28.444 0-56.889-28.444-56.889-56.889s28.444-56.889 56.889-56.889zM910.222 334.222h-284.444v-113.778h284.444c28.444 0 56.889 28.444 56.889 56.889s-28.444 56.889-56.889 56.889z" />
<glyph unicode="&#xe93c;" glyph-name="cc-not-allowed" d="M187.733 772.267c-176.356-176.356-176.356-466.489 0-642.844s466.489-176.356 642.844 0 176.356 466.489 0 642.844-460.8 176.356-642.844 0zM750.933 607.289l-403.911-403.911-79.644 79.644 403.911 403.911 79.644-79.644z" />
<glyph unicode="&#xe93d;" glyph-name="cc-pie-chart" d="M961.422 504.889c-28.444 204.8-187.733 369.778-392.533 392.533v-392.533h392.533zM455.111 391.111v506.311c-221.867-28.444-398.222-216.178-398.222-449.422 0-250.311 204.8-455.111 455.111-455.111 233.244 0 420.978 176.356 449.422 398.222h-506.311z" />
<glyph unicode="&#xe93e;" glyph-name="cc-plus" d="M796.444 504.889h-227.556v227.556h-113.778v-227.556h-227.556v-113.778h227.556v-227.556h113.778v227.556h227.556z" />
<glyph unicode="&#xe93f;" glyph-name="cc-plus-circle" d="M455.111 783.644v113.778c-204.8-22.756-369.778-187.733-392.533-392.533h113.778c22.756 142.222 136.533 256 278.756 278.756zM176.356 391.111h-113.778c28.444-204.8 187.733-369.778 392.533-392.533v113.778c-142.222 22.756-256 136.533-278.756 278.756zM568.889 112.356v-113.778c204.8 28.444 369.778 187.733 392.533 392.533h-113.778c-22.756-142.222-136.533-256-278.756-278.756zM847.644 504.889h113.778c-28.444 204.8-187.733 369.778-392.533 392.533v-113.778c142.222-22.756 256-136.533 278.756-278.756zM568.889 351.289c17.067 11.378 28.444 22.756 39.822 39.822h73.956c28.444 0 56.889 28.444 56.889 56.889s-28.444 56.889-56.889 56.889h-73.956c-11.378 17.067-22.756 28.444-39.822 39.822v73.956c0 28.444-28.444 56.889-56.889 56.889s-56.889-28.444-56.889-56.889v-73.956c-17.067-11.378-28.444-22.756-39.822-39.822h-73.956c-28.444 0-56.889-28.444-56.889-56.889s28.444-56.889 56.889-56.889h73.956c11.378-17.067 22.756-28.444 39.822-39.822v-73.956c0-28.444 28.444-56.889 56.889-56.889s56.889 28.444 56.889 56.889v73.956z" />
<glyph unicode="&#xe940;" glyph-name="cc-process" d="M0 903.111h113.778v-910.222h-113.778v910.222zM170.667 846.222h625.778v-227.556h-625.778v227.556zM170.667 561.778h341.333v-227.556h-341.333v227.556zM170.667 277.333h853.333v-227.556h-853.333v227.556z" />
<glyph unicode="&#xe941;" glyph-name="cc-progress" d="M711.111 504.889c-142.222 0-256-113.778-256-256s113.778-256 256-256 256 113.778 256 256c0 142.222-113.778 256-256 256zM824.889 220.444h-113.778c-17.067 0-28.444 11.378-28.444 28.444v113.778c0 17.067 11.378 28.444 28.444 28.444s28.444-11.378 28.444-28.444v-85.333h85.333c17.067 0 28.444-11.378 28.444-28.444s-11.378-28.444-28.444-28.444zM739.556 903.111h-625.778c-28.444 0-56.889-28.444-56.889-56.889v-739.556c0-28.444 28.444-56.889 56.889-56.889h358.4c-45.511 56.889-73.956 125.156-73.956 199.111 0 170.667 142.222 312.889 312.889 312.889 28.444 0 56.889-5.689 85.333-11.378v295.822c0 28.444-28.444 56.889-56.889 56.889zM284.444 334.222h-113.778v56.889h113.778v-56.889zM341.333 163.556h-170.667v56.889h170.667v-56.889zM398.222 504.889h-227.556v56.889h227.556v-56.889zM682.667 675.556h-512v113.778h512v-113.778z" />
<glyph unicode="&#xe942;" glyph-name="cc-push-configuration" d="M284.444 846.222c0 34.133-22.756 56.889-56.889 56.889h-56.889c-34.133 0-56.889-22.756-56.889-56.889v-113.778h170.667v113.778zM113.778 49.778c0-34.133 22.756-56.889 56.889-56.889h56.889c34.133 0 56.889 22.756 56.889 56.889v341.333h-170.667v-341.333zM341.333 647.111c0 17.067-11.378 28.444-28.444 28.444h-227.556c-17.067 0-28.444-11.378-28.444-28.444v-170.667c0-17.067 11.378-28.444 28.444-28.444h227.556c17.067 0 28.444 11.378 28.444 28.444v170.667zM568.889 846.222c0 34.133-22.756 56.889-56.889 56.889h-56.889c-34.133 0-56.889-22.756-56.889-56.889v-398.222h170.667v398.222zM398.222 49.778c0-34.133 22.756-56.889 56.889-56.889h56.889c34.133 0 56.889 22.756 56.889 56.889v0h-170.667zM625.778 305.778c0 17.067-11.378 28.444-28.444 28.444h-227.556c-17.067 0-28.444-11.378-28.444-28.444v-170.667c0-17.067 11.378-28.444 28.444-28.444h227.556c17.067 0 28.444 11.378 28.444 28.444v170.667zM910.222 846.222c0 34.133-22.756 56.889-56.889 56.889h-56.889c-34.133 0-56.889-22.756-56.889-56.889v-170.667h170.667v170.667zM739.556 49.778c0-34.133 22.756-56.889 56.889-56.889h56.889c34.133 0 56.889 22.756 56.889 56.889v284.444h-170.667v-284.444zM967.111 590.222c0 17.067-11.378 28.444-28.444 28.444h-227.556c-17.067 0-28.444-11.378-28.444-28.444v-170.667c0-17.067 11.378-28.444 28.444-28.444h227.556c17.067 0 28.444 11.378 28.444 28.444v170.667z" />
<glyph unicode="&#xe943;" glyph-name="cc-push-history" d="M853.333 846.222h-227.556c-28.444 0-56.889-28.444-56.889-56.889v-227.556c0-28.444 28.444-56.889 56.889-56.889h227.556c28.444 0 56.889 28.444 56.889 56.889v227.556c0 28.444-28.444 56.889-56.889 56.889zM853.333 391.111h-227.556c-28.444 0-56.889-28.444-56.889-56.889v-227.556c0-28.444 28.444-56.889 56.889-56.889h227.556c28.444 0 56.889 28.444 56.889 56.889v227.556c0 28.444-28.444 56.889-56.889 56.889zM193.422 721.067c-45.511-62.578-284.444-415.289 193.422-671.289 0 0-318.578 278.756 5.689 506.311l62.578-51.2v290.133c0 28.444-22.756 45.511-51.2 39.822l-290.133-45.511 79.644-68.267z" />
<glyph unicode="&#xe944;" glyph-name="cc-question" d="M512 903.111c-250.311 0-455.111-204.8-455.111-455.111s204.8-455.111 455.111-455.111 455.111 204.8 455.111 455.111c0 250.311-204.8 455.111-455.111 455.111zM512 100.978c-28.444 0-51.2 22.756-51.2 51.2s22.756 51.2 51.2 51.2 51.2-22.756 51.2-51.2c0-34.133-22.756-51.2-51.2-51.2zM563.2 351.289v-56.889c0-28.444-22.756-51.2-51.2-51.2s-51.2 22.756-51.2 51.2v96.711c0 28.444 22.756 51.2 51.2 51.2 51.2 0 96.711 45.511 96.711 96.711s-45.511 96.711-96.711 96.711-96.711-45.511-96.711-96.711c0-28.444-22.756-51.2-51.2-51.2-22.756 0-45.511 22.756-45.511 51.2 0 108.089 85.333 193.422 193.422 193.422s193.422-85.333 193.422-193.422c0-91.022-62.578-170.667-142.222-187.733z" />
<glyph unicode="&#xe945;" glyph-name="cc-record" d="M659.911 669.867c-5.689 11.378-17.067 17.067-34.133 17.067h-221.867c-11.378 0-28.444-5.689-34.133-17.067l-113.778-204.8c-5.689-11.378-5.689-22.756 0-34.133l113.778-204.8c5.689-11.378 17.067-17.067 34.133-17.067h221.867c11.378 0 28.444 5.689 34.133 17.067l113.778 204.8c5.689 11.378 5.689 22.756 0 34.133l-113.778 204.8zM938.667 476.444l-193.422 341.333c-5.689 17.067-22.756 28.444-45.511 28.444h-369.778c-22.756 0-39.822-11.378-51.2-28.444l-193.422-341.333c-11.378-17.067-11.378-39.822 0-51.2l193.422-341.333c11.378-22.756 28.444-34.133 51.2-34.133h233.244c17.067 0 34.133 11.378 45.511 22.756l28.444 51.2h-267.378c-22.756 0-39.822 11.378-51.2 28.444l-142.222 267.378c-11.378 17.067-11.378 34.133 0 51.2l142.222 267.378c11.378 17.067 28.444 28.444 51.2 28.444h290.133c22.756 0 39.822-11.378 51.2-28.444l142.222-261.689c11.378-17.067 11.378-34.133 0-51.2l-56.889-113.778c-5.689-17.067-5.689-34.133 0-51.2l28.444-51.2 113.778 210.489c11.378 17.067 11.378 39.822 0 56.889z" />
<glyph unicode="&#xe946;" glyph-name="cc-rect-add" d="M0 960v-1024h1024v1024h-1024zM910.222 49.778h-796.444v796.444h796.444v-796.444zM455.111 163.556h113.778v227.556h227.556v113.778h-227.556v227.556h-113.778v-227.556h-227.556v-113.778h227.556z" />
<glyph unicode="&#xe947;" glyph-name="cc-rect-sub" d="M0 960v-1024h1024v1024h-1024zM910.222 49.778h-796.444v796.444h796.444v-796.444zM227.556 504.889h568.889v-113.778h-568.889v113.778z" />
<glyph unicode="&#xe948;" glyph-name="cc-report" d="M722.489 476.444c22.756 0 45.511-5.689 68.267-11.378v187.733l-250.311 250.311h-426.667c-28.444 0-56.889-28.444-56.889-62.578v-728.178c0-34.133 28.444-62.578 56.889-62.578h409.6c-34.133 51.2-51.2 108.089-51.2 170.667-5.689 147.911 113.778 256 250.311 256zM199.111 612.978h182.044v-56.889h-182.044v56.889zM381.156 317.156h-182.044v56.889h182.044v-56.889zM426.667 436.622h-227.556v56.889h227.556v-56.889zM512 806.4l187.733-187.733h-187.733v187.733zM745.244 220.444l113.778 170.667c-34.133 17.067-68.267 28.444-96.711 28.444-113.778 0-210.489-96.711-210.489-216.178s85.333-216.178 199.111-216.178h11.378c113.778 0 199.111 91.022 210.489 204.8l-227.556 28.444z" />
<glyph unicode="&#xe949;" glyph-name="cc-round-plus" d="M512 903.111c-250.311 0-455.111-204.8-455.111-455.111s204.8-455.111 455.111-455.111 455.111 204.8 455.111 455.111-204.8 455.111-455.111 455.111zM796.444 391.111h-227.556v-227.556h-113.778v227.556h-227.556v113.778h227.556v227.556h113.778v-227.556h227.556v-113.778z" />
<glyph unicode="&#xe94a;" glyph-name="cc-security" d="M887.467 823.467l-375.467 73.956-369.778-73.956h-34.133v-455.111c0-28.444 5.689-56.889 22.756-79.644 11.378-28.444 34.133-51.2 56.889-79.644 22.756-22.756 45.511-51.2 73.956-73.956s56.889-45.511 85.333-62.578c28.444-17.067 56.889-34.133 85.333-45.511s51.2-17.067 73.956-22.756h22.756c22.756 5.689 45.511 11.378 68.267 22.756 28.444 11.378 56.889 28.444 85.333 45.511s56.889 39.822 85.333 62.578c28.444 22.756 51.2 45.511 73.956 73.956 22.756 22.756 39.822 51.2 51.2 79.644s22.756 56.889 22.756 79.644v455.111h-28.444zM830.578 356.978c0-22.756-5.689-39.822-17.067-62.578s-22.756-39.822-39.822-56.889c-17.067-17.067-34.133-34.133-56.889-51.2s-45.511-34.133-68.267-45.511c-22.756-11.378-45.511-22.756-73.956-34.133-22.756-11.378-45.511-17.067-68.267-22.756v403.911h-318.578v290.133l318.578 56.889h5.689v-341.333h318.578v-136.533z" />
<glyph unicode="&#xe94b;" glyph-name="cc-senior" d="M796.444 846.222h-568.889l-170.667-284.444 455.111-512 455.111 512-170.667 284.444zM170.667 561.778l113.778 227.556h113.778l-113.778-227.556h-113.778z" />
<glyph unicode="&#xe94c;" glyph-name="cc-set" d="M898.844 214.756v233.244h-375.467v164.978h182.044v312.889h-375.467v-312.889h159.289v-164.978h-375.467v-233.244h-96.711v-221.867h227.556v221.867h-96.711v199.111h341.333v-199.111h-96.711v-221.867h227.556v221.867h-96.711v199.111h341.333v-199.111h-96.711v-221.867h227.556v221.867z" />
<glyph unicode="&#xe94d;" glyph-name="cc-setting" d="M341.333 152.178c-17.067-17.067-34.133-34.133-51.2-56.889-17.067-17.067-39.822-22.756-56.889-11.378-5.689 0-5.689 5.689-11.378 5.689-22.756 22.756-39.822 39.822-62.578 62.578-11.378 11.378-17.067 28.444-11.378 45.511 0 5.689 5.689 11.378 11.378 17.067 17.067 17.067 34.133 34.133 51.2 51.2 0 0 5.689 5.689 0 5.689-11.378 22.756-17.067 45.511-28.444 62.578 0 5.689-5.689 5.689-5.689 5.689-22.756 0-45.511 0-68.267 0s-39.822 17.067-45.511 34.133c-5.689 17.067-5.689 28.444-5.689 34.133 0 28.444 0 56.889 0 85.333 0 22.756 5.689 34.133 28.444 45.511 5.689 5.689 11.378 5.689 22.756 5.689 22.756 0 51.2 0 73.956 0 5.689 0 5.689 0 5.689 5.689 5.689 17.067 17.067 39.822 22.756 56.889 0 5.689 5.689 5.689 5.689 11.378 0 0 0 0-5.689 5.689-17.067 11.378-34.133 28.444-51.2 45.511-22.756 17.067-22.756 45.511 0 68.267s39.822 39.822 62.578 62.578c22.756 22.756 45.511 17.067 68.267 0 17.067-17.067 34.133-34.133 51.2-51.2 0 0 5.689-5.689 5.689 0 22.756 11.378 45.511 17.067 62.578 28.444 5.689 0 5.689 5.689 5.689 5.689 0 22.756 0 45.511 0 68.267s17.067 39.822 34.133 45.511c5.689 5.689 11.378 5.689 22.756 5.689 28.444 0 56.889 0 85.333 0 22.756 0 34.133-5.689 45.511-22.756 5.689-5.689 5.689-11.378 5.689-22.756 0-22.756 0-51.2 0-73.956 0-5.689 0-5.689 5.689-5.689 22.756-11.378 45.511-17.067 68.267-28.444 0 0 0 0 0 0s0 5.689 5.689 5.689c17.067 17.067 34.133 34.133 45.511 51.2 17.067 17.067 39.822 22.756 56.889 11.378 5.689 0 5.689-5.689 11.378-5.689 22.756-22.756 39.822-39.822 62.578-62.578 11.378-11.378 17.067-28.444 11.378-45.511 0-5.689-5.689-11.378-11.378-17.067-17.067-17.067-34.133-34.133-51.2-51.2 0 0 0-5.689 0-5.689 11.378-22.756 17.067-45.511 28.444-62.578 0-5.689 5.689-5.689 5.689-5.689 22.756 0 45.511 0 68.267 0s39.822-17.067 45.511-34.133c5.689-22.756 5.689-28.444 5.689-39.822 0-28.444 0-56.889 0-85.333 0-22.756-5.689-34.133-28.444-45.511-5.689-5.689-11.378-5.689-22.756-5.689-22.756 0-51.2 0-73.956 0-5.689 0-5.689 0-5.689-5.689-5.689-17.067-17.067-34.133-22.756-56.889 0-5.689-5.689-11.378-5.689-17.067 0 0 0 0 5.689 0 17.067-17.067 34.133-34.133 51.2-45.511 17.067-17.067 22.756-45.511 5.689-62.578-22.756-22.756-45.511-45.511-68.267-68.267-17.067-17.067-45.511-17.067-62.578 0s-34.133 34.133-51.2 51.2c0 0-5.689 0-5.689 0-22.756-11.378-45.511-17.067-62.578-28.444-5.689 0-5.689-5.689-5.689-5.689 0-22.756 0-45.511 0-68.267s-17.067-39.822-34.133-45.511c-11.378-5.689-22.756-5.689-28.444-5.689-28.444 0-56.889 0-85.333 0-22.756 0-34.133 5.689-45.511 22.756-5.689 5.689-5.689 11.378-5.689 22.756 0 22.756 0 45.511 0 73.956 0 5.689 0 5.689-5.689 5.689-17.067 5.689-39.822 17.067-56.889 22.756-5.689 5.689-5.689 5.689-11.378 11.378v0zM682.667 448c0 91.022-73.956 170.667-170.667 170.667s-170.667-73.956-170.667-170.667c0-96.711 79.644-170.667 170.667-170.667 96.711 0 170.667 79.644 170.667 170.667v0z" />
<glyph unicode="&#xe94e;" glyph-name="cc-shift" d="M853.333 504.889h102.4c22.756 0 39.822 28.444 22.756 45.511l-244.622 244.622c-22.756 22.756-51.2 5.689-51.2-17.067v-73.956c0-17.067-11.378-28.444-28.444-28.444h-568.889c-17.067 0-28.444-11.378-28.444-28.444v-113.778c0-17.067 11.378-28.444 28.444-28.444h768zM938.667 391.111h-870.4c-22.756 0-39.822-28.444-22.756-45.511l244.622-244.622c22.756-22.756 51.2-5.689 51.2 17.067v73.956c0 17.067 11.378 28.444 28.444 28.444h568.889c17.067 0 28.444 11.378 28.444 28.444v113.778c0 17.067-11.378 28.444-28.444 28.444z" />
<glyph unicode="&#xe94f;" glyph-name="cc-show" d="M551.822 135.111h-79.644c0 0 0 0-5.689 0-11.378 0-17.067 0-28.444 0-22.756 5.689-51.2 11.378-73.956 17.067-28.444 11.378-51.2 22.756-79.644 34.133-39.822 22.756-73.956 45.511-102.4 79.644-11.378 11.378-22.756 22.756-34.133 34.133-17.067 17.067-34.133 39.822-45.511 56.889-11.378 34.133-28.444 62.578-39.822 91.022-5.689 0-5.689 5.689-5.689 5.689v0c0 0 0 0 0 0 0 5.689 5.689 11.378 5.689 17.067 17.067 28.444 34.133 56.889 51.2 85.333 17.067 22.756 34.133 45.511 56.889 62.578 17.067 17.067 34.133 34.133 56.889 51.2 28.444 22.756 56.889 39.822 85.333 56.889 28.444 11.378 51.2 22.756 79.644 28.444 17.067 5.689 28.444 5.689 45.511 11.378 11.378 0 28.444 5.689 39.822 5.689 0 0 5.689 0 5.689 0h56.889c0 0 0 0 5.689 0 11.378 0 22.756 0 34.133-5.689 22.756 0 45.511-5.689 68.267-17.067 28.444-5.689 62.578-17.067 91.022-39.822 34.133-17.067 62.578-45.511 96.711-68.267 17.067-17.067 28.444-28.444 45.511-45.511s34.133-39.822 45.511-62.578c17.067-22.756 28.444-45.511 39.822-73.956 0 0 0-5.689 5.689-5.689v-5.689c0 0 0 0 0 0-5.689-11.378-11.378-17.067-11.378-28.444-11.378-17.067-17.067-28.444-28.444-45.511-17.067-28.444-39.822-56.889-62.578-79.644-17.067-17.067-34.133-34.133-51.2-51.2s-39.822-28.444-56.889-39.822c-28.444-17.067-56.889-28.444-85.333-39.822-51.2-17.067-85.333-22.756-125.156-28.444 0 0 0 0 0 0v0zM512 265.956c108.089 0 193.422 85.333 193.422 187.733 0 108.089-85.333 193.422-193.422 193.422-113.778 0-193.422-85.333-199.111-182.044 0-113.778 96.711-204.8 199.111-199.111v0zM512 356.978c-51.2 0-96.711 45.511-96.711 96.711s39.822 96.711 96.711 96.711c56.889 0 96.711-39.822 96.711-96.711 0-51.2-45.511-96.711-96.711-96.711v0z" />
<glyph unicode="&#xe950;" glyph-name="cc-skin" d="M517.689 760.889c56.889 0 102.4 34.133 119.467 85.333 56.889-17.067 187.733-56.889 329.956-153.6l-96.711-199.111-96.711 17.067v-489.244h-534.756v494.933l-96.711-17.067-85.333 193.422c147.911 108.089 290.133 142.222 341.333 153.6 17.067-51.2 62.578-85.333 119.467-85.333v0z" />
<glyph unicode="&#xe951;" glyph-name="cc-skip" d="M540.444 283.022c-130.844 0-187.733 5.689-261.689-22.756-113.778-45.511-187.733-108.089-261.689-204.8 0 11.378 0 17.067 5.689 28.444l5.689 28.444c22.756 102.4 73.956 227.556 119.467 324.267 102.4 193.422 375.467 182.044 392.533 187.733v216.178c0 0 0 0 0 0l392.533-392.533c-130.844-130.844-267.378-261.689-398.222-392.533 5.689 79.644 5.689 153.6 5.689 227.556v0z" />
<glyph unicode="&#xe952;" glyph-name="cc-sort" d="M227.556 539.022l284.444 364.089 284.444-364.089zM796.444 334.222l-284.444-364.089-284.444 364.089z" />
<glyph unicode="&#xe953;" glyph-name="cc-square" d="M398.222 391.111h-284.444c-28.444 0-56.889-28.444-56.889-56.889v-284.444c0-28.444 28.444-56.889 56.889-56.889h284.444c28.444 0 56.889 28.444 56.889 56.889v284.444c0 28.444-28.444 56.889-56.889 56.889zM398.222 903.111h-284.444c-28.444 0-56.889-28.444-56.889-56.889v-284.444c0-28.444 28.444-56.889 56.889-56.889h284.444c28.444 0 56.889 28.444 56.889 56.889v284.444c0 28.444-28.444 56.889-56.889 56.889zM910.222 391.111h-284.444c-28.444 0-56.889-28.444-56.889-56.889v-284.444c0-28.444 28.444-56.889 56.889-56.889h284.444c28.444 0 56.889 28.444 56.889 56.889v284.444c0 28.444-28.444 56.889-56.889 56.889zM910.222 903.111h-284.444c-28.444 0-56.889-28.444-56.889-56.889v-284.444c0-28.444 28.444-56.889 56.889-56.889h284.444c28.444 0 56.889 28.444 56.889 56.889v284.444c0 28.444-28.444 56.889-56.889 56.889zM910.222 590.222c0-17.067-11.378-28.444-28.444-28.444h-227.556c-17.067 0-28.444 11.378-28.444 28.444v227.556c0 17.067 11.378 28.444 28.444 28.444h227.556c17.067 0 28.444-11.378 28.444-28.444v-227.556z" />
<glyph unicode="&#xe954;" glyph-name="cc-statement" d="M853.333 789.333h-56.889v-56.889c0-34.133-22.756-56.889-56.889-56.889h-455.111c-34.133 0-56.889 22.756-56.889 56.889v56.889h-56.889c-28.444 0-56.889-28.444-56.889-56.889v-682.667c0-28.444 28.444-56.889 56.889-56.889h682.667c34.133 0 56.889 22.756 56.889 56.889v682.667c0 34.133-22.756 56.889-56.889 56.889zM227.556 391.111h341.333v-56.889h-341.333v56.889zM682.667 163.556h-455.111v56.889h455.111v-56.889zM796.444 504.889h-568.889v56.889h568.889v-56.889zM341.333 732.444h341.333c28.444 0 56.889 28.444 56.889 56.889v56.889c0 28.444-28.444 56.889-56.889 56.889h-341.333c-28.444 0-56.889-28.444-56.889-56.889v-56.889c0-28.444 28.444-56.889 56.889-56.889z" />
<glyph unicode="&#xe955;" glyph-name="cc-storage" d="M955.733 749.511v0l-142.222 136.533c-11.378 11.378-17.067 17.067-28.444 17.067v0h-688.356c-22.756 0-39.822-17.067-39.822-39.822v-830.578c0-22.756 17.067-39.822 39.822-39.822h830.578c22.756 0 39.822 17.067 39.822 39.822v682.667c0 0 0 0 0 0v0c0 17.067-5.689 28.444-11.378 34.133zM768 772.267c0-73.956 0-28.444 0-102.4 0-28.444-11.378-39.822-39.822-39.822h-79.644v182.044c28.444 0 51.2 0 79.644 0s39.822-11.378 39.822-39.822zM227.556 772.267c0 28.444 11.378 39.822 39.822 39.822 79.644 0 210.489 0 290.133 0v-176.356h-34.133c-68.267 0-193.422 0-261.689 0-22.756-5.689-34.133 11.378-34.133 34.133 0 73.956 0 28.444 0 102.4zM807.822 180.622c0-22.756-11.378-39.822-39.822-39.822-96.711 0-130.844 0-227.556 0s-187.733 0-284.444 0c-17.067 0-34.133 11.378-34.133 22.756 0 5.689 0 5.689 0 11.378 0 108.089 0 210.489 0 318.578 0 22.756 11.378 34.133 34.133 34.133 193.422 0 324.267 0 512 0 22.756 0 34.133-11.378 34.133-39.822 5.689-96.711 5.689-199.111 5.689-307.2z" />
<glyph unicode="&#xe956;" glyph-name="cc-subnet" d="M853.333 436.622v238.933h113.778v227.556h-227.556v-113.778h-455.111v113.778h-227.556v-227.556h113.778v-455.111h-113.778v-227.556h227.556v113.778h455.111v-113.778h227.556v227.556h-113.778v216.178zM227.556 675.556h56.889v56.889h102.4l-159.289-159.289v102.4zM227.556 493.511l238.933 238.933h147.911l-386.844-386.844v147.911zM227.556 220.444v45.511l466.489 466.489h45.511v-56.889h45.511l-500.622-500.622v45.511h-56.889zM796.444 220.444h-56.889v-56.889h-159.289l216.178 216.178v-159.289zM796.444 459.378l-295.822-295.822h-147.911l443.733 443.733v-147.911z" />
<glyph unicode="&#xe957;" glyph-name="cc-switch" d="M910.222 903.111h-284.444c-28.444 0-56.889-28.444-56.889-56.889v-284.444c0-28.444 28.444-56.889 56.889-56.889h284.444c28.444 0 56.889 28.444 56.889 56.889v284.444c0 28.444-28.444 56.889-56.889 56.889zM398.222 391.111h-284.444c-28.444 0-56.889-28.444-56.889-56.889v-284.444c0-28.444 28.444-56.889 56.889-56.889h284.444c28.444 0 56.889 28.444 56.889 56.889v284.444c0 28.444-28.444 56.889-56.889 56.889zM728.178 277.333h91.022c-22.756-96.711-96.711-170.667-193.422-204.8v-45.511c119.467 34.133 210.489 130.844 233.244 244.622h108.089l-119.467 119.467-119.467-113.778zM295.822 618.667h-91.022c28.444 96.711 96.711 170.667 193.422 204.8v39.822c-119.467-28.444-210.489-125.156-233.244-244.622h-108.089l119.467-119.467 119.467 119.467z" />
<glyph unicode="&#xe958;" glyph-name="cc-thumbtack" d="M335.4 348.4l73.9-74c-72.8-61.6-179.2-157.3-201.1-174.5-55.8-43.8-105.2-57.8-105.2-57.8s14 49.4 57.8 105.2c17.2 22 113 128.3 174.6 201.1v0zM908.7 649.9l-197.8 197.9c-21 21-54.9 21-75.9 0s-21-54.9 0-75.9l15.8-15.8-289-204-64 63.8c-13.5 13.5-33.3 18.8-51.8 13.9-18.5-5-32.9-19.4-37.9-37.9s0.3-38.2 13.9-51.8l379.1-379.1c13.6-13.6 33.3-18.8 51.8-13.9 18.5 5 33 19.4 37.9 37.9 5 18.5-0.3 38.3-13.9 51.8l-63.9 64.1 204 289.1 15.9-15.8c13.5-13.5 33.3-18.8 51.8-13.9 18.5 5 32.9 19.4 37.9 37.9s-0.3 38.2-13.9 51.7v0z" />
<glyph unicode="&#xe959;" glyph-name="cc-triangle" d="M796.444 334.222c-5.689 0-11.378 0-22.756 0l-142.222 284.444c34.133 28.444 51.2 68.267 51.2 113.778 0 96.711-73.956 170.667-170.667 170.667s-170.667-73.956-170.667-170.667c0-45.511 17.067-85.333 45.511-119.467l-142.222-284.444c-5.689 0-11.378 0-22.756 0-96.711 0-170.667-73.956-170.667-170.667s73.956-170.667 170.667-170.667c73.956 0 136.533 45.511 159.289 113.778h250.311c22.756-68.267 85.333-113.778 159.289-113.778 96.711 0 170.667 73.956 170.667 170.667s-68.267 176.356-164.978 176.356zM352.711 283.022l142.222 284.444c5.689-5.689 11.378-5.689 17.067-5.689s11.378 0 22.756 0l142.222-284.444c-17.067-17.067-28.444-39.822-39.822-62.578h-250.311c-5.689 28.444-17.067 51.2-34.133 68.267z" />
<glyph unicode="&#xe95a;" glyph-name="cc-triangle-sider" d="M625.778 840.533l-375.467-392.533 375.467-392.533v785.067z" />
<glyph unicode="&#xe95b;" glyph-name="cc-user" d="M739.556 618.667c0-125.675-101.88-227.556-227.556-227.556s-227.556 101.88-227.556 227.556c0 125.675 101.88 227.556 227.556 227.556s227.556-101.88 227.556-227.556zM512 334.222c-193.422 0-352.711-119.467-420.978-284.444h841.956c-68.267 164.978-227.556 284.444-420.978 284.444z" />
<glyph unicode="&#xe95c;" glyph-name="cc-win7" d="M426.667 465.067c-34.133 17.067-73.956 34.133-125.156 34.133-5.689 0-11.378 0-17.067 0-45.511-5.689-91.022-17.067-119.467-28.444-11.378-5.689-17.067-5.689-28.444-11.378l-85.333-295.822c62.578 28.444 113.778 34.133 159.289 34.133 68.267 0 119.467-28.444 164.978-56.889 17.067 56.889 73.956 261.689 85.333 301.511-11.378 5.689-22.756 17.067-34.133 22.756v0zM517.689 402.489l-85.333-295.822c0 0 96.711-62.578 170.667-62.578 45.511 0 102.4 11.378 170.667 39.822l79.644 284.444c-62.578-22.756-113.778-28.444-159.289-28.444-96.711 5.689-153.6 45.511-176.356 62.578v0zM318.578 567.467c68.267 0 113.778-28.444 159.289-56.889 17.067 56.889 68.267 233.244 85.333 295.822v0c0 0-62.578 34.133-102.4 45.511-17.067 5.689-39.822 5.689-62.578 5.689v0c-45.511 0-96.711-11.378-159.289-34.133l-79.644-295.822c62.578 28.444 113.778 39.822 159.289 39.822v0zM796.444 704c-91.022 0-153.6 39.822-182.044 62.578l-79.644-295.822c0 0 0 0 0 0 45.511-34.133 108.089-56.889 182.044-56.889 51.2 0 102.4 11.378 159.289 39.822v0c0 0 0 0 0 0l85.333 290.133c-62.578-28.444-119.467-39.822-164.978-39.822v0z" />
<glyph unicode="&#xe95d;" glyph-name="cc-wireless" d="M665.6 209.067c-17.067 0-28.444 5.689-39.822 17.067-28.444 34.133-68.267 51.2-108.089 51.2s-79.644-17.067-108.089-51.2c-22.756-22.756-56.889-28.444-79.644-5.689s-22.756 56.889-5.689 85.333c51.2 56.889 119.467 91.022 193.422 91.022s142.222-34.133 193.422-91.022c22.756-22.756 17.067-62.578-5.689-85.333-11.378-5.689-28.444-11.378-39.822-11.378v0zM790.756 356.978c-11.378 0-28.444 5.689-39.822 17.067-62.578 68.267-147.911 102.4-238.933 102.4s-170.667-34.133-233.244-102.4c-22.756-22.756-56.889-22.756-79.644 0s-22.756 62.578 0 85.333c85.333 85.333 193.422 136.533 312.889 136.533s227.556-51.2 312.889-136.533c22.756-22.756 22.756-62.578 0-85.333-5.689-11.378-22.756-17.067-34.133-17.067v0zM910.222 504.889c-11.378 0-28.444 5.689-39.822 17.067-96.711 96.711-221.867 147.911-358.4 147.911-130.844 0-261.689-51.2-358.4-147.911-22.756-22.756-56.889-22.756-79.644 0-17.067 22.756-17.067 62.578 5.689 85.333 113.778 113.778 267.378 182.044 432.356 182.044s318.578-68.267 438.044-182.044c22.756-22.756 22.756-56.889 0-85.333-11.378-11.378-22.756-17.067-39.822-17.067v0zM443.733 123.733c0-39.822 28.444-68.267 68.267-68.267s68.267 34.133 68.267 68.267-28.444 73.956-68.267 73.956c-34.133 0-68.267-34.133-68.267-73.956v0z" />
</font>
</defs>
</svg>
