<?xml version="1.0" encoding="UTF-8"?>
<svg width="18px" height="18px" viewBox="0 0 18 18" version="1.1" xmlns="http://www.w3.org/2000/svg" xmlns:xlink="http://www.w3.org/1999/xlink">
    <!-- Generator: Sketch 55.2 (78181) - https://sketchapp.com -->
    <title>添加</title>
    <desc>Created with Sketch.</desc>
    <g id="页面1" stroke="none" stroke-width="1" fill="none" fill-rule="evenodd">
        <g id="样式02--模型界面" transform="translate(-367.000000, -386.000000)" fill="#C4C6CC">
            <g id="编组-2" transform="translate(366.211914, 384.074219)">
                <path d="M8.82498169,9.92578125 L8.82498169,6.91915894 C8.82498169,6.36687419 9.27269694,5.91915894 9.82498169,5.91915894 C10.3772664,5.91915894 10.8249817,6.36687419 10.8249817,6.91915894 L10.8249817,9.92578125 L13.831604,9.92578125 C14.3838888,9.92578125 14.831604,10.3734965 14.831604,10.9257812 C14.831604,11.478066 14.3838888,11.9257812 13.831604,11.9257812 L10.8249817,11.9257812 L10.8249817,14.9324036 C10.8249817,15.4846883 10.3772664,15.9324036 9.82498169,15.9324036 C9.27269694,15.9324036 8.82498169,15.4846883 8.82498169,14.9324036 L8.82498169,11.9257812 L5.81835938,11.9257812 C5.26607463,11.9257812 4.81835938,11.478066 4.81835938,10.9257812 C4.81835938,10.3734965 5.26607463,9.92578125 5.81835938,9.92578125 L8.82498169,9.92578125 Z M2.78808594,1.92578125 L16.7880859,1.92578125 C17.8926554,1.92578125 18.7880859,2.82121175 18.7880859,3.92578125 L18.7880859,17.9257812 C18.7880859,19.0303507 17.8926554,19.9257812 16.7880859,19.9257812 L2.78808594,19.9257812 C1.68351644,19.9257812 0.788085938,19.0303507 0.788085938,17.9257812 L0.788085938,3.92578125 C0.788085938,2.82121175 1.68351644,1.92578125 2.78808594,1.92578125 Z M2.78808594,2.92578125 C2.23580119,2.92578125 1.78808594,3.3734965 1.78808594,3.92578125 L1.78808594,17.9257812 C1.78808594,18.478066 2.23580119,18.9257812 2.78808594,18.9257812 L16.7880859,18.9257812 C17.3403707,18.9257812 17.7880859,18.478066 17.7880859,17.9257812 L17.7880859,3.92578125 C17.7880859,3.3734965 17.3403707,2.92578125 16.7880859,2.92578125 L2.78808594,2.92578125 Z" id="添加"></path>
            </g>
        </g>
    </g>
</svg>