<?xml version="1.0" encoding="UTF-8"?>
<svg width="16px" height="14px" viewBox="0 0 16 14" version="1.1" xmlns="http://www.w3.org/2000/svg" xmlns:xlink="http://www.w3.org/1999/xlink">
    <!-- Generator: Sketch 54 (76480) - https://sketchapp.com -->
    <title>返回</title>
    <desc>Created with Sketch.</desc>
    <g id="有浮云合作开发" stroke="none" stroke-width="1" fill="none" fill-rule="evenodd">
        <g id="结果为0" transform="translate(-80.000000, -24.000000)" fill="#3A84FF" fill-rule="nonzero">
            <g id="编组" transform="translate(72.000000, 15.000000)">
                <path d="M23.1111503,16.8521128 L8.88955433,16.8521128 C8.39865617,16.8521128 8.00070459,16.4588992 8.00070459,15.9738456 C8.00070459,15.4887921 8.39865617,15.0955785 8.88955433,15.0955785 L23.1111503,15.0955785 C23.6020484,15.0955785 24,15.4887921 24,15.9738456 C24,16.4588992 23.6020484,16.8521128 23.1111503,16.8521128 Z M15.1115025,22.9999831 C14.8752246,23.00143 14.6481066,22.9097679 14.4804192,22.7452856 L8.25847101,16.5974153 C7.913843,16.2548583 7.913843,15.7016157 8.25847101,15.3590586 L14.4804192,9.21118832 C14.8330795,8.91277351 15.3587754,8.93283711 15.687089,9.25724183 C16.0154025,9.58164654 16.0357079,10.1010835 15.7336974,10.4495451 L10.1428325,15.9738456 L15.7336974,21.4981462 C15.9880344,21.7485981 16.0650837,22.1255629 15.9290508,22.4539154 C15.7930179,22.7822679 15.4705688,22.9976424 15.1115025,22.9999831 L15.1115025,22.9999831 Z" id="返回"></path>
            </g>
        </g>
    </g>
</svg>