<?xml version="1.0" encoding="utf-8"?>
<!-- Generator: Adobe Illustrator 21.1.0, SVG Export Plug-In . SVG Version: 6.00 Build 0)  -->
<svg version="1.1" id="图层_1" xmlns="http://www.w3.org/2000/svg" xmlns:xlink="http://www.w3.org/1999/xlink" x="0px" y="0px"
	 viewBox="0 0 18 18" style="enable-background:new 0 0 18 18;" xml:space="preserve">
<g>
	<path d="M6,7h6c0.5,0,1-0.5,1-1V3c0-0.5-0.5-1-1-1H6C5.5,2,5,2.5,5,3v3C5,6.5,5.5,7,6,7z"/>
	<path d="M6,11H2c-0.5,0-1,0.5-1,1v3c0,0.5,0.5,1,1,1h4c0.5,0,1-0.5,1-1v-3C7,11.5,6.5,11,6,11z"/>
	<path d="M16,11h-4c-0.5,0-1,0.5-1,1v3c0,0.5,0.5,1,1,1h4c0.5,0,1-0.5,1-1v-3C17,11.5,16.5,11,16,11z"/>
	<rect x="7" y="8" width="4" height="2"/>
	<rect x="13" y="8" width="2" height="2"/>
	<rect x="3" y="8" width="2" height="2"/>
</g>
</svg>
