<svg xmlns="http://www.w3.org/2000/svg" xmlns:xlink="http://www.w3.org/1999/xlink" viewBox="0 0 745.79 895.25"><defs><style>.cls-1{fill:none;}.cls-2{clip-path:url(#clip-path);}</style><clipPath id="clip-path" transform="translate(0 -0.99)"><rect class="cls-1" width="746.16" height="897.45"/></clipPath></defs><title>资源 307</title><g id="图层_2" data-name="图层 2"><g id="图层_4" data-name="图层 4"><g class="cls-2"><path d="M149.16,672.44a37.41,37.41,0,0,0,37.29,37.3h37.28V840.29a55.94,55.94,0,1,0,111.87,0V709.74h74.58V840.29a55.94,55.94,0,1,0,111.87,0V709.74h37.29a37.41,37.41,0,0,0,37.29-37.3v-373H149.16Zm-93.22-373A55.87,55.87,0,0,0,0,355.39v261.1a55.94,55.94,0,1,0,111.87,0V355.39a55.87,55.87,0,0,0-55.93-55.95Zm633.91,0a55.87,55.87,0,0,0-55.94,55.95v261.1a55.94,55.94,0,1,0,111.88,0V355.39a55.87,55.87,0,0,0-55.94-55.95ZM504.52,81.6l48.67-48.67A18.59,18.59,0,1,0,526.9,6.63l-55.19,55a221.48,221.48,0,0,0-198.19.19L218.14,6.45a18.59,18.59,0,0,0-26.29,26.29L240.7,81.6c-55.38,40.85-91.54,106.5-91.54,180.54H596.63c0-74.23-36.36-139.88-92.11-180.54ZM298.31,187.54H261v-37.3h37.29Zm186.45,0H447.47v-37.3h37.29Z" transform="translate(0 -0.99)"/></g></g></g></svg>