<svg xmlns="http://www.w3.org/2000/svg" viewBox="0 0 64 64"><defs><style>.cls-1{fill:#231815;}.cls-2{fill:#fff;}</style></defs><title>画板 2 副本 9</title><g id="图层_8" data-name="图层 8"><path class="cls-1" d="M42,12v8.58H22V12H42m2.06-4H19.92A1.94,1.94,0,0,0,18,9.94V22.65a1.93,1.93,0,0,0,1.94,1.93H44.08A1.93,1.93,0,0,0,46,22.65V9.94A1.94,1.94,0,0,0,44.08,8Z"/><path class="cls-1" d="M60,31.52V22.35a1.94,1.94,0,0,0-1.94-1.94H5.94A1.94,1.94,0,0,0,4,22.35v9.17Z"/><path class="cls-1" d="M4,35.52V54.06A1.94,1.94,0,0,0,5.94,56H58.06A1.94,1.94,0,0,0,60,54.06V35.52Z"/><rect class="cls-2" x="18.06" y="27.63" width="4" height="12"/><rect class="cls-2" x="42.12" y="27.63" width="4" height="12"/></g></svg>