<svg xmlns="http://www.w3.org/2000/svg" viewBox="0 0 891.76 747.5"><defs><style>.cls-1{fill:#020202;}</style></defs><title>资源 276</title><g id="图层_2" data-name="图层 2"><g id="图层_4" data-name="图层 4"><path class="cls-1" d="M103.86,0H788l95.35,203H8.5ZM88.33,304.54c-34.84,0-63.09-25.71-63.09-57.42a52.67,52.67,0,0,1,2.65-16.41H148.78a52.67,52.67,0,0,1,2.65,16.41c0,31.71-28.25,57.42-63.1,57.42Zm79.93-57.42a52.09,52.09,0,0,1,2.65-16.41H291.8a52.67,52.67,0,0,1,2.65,16.41c0,31.71-28.25,57.42-63.1,57.42s-63.09-25.71-63.09-57.42Zm143,0a52.27,52.27,0,0,1,2.66-16.41H434.81a52.38,52.38,0,0,1,2.65,16.41c0,31.71-28.24,57.42-63.09,57.42s-63.1-25.71-63.1-57.42Zm151.44,0a53,53,0,0,1,2.63-16.41h120.9a52.38,52.38,0,0,1,2.66,16.41c0,31.71-28.25,57.42-63.1,57.42s-63.09-25.71-63.09-57.42Zm143,0a53,53,0,0,1,2.64-16.41h120.9a52.67,52.67,0,0,1,2.65,16.41c0,31.71-28.25,57.42-63.11,57.42s-63.08-25.71-63.08-57.42Zm206.1,57.42c-34.83,0-63.08-25.71-63.08-57.42a53,53,0,0,1,2.64-16.41h120.9a52.67,52.67,0,0,1,2.65,16.41c0,31.71-28.25,57.42-63.11,57.42ZM33.65,673.67H84.13V359.91c0-5.09,3.77-9.23,8.4-9.23h52.08c4.64,0,8.41,4.14,8.41,9.23V673.67H361.75V359.91c0-5.09,3.76-9.23,8.42-9.23H405.4c4.65,0,8.41,4.14,8.41,9.23V673.67H745.57V359.91c0-5.09,3.76-9.23,8.4-9.23h53.65c4.65,0,8.41,4.14,8.41,9.23V673.67H858.1c18.58,0,33.66,16.53,33.66,36.92S876.68,747.5,858.1,747.5H33.65C15.06,747.5,0,731,0,710.59s15.06-36.92,33.65-36.92Zm260.8-243.16V556.93c9.92,5.2,16.82,16.22,16.82,29.07,0,17.84-13.17,32.3-29.44,32.3s-29.45-14.46-29.45-32.3c0-12.85,6.91-23.87,16.83-29.07V430.51c-9.92-5.2-16.83-16.21-16.83-29.07,0-17.84,13.19-32.31,29.45-32.31s29.44,14.47,29.44,32.31c0,12.86-6.9,23.87-16.82,29.07Zm153.27,52.7,119-130.45a7.91,7.91,0,0,1,11.9,0,9.85,9.85,0,0,1,0,13l-119,130.46a7.88,7.88,0,0,1-11.88,0,9.86,9.86,0,0,1,0-13.05Zm11.94,108.36L672.49,355.21a7.92,7.92,0,0,1,11.91-.08,9.89,9.89,0,0,1,.07,13.06L471.64,604.55a7.9,7.9,0,0,1-11.9.07,9.88,9.88,0,0,1-.08-13Zm116.7-2.47L699.93,451.89a7,7,0,0,1,10.46-.19,8.38,8.38,0,0,1,.15,11.25L587,600.17a7,7,0,0,1-10.45.18,8.37,8.37,0,0,1-.17-11.25Z"/></g></g></svg>