<?xml version="1.0" encoding="UTF-8"?>
<svg width="16px" height="16px" viewBox="0 0 16 16" version="1.1" xmlns="http://www.w3.org/2000/svg" xmlns:xlink="http://www.w3.org/1999/xlink">
    <!-- Generator: Sketch 53.2 (72643) - https://sketchapp.com -->
    <title>基础资源</title>
    <desc>Created with Sketch.</desc>
    <g id="Page-1" stroke="none" stroke-width="1" fill="none" fill-rule="evenodd">
        <g id="模型详情-停用状态" transform="translate(-25.000000, -539.000000)" fill="#D0D2D6">
            <g id="基础资源" transform="translate(25.000000, 539.000000)">
                <g id="主机入侵" fill-rule="nonzero">
                    <path d="M9.7425,8.1225 L11.925,8.1225 L11.925,1.1925 C11.925,0.54 11.385,3.10862447e-14 10.7325,3.10862447e-14 L1.215,3.10862447e-14 C0.54,3.12111448e-14 -7.33635375e-13,0.54 -7.33635375e-13,1.1925 L-7.33635375e-13,14.7375 C-7.33635375e-13,15.39 0.54,15.93 1.1925,15.93 L8.4825,15.93 L8.4825,9.36 C8.505,8.685 9.0675,8.1225 9.7425,8.1225 Z M2.88,1.9575 L9.0675,1.9575 C9.6075,1.9575 10.0575,2.4075 10.0575,2.9475 C10.0575,3.4875 9.6075,3.9375 9.0675,3.9375 L2.88,3.9375 C2.34,3.9375 1.89,3.4875 1.89,2.9475 C1.89,2.4075 2.34,1.9575 2.88,1.9575 L2.88,1.9575 Z M1.89,5.985 C1.89,5.445 2.34,4.995 2.88,4.995 L9.0675,4.995 C9.6075,4.995 10.0575,5.445 10.0575,5.985 C10.0575,6.525 9.6075,6.975 9.0675,6.975 L2.88,6.975 C2.34,6.9525 1.89,6.5025 1.89,5.985 Z M5.9625,11.475 C5.1525,11.475 4.5,10.8225 4.5,10.0125 C4.5,9.2025 5.1525,8.55 5.9625,8.55 C6.7725,8.55 7.425,9.2025 7.425,10.0125 C7.4475,10.8225 6.795,11.475 5.9625,11.475 Z" id="形状"></path>
                </g>
                <path d="M16,11.5 L10,11.5 L10,11 C10,10.4477153 10.4477153,10 11,10 L15,10 C15.5522847,10 16,10.4477153 16,11 L16,11.5 Z M16,12.3 L16,15 C16,15.5522847 15.5522847,16 15,16 L11,16 C10.4477153,16 10,15.5522847 10,15 L10,12.3 L16,12.3 Z" id="合并形状"></path>
            </g>
        </g>
    </g>
</svg>