<?xml version="1.0" encoding="utf-8"?>
<!-- Generator: Adobe Illustrator 21.1.0, SVG Export Plug-In . SVG Version: 6.00 Build 0)  -->
<svg version="1.1" id="图层_1" xmlns="http://www.w3.org/2000/svg" xmlns:xlink="http://www.w3.org/1999/xlink" x="0px" y="0px"
	 viewBox="0 0 18 18" style="enable-background:new 0 0 18 18;" xml:space="preserve">
<path d="M1.2,13.3l7.7,3.6C9,17,9.1,17,9.2,16.9l7.7-3.6c0.1-0.1,0.2-0.2,0.2-0.3V4.2c0-0.1,0-0.1-0.1-0.2c0,0,0,0,0,0
	c0,0,0-0.1-0.1-0.1c0,0,0,0,0,0c0,0,0,0,0,0L9.2,0.9c-0.1,0-0.2,0-0.3,0L1.2,3.9c0,0,0,0,0,0c0,0,0,0,0,0c0,0,0,0-0.1,0.1
	c0,0,0,0,0,0C1,4.1,1,4.1,1,4.2V13C1,13.1,1.1,13.2,1.2,13.3L1.2,13.3z M1.8,4.7l6.9,2.6V16l-6.9-3.3V4.7z M9.4,16V7.4l6.9-2.6v8
	L9.4,16z M9.1,1.7l6.6,2.5L9.1,6.7L2.4,4.2L9.1,1.7z M9.1,1.7"/>
</svg>
