<svg xmlns="http://www.w3.org/2000/svg" viewBox="0 0 765.84 889.72"><title>资源 316</title><g id="图层_2" data-name="图层 2"><g id="图层_4" data-name="图层 4"><path d="M765.84,381.31C765.84,170.79,594.32,0,382.92,0S0,170.79,0,381.31C0,572.75,142,731.63,327.08,758.64l-4,67.53H127.64v63.55H638.2V826.17H444.35l-4-67.53c184.28-27.8,325.48-185.89,325.48-377.33ZM382.92,699.06c-176.3,0-319.1-142.19-319.1-317.75S206.62,63.55,382.92,63.55,702,205.75,702,381.31s-142.8,317.75-319.1,317.75Zm0-556.07c-132.43,0-239.33,106.45-239.33,238.32s106.9,238.31,239.33,238.31S622.24,513.18,622.24,381.31,515.35,143,382.92,143ZM287.19,444.86c-52.65,0-95.73-42.9-95.73-95.33s43.08-95.32,95.73-95.32,95.73,42.89,95.73,95.32-43.08,95.33-95.73,95.33Z"/></g></g></svg>