<?xml version="1.0" encoding="utf-8"?>
<!-- Generator: Adobe Illustrator 22.0.1, SVG Export Plug-In . SVG Version: 6.00 Build 0)  -->
<svg version="1.1" id="图层_1" xmlns="http://www.w3.org/2000/svg" xmlns:xlink="http://www.w3.org/1999/xlink" x="0px" y="0px"
	 viewBox="0 0 18 18" style="enable-background:new 0 0 18 18;" xml:space="preserve">
<path d="M16,1H2C1.5,1,1,1.5,1,2v14c0,0.6,0.5,1,1,1h14c0.6,0,1-0.5,1-1V2C17,1.5,16.5,1,16,1z M16,16H2V2h14V16z"/>
<path d="M3,3v3h12V3H3z M14,5h-2V4h2V5z"/>
<path d="M3,12v3h12v-3H3z M14,14h-2v-1h2V14z"/>
<path d="M3,7.5v3h12v-3H3z M14,9.5h-2v-1h2V9.5z"/>
</svg>
