<?xml version="1.0" encoding="utf-8"?>
<!-- Generator: Adobe Illustrator 21.1.0, SVG Export Plug-In . SVG Version: 6.00 Build 0)  -->
<svg version="1.1" id="图层_1" xmlns="http://www.w3.org/2000/svg" xmlns:xlink="http://www.w3.org/1999/xlink" x="0px" y="0px"
	 viewBox="0 0 18 18" style="enable-background:new 0 0 18 18;" xml:space="preserve">
<g>
	<path d="M13,14H3V6c0-0.5-0.5-1-1-1S1,5.5,1,6v9c0,0.5,0.5,1,1,1h11c0.5,0,1-0.5,1-1S13.5,14,13,14z"/>
	<path d="M16,2H5C4.5,2,4,2.5,4,3v9c0,0.5,0.5,1,1,1h11c0.5,0,1-0.5,1-1V3C17,2.5,16.5,2,16,2z M14.5,11h-8C6.2,11,6,10.8,6,10.5
		C6,10.2,6.2,10,6.5,10h8c0.3,0,0.5,0.2,0.5,0.5C15,10.8,14.8,11,14.5,11z M14.5,8h-8C6.2,8,6,7.8,6,7.5C6,7.2,6.2,7,6.5,7h8
		C14.8,7,15,7.2,15,7.5C15,7.8,14.8,8,14.5,8z M14.5,5h-8C6.2,5,6,4.8,6,4.5C6,4.2,6.2,4,6.5,4h8C14.8,4,15,4.2,15,4.5
		C15,4.8,14.8,5,14.5,5z"/>
</g>
</svg>
