<?xml version="1.0" encoding="utf-8"?>
<!-- Generator: Adobe Illustrator 21.1.0, SVG Export Plug-In . SVG Version: 6.00 Build 0)  -->
<svg version="1.1" id="图层_1" xmlns="http://www.w3.org/2000/svg" xmlns:xlink="http://www.w3.org/1999/xlink" x="0px" y="0px"
	 viewBox="0 0 18 18" style="enable-background:new 0 0 18 18;" xml:space="preserve">
<g>
	<path d="M7.4,7.7L1.7,5.3C1.4,5.2,1,5.4,1,5.8v6.7c0,0.4,0.2,0.7,0.5,0.9l5.7,3.3C7.6,16.8,8,16.5,8,16.1V8.7
		C8,8.3,7.8,7.9,7.4,7.7z"/>
	<path d="M16.3,5.3l-5.7,2.4C10.2,7.9,10,8.3,10,8.7v7.5c0,0.4,0.4,0.6,0.8,0.4l5.7-3.3c0.3-0.2,0.5-0.5,0.5-0.9V5.8
		C17,5.4,16.6,5.2,16.3,5.3z"/>
	<path d="M15.8,3.5L9.4,1.1C9.1,1,8.9,1,8.6,1.1L2.2,3.5c-0.4,0.2-0.4,0.8,0,0.9l6.4,2.4C8.9,7,9.1,7,9.4,6.9l6.4-2.4
		C16.2,4.3,16.2,3.7,15.8,3.5z"/>
</g>
</svg>
