<?xml version="1.0" encoding="utf-8"?>
<!-- Generator: Adobe Illustrator 21.1.0, SVG Export Plug-In . SVG Version: 6.00 Build 0)  -->
<svg version="1.1" id="图层_1" xmlns="http://www.w3.org/2000/svg" xmlns:xlink="http://www.w3.org/1999/xlink" x="0px" y="0px"
	 viewBox="0 0 18 18" style="enable-background:new 0 0 18 18;" xml:space="preserve">
<g>
	<g>
		<path d="M14.1,6.7c-0.9-2.3-3-4-5.4-4c-3.1,0-5.7,2.7-5.9,6C1.2,8.9,0,10.3,0,12.1c0,1.9,1.4,3.4,3.1,3.4h4.5v-3H5.4
			c-0.2-0.2-0.2-0.6,0-0.8l3.2-3.7c0.2-0.2,0.6-0.2,0.8,0l3.2,3.7c0.2,0.2,0.2,0.6,0,0.8h-2.3v3H14c2.2,0,4-2,4-4.4
			C18,8.7,16.3,6.8,14.1,6.7L14.1,6.7z M14.1,6.7"/>
	</g>
</g>
</svg>
