<svg xmlns="http://www.w3.org/2000/svg" viewBox="0 0 830.88 829.79"><title>资源 326</title><g id="图层_2" data-name="图层 2"><g id="图层_4" data-name="图层 4"><path d="M830.66,255.27V253a32,32,0,0,0-32.09-32l-46.59.13v-99.9a40.71,40.71,0,0,0-40.7-40.71H617.65V32a32,32,0,0,0-32-32h-3.11a32,32,0,0,0-32,32V80.53H449.7V32a32,32,0,0,0-32-32h-3.15a32,32,0,0,0-32,32l-.07,48.57H281.65l.13-48.44A32,32,0,0,0,249.78,0h-3.31a32,32,0,0,0-32,32l.07,48.49H126.26c-32.41,0-45.73,14.63-45.51,48.45l-.65,92.16H32a32,32,0,0,0-32,32v2.13a32,32,0,0,0,32,32H80.1v95.65L32,382.85a32,32,0,0,0-32,32V418a32,32,0,0,0,31.91,32l48.19.13v92.07H32a32,32,0,0,0-32,32v1.91a32,32,0,0,0,32,32H80.1V700c0,37.1,15,52.49,52.16,52.49h82.28l-.06,45.21a32,32,0,0,0,32,32h3.09a32,32,0,0,0,32-31.87l.19-45.39H382.59v45.26a32,32,0,0,0,32,32h3.29a32,32,0,0,0,32-32l-.06-45.21H550.64l-.12,45.17a32,32,0,0,0,32,32.09h3.28a32,32,0,0,0,32-32l.07-45.3h89.81c30.11,0,44.52-26.52,44.52-52.49V608.12h46.68a32,32,0,0,0,32-32v-1.91a32,32,0,0,0-32-32H752V450.14h46.68a32,32,0,0,0,32-32v-3.09a32,32,0,0,0-31.91-32L752,382.92V287.27h46.68A32,32,0,0,0,830.66,255.27Zm-145.9,430H147.32V147.76H684.87V685.3ZM249.61,605.51H590.4c12.87,0,17.57-8.83,17.57-20.51V244.44c0-13.74-9.38-21.38-20.51-21.38H246.23c-16.81,0-21.72,6.21-21.72,23.13V580.31c0,16.8,8.29,25.2,25.1,25.2Z"/></g></g></svg>