<?xml version="1.0" encoding="utf-8"?>
<!-- Generator: Adobe Illustrator 21.1.0, SVG Export Plug-In . SVG Version: 6.00 Build 0)  -->
<svg version="1.1" id="图层_1" xmlns="http://www.w3.org/2000/svg" xmlns:xlink="http://www.w3.org/1999/xlink" x="0px" y="0px"
	 viewBox="0 0 18 18" style="enable-background:new 0 0 18 18;" xml:space="preserve">
<g>
	<path d="M9,10.3C9,10.3,9.1,10.3,9,10.3c0.7-0.6,1.4-1,2.3-1.1V3c0-0.6-0.4-1-1-1H2C1.4,2,1,2.4,1,3v12c0,0.6,0.4,1,1,1h4.5
		c-0.5-0.6-0.9-1.4-0.9-2.3C5.6,11.8,7.1,10.3,9,10.3z M3.3,4.3H9v1.1H3.3V4.3z M3.3,7.7V6.6H9v1.1H3.3z"/>
	<path d="M15,12c-0.2,0-0.3,0-0.5,0.1c-0.4-1-1.4-1.8-2.6-1.8c-1,0-1.8,0.5-2.3,1.2c-0.2,0-0.3-0.1-0.5-0.1c-1.3,0-2.3,1-2.3,2.3
		C6.7,15,7.7,16,9,16h5.7c0,0,0.2,0,0.3,0c1.1,0,2-0.9,2-2C17,12.9,16.1,12,15,12z"/>
</g>
</svg>
