<?xml version="1.0" encoding="UTF-8"?>
<svg width="18px" height="18px" viewBox="0 0 18 18" version="1.1" xmlns="http://www.w3.org/2000/svg" xmlns:xlink="http://www.w3.org/1999/xlink">
    <!-- Generator: Sketch 55.2 (78181) - https://sketchapp.com -->
    <title>形状</title>
    <desc>Created with Sketch.</desc>
    <g id="主机" stroke="none" stroke-width="1" fill="none" fill-rule="evenodd">
        <g id="主机界面-属性备份" transform="translate(-1256.000000, -370.000000)" fill="#3A84FF" fill-rule="nonzero">
            <g id="复制" transform="translate(1256.000000, 370.000000)">
                <path d="M15.2905909,0.818181826 C16.3344601,0.81930873 17.1804654,1.6651311 17.1818182,2.709 L17.1818182,13.2455455 C17.1804654,14.2894144 16.3344601,15.1352367 15.2905909,15.1363636 L12.6818182,15.1363636 L12.6818182,15.291 C12.6806908,16.3348027 11.8348027,17.1806908 10.791,17.1818182 L2.709,17.1818182 C1.66519728,17.1806908 0.819309169,16.3348027 0.818181826,15.291 L0.818181826,4.75445454 C0.819309169,3.71065181 1.66519728,2.86476371 2.709,2.86363637 L5.31818183,2.86363637 L5.31818183,2.709 C5.31953456,1.6651311 6.16553993,0.81930873 7.2094091,0.818181826 L15.2905909,0.818181826 Z M2.7094091,15.9545455 L10.7905909,15.9545455 C11.1568435,15.9538708 11.4536451,15.6572521 11.4545455,15.291 L11.4545455,4.75445454 C11.4545455,4.38872727 11.1567273,4.0909091 10.791,4.0909091 L2.7094091,4.0909091 C2.34368183,4.0909091 2.04545454,4.38872727 2.04545454,4.75445454 L2.04545454,15.291 C2.04545454,15.6571364 2.34368183,15.9545455 2.7094091,15.9545455 Z M15.9545455,13.2455455 L15.9545455,2.709 C15.9545455,2.34327273 15.6563182,2.04545454 15.2905909,2.04545454 L7.2094091,2.04545454 C6.84368183,2.04545454 6.54545454,2.34327273 6.54545454,2.709 L6.54545454,2.86363637 L10.791,2.86363637 C11.8348027,2.86476371 12.6806908,3.71065181 12.6818182,4.75445454 L12.6818182,13.9090909 L15.2905909,13.9090909 C15.6563182,13.9090909 15.9545455,13.6116818 15.9545455,13.2455455 L15.9545455,13.2455455 Z M9.20454546,6.54545454 C9.54344746,6.54545454 9.8181818,6.82018891 9.8181818,7.1590909 C9.8181818,7.4979929 9.54344746,7.77272727 9.20454546,7.77272727 L4.29545454,7.77272727 C3.95655254,7.77272727 3.6818182,7.4979929 3.6818182,7.1590909 C3.6818182,6.82018891 3.95655254,6.54545454 4.29545454,6.54545454 L9.20454546,6.54545454 L9.20454546,6.54545454 Z M9.20454546,9.4090909 C9.54344746,9.4090909 9.8181818,9.68382527 9.8181818,10.0227273 C9.8181818,10.3616293 9.54344746,10.6363636 9.20454546,10.6363636 L4.29545454,10.6363636 C3.95655254,10.6363636 3.6818182,10.3616293 3.6818182,10.0227273 C3.6818182,9.68382527 3.95655254,9.4090909 4.29545454,9.4090909 L9.20454546,9.4090909 L9.20454546,9.4090909 Z M7.56818183,12.2727273 C7.90708383,12.2727273 8.18181817,12.5474616 8.18181817,12.8863636 C8.18181817,13.2252656 7.90708383,13.5 7.56818183,13.5 L4.29545454,13.5 C3.95655253,13.5 3.68181817,13.2252656 3.68181817,12.8863636 C3.68181817,12.5474616 3.95655253,12.2727273 4.29545454,12.2727273 L7.56818183,12.2727273 Z" id="形状"></path>
            </g>
        </g>
    </g>
</svg>