<svg xmlns="http://www.w3.org/2000/svg" viewBox="0 0 877.88 796.21"><defs><style>.cls-1{fill:#020202;}</style></defs><title>资源 288</title><g id="图层_2" data-name="图层 2"><g id="图层_4" data-name="图层 4"><path class="cls-1" d="M438.89,716.18c-106.86,0-201.62-53-259.28-134H85.94c66.57,127.14,199.8,214.08,353,214.08s286.39-86.94,353-214H698.18c-57.66,80.94-152.43,134-259.29,134Zm0-636.06c118.51,0,222.09,65.12,276.75,161.52h89.21C744.1,99.67,603,0,438.89,0,275,0,133.87,99.67,72.94,241.55h89.21C216.9,145.24,320.49,80.12,438.89,80.12Zm384,227.27L787.12,443.08,748.74,307.39H701.27L661.8,442.81,625.33,307.39h-93L496.55,443.08,458.17,307.39H410.7L371.23,442.81,334.76,307.39H254.91L219.18,443.08,180.8,307.39H133.32L93.85,442.81,57.48,307.39H0L66,527.2h50.3l39.74-129.77L192.89,527.2h51.57l49.29-165.33L343.4,527.2h50.3l39.74-129.77L470.27,527.2h51.57l55.92-187.34L634,527.2h50.29L724,397.43,760.84,527.2H812.4l65.48-219.81Z"/></g></g></svg>