<?xml version="1.0" encoding="utf-8"?>
<!-- Generator: Adobe Illustrator 21.1.0, SVG Export Plug-In . SVG Version: 6.00 Build 0)  -->
<svg version="1.1" id="图层_1" xmlns="http://www.w3.org/2000/svg" xmlns:xlink="http://www.w3.org/1999/xlink" x="0px" y="0px"
	 viewBox="0 0 18 18" style="enable-background:new 0 0 18 18;" xml:space="preserve">
<path d="M12.8,8.3l0.1,1.4l3.6-3.6c0.3-0.3,0.3-0.9-0.1-1.2l-4.2-3l0.2,1.8C11.1,3.9,4,5.3,6.3,14H3.5C3.2,14,3,13.8,3,13.5v-7
	C3,6.2,3.2,6,3.5,6h1C4.8,6,5,5.8,5,5.5v-1C5,4.2,4.8,4,4.5,4h-3C1.2,4,1,4.2,1,4.5V6v9.5C1,15.8,1.2,16,1.5,16H14h1.5
	c0.3,0,0.5-0.2,0.5-0.5v-5c0-0.3-0.2-0.5-0.5-0.5h-1c-0.3,0-0.5,0.2-0.5,0.5v3c0,0.3-0.2,0.5-0.5,0.5h-7C6.5,12.3,7.1,7.3,12.8,8.3z
	"/>
</svg>
