<?xml version="1.0" encoding="UTF-8"?>
<svg width="17px" height="16px" viewBox="0 0 17 16" version="1.1" xmlns="http://www.w3.org/2000/svg" xmlns:xlink="http://www.w3.org/1999/xlink">
    <!-- Generator: Sketch 55.2 (78181) - https://sketchapp.com -->
    <title>形状结合</title>
    <desc>Created with Sketch.</desc>
    <g id="页面1" stroke="none" stroke-width="1" fill="none" fill-rule="evenodd">
        <g id="样式02--模型界面内置字段" transform="translate(-885.000000, -522.000000)" fill="#3A84FF" fill-rule="nonzero">
            <g id="默认分组" transform="translate(282.000000, 396.000000)">
                <g id="字段组" transform="translate(428.466292, 106.000000)">
                    <g id="删除" transform="translate(147.697160, 19.014282)">
                        <g transform="translate(27.000000, 1.000000)" id="形状结合">
                            <path d="M1.7544807,5.02425987 L1,5.02425987 C0.44771525,5.02425987 -3.2063241e-13,4.57654462 -3.2063241e-13,4.02425987 L-3.2063241e-13,2.65583882 C-3.2063241e-13,2.10355407 0.44771525,1.65583882 1,1.65583882 L5.51753663,1.65583882 C5.50894663,1.6031076 5.5044807,1.54899146 5.5044807,1.49383224 L5.5044807,1 C5.5044807,0.44771525 5.95219595,-2.39364084e-13 6.5044807,-2.39364084e-13 L9.39476103,-2.39364084e-13 C9.94704578,-2.39364084e-13 10.394761,0.44771525 10.394761,1 L10.394761,1.49383224 C10.394761,1.54899146 10.3902951,1.6031076 10.3817051,1.65583882 L14.8992417,1.65583882 C15.4515265,1.65583882 15.8992417,2.10355407 15.8992417,2.65583882 L15.8992417,4.02425987 C15.8992417,4.57654462 15.4515265,5.02425987 14.8992417,5.02425987 L14.3939568,5.02425987 L14.3939568,13.3288446 C14.3939568,14.4334141 13.4985263,15.3288446 12.3939568,15.3288446 L3.7544807,15.3288446 C2.6499112,15.3288446 1.7544807,14.4334141 1.7544807,13.3288446 L1.7544807,5.02425987 Z M1,2.65583882 L1,4.02425987 L14.8992417,4.02425987 L14.8992417,2.65583882 L1,2.65583882 Z M6.5044807,1 L6.5044807,1.49383224 L9.39476103,1.49383224 L9.39476103,1 L6.5044807,1 Z M2.7544807,5.19829359 L2.7544807,13.3288446 C2.7544807,13.8811293 3.20219595,14.3288446 3.7544807,14.3288446 L12.3939568,14.3288446 C12.9462416,14.3288446 13.3939568,13.8811293 13.3939568,13.3288446 L13.3939568,5.19829359 L2.7544807,5.19829359 Z M4.55204504,7.56692023 L5.49322151,7.56692023 L5.49322151,12.6733141 L4.55204504,12.6733141 L4.55204504,7.56692023 Z M7.37557445,7.56692023 L8.31675092,7.56692023 L8.31675092,12.6733141 L7.37557445,12.6733141 L7.37557445,7.56692023 Z M10.1991039,7.56692023 L11.1402803,7.56692023 L11.1402803,12.6733141 L10.1991039,12.6733141 L10.1991039,7.56692023 Z"></path>
                        </g>
                    </g>
                </g>
            </g>
        </g>
    </g>
</svg>