<?xml version="1.0" encoding="utf-8"?>
<!-- Generator: Adobe Illustrator 21.1.0, SVG Export Plug-In . SVG Version: 6.00 Build 0)  -->
<svg version="1.1" id="图层_1" xmlns="http://www.w3.org/2000/svg" xmlns:xlink="http://www.w3.org/1999/xlink" x="0px" y="0px"
	 viewBox="0 0 18 18" style="enable-background:new 0 0 18 18;" xml:space="preserve">
<polygon points="0.7,11.2 6.7,17.3 0.6,17.3 "/>
<path d="M15.8,8.2l0.4-0.4c0.7-0.7,0.7-1.8,0-2.5l-3.5-3.5C12,1,10.9,1,10.2,1.7L9.8,2.1L15.8,8.2z"/>
<rect x="0.5" y="6.4" transform="matrix(0.7071 -0.7071 0.7071 0.7071 -3.4261 6.2727)" width="10.8" height="1.7"/>
<g>
	<rect x="5.3" y="11.2" transform="matrix(0.7071 -0.7071 0.7071 0.7071 -5.4106 11.0638)" width="10.8" height="1.8"/>
	<rect x="2.9" y="8.2" transform="matrix(0.7071 -0.7071 0.7071 0.7071 -4.4118 8.6524)" width="10.8" height="3"/>
</g>
</svg>
