<svg xmlns="http://www.w3.org/2000/svg" viewBox="0 0 829.61 833.26"><title>资源 310</title><g id="图层_2" data-name="图层 2"><g id="图层_4" data-name="图层 4"><path d="M.1,430.45H212.66V617.93H.1Zm627.32,0H829.61V617.93H627.42ZM.1,215.23H397.61V395.8H.1Zm627.32-34.76H829.61V78.22C829.61,35.05,794.72,0,751.75,0H627.42ZM432.1,215.23H829.61V395.8H432.1ZM247.16,430.45H592.82V617.93H247.16ZM399.3,652.68H.1V755C.1,798.21,35,833.26,78,833.26H399.3ZM212.66,180.47V0H77.87C34.9,0,0,35.05,0,78.22V180.47ZM433.8,652.68V833.26h318c43,0,77.86-35,77.86-78.22V652.68ZM247.16,0H592.82V180.57H247.16Z"/></g></g></svg>