<svg xmlns="http://www.w3.org/2000/svg" viewBox="0 0 828.32 804"><title>资源 323</title><g id="图层_2" data-name="图层 2"><g id="图层_4" data-name="图层 4"><path d="M691.32,310.56V12a12,12,0,0,0-12-12h-106a12,12,0,0,0-12,12V254.11l-62-26.94V12a12,12,0,0,0-12-12h-103a12,12,0,0,0-12,12V171.93C264,124.8,166.9,82.41,122.11,62.56a22.92,22.92,0,0,0-9.5-2.08c-35.53.09-71,.16-106.57,0-4.8,0-6,1-6,5.51C.09,260.27.09,604.54,0,798.81,0,803,1.07,804,5.68,804q217.29-.07,743,0c4.71,0,5.59-1.2,5.59-5.27L756.13,426h72.19V370S772.33,345.72,691.32,310.56ZM138.16,512.11c-.17,75.91-.17,146.81,0,222.64,0,4.15-1.41,4.87-5.59,4.87q-28.25-.36-56.3,0c-4.26.08-5.51-.8-5.51-4.87.18-37.91.09-70.9.09-108.82s.09-98.91-.09-136.82c-.09-4.31,1.33-5.19,5.77-5.11q28,.38,55.77,0c4.45,0,5.86.8,5.86,5.11Zm106.1,0c-.18,75.91-.18,146.81,0,222.64,0,4.15-1.42,4.87-5.6,4.87q-28.23-.36-56.3,0c-4.26.08-5.5-.8-5.5-4.87.17-37.91.09-70.9.09-108.82s.08-98.91-.09-136.82c-.09-4.31,1.33-5.19,5.77-5.11q28,.38,55.77,0c4.44,0,5.86.8,5.86,5.11Zm103.9-1c-.17,75.91-.17,146.81,0,222.64,0,4.15-1.41,4.87-5.59,4.87-18.83-.24-37.56-.24-56.3,0-4.26.08-5.51-.8-5.51-4.87.18-37.91.09-70.9.09-108.82s.09-98.91-.09-136.82c-.08-4.31,1.33-5.19,5.77-5.11,18.65.25,37.21.25,55.78,0,4.44,0,5.85.8,5.85,5.11Z"/></g></g></svg>