<?xml version="1.0" encoding="utf-8"?>
<!-- Generator: Adobe Illustrator 22.1.0, SVG Export Plug-In . SVG Version: 6.00 Build 0)  -->
<svg version="1.1" id="图层_2_1_" xmlns="http://www.w3.org/2000/svg" xmlns:xlink="http://www.w3.org/1999/xlink" x="0px"
	 y="0px" viewBox="0 0 64 64" style="enable-background:new 0 0 64 64;" xml:space="preserve">
<style type="text/css">
	.st0{fill:#737987;}
</style>
<path id="_x33_" class="st0" d="M56,6H8C6.9,6,6,6.9,6,8v48c0,1.1,0.9,2,2,2h48c1.1,0,2-0.9,2-2V8C58,6.9,57.1,6,56,6z M54,54H10V10
	h44V54z"/>
<path id="_x32_" class="st0" d="M34,27.2l2.8,2.8l8.8-8.8v5.2h4v-12h-12v4h5.2L34,27.2z M45.6,18.4L45.6,18.4L45.6,18.4L45.6,18.4z"
	/>
<path id="_x31_" class="st0" d="M30,36.8L27.2,34l-8.8,8.8v-5.2h-4v12h12v-4h-5.2L30,36.8z M18.4,45.6L18.4,45.6L18.4,45.6
	L18.4,45.6z"/>
</svg>
