<svg xmlns="http://www.w3.org/2000/svg" viewBox="0 0 894 768"><title>资源 327</title><g id="图层_2" data-name="图层 2"><g id="图层_4" data-name="图层 4"><path d="M862,704H830V421.85A31.85,31.85,0,0,0,798.15,390l-104.3,40C672,442,662,444.26,662,461.85V566H638V122c0-17.67-11-25-32-32L349,0a32,32,0,0,0-32,32V660H257V217c0-17.67-14-40-32-32L95,255c-18,10-32,16-32,32V704H32A32.09,32.09,0,0,0,0,736H0a32.09,32.09,0,0,0,32,32H862a32.09,32.09,0,0,0,32-32h0A32.09,32.09,0,0,0,862,704ZM573,237H382V173H573Zm0,129H382V302H573Zm0,128H382V430H573ZM192,376H127V312h65ZM778,540H713V476h65ZM191,512H126V448h65Z"/></g></g></svg>