<?xml version="1.0" encoding="utf-8"?>
<!-- Generator: Adobe Illustrator 21.1.0, SVG Export Plug-In . SVG Version: 6.00 Build 0)  -->
<svg version="1.1" id="图层_1" xmlns="http://www.w3.org/2000/svg" xmlns:xlink="http://www.w3.org/1999/xlink" x="0px" y="0px"
	 viewBox="0 0 18 18" style="enable-background:new 0 0 18 18;" xml:space="preserve">
<g>
	<path d="M16,7H7C6.5,7,6,7.5,6,8v8c0,0.5,0.5,1,1,1h9c0.5,0,1-0.5,1-1V8C17,7.5,16.5,7,16,7z M16,13H7V8h9V13z"/>
	<path d="M3,6h3h3h2V2c0-0.5-0.5-1-1-1H2C1.5,1,1,1.5,1,2v13c0,0.5,0.5,1,1,1h3v-3c-0.5,0-1-0.5-1-1s0.5-1,1-1v-1V9V7H3V6z M3,3h6v1
		H3V3z"/>
</g>
</svg>
