<?xml version="1.0" encoding="utf-8"?>
<!-- Generator: Adobe Illustrator 21.1.0, SVG Export Plug-In . SVG Version: 6.00 Build 0)  -->
<svg version="1.1" id="图层_1" xmlns="http://www.w3.org/2000/svg" xmlns:xlink="http://www.w3.org/1999/xlink" x="0px" y="0px"
	 viewBox="0 0 18 18" style="enable-background:new 0 0 18 18;" xml:space="preserve">
<path d="M16.9,8.8c-0.2-0.5-0.5-0.9-0.7-1.3c-0.2-0.4-0.5-0.7-0.8-1.1c-0.2-0.3-0.5-0.6-0.8-0.8c-0.5-0.5-1-0.9-1.7-1.2
	c-0.5-0.3-1.1-0.5-1.7-0.7c-0.4-0.1-0.8-0.2-1.2-0.3c-0.2,0-0.4-0.1-0.6-0.1c0,0-0.1,0-0.1,0h-1c0,0,0,0-0.1,0c-0.2,0-0.5,0-0.7,0.1
	c-0.3,0-0.5,0.1-0.8,0.2C6.4,3.7,6,3.9,5.5,4.1L3.1,1.6L1.6,3.1l2.2,2.2C3.5,5.5,3.2,5.7,3,6C2.6,6.3,2.3,6.7,2.1,7.1
	C1.7,7.5,1.4,8,1.2,8.5c0,0.1-0.1,0.2-0.1,0.3c0,0,0,0,0,0v0.1c0,0,0,0,0.1,0.1c0.2,0.5,0.5,1,0.9,1.5c0.2,0.4,0.5,0.7,0.8,1
	c0.2,0.2,0.4,0.4,0.6,0.6c0.6,0.5,1.2,1,1.8,1.4c0.4,0.2,0.9,0.4,1.4,0.6c0.4,0.1,0.9,0.2,1.3,0.3c0.1,0,0.5,0,0.5,0
	c0,0,1.4,0,1.4,0c0.7,0,1.3-0.2,1.9-0.4c0.2-0.1,0.5-0.2,0.7-0.3l2.6,2.6l1.4-1.4l-2.3-2.3c0,0,0.1,0,0.1-0.1
	c0.3-0.3,0.6-0.6,0.9-0.9c0.4-0.4,0.8-0.9,1.1-1.4c0.2-0.3,0.3-0.5,0.5-0.8C16.8,9.3,16.9,9.1,17,9c0,0,0,0,0,0L16.9,8.8
	C17,8.8,17,8.8,16.9,8.8z M9,12.2c-1.8,0-3.5-1.5-3.4-3.5c0-0.5,0.2-0.9,0.4-1.4l1.3,1.3c0,0,0,0.1,0,0.1c0,1,0.8,1.8,1.7,1.7
	c0.1,0,0.1,0,0.1,0l1.3,1.3C10,12.1,9.5,12.2,9,12.2z M10.7,9.3c0-0.1,0-0.2,0-0.4C10.7,8,10,7.2,9,7.2c-0.1,0-0.2,0-0.3,0L7.4,6
	c0.5-0.3,1-0.4,1.7-0.4c1.9,0,3.4,1.5,3.4,3.4c0,0.6-0.2,1.1-0.5,1.6L10.7,9.3z"/>
</svg>
