<?xml version="1.0" encoding="utf-8"?>
<!-- Generator: Adobe Illustrator 21.1.0, SVG Export Plug-In . SVG Version: 6.00 Build 0)  -->
<svg version="1.1" id="图层_1" xmlns="http://www.w3.org/2000/svg" xmlns:xlink="http://www.w3.org/1999/xlink" x="0px" y="0px"
	 viewBox="0 0 18 18" style="enable-background:new 0 0 18 18;" xml:space="preserve">
<path d="M13,1H5C4.5,1,4,1.5,4,2v14c0,0.5,0.5,1,1,1h8c0.5,0,1-0.5,1-1V2C14,1.5,13.5,1,13,1z M9,13c-0.6,0-1-0.4-1-1
	c0-0.6,0.4-1,1-1s1,0.4,1,1C10,12.6,9.6,13,9,13z M12,7H6V6h6V7z M12,4H6V3h6V4z"/>
</svg>
