<?xml version="1.0" encoding="utf-8"?>
<!-- Generator: Adobe Illustrator 22.0.1, SVG Export Plug-In . SVG Version: 6.00 Build 0)  -->
<svg version="1.1" xmlns="http://www.w3.org/2000/svg" xmlns:xlink="http://www.w3.org/1999/xlink" x="0px" y="0px"
	 viewBox="0 0 1024 1024" style="enable-background:new 0 0 1024 1024;" xml:space="preserve">
<g id="图层_2">
</g>
<g id="图层_1">
</g>
<g id="图层_3">
	<g>
	</g>
</g>
<g id="图层_4">
</g>
<g id="图层_5">
	<path d="M744.8,306.9H279.1c-10,0-18.2,11.1-18.2,24.8c0,13.7,8.1,24.7,18.2,24.7h465.7c10,0,18.2-11.1,18.2-24.7
		C763,318.1,754.8,306.9,744.8,306.9L744.8,306.9z M766.7,207.2H257.2c-10,0-18.2,11.1-18.2,24.8c0,13.7,8.1,24.7,18.2,24.7h509.5
		c10,0,18.2-11.1,18.2-24.7C784.9,218.4,776.8,207.2,766.7,207.2L766.7,207.2z M921.8,403.1l-68.9-257.4c-0.2-0.6-0.3-1.1-0.6-1.8
		c-10.8-28.3-26.7-47.2-68.7-47.2l-544.4,1.5c-34.9,0-55.4,14.1-68.6,46.9c-0.3,0.7-0.5,1.5-0.7,2.1l-68.3,262.9
		c-5.3,5.2-8.7,11.7-8.7,19.3v460.1c0,19.7,23,38.8,42.2,38.8h768.3c19.2,0,27.6-19.1,27.6-38.8V429.5
		C931,418,928,408.8,921.8,403.1L921.8,403.1z M720.8,693.3H303.1V588.9h417.7V693.3z M668.6,432.3c0,0-36.9,0.5-55.1,0.5H419.2
		c-18.2,0-63.8-0.5-63.8-0.5H146.5l57.8-273.5c7.1-17.4,13.8-23.5,35.8-23.5l542.7-1.6c24.1,0,29,6.2,35.7,23.5l58.9,275.1
		L668.6,432.3L668.6,432.3z M668.6,432.3"/>
	<g>
	</g>
	<g>
	</g>
	<g>
	</g>
	<g>
	</g>
	<g>
	</g>
	<g>
	</g>
	<g>
	</g>
	<g>
	</g>
	<g>
	</g>
	<g>
	</g>
	<g>
	</g>
	<g>
	</g>
	<g>
	</g>
	<g>
	</g>
	<g>
	</g>
</g>
</svg>
