<svg xmlns="http://www.w3.org/2000/svg" viewBox="0 0 884.5 884.85"><title>资源 291</title><g id="图层_2" data-name="图层 2"><g id="图层_4" data-name="图层 4"><path d="M581.88,309.27H542.51v134.8h38.56q78.45,0,78.45-68.21Q659.52,309.28,581.88,309.27Z"/><path d="M442.33,0C198.06,0,0,198.06,0,442.42S198.06,884.85,442.25,884.85,884.5,686.79,884.5,442.42,686.53,0,442.33,0ZM392.88,309.54H357v279h35.85v69.29H232.74V588.57h35.32v-279H232.74V240.25H392.88ZM706,475.21Q659,513.9,588.35,512.28H542.51V657.86h-89V240.25h143.7q155.84,0,155.83,132.1Q753.07,436.52,706,475.21Z"/></g></g></svg>