<?xml version="1.0" encoding="utf-8"?>
<!-- Generator: Adobe Illustrator 22.0.1, SVG Export Plug-In . SVG Version: 6.00 Build 0)  -->
<svg version="1.1" id="图层_1" xmlns="http://www.w3.org/2000/svg" xmlns:xlink="http://www.w3.org/1999/xlink" x="0px" y="0px"
	 viewBox="0 0 18 18" style="enable-background:new 0 0 18 18;" xml:space="preserve">
<g>
	<path d="M10.9,5.5H9.7v3.6h1.1c0.7,0,1.3-0.2,1.6-0.5S13,7.9,13,7.3C13,6.1,12.3,5.5,10.9,5.5z"/>
	<path d="M16,1H2C1.5,1,1,1.5,1,2v14c0,0.6,0.5,1,1,1h14c0.6,0,1-0.5,1-1V2C17,1.5,16.5,1,16,1z M7.1,5.5H6.2v7.1h0.9v1H4.2v-1H5
		V5.5H4.2v-1h2.9V5.5z M13.3,9.4c-0.6,0.6-1.4,0.8-2.4,0.8H9.7v3.4H8.6V4.5h2.6c1,0,1.7,0.2,2.3,0.7s0.8,1.1,0.8,2
		C14.2,8.1,13.9,8.8,13.3,9.4z"/>
</g>
</svg>
