<svg xmlns="http://www.w3.org/2000/svg" viewBox="0 0 895 767"><title>资源 299</title><g id="图层_2" data-name="图层 2"><g id="图层_4" data-name="图层 4"><path d="M863,0H32A32.09,32.09,0,0,0,0,32V735a32.09,32.09,0,0,0,32,32H863a32.09,32.09,0,0,0,32-32V32A32.09,32.09,0,0,0,863,0ZM830,702.5H65V64.5H830Z"/><path d="M159.42,639.16H736.08c19.16,0,32.1-13.59,31.58-35.11V163c0-21.52-12.94-35.11-32.09-35.11H159.42c-19.16,0-32.1,13.59-32.1,35.11v441.1C127.32,625.57,140.26,639.16,159.42,639.16ZM508.26,266.69q28.2-20.48,74.65-20.48,38.91,0,65.3,10.11v53.13q-26.73-18.17-62.56-18.16-20.91,0-33.42,7.62T539.72,319.4q0,10.28,8.57,18.94t42.33,23.39q39.6,17,54.42,35.83t14.83,44.9q0,38.24-27.08,58.28t-77,20q-45.6,0-74.73-14.74V449.32q32,26.57,72.84,26.57,23.14,0,34.8-8t11.65-20.49q0-10.8-9.25-20.39T542.29,401q-62.22-26.39-62.22-76.79Q480.07,287.17,508.26,266.69ZM352.89,472.12h22.45V294.71H352.89v-44H454.7v44H431.9V472.12h22.8v44H352.89Zm-117.76,0h22.46V294.71H235.13v-44H337v44h-22.8V472.12H337v44H235.13Z"/></g></g></svg>