<svg xmlns="http://www.w3.org/2000/svg" viewBox="0 0 895 767"><title>资源 300</title><g id="图层_2" data-name="图层 2"><g id="图层_4" data-name="图层 4"><path d="M863,0H32A32.09,32.09,0,0,0,0,32V735a32.09,32.09,0,0,0,32,32H863a32.09,32.09,0,0,0,32-32V32A32.09,32.09,0,0,0,863,0ZM830,702.5H65V64.5H830Z"/><path d="M159.42,639.16H736.08c19.16,0,32.1-13.59,31.58-35.11V163c0-21.52-12.94-35.11-32.09-35.11H159.42c-19.16,0-32.1,13.59-32.1,35.11v441.1C127.32,625.57,140.26,639.16,159.42,639.16ZM563.48,301.23q33.27-33.86,85.9-33.86,32.91,0,55.09,8.56v46.24q-22.76-13.34-51.61-13.33-32.91,0-52.63,21T580.52,384.8q0,33.06,18.7,53.21t50.6,20.15q30,0,54.65-14.49v43.92q-24.5,12-63.93,12-50.74,0-80.54-30.38t-29.79-81Q530.21,335.08,563.48,301.23ZM309.26,271.14h77.57q119.6,0,119.6,109.46,0,52-33.49,83.58t-86.4,31.53H309.26ZM190.53,458.45h19v-150h-19V271.14h86.11V308.4H257.36V458.45h19.28v37.26H190.53Z"/><path d="M456.13,381.33q0-33.49-20.3-52.27t-52.77-18.77H357.11V456.57H383.2q34.07,0,53.5-20.3T456.13,381.33Z"/></g></g></svg>