<?xml version="1.0" encoding="UTF-8"?>
<svg width="15px" height="12px" viewBox="0 0 15 12" version="1.1" xmlns="http://www.w3.org/2000/svg" xmlns:xlink="http://www.w3.org/1999/xlink">
    <!-- Generator: Sketch 55.2 (78181) - https://sketchapp.com -->
    <title>形状结合</title>
    <desc>Created with Sketch.</desc>
    <g id="服务目录" stroke="none" stroke-width="1" fill="none" fill-rule="evenodd">
        <g id="主机变更记录备份-路径模式" transform="translate(-1318.000000, -227.000000)" fill="#3A84FF">
            <path d="M1325,232 L1325,230 L1324,230 L1324,227 L1327,227 L1327,230 L1326,230 L1326,232 L1332,232 L1332,233 L1332,236 L1333,236 L1333,239 L1330,239 L1330,236 L1331,236 L1331,233 L1326,233 L1326,236 L1327,236 L1327,239 L1324,239 L1324,236 L1325,236 L1325,233 L1320,233 L1320,236 L1321,236 L1321,239 L1318,239 L1318,236 L1319,236 L1319,233 L1319,232 L1325,232 Z" id="形状结合"></path>
        </g>
    </g>
</svg>