<?xml version="1.0" encoding="utf-8"?>
<!-- Generator: Adobe Illustrator 22.0.1, SVG Export Plug-In . SVG Version: 6.00 Build 0)  -->
<svg version="1.1" id="图层_1" xmlns="http://www.w3.org/2000/svg" xmlns:xlink="http://www.w3.org/1999/xlink" x="0px" y="0px"
	 viewBox="0 0 18 18" style="enable-background:new 0 0 18 18;" xml:space="preserve">
<path d="M0.8,3.6C2.4,3.8,7,4,6.9,9.4l-2.4,0l4.3,3.9c0.3,0.4,0.9,0.4,1.2,0l3.4-3.9l-1.8,0C11,7,10,2,0.8,3.4"/>
<path d="M11.7,15h2.8c0.3,0,0.5-0.2,0.5-0.5v-7C15,7.2,14.8,7,14.5,7h-1C13.2,7,13,6.8,13,6.5v-1C13,5.2,13.2,5,13.5,5h3
	C16.8,5,17,5.2,17,5.5V7v9.5c0,0.3-0.2,0.5-0.5,0.5H4H2.5C2.2,17,2,16.8,2,16.5v-5C2,11.2,2.2,11,2.5,11h1C3.8,11,4,11.2,4,11.5v3
	C4,14.8,4.2,15,4.5,15h7"/>
</svg>
