<?xml version="1.0" encoding="utf-8"?>
<!-- Generator: Adobe Illustrator 22.0.1, SVG Export Plug-In . SVG Version: 6.00 Build 0)  -->
<svg version="1.1" xmlns="http://www.w3.org/2000/svg" xmlns:xlink="http://www.w3.org/1999/xlink" x="0px" y="0px"
	 viewBox="0 0 1024 1024" style="enable-background:new 0 0 1024 1024;" xml:space="preserve">
<style type="text/css">
	.st0{fill:#070707;}
</style>
<g id="图层_2">
</g>
<g id="图层_1">
</g>
<g id="图层_3">
	<g>
	</g>
</g>
<g id="图层_4">
</g>
<g id="图层_5">
	<path class="st0" d="M147.5,752.9c-26.5,26.5-26.5,69.5,0,96c26.5,26.5,69.5,26.5,95.8,0l19.1-18.9l79.8,79.8
		c13.5,13.6,35.4,13.7,49,0.2c0.1-0.1,0.1-0.1,0.2-0.2l118.9-118.9c13.6-13.5,13.7-35.4,0.2-49c-0.1-0.1-0.1-0.1-0.2-0.2l-79.8-79.8
		l142.1-142.3c30.4,15.7,65.1,24.6,101.6,24.6c122.7,0,222.1-99.4,222.1-222.1C896.4,199.4,797,100,674.3,100
		c-122.7,0-222.1,99.4-222.1,222.1c0,36.6,8.9,71.2,24.6,101.7L147.5,752.9L147.5,752.9z M588.9,322.1c0-47.1,38.3-85.4,85.4-85.4
		c47.2,0,85.4,38.3,85.4,85.4s-38.3,85.4-85.4,85.4S588.9,369.2,588.9,322.1z"/>
	<g>
	</g>
	<g>
	</g>
	<g>
	</g>
	<g>
	</g>
	<g>
	</g>
	<g>
	</g>
	<g>
	</g>
	<g>
	</g>
	<g>
	</g>
	<g>
	</g>
	<g>
	</g>
	<g>
	</g>
	<g>
	</g>
	<g>
	</g>
	<g>
	</g>
</g>
</svg>
