<svg xmlns="http://www.w3.org/2000/svg" xmlns:xlink="http://www.w3.org/1999/xlink" viewBox="0 0 756.02 891.54"><defs><style>.cls-1{fill:none;}.cls-2{clip-path:url(#clip-path);}</style><clipPath id="clip-path" transform="translate(0 -1.11)"><rect class="cls-1" width="756.08" height="893.92"/></clipPath></defs><title>资源 303</title><g id="图层_2" data-name="图层 2"><g id="图层_4" data-name="图层 4"><g class="cls-2"><path d="M755.12,758.45c-4.88-14.54-47.32-32.78-60.7-62S692,651.6,671.4,637a24.08,24.08,0,0,0-9.13-3.92c7.21-19.11,7.43-45.21,6.47-79.59-2.44-89.88-41.7-143.79-62.82-170.11-25.25-31.51-34-43.4-53.38-74-18.78-29.5-38.73-65.79-39.37-104.84-.85-46.17-2.44-99.22-24.3-139.22s-76.18-79.49-153-58.26c-82.14,22.71-84.15,91.79-87.76,142.83s19.63,87.33.11,151.85-53.49,88.5-69.83,120.87c-40.43,80.11-49,87.22-66.75,128.5-19.63,45.53-4.88,72.48-4.88,72.48l.85,2.23c-7,12.94-10.72,25.89-19,29.39-16.56,7-55.82-3.6-69.19,9.76S25.89,759.3,17,774.26,0,788.8,0,813.1,26.74,835,131.16,870.19,255,895.66,279.3,865.31A42,42,0,0,0,287.36,849c31.94-2.87,64.2-5.41,83-5.52,41.71-.21,100.07,12.95,127.24,19.63,3.92,10.51,9.65,19,17.29,22.93,21.87,10.92,72.91,9.76,103.25-19.43S725,799.84,734.75,790.08s25.14-17.09,20.37-31.63ZM318,198.16c-1.17-13.79-8.7-24.3-16.87-23.67s-13.91,12.43-12.74,26.11c.64,7.64,3.3,14.33,6.9,18.57l-3.6,3.29c-6-7.75-10.94-20.16-12.21-35.33-2.23-26.22,8-46.8,18.57-47.65h.74v0c10.29,0,23.35,18,25.47,43.93a93.92,93.92,0,0,1-.11,15.6c-2,.85-4,1.8-5.94,2.76-.1-1.06-.1-2.34-.21-3.61ZM303,212.38Zm-2.65,2.33-.11.11Zm-2.55,2.34-.11.1c0-.1,0-.1.11-.1Zm-10.18,9c.63-.53,1.16-1.06,1.8-1.59a12.75,12.75,0,0,1-1.8,1.59Zm2.11-1.8c.64-.54,1.28-1.17,1.92-1.7-.64.64-1.28,1.16-1.92,1.7Zm17.41,25c2.65-2.23,5.2-4.57,7.64-6.79,11.35-10.4,19-16.77,29.18-17.19,1.17-.11,2.33-.11,3.51-.11,17.29,0,34.8,6.16,58.57,20.8,2.12,1.27,4.14,2.44,6.05,3.61-5.31,4.77-11.67,10.29-19,16.23-16.87,13.69-29.39,22.18-35.86,25.79-4.78-2.12-13.48-6.9-26.43-15.81-14.11-9.76-24.94-18.89-27.69-21.65a21.91,21.91,0,0,1,4-4.88ZM409,212.59c.53.32,1.17.64,1.7,1-.53-.32-1.06-.64-1.7-1Zm1.8-40.32c-10.18-.53-19.84,10.4-21.54,24.41a26.08,26.08,0,0,0-.1,6.47c-3.93-1.59-7.85-2.87-11.68-4a66.5,66.5,0,0,1,.21-14.43c1.49-12.74,6.48-24.63,13.8-33.22,6.58-7.64,14.22-11.88,21.54-11.88h1.06c5.52.31,10.51,3,14.65,8,7.53,8.91,10.93,23.45,9.12,38.83-1.48,12.74-6.47,24.62-13.79,33.21-.32.32-.64.75-1,1.07l-1-.64c-1.49-1-3-1.8-4.46-2.65,4.46-4.46,7.64-11.14,8.6-18.79,1.48-14-5.31-25.78-15.5-26.31ZM415,216c-.64-.32-1.27-.74-1.91-1.06A8.05,8.05,0,0,1,415,216Zm-14.64-7.85c-.43-.22-1-.43-1.38-.64.42.21.85.42,1.38.64Zm-4.14-1.91c-.43-.22-.75-.32-1.17-.53a11,11,0,0,0,1.17.53Zm-25.05-8.6c.11,0,.22.11.43.11a.78.78,0,0,0-.43-.11Zm54.65,24.73c-.95-.53-1.9-1.17-2.86-1.7,1,.63,1.91,1.17,2.86,1.7Zm7.22,4.14c-.53-.33-1.17-.64-1.8-1,.63.32,1.16.63,1.8,1Zm-2-1.07c-.74-.42-1.59-1-2.44-1.37.85.42,1.7.95,2.44,1.37ZM428.49,224c-.85-.53-1.69-1.07-2.65-1.59,1,.52,1.8,1.06,2.65,1.59Zm34.7,540.13c-19.09,17.4-33.74,24.62-44.46,31.4-20.05,12.74-52.42,20.49-86.06,15.39-21.33-3.18-40.43-12.09-57.19-22.17a121,121,0,0,0-11-18c-7.42-9.88-57.94-81.29-89.56-125.86a135.87,135.87,0,0,1-2.44-26.53c.63-52.2,15.17-113.22,27.06-127.55,3.61-4.35,30.14-79.91,36.4-95.93,11.56-29.18,29.39-63.45,38.73-83.51,6.36-16.56,7.32-28.12,6.47-36,10.51,10.94,59.75,48.08,77.36,48.08h.32c14.64-.32,70.78-46.05,90-67.07,1.81,7.64,11.25,22.82,17.3,37.46,17.62,42.66,38.09,122.46,70.89,166.71,2.22,3.08,7.74,13.48,8.81,17.51,12.73,45.73,10.18,80.33,2.33,148.24a53.29,53.29,0,0,0-12.84-2.55c-22.39-1.8-30.35,7.32-30.35,7.32s-1.27,50.31-3.71,96.89c-1.92,2.12-3.93,4.25-5.95,6.37-11.46,11.46-22.07,21.33-32.05,29.82Z" transform="translate(0 -1.11)"/></g></g></g></svg>