<?xml version="1.0" encoding="utf-8"?>
<!-- Generator: Adobe Illustrator 22.0.1, SVG Export Plug-In . SVG Version: 6.00 Build 0)  -->
<svg version="1.1" id="图层_1" xmlns="http://www.w3.org/2000/svg" xmlns:xlink="http://www.w3.org/1999/xlink" x="0px" y="0px"
	 viewBox="0 0 18 18" style="enable-background:new 0 0 18 18;" xml:space="preserve">
<style type="text/css">
	.st0{clip-path:url(#SVGID_2_);}
</style>
<g>
	<g>
		<defs>
			<rect id="SVGID_1_" x="1.1" y="2" width="15.9" height="13.8"/>
		</defs>
		<clipPath id="SVGID_2_">
			<use xlink:href="#SVGID_1_"  style="overflow:visible;"/>
		</clipPath>
		<path class="st0" d="M10.1,11.5H10c-1.5,0-3,0-4.5,0c-0.2,0-0.4-0.1-0.4-0.3c0,0,0-0.1,0-0.1c0-1.4,0-2.9,0-4.3
			c0-0.3,0.1-0.4,0.4-0.4c1.5,0,3,0,4.6,0h0.1V6.2c0-1.3,0-2.6,0-3.8c0-0.2,0.1-0.3,0.2-0.4c0.2-0.1,0.3,0,0.4,0.1
			c0.1,0.1,0.1,0.1,0.2,0.2c0.9,0.9,1.7,1.8,2.6,2.7c1.1,1.2,2.2,2.3,3.3,3.5C17,8.8,17,9,16.8,9.2c-1.6,1.7-3.2,3.4-4.7,5
			c-0.4,0.5-0.9,1-1.3,1.4c-0.1,0.1-0.2,0.2-0.4,0.1c-0.2-0.1-0.2-0.2-0.2-0.4c0-1.2,0-2.5,0-3.7C10.1,11.6,10.1,11.6,10.1,11.5
			L10.1,11.5z M7.3,2.1v1.5H7.1c-1.2,0-2.3,0-3.5,0C3,3.5,2.4,4.1,2.4,4.9c0,2.7,0,5.4,0,8.1c0,0.7,0.5,1.2,1,1.3c0.1,0,0.2,0,0.3,0
			c1.1,0,2.3,0,3.4,0h0.1v1.4c0,0,0,0-0.1,0c-1.2,0-2.4,0-3.6,0c-1.2,0-2.2-1-2.5-2.2c0-0.2,0-0.4,0-0.5c0-2.7,0-5.5,0-8.2
			c0-1.1,0.5-2,1.5-2.5c0.3-0.2,0.7-0.3,1.1-0.3C4.8,2.1,6,2.1,7.3,2.1C7.2,2.1,7.2,2.1,7.3,2.1L7.3,2.1z M7.3,2.1"/>
	</g>
</g>
</svg>
