<?xml version="1.0" encoding="utf-8"?>
<!-- Generator: Adobe Illustrator 21.1.0, SVG Export Plug-In . SVG Version: 6.00 Build 0)  -->
<svg version="1.1" id="图层_1" xmlns="http://www.w3.org/2000/svg" xmlns:xlink="http://www.w3.org/1999/xlink" x="0px" y="0px"
	 viewBox="0 0 1000 1000" style="enable-background:new 0 0 1000 1000;" xml:space="preserve">
<style type="text/css">
	.st0{fill:url(#SVGID_1_);}
</style>
<linearGradient id="SVGID_1_" gradientUnits="userSpaceOnUse" x1="499.3809" y1="660.7737" x2="499.3809" y2="339.9588">
	<stop  offset="0" style="stop-color:#0064B2"/>
	<stop  offset="1" style="stop-color:#0086CE"/>
</linearGradient>
<path class="st0" d="M624.3,406.2l-105.8-61.1c-11.8-6.8-26.4-6.8-38.3,0l-105.8,61.1c-11.8,6.8-19.1,19.5-19.1,33.2v122.1
	c0,13.7,7.3,26.3,19.1,33.1l105.8,61.1c11.8,6.8,26.4,6.8,38.3,0l105.8-61.1c11.8-6.8,19.1-19.5,19.1-33.1V439.3
	C643.4,425.6,636.1,413,624.3,406.2z M580.9,535.8c0,7.2-3.8,13.8-10.1,17.4l-61.4,35.4c-6.2,3.6-13.9,3.6-20.1,0L428,553.2
	c-6.2-3.6-10.1-10.2-10.1-17.4V465c0-7.2,3.8-13.8,10.1-17.4l61.3-35.4c6.2-3.6,13.9-3.6,20.1,0l61.4,35.4c3,1.7,5.4,4.1,7.1,7
	l-39.2,22.7l-13-6.9l-18.3-10.6c-4.9-2.8-10.9-2.8-15.8,0l-23.4,13.5c-4.9,2.8-7.9,8.1-7.9,13.7v27c0,5.7,3,10.9,7.9,13.7l23.4,13.5
	c4.9,2.8,10.9,2.8,15.8,0l23.4-13.5c0.1,0,0.2-0.1,0.2-0.2l50-28.9V535.8z"/>
</svg>
