<?xml version="1.0" encoding="UTF-8"?>
<svg width="13px" height="13px" viewBox="0 0 13 13" version="1.1" xmlns="http://www.w3.org/2000/svg" xmlns:xlink="http://www.w3.org/1999/xlink">
    <!-- Generator: Sketch 51.3 (57544) - http://www.bohemiancoding.com/sketch -->
    <title>Shape</title>
    <desc>Created with Sketch.</desc>
    <defs></defs>
    <g id="模型重构-拓扑视图" stroke="none" stroke-width="1" fill="none" fill-rule="evenodd">
        <g id="编辑模型拓扑" transform="translate(-834.000000, -401.000000)" fill="#FFFFFF" fill-rule="nonzero">
            <g id="创建关系" transform="translate(798.000000, 395.000000)">
                <g id="服务编排-连接线" transform="translate(6.000000, 6.000000)">
                    <path d="M41.0343536,8.62940149 C40.8699043,8.46560147 40.5572556,8.44545146 40.468206,8.6586515 C40.4441561,8.71585151 40.4383061,8.87705153 40.4383061,8.87705153 L40.4383061,10.1153017 L34.2022323,10.1153017 C33.3735271,10.1167418 32.7000633,9.44705528 32.6968387,8.61835149 C32.6997058,7.78939358 33.3732743,7.11931209 34.2022323,7.12075124 L39.8585086,7.12075124 C41.4016021,7.12075124 42.6567468,5.87275103 42.6567468,4.33810077 C42.6567468,2.80345051 41.4016021,1.5548003 39.8585086,1.5548003 L34.3224818,1.5548003 C34.0347083,0.629892726 33.178629,-0.000184421556 32.2099907,4.04916454e-08 C30.9905958,4.04916472e-08 30,0.986050206 30,2.19765041 C30,3.40990061 30.9912458,4.39530078 32.2099907,4.39530078 C33.178629,4.39548524 34.0347083,3.76540809 34.3224818,2.84050052 L39.8585086,2.84050052 C40.6874666,2.83906137 41.3610351,3.50914286 41.3639022,4.33810077 C41.3606775,5.16680456 40.6872137,5.83649105 39.8585086,5.83505102 L34.2022323,5.83505102 C32.6591388,5.83505102 31.4039941,7.08305123 31.4039941,8.61835149 C31.4039941,10.1523517 32.6584888,11.401002 34.2022323,11.401002 L40.4383061,11.401002 L40.4383061,12.5762022 C40.4383061,12.5762022 40.4383061,12.7562522 40.468206,12.8277522 C40.5572556,13.0416022 40.8699043,13.0507022 41.0337036,12.8862522 L42.8764459,11.0545519 C42.9555178,10.9761878 43,10.8694773 43,10.7581519 C43,10.6468264 42.9555178,10.5401159 42.8764459,10.4617518 L41.0343536,8.62940149 Z M32.2099907,3.10960056 C31.7042928,3.10960056 31.2934946,2.70010049 31.2934946,2.19765041 C31.2934946,1.69520033 31.7036428,1.28700026 32.2099907,1.28700026 C32.7150386,1.28700026 33.1264869,1.69585033 33.1264869,2.19830041 C33.1264869,2.7014005 32.7150386,3.11025056 32.2099907,3.11025056 L32.2099907,3.10960056 Z" id="Shape"></path>
                </g>
            </g>
        </g>
    </g>
</svg>