<?xml version="1.0" encoding="UTF-8"?>
<svg width="14px" height="15px" viewBox="0 0 14 15" version="1.1" xmlns="http://www.w3.org/2000/svg" xmlns:xlink="http://www.w3.org/1999/xlink">
    <!-- Generator: Sketch 55.2 (78181) - https://sketchapp.com -->
    <title>Loading/圆形-蓝色</title>
    <desc>Created with Sketch.</desc>
    <g id="页面1" stroke="none" stroke-width="1" fill="none" fill-rule="evenodd">
        <g id="同步中" transform="translate(-979.000000, -347.000000)" fill="#3A84FF" fill-rule="nonzero">
            <g id="编组" transform="translate(110.000000, 168.000000)">
                <g id="Loading/圆形-蓝色" transform="translate(868.037297, 178.066667)">
                    <path d="M3.1109127,4.1109127 L3.1109127,3.6109127 C3.1109127,3.05862795 3.55862795,2.6109127 4.1109127,2.6109127 C4.66319745,2.6109127 5.1109127,3.05862795 5.1109127,3.6109127 L5.1109127,4.1109127 L5.1109127,4.6109127 C5.1109127,5.16319745 4.66319745,5.6109127 4.1109127,5.6109127 C3.55862795,5.6109127 3.1109127,5.16319745 3.1109127,4.6109127 L3.1109127,4.1109127 Z" id="8" opacity="0.100000001" transform="translate(4.110913, 4.110913) rotate(-225.000000) translate(-4.110913, -4.110913) "></path>
                    <path d="M1.5,8 L1.5,7.5 C1.5,6.94771525 1.94771525,6.5 2.5,6.5 C3.05228475,6.5 3.5,6.94771525 3.5,7.5 L3.5,8 L3.5,8.5 C3.5,9.05228475 3.05228475,9.5 2.5,9.5 C1.94771525,9.5 1.5,9.05228475 1.5,8.5 L1.5,8 Z" id="7" opacity="0.149999991" transform="translate(2.500000, 8.000000) rotate(-270.000000) translate(-2.500000, -8.000000) "></path>
                    <path d="M3.1109127,11.8890873 L3.1109127,11.3890873 C3.1109127,10.8368025 3.55862795,10.3890873 4.1109127,10.3890873 C4.66319745,10.3890873 5.1109127,10.8368025 5.1109127,11.3890873 L5.1109127,11.8890873 L5.1109127,12.3890873 C5.1109127,12.941372 4.66319745,13.3890873 4.1109127,13.3890873 C3.55862795,13.3890873 3.1109127,12.941372 3.1109127,12.3890873 L3.1109127,11.8890873 Z" id="6" opacity="0.300000012" transform="translate(4.110913, 11.889087) rotate(-315.000000) translate(-4.110913, -11.889087) "></path>
                    <path d="M7,13.5 L7,13 C7,12.4477153 7.44771525,12 8,12 C8.55228475,12 9,12.4477153 9,13 L9,13.5 L9,14 C9,14.5522847 8.55228475,15 8,15 C7.44771525,15 7,14.5522847 7,14 L7,13.5 Z" id="5" opacity="0.449999988"></path>
                    <path d="M10.8890873,11.8890873 L10.8890873,11.3890873 C10.8890873,10.8368025 11.3368025,10.3890873 11.8890873,10.3890873 C12.441372,10.3890873 12.8890873,10.8368025 12.8890873,11.3890873 L12.8890873,11.8890873 L12.8890873,12.3890873 C12.8890873,12.941372 12.441372,13.3890873 11.8890873,13.3890873 C11.3368025,13.3890873 10.8890873,12.941372 10.8890873,12.3890873 L10.8890873,11.8890873 Z" id="4" opacity="0.600000024" transform="translate(11.889087, 11.889087) rotate(-225.000000) translate(-11.889087, -11.889087) "></path>
                    <path d="M12.5,8 L12.5,7.5 C12.5,6.94771525 12.9477153,6.5 13.5,6.5 C14.0522847,6.5 14.5,6.94771525 14.5,7.5 L14.5,8 L14.5,8.5 C14.5,9.05228475 14.0522847,9.5 13.5,9.5 C12.9477153,9.5 12.5,9.05228475 12.5,8.5 L12.5,8 Z" id="3" opacity="0.75" transform="translate(13.500000, 8.000000) rotate(-270.000000) translate(-13.500000, -8.000000) "></path>
                    <path d="M10.8890873,4.1109127 L10.8890873,3.6109127 C10.8890873,3.05862795 11.3368025,2.6109127 11.8890873,2.6109127 C12.441372,2.6109127 12.8890873,3.05862795 12.8890873,3.6109127 L12.8890873,4.1109127 L12.8890873,4.6109127 C12.8890873,5.16319745 12.441372,5.6109127 11.8890873,5.6109127 C11.3368025,5.6109127 10.8890873,5.16319745 10.8890873,4.6109127 L10.8890873,4.1109127 Z" id="2" opacity="0.900000036" transform="translate(11.889087, 4.110913) rotate(-315.000000) translate(-11.889087, -4.110913) "></path>
                    <path d="M7,2.5 L7,2 C7,1.44771525 7.44771525,1 8,1 C8.55228475,1 9,1.44771525 9,2 L9,2.5 L9,3 C9,3.55228475 8.55228475,4 8,4 C7.44771525,4 7,3.55228475 7,3 L7,2.5 Z" id="1"></path>
                </g>
            </g>
        </g>
    </g>
</svg>