<?xml version="1.0" encoding="UTF-8"?>
<svg width="16px" height="14px" viewBox="0 0 16 14" version="1.1" xmlns="http://www.w3.org/2000/svg" xmlns:xlink="http://www.w3.org/1999/xlink">
    <!-- Generator: Sketch 55.2 (78181) - https://sketchapp.com -->
    <title>标签</title>
    <desc>Created with Sketch.</desc>
    <g id="服务目录" stroke="none" stroke-width="1" fill="none" fill-rule="evenodd">
        <g id="切换服务商" transform="translate(-632.000000, -193.000000)" fill="#979BA5" fill-rule="nonzero">
            <g id="编组-6" transform="translate(632.000000, 188.000000)">
                <g id="标签">
                    <path d="M14.5779338,5.5 L11.2597793,5.5 C10.477643,5.5 9.3852295,5.95248369 8.83216425,6.50554894 L3.25890909,12.0788041 C2.70587347,12.6318397 2.70587347,13.5368367 3.25890909,14.089902 L7.41009805,18.2410317 C7.96313366,18.7940969 8.86813066,18.7940969 9.42119591,18.2410317 L14.9943918,12.6678358 C15.5475163,12.1147705 16,11.022357 16,10.2402207 L16,6.92206619 C16,6.13992978 15.3600702,5.5 14.5779338,5.5 L14.5779338,5.5 Z M12.6818455,10.2402207 C11.8964502,10.2402207 11.2597793,9.60354975 11.2597793,8.81815444 C11.2597793,8.03275914 11.8964502,7.39608825 12.6818455,7.39608825 C13.4672408,7.39608825 14.1039117,8.03275914 14.1039117,8.81815444 C14.1039117,9.60354975 13.4672408,10.2402207 12.6818455,10.2402207 L12.6818455,10.2402207 Z M1.1664572,13.4194866 L6.23816741,18.4911968 C5.70098191,18.7750175 5.01664216,18.6917674 4.56596569,18.2410317 L0.414776719,14.089902 C-0.138258906,13.5368367 -0.138258906,12.6318397 0.414776719,12.0788041 L5.98803184,6.50554894 C6.54109709,5.95248369 7.63351059,5.5 8.415647,5.5 L1.1664572,12.7491602 C0.982121875,12.9335251 0.982121875,13.2351513 1.1664572,13.4194866 L1.1664572,13.4194866 Z"></path>
                </g>
            </g>
        </g>
    </g>
</svg>