<?xml version="1.0" encoding="utf-8"?>
<!-- Generator: Adobe Illustrator 22.0.1, SVG Export Plug-In . SVG Version: 6.00 Build 0)  -->
<svg version="1.1" id="图层_1" xmlns="http://www.w3.org/2000/svg" xmlns:xlink="http://www.w3.org/1999/xlink" x="0px" y="0px"
	 viewBox="0 0 1000 1000" style="enable-background:new 0 0 1000 1000;" xml:space="preserve">
<style type="text/css">
	.st0{fill:#FFFFFF;}
	.st1{fill:url(#SVGID_1_);}
</style>
<circle class="st0" cx="112.2" cy="112.5" r="71.1"/>
<linearGradient id="SVGID_1_" gradientUnits="userSpaceOnUse" x1="110.7219" y1="781.9062" x2="110.7219" y2="990.2505" gradientTransform="matrix(1 0 0 -1 0 1000)">
	<stop  offset="1.652257e-03" style="stop-color:#42C0FF"/>
	<stop  offset="1" style="stop-color:#3C96FF"/>
</linearGradient>
<path class="st1" d="M191.9,52.7l-68.7-39.7c-7.7-4.4-17.1-4.4-24.9,0L29.6,52.7c-7.7,4.4-12.4,12.7-12.4,21.6v79.3
	c0,8.9,4.7,17.1,12.4,21.5l68.7,39.7c7.7,4.4,17.1,4.4,24.9,0l68.7-39.7c7.7-4.4,12.4-12.7,12.4-21.5V74.2
	C204.3,65.3,199.5,57.2,191.9,52.7z M163.7,136.9c0,4.7-2.5,9-6.6,11.3l-39.9,23c-4,2.3-9,2.3-13.1,0l-39.8-23
	c-4-2.3-6.6-6.6-6.6-11.3v-46c0-4.7,2.5-9,6.6-11.3l39.8-23c4-2.3,9-2.3,13.1,0l39.9,23c1.9,1.1,3.5,2.7,4.6,4.5l-25.5,14.7
	l-8.4-4.5l-11.9-6.9c-3.2-1.8-7.1-1.8-10.3,0l-15.2,8.8c-3.2,1.8-5.1,5.3-5.1,8.9v17.5c0,3.7,1.9,7.1,5.1,8.9l15.2,8.8
	c3.2,1.8,7.1,1.8,10.3,0l15.2-8.8c0.1,0,0.1-0.1,0.1-0.1l32.5-18.8L163.7,136.9L163.7,136.9z"/>
<g>
	<path class="st0" d="M258.8,77.1V66.3h30.9v-8.4h12.2v8.4h27.2v-8.4h12.2v8.4h30v10.8h-30v6.1h-12.2v-6.1h-27.2v5.6h-12.2v-5.6
		H258.8z M258.8,166.7v-9.8h11.7v-28.6h89.1v28.6h11.7v9.8H258.8z M267.7,122.1V88.8h11.7v33.3H267.7z M283.2,138.1v18.8h14.1v-18.8
		H283.2z M292.1,123.1V85.6h12.2v37.5H292.1z M316.5,123.1c-1.3-0.9-3.4-2.5-6.6-4.7c-1.6-0.9-2.7-1.7-3.3-2.3
		c7.8-9.1,13.4-19.4,16.9-30.9l12.2,1.9l-2.8,6.6h36.6v10.3h-40.8C325.2,110.1,321.2,116.5,316.5,123.1z M308.5,138.1v18.8h13.6
		v-18.8H308.5z M350.7,126.3c-6.9-5.6-13.3-10.3-19.2-14.1l7-7.5c8.1,5.6,14.7,10.2,19.7,13.6L350.7,126.3z M346.9,138.1h-13.6v18.8
		h13.6V138.1z"/>
	<path class="st0" d="M382.1,98.7c-1.6-4.4-3.1-8-4.7-10.8c6.6-8.4,12.2-18.4,16.9-30l10.8,1.4c-0.3,0.9-0.8,2.2-1.4,3.8
		c-0.3,0.6-1.1,2.3-2.3,5.2h18.8v9.4l-7,12.7h11.2v54.4H383V97.8L382.1,98.7z M431.3,163.8c-2.5-2.2-5.2-4.2-8-6.1
		c0,1.2,0,2.3,0,3.3c-15.9,1.6-30.5,3-43.6,4.2l-1.4-9.8c6.9-0.6,18.9-1.6,36.1-2.8c4.1-0.3,7-0.6,8.9-0.9c0,2.2,0,3.9,0,5.2
		c5.6-6.9,10.5-14.4,14.5-22.5l9.4,5.2C443.5,146.3,438.2,154.5,431.3,163.8z M409.3,78.1h-13.1c-2.2,4.4-4.7,8.4-7.5,12.2h14.1
		L409.3,78.1z M391.9,99.6v13.6h8V99.6H391.9z M391.9,121.7v13.6h8v-13.6H391.9z M415.8,99.6h-8v13.6h8V99.6z M407.9,121.7v13.6h8
		v-13.6H407.9z M427.6,81.8V71h26.2c-0.3-1.2-0.9-3.3-1.9-6.1c-0.9-2.5-1.7-4.4-2.3-5.6l12.7-1.4c0.3,0.9,0.8,2.2,1.4,3.8
		c1.6,4.1,2.5,7.2,2.8,9.4h25.3v10.8H427.6z M441.2,169c-0.6-3.8-1.4-7.5-2.3-11.2c1.2,0,3,0.2,5.2,0.5c2.2,0,3.8,0,4.7,0
		c3.8,0,5.6-1.7,5.6-5.2v-24.8h-21.1V91.7h52v36.6h-19.7v28.6c0,7.8-3.8,11.9-11.2,12.2C450.5,169,446.2,169,441.2,169z
		 M444.4,101.5v16.4H474v-16.4H444.4z M483.3,162.9c-0.3-0.9-0.9-2.2-1.9-3.8c-4.4-8.1-8.3-14.8-11.7-20.2l9.4-4.7
		c1.9,3.4,2.5,4.7,1.9,3.8c5,8.4,9.1,15,12.2,19.7L483.3,162.9z"/>
	<path class="st0" d="M499.3,73.8V64h59.1v9.8h-15.5v14.1h13.6v81.6h-10.3v-6.6h-34.2v6.6h-9.8V87.9h13.6V73.8H499.3z M511,97.3V124
		c5.3-5.6,7.8-14.2,7.5-25.8v-0.9H511z M541.9,124c-6.3,0-9.4-3.3-9.4-9.8V97.3H526v0.5c0.6,13.1-2,23.4-8,30.9
		c-0.3,0-0.6-0.3-0.9-0.9c-2.5-1.6-4.2-2.7-5.2-3.3v9.4h34.2V124H541.9z M511.9,142.7v11.7h34.2v-11.7H511.9z M526,73.8v14.1h6.6
		V73.8H526z M547.6,97.3h-8v13.6c-0.3,4.1,1.4,5.9,5.2,5.6h2.8V97.3z M576.2,114.2v34.2c-0.3,5.6,2.5,8.3,8.4,8h5.6
		c5.6,0.3,8.7-2.2,9.4-7.5c0.9-4.7,1.6-10.3,1.9-16.9c1.6,0.6,4.2,1.4,8,2.3c1.2,0.3,2.2,0.6,2.8,0.9c-0.3,3.8-0.8,8.3-1.4,13.6
		c-0.3,2.2-0.5,3.8-0.5,4.7c-1.3,9.1-7.2,13.4-17.8,13.1h-11.7c-10.9,0.3-16.3-4.7-15.9-15v-48.7h29.5V75.2h-30.9V64.5h42.2v49.7
		H576.2z"/>
	<path class="st0" d="M620.7,101.5v-8h47.8v-6.1h12.7v6.1H729v8h-47.8v6.1h36.1v51.1h14.5v8H618.3v-8h14.5v-51.1h35.6v-6.1H620.7z
		 M625.8,86.5V62.6h98v23.9H625.8z M638,70.1V79h16.9v-8.9H638z M645.1,115.1v6.1h60v-6.1H645.1z M645.1,127.7v6.1h60v-6.1H645.1z
		 M645.1,140.4v6.1h60v-6.1H645.1z M645.1,153.5v5.2h60v-5.2H645.1z M666.6,70.1V79h16.9v-8.9H666.6z M712.1,70.1h-17.3V79h17.3
		V70.1z"/>
	<path class="st0" d="M744.4,75.7V63.5h101.2v12.2h-44.1v44.5h49.7v12.2h-49.7v38h-13.1v-38h-49.7v-12.2h49.7V75.7H744.4z
		 M768.3,114.6c-6.6-8.4-13.4-16.7-20.6-24.8l9.4-7.5c7.5,7.8,14.5,15.9,21.1,24.4L768.3,114.6z M819.9,115.1l-9.4-8
		c6.9-6.9,14.1-15.2,21.6-24.8l9.8,7C834.7,98.4,827.4,107,819.9,115.1z"/>
	<path class="st0" d="M961.5,113.2c-2.8-3.1-5.6-6.1-8.4-8.9c-32.8,0.6-56.2,1.3-70.3,1.9c-6.6,0.6-11.9,1.4-15.9,2.3l-6.1-12.7
		c4.4-1.6,8.6-4.1,12.7-7.5c11.9-10,22.3-20.3,31.4-30.9l14.1,6.1c-0.6,0.6-1.6,1.4-2.8,2.3c-13.8,12.8-24.7,22.5-32.8,29.1
		l59.5-1.9L928.7,79l9.4-7c13.1,12.2,24.4,23.3,33.8,33.3L961.5,113.2z M871.9,170.4v-52.5h86.2v52.5h-13.1v-7.5h-60.5v7.5H871.9z
		 M884.6,129.2v23.4h60.5v-23.4H884.6z"/>
</g>
</svg>
