<?xml version="1.0" encoding="UTF-8"?>
<svg width="12px" height="12px" viewBox="0 0 12 12" version="1.1" xmlns="http://www.w3.org/2000/svg" xmlns:xlink="http://www.w3.org/1999/xlink">
    <!-- Generator: Sketch 55.2 (78181) - https://sketchapp.com -->
    <title>日志</title>
    <desc>Created with Sketch.</desc>
    <g id="页面1" stroke="none" stroke-width="1" fill="none" fill-rule="evenodd">
        <g id="同步失败" transform="translate(-983.000000, -264.000000)" fill="#63656E" fill-rule="nonzero">
            <g id="编组-2" transform="translate(982.796576, 261.002686)">
                <path d="M11.0150018,14.9495129 L1.40017669,14.9495129 C1.17915853,14.9495129 1,14.7956213 1,14.6057736 L1,3.34373927 C1,3.15389158 1.17917452,3 1.40017669,3 L11.0149858,3 C11.236004,3 11.4151625,3.15390531 11.4151625,3.34373927 L11.4151625,14.6057736 C11.4151625,14.7956213 11.23602,14.9495129 11.0150018,14.9495129 Z M1.80035336,14.1491435 L10.6148092,14.1491435 L10.6148092,3.73398098 L1.80035336,3.73398098 L1.80035336,14.1491435 Z M9.26687506,8.25279523 L3.21019748,8.25279523 C2.98917933,8.25279523 2.8100208,8.07362072 2.8100208,7.85261855 C2.8100208,7.63161637 2.98919531,7.45244186 3.21019748,7.45244186 L9.26685906,7.45244186 C9.48787722,7.45244186 9.66703575,7.63161637 9.66703575,7.85261855 C9.66703575,8.07362072 9.4878932,8.25279523 9.26687506,8.25279523 Z M9.26687506,6.00681402 L3.21019748,6.00681402 C2.98917933,6.00681402 2.8100208,5.8276395 2.8100208,5.60663733 C2.8100208,5.38563516 2.98919531,5.20646064 3.21019748,5.20646064 L9.26685906,5.20646064 C9.48787722,5.20646064 9.66703575,5.38563516 9.66703575,5.60663733 C9.66703575,5.8276395 9.4878932,6.00681402 9.26687506,6.00681402 Z M9.26687506,10.4987765 L3.21019748,10.4987765 C2.98917933,10.4987765 2.8100208,10.3196179 2.8100208,10.0985998 C2.8100208,9.87758162 2.98919531,9.69842309 3.21019748,9.69842309 L9.26685906,9.69842309 C9.48787722,9.69842309 9.66703575,9.87758162 9.66703575,10.0985998 C9.66703575,10.3196179 9.4878932,10.4987765 9.26687506,10.4987765 Z M9.26687506,12.7447577 L3.21019748,12.7447577 C2.98917933,12.7447577 2.8100208,12.5655992 2.8100208,12.344581 C2.8100208,12.1235628 2.98919531,11.9444043 3.21019748,11.9444043 L9.26685906,11.9444043 C9.48787722,11.9444043 9.66703575,12.1235628 9.66703575,12.344581 C9.66703575,12.5655992 9.4878932,12.7447577 9.26687506,12.7447577 Z" id="日志"></path>
            </g>
        </g>
    </g>
</svg>