<svg xmlns="http://www.w3.org/2000/svg" viewBox="0 0 636 832"><title>资源 263</title><g id="图层_2" data-name="图层 2"><g id="图层_4" data-name="图层 4"><rect x="129.27" y="385.44" width="63" height="65" rx="12" ry="12"/><path d="M266.27,190.44h104a12,12,0,0,0,12-12v-41a12,12,0,0,0-12-12h-104a12,12,0,0,0-12,12v41A12,12,0,0,0,266.27,190.44Z"/><rect x="129.27" y="123.44" width="69" height="65" rx="12" ry="12"/><rect x="255.27" y="385.44" width="127" height="65" rx="12" ry="12"/><rect x="129.27" y="635.44" width="63" height="65" rx="12" ry="12"/><path d="M604,0H32A32.09,32.09,0,0,0,0,32V800a32.09,32.09,0,0,0,32,32H604a32.09,32.09,0,0,0,32-32V32A32.09,32.09,0,0,0,604,0ZM445.27,767H64.5V575.44H445.27Zm0-255.56H64.5v-192H445.27Zm0-256H64.5V65H445.27Z"/><rect x="255.27" y="635.44" width="127" height="65" rx="12" ry="12"/></g></g></svg>