<svg xmlns="http://www.w3.org/2000/svg" viewBox="0 0 894.32 760.18"><title>资源 305</title><g id="图层_2" data-name="图层 2"><g id="图层_4" data-name="图层 4"><path d="M447.16,631.71c-46.57,0-250.86-247.84-250.86-384.43S308.63,0,447.16,0,698,110.72,698,247.28,499.32,631.71,447.16,631.71ZM562.64,234.36c0-62.87-51.69-113.85-115.48-113.85s-115.48,51-115.48,113.85S383.37,348.2,447.16,348.2s115.48-51,115.48-113.84ZM177.75,503.21,0,715.44H363.63s27.34,18.87,34.83,23.14c7.05,4,36.27,20.43,47.4,21.39.05,0,.09.21.11.21.28,0,.68-.1,1-.1s.71.12,1,.1c0,0,0-.21.09-.23,11.15-.89,40.8-17.33,47.87-21.37,7.49-4.3,34.83-23.14,34.83-23.14H894.32L716.58,503.21H655.85l123.7,166H511.1s-20.92,14.45-26.67,17.73c-5.41,3.11-28.1,15.65-36.67,16.39l0,10.14a5,5,0,0,1-.74-.07,4.73,4.73,0,0,1-.73.07s-.05-.14-.1-.16c-8.49-.72-30.87-23.26-36.28-26.37-5.75-3.28-26.67-17.73-26.67-17.73H114.72l123.75-166H177.75Z"/></g></g></svg>