<?xml version="1.0" encoding="UTF-8"?>
<svg width="24px" height="26px" viewBox="0 0 24 26" version="1.1" xmlns="http://www.w3.org/2000/svg" xmlns:xlink="http://www.w3.org/1999/xlink">
    <!-- Generator: Sketch 55.2 (78181) - https://sketchapp.com -->
    <title>模型</title>
    <desc>Created with Sketch.</desc>
    <g id="页面1" stroke="none" stroke-width="1" fill="none" fill-rule="evenodd">
        <g id="统计首页" transform="translate(-944.000000, -121.000000)" fill-rule="nonzero">
            <g id="编组-2" transform="translate(721.000000, 82.000000)">
                <g id="编组" transform="translate(205.000000, 22.000000)">
                    <g id="模型" transform="translate(17.000000, 17.000000)">
                        <rect id="矩形" fill="#000000" opacity="0" x="0" y="0" width="26" height="26"></rect>
                        <path d="M2.19673883,6.21814956 L12.5264866,0.254254457 C12.8137876,0.0883811455 13.167757,0.0883811455 13.455058,0.254254457 L23.7848348,6.21814956 C24.0721375,6.38402384 24.2491205,6.69057288 24.2491205,7.02232144 L24.2491205,18.9501116 C24.2491205,19.2818498 24.0721285,19.5883854 23.7848348,19.7542545 L13.455058,25.7181496 C13.167757,25.8840229 12.8137876,25.8840229 12.5264866,25.7181496 L2.19670981,19.7542545 C1.90941611,19.5883854 1.7324241,19.2818498 1.7324241,18.9501116 L1.7324241,7.02232144 C1.7324241,6.69057288 1.90940714,6.38402385 2.19670981,6.21814956 L2.19673883,6.21814956 Z M12.9811384,12.0326897 L5.85658706,7.91932144 C5.41246875,7.66289062 4.84456027,7.81508927 4.58812946,8.25920758 C4.33169867,8.7033259 4.48389731,9.27123438 4.92801562,9.52766519 L12.0714286,13.6519152 L12.0714286,21.7924107 C12.0714286,22.3052433 12.4871674,22.7209821 13,22.7209821 C13.5128326,22.7209821 13.9285714,22.3052433 13.9285714,21.7924107 L13.9285714,13.6301518 L21.0594196,9.51315625 C21.503538,9.25672546 21.6557076,8.68881698 21.3993058,8.24469867 C21.142875,7.80058035 20.5749665,7.64841071 20.1308482,7.9048125 L12.9811384,12.0326897 Z" id="形状" fill="#FFFFFF"></path>
                    </g>
                </g>
            </g>
        </g>
    </g>
</svg>