<svg xmlns="http://www.w3.org/2000/svg" viewBox="0 0 868.21 762.85"><title>资源 261</title><g id="图层_2" data-name="图层 2"><g id="图层_4" data-name="图层 4"><path d="M194.9,303.07q4.47-8.94,2.68-21T183.28,262q-3.59-1.79-14.76-8.94T141.7,236q-15.64-9.83-33.08-21T75.1,194Q59,184.18,47.38,176.57T31.29,166.29q-13.41-9.84-22.35-4.92T0,185.06V515.85a145.19,145.19,0,0,0,4.47,36.21,75.5,75.5,0,0,0,6,15.79C28.31,540.42,180.53,333.6,184.17,326.32Q191.33,312,194.9,303.07Z"/><path d="M16.09,82.25l365.66,219a252.75,252.75,0,0,0,24.14,13q10.73,4.92,16.09,4.92,4.47-.9,17.43-7.15t21.91-9.84L827,82.25q12.51-9.84,14.3-13t1.79-11.18l-.9-9.83q0-22.35-11.62-34.87T789.43.9L52.75,0Q24.13,0,12.52,13.41T.89,50.07v8q0,8.05,2.69,12.52T16.09,82.25Z"/><path d="M571.86,365.35l-6.92-13.05a23.36,23.36,0,0,0-32.06-9.45c-4.81,2.69-23.49,13.34-27.31,15.66l-27.26,16.54q-12.53,7.59-17,10.27a76,76,0,0,1-13.41,5.81,80.22,80.22,0,0,1-20.12,4,101.82,101.82,0,0,1-23.24-.9,55.28,55.28,0,0,1-22.8-8.94l-24.14-16.09q-13.41-8.94-26.38-17.43t-23.68-15.65q-10.74-7.15-17-10.73-9.84-5.35-22.8-2.23t-21,10.28q-4.47,2.68-16.54,15.65C224,355.79,62.9,570,36.48,596.44a103.68,103.68,0,0,0,16.27,8.37q20.57,8.49,52.74,8.49l342.82.89c0-27.77-8.67-111.21,48-186.77C516.32,400.73,549.6,378.49,571.86,365.35Z"/><path d="M832.79,160.48q-9.39-2.23-26.38,8.49-5.37,3.57-17.88,11.62T761.26,198q-14.75,9.38-31.29,20.11t-30.4,19.67q-13.85,8.94-23.24,15.2c-3.76,2.51-14.89,12.15-34.56,25.14a32.55,32.55,0,0,0-11.18,41.73l10,20.1c27-7.12,46.29-9.15,84-4,44,6,94.73,36.51,117.67,59.44l-.14-220.19Q842.17,162.72,832.79,160.48Z"/><path d="M856.15,623.16,827.8,606.64A153.6,153.6,0,0,0,830.38,580a155.54,155.54,0,0,0-2.58-26.61l28.35-16.52A24.41,24.41,0,0,0,865,503.64L840.9,461.58a24.28,24.28,0,0,0-33.08-9l-28.57,16.52a146.31,146.31,0,0,0-45.32-26.82v-20.6a24.05,24.05,0,0,0-24-24.25H661.33a24.19,24.19,0,0,0-24.05,24.25v20.6c-17,6-32,15.45-45.33,26.82l-28.56-16.52a24.1,24.1,0,0,0-33.08,9L506,503.85a24.45,24.45,0,0,0,8.8,33.26l28.36,16.52a152.62,152.62,0,0,0-2.58,26.61,154.54,154.54,0,0,0,2.58,26.61l-28.36,16.52a24.41,24.41,0,0,0-8.8,33.26l24.05,42.06a24.27,24.27,0,0,0,33.08,9l28.57-16.52A146.35,146.35,0,0,0,637.06,718v20.6a24.05,24.05,0,0,0,24.06,24.25h48.33a24.19,24.19,0,0,0,24-24.25V718c17-6,32-15.45,45.32-26.82l28.57,16.52a24.09,24.09,0,0,0,33.08-9l24.06-42.06C871.62,644.62,867.75,629.81,856.15,623.16ZM685.5,664.44a84.31,84.31,0,1,1,84.39-84.3A84.35,84.35,0,0,1,685.5,664.44Z"/></g></g></svg>