<svg xmlns="http://www.w3.org/2000/svg" viewBox="0 0 894 704"><title>资源 321</title><g id="图层_2" data-name="图层 2"><g id="图层_4" data-name="图层 4"><path d="M862,0H478a32.09,32.09,0,0,0-32,32V64H382V33A32,32,0,0,0,350,1h0a32,32,0,0,0-32,32V64H254V33A32,32,0,0,0,222,1h0a32,32,0,0,0-32,32V64H127V32A32,32,0,0,0,95,0h0A32,32,0,0,0,63,32V64H32A32.09,32.09,0,0,0,0,96V672H0a32,32,0,0,0,32,32H505.48c17.67,0,30.52-14.33,30.52-32h0c0-17.67-12.85-32-30.52-32H64V568H449V671a32.09,32.09,0,0,0,32,32H862a32,32,0,0,0,32-32V32A32.09,32.09,0,0,0,862,0ZM350,418H158V225H350ZM510,128H829v64H510Zm0,128H829v64H510Zm64,385H510V577h64Zm129,0H639V577h64Zm127,0H766V577h64Z"/><rect x="223" y="289" width="65" height="63"/></g></g></svg>