<svg xmlns="http://www.w3.org/2000/svg" viewBox="0 0 890.63 769.68"><title>资源 284</title><g id="图层_2" data-name="图层 2"><g id="图层_4" data-name="图层 4"><path d="M316.41,0C141.77,0,0,52.06,0,116.66v93.1C0,274,141.45,326.43,316.41,326.43c174.63,0,316.4-52.06,316.4-116.67v-93.1C632.81,52.06,491,0,316.41,0Z"/><path d="M562.07,356c-57.9,23.47-152.87,40.36-245.66,40.36h0C141.77,396.35,0,344.29,0,279.69V419.53c0,64.22,141.45,116.66,316.41,116.66,93.94,0,181.69-17.22,239.66-41.2-1.15,2.81-9.8-35.17-7-76C551.8,379.09,562.07,356,562.07,356Z"/><path d="M316.41,606.12C141.77,606.12.32,554.05.32,489.45V629.3C.32,693.52,141.77,746,316.73,746c152.81,0,280.45-39.86,310-93.1C604.07,622,594.07,604,576.07,557c-57.9,27.9-157.12,49.13-259.66,49.13Z"/><path d="M885.39,388C852.1,241.47,773.59,193.32,765.16,174.9c-9.28-13-19.32-37.74-19.32-37.74l-.13,1.29v.34h0c0,.34-.08.69-.11,1v.4h-.05l0,.68v.68h-.08a6,6,0,0,1-.08.66v.56h0a1.66,1.66,0,0,1-.06.55v.53h-.05l0,.84v.05l-.24,1.32v.21h-.05l-.08.32v.45h-.08v.58h-.13v.47h-.13v.56h-.11v.5h-.1v.44H744V150h-.11v.48h-.1v.37h-.13v.34h-.08v.39h-.11l0,.11v.26h-.07l0,.16v.16h-.05a1.1,1.1,0,0,0-.06.26l-.26.56v0a.59.59,0,0,0-.13.18v.21h-.11v.21h-.13v.21h-.08v.27h-.15v.37h-.11v.1h-.11v.21h-.1v.29H742v.22h-.15v.28h-.11v.22h-.13v.21h-.08v.26h-.13v.21h-.11v.16h-.1V157H741v.24h-.11v.15h-.13v.21h-.11v.29h-.13V158h-.08v.21h-.15v.11h-.11v.26h-.1v.11H740v.21h-.13V159h-.08l0,.1v.11h-.06l0,.1v0h0a.32.32,0,0,1-.1.18v.08h0l-.31.48v0a1,1,0,0,0-.24.26v.06h0l-.08.08v.08h0l-.08.07v0h0l-.07.11v.1h-.08l-.06.06v0h0c0,.05-.05.05-.05.08v.08h-.11l-.05.08v.15h-.08v.11H738v.16h-.11v.21h-.13v-.21h-.13v.1h-.11v.16h-.13v.21h-.13v.11h-.11v.15H737v.11h-.11v.21h-.16v.11h-.1V163h-.13v.11h-.11v.13h-.13v.26h0v.11h-.16v.13H736v.06h-.1v.1h-.13v.26h-.11v.11h-.13v.11h-.11v.15h-.13v.11h-.13v.1H735v.11h-.1v.26h-.11v.14h-.15v.1h-.11v.11h-.13v.15h-.11v.11h-.13v.19h-.1v.1h-.16v.16h0v.1h-.11v.11h-.13v.1h-.11v.16h-.13v.11h-.08l0,.05v.05h0l-.1.11L733,167v.16h-.1v.13h-.11v.1h-.11v.11h-.07l-.08.08v.08h-.06l-.05,0v.08h0a2.79,2.79,0,0,1-.37.42,10.21,10.21,0,0,0-1.35,1.11l-.57.45v0h0l-1.29,1v0l-2,1.64v0h-.06c-1.5,1.24-3.08,2.64-4.9,4.19v0h0c-4.46,3.9-9.75,8.91-15.68,15l-.4.4-.1.1c-35.85,37.08-92.33,114.35-98.28,239.23a272.43,272.43,0,0,0,.16,30.15v.23C610.4,511,625.84,553,645.16,587.12v0a330.19,330.19,0,0,0,24.4,37v0c29.05,38.35,58.7,61.07,66.26,66.57,11.63,27,10.54,73.25,10.54,73.25l17,5.66s-3.46-44.83,1.39-66.47a41.11,41.11,0,0,1,9.2-17.44,222.6,222.6,0,0,0,21-17c.47-.5.73-.95,1.16-1.43,40.08-37.37,115-129.4,89.29-279.33Z"/></g></g></svg>