<?xml version="1.0" encoding="utf-8"?>
<!-- Generator: Adobe Illustrator 21.1.0, SVG Export Plug-In . SVG Version: 6.00 Build 0)  -->
<svg version="1.1" id="图层_1" xmlns="http://www.w3.org/2000/svg" xmlns:xlink="http://www.w3.org/1999/xlink" x="0px" y="0px"
	 viewBox="0 0 18 18" style="enable-background:new 0 0 18 18;" xml:space="preserve">
<path d="M12.8,4.7c0,0-3.2,0.2-4.3,0.2C7.7,4.9,7.4,4.4,8,3.8c0.5-0.5,0.6-0.6,0.6-1.4C8.4,1.3,7.4,1,6.6,1C5.7,1,4.8,1.5,4.5,2.3
	C4.3,2.8,4.3,3.3,4.8,3.7C5,3.9,5.6,4.2,5,4.7C4.6,4.9,1.1,4.6,1.1,4.6s-0.2,2.9,0,3.8c0.1,0.5,0.7,0.7,1.1,0.2
	c0.6-0.8,2.3-0.3,2.4,1.3c0.1,1.6-1.7,1.9-2.1,1.3c-0.4-0.6-1.4-0.7-1.4,0c-0.1,1.2,0.5,5,0.5,5s2.3,0.5,3.4,0.4
	C5.4,16.4,6,16,5.1,15.2c-0.4-0.4-0.5-2.2,1.7-2c1.7,0.2,1.4,1.6,1,1.9c-0.4,0.2-0.4,1,0.5,1.2c1.2,0.3,4.7-0.4,4.7-0.4
	s-0.5-2.8-0.3-3.7c0.2-1,1.3-0.4,1.5-0.2c0.9,1,2.8,0.5,2.9-1.5c0-2.5-1.6-3.1-3-1.7c-0.6,0.6-1,0.5-1.3,0.1C12,8,12.8,4.7,12.8,4.7
	L12.8,4.7z M12.8,4.7"/>
</svg>
