<?xml version="1.0" encoding="UTF-8"?>
<svg width="16px" height="16px" viewBox="0 0 16 16" version="1.1" xmlns="http://www.w3.org/2000/svg" xmlns:xlink="http://www.w3.org/1999/xlink">
    <!-- Generator: Sketch 51.3 (57544) - http://www.bohemiancoding.com/sketch -->
    <title>收藏</title>
    <desc>Created with Sketch.</desc>
    <defs></defs>
    <g id="导航修改" stroke="none" stroke-width="1" fill="none" fill-rule="evenodd">
        <g id="删除收藏" transform="translate(-22.000000, -126.000000)" fill="#FFFFFF">
            <g id="Group" transform="translate(-1.000000, 0.000000)">
                <g id="侧边导航">
                    <g transform="translate(1.000000, 0.000000)" id="收藏">
                        <path d="M30.797042,140.100746 C30.3569226,139.858454 29.6399587,139.859902 29.2025291,140.100746 L26.1097386,141.80348 C25.229836,142.287966 24.6533398,141.844967 24.8207241,140.822712 L25.4112298,137.21646 C25.4953609,136.702771 25.2725927,135.989743 24.9184164,135.628251 L22.4165051,133.074357 C21.7045099,132.347657 21.92909,131.636448 22.9088702,131.487537 L26.3667084,130.961544 C26.8590175,130.886589 27.4378487,130.444118 27.6570491,129.979877 L29.203407,126.698813 C29.6435264,125.765186 30.3587345,125.768941 30.7966124,126.698813 L32.343045,129.979877 C32.5631047,130.446955 33.1441213,130.887137 33.633367,130.961544 L37.0911305,131.487537 C38.0750015,131.637368 38.292801,132.350473 37.5835143,133.074357 L35.0816591,135.628251 C34.7251478,135.992032 34.5050881,136.706057 34.5887709,137.21646 L35.1792953,140.822712 C35.347184,141.848703 34.766597,142.286049 33.8903555,141.80348 L30.797042,140.100746 Z"></path>
                    </g>
                </g>
            </g>
        </g>
    </g>
</svg>