<?xml version="1.0" encoding="UTF-8"?>
<svg width="16px" height="16px" viewBox="0 0 16 16" version="1.1" xmlns="http://www.w3.org/2000/svg" xmlns:xlink="http://www.w3.org/1999/xlink">
    <!-- Generator: Sketch 51.3 (57544) - http://www.bohemiancoding.com/sketch -->
    <title>Fill 1</title>
    <desc>Created with Sketch.</desc>
    <defs></defs>
    <g id="导航修改" stroke="none" stroke-width="1" fill="none" fill-rule="evenodd">
        <g id="删除收藏" transform="translate(-22.000000, -313.000000)" fill="#737987">
            <g id="Group" transform="translate(-1.000000, 0.000000)">
                <g id="侧边导航">
                    <path d="M38.9069464,328.457728 L37.1634847,326.714286 L36.7142857,327.163466 L38.4576892,328.907005 C38.519754,328.969015 38.6009874,329 38.6823178,329 C38.7636288,329 38.8448815,328.969015 38.9069464,328.907005 C39.0310179,328.782967 39.0310179,328.581805 38.9069464,328.457728 Z M34.4285714,321.548709 L32.1428571,321.548709 C32.5012515,321.282252 32.9323165,321.090532 33.405972,321 L34.4285714,321 L34.4285714,321.548709 Z M34.4285714,323.834401 L31.0044727,323.834401 C31.0015254,323.787705 31,323.740786 31,323.693464 C31,323.554785 31.0126425,323.41854 31.0368933,323.285714 L34.4285714,323.285714 L34.4285714,323.834401 Z M35.7100539,320.861375 C35.0625007,320.213734 34.2015295,319.857143 33.2857693,319.857143 C32.3699211,319.857143 31.5089279,320.213734 30.8613967,320.861375 C30.2138215,321.508928 29.8571429,322.369899 29.8571429,323.285681 C29.8571429,324.201529 30.2138215,325.062501 30.8613967,325.710054 C31.5089279,326.357607 32.3699211,326.714286 33.2857693,326.714286 C34.2015295,326.714286 35.0625007,326.357607 35.7100539,325.710054 C36.357695,325.062501 36.7142857,324.201529 36.7142857,323.285681 C36.7142857,322.369899 36.357695,321.508928 35.7100539,320.861375 Z M25.2857143,321.548709 L28.7142857,321.548709 L28.7142857,321 L25.2857143,321 L25.2857143,321.548709 Z M25.2857143,323.834423 L28.7142857,323.834423 L28.7142857,323.285714 L25.2857143,323.285714 L25.2857143,323.834423 Z M25.2857143,319.262972 L28.7142857,319.262972 L28.7142857,318.714286 L25.2857143,318.714286 L25.2857143,319.262972 Z M25.2857143,316.97728 L28.7142857,316.97728 L28.7142857,316.428571 L25.2857143,316.428571 L25.2857143,316.97728 Z M31.0000801,314.142857 L34.4285714,318.714286 L31.8375656,318.714286 C31.3757958,318.714286 31,318.219018 31,317.610203 L31,314.142857 L31.0000801,314.142857 Z M29.0327835,323.138265 C29.0327835,320.952385 30.7660016,319.180381 32.904149,319.180381 C33.9088373,319.180381 34.8241107,319.571738 35.5121905,320.213372 C35.5432894,318.877874 35.5714286,317.869726 35.5714286,317.869726 L31.3350475,313 L24.3164281,313 C23.5893782,313 23,313.642928 23,314.436057 L23,325.278207 C23,326.071358 23.5893782,326.714286 24.3164281,326.714286 L31.2432092,326.714286 C29.9363466,326.078638 29.0327835,324.71641 29.0327835,323.138265 Z" id="Fill-1"></path>
                </g>
            </g>
        </g>
    </g>
</svg>