<?xml version="1.0" encoding="UTF-8"?>
<svg width="52px" height="49px" viewBox="0 0 52 49" version="1.1" xmlns="http://www.w3.org/2000/svg" xmlns:xlink="http://www.w3.org/1999/xlink">
    <!-- Generator: Sketch 53.2 (72643) - https://sketchapp.com -->
    <title>无权限图标</title>
    <desc>Created with Sketch.</desc>
    <g id="有浮云合作开发" stroke="none" stroke-width="1" fill="none" fill-rule="evenodd">
        <g id="无业务权限页面" transform="translate(-759.000000, -190.000000)" fill="#979BA5">
            <g id="无权限图标" transform="translate(758.500000, 190.000000)">
                <g id="权限" transform="translate(0.519231, 0.000000)">
                    <g id="分组-2">
                        <path d="M44.287531,26.3146847 C43.2264711,25.9416815 42.1015063,25.7033122 40.9333684,25.6202048 C40.9336482,25.579968 40.9337882,25.5397276 40.9337882,25.4994843 L40.9337882,9.73916759 L22.145213,3.36046084 L3.35522854,9.73776042 L3.35522854,25.8737918 C3.35522854,32.4410595 7.11350727,38.9287085 13.3138921,41.7430508 L21.7689624,45.68313 L27.9524759,42.8533781 C28.3114268,43.8104277 28.7822454,44.7132254 29.3491066,45.5460253 L21.7019006,49.0421836 L11.7369963,44.4030581 C4.42939992,41.0893971 -9.9475983e-14,34.2417165 -9.9475983e-14,26.5092884 L-9.9475983e-14,7.51041278 L22.143678,3.19744231e-14 L22.1453388,0.00165683053 L44.2890168,7.51206961 L44.2890168,26.0685715 C44.2890168,26.1507048 44.2885208,26.2327436 44.287531,26.3146847 Z" id="合并形状" fill-rule="nonzero"></path>
                        <path d="M14.8102177,19.3769932 C14.8102177,22.9214237 17.2447626,25.7200266 20.429479,26.6533607 L20.429479,36.1686104 L24.1761215,36.1686104 L24.1761215,34.3033416 L26.0487404,34.3033416 L26.0487404,30.5714047 L24.1761215,30.5714047 L24.1761215,26.6533607 C27.3608379,25.907533 29.7953829,22.9214237 29.7953829,19.3769932 C29.7953829,15.2728421 26.4238261,11.9145187 22.3035027,11.9145187 C18.1831793,11.9145187 14.8116225,15.2728421 14.8116225,19.3769932 L14.8102177,19.3769932 Z M26.797507,19.3769932 C26.797507,21.8400156 24.7748257,23.8547578 22.3020979,23.8547578 C19.82937,23.8547578 17.8066888,21.8400156 17.8066888,19.3769932 C17.8066888,16.9139708 19.82937,14.8992286 22.3020979,14.8992286 C24.7748257,14.8992286 26.797507,16.9139708 26.797507,19.3769932 Z" id="形状" fill-rule="nonzero"></path>
                        <g id="Icon/常用图标/叉号" transform="translate(30.716576, 27.719495)">
                            <g id="分组-3" transform="translate(0.206854, 0.254095)">
                                <path d="M10.5082305,20.3578369 C4.98497111,20.3578369 0.507484732,15.9028069 0.507484732,10.4072489 C0.507484732,4.9116909 4.98497111,0.456660913 10.5082305,0.456660913 C16.0314898,0.456660913 20.5089762,4.9116909 20.5089762,10.4072489 C20.5089762,15.9028069 16.0314898,20.3578369 10.5082305,20.3578369 Z M14.0688937,5.90876456 L10.5079666,9.45183212 L6.94730342,5.90902704 L5.98707069,6.86444382 L9.54773392,10.4072489 L5.98707069,13.950054 L6.94800691,14.9061707 L10.5086701,11.3633656 L14.0688937,14.9057332 L15.0291264,13.9503165 L11.4689029,10.4079489 L15.0298299,6.86488129 L14.0688937,5.90876456 Z" id="合并形状"></path>
                            </g>
                        </g>
                    </g>
                </g>
            </g>
        </g>
    </g>
</svg>