<svg xmlns="http://www.w3.org/2000/svg" xmlns:xlink="http://www.w3.org/1999/xlink" viewBox="0 0 897.66 769.2"><defs><style>.cls-1{fill:none;}.cls-2{clip-path:url(#clip-path);}</style><clipPath id="clip-path" transform="translate(0 -0.53)"><rect class="cls-1" x="0.14" width="897.59" height="770.88"/></clipPath></defs><title>资源 268</title><g id="图层_2" data-name="图层 2"><g id="图层_4" data-name="图层 4"><g class="cls-2"><path d="M609.21,449.22H833.56a64.1,64.1,0,0,1,64.1,64.1V705.63a64.12,64.12,0,0,1-64.1,64.1H64.1A64.1,64.1,0,0,1,0,705.63V513.32a64.12,64.12,0,0,1,64.1-64.1h481V286.92a30,30,0,0,1,30.1-30h3.94a30.08,30.08,0,0,1,30.1,30v162.3ZM849.57,273C849.57,122.51,727.6.53,577.17.53S304.75,122.51,304.75,273a32.05,32.05,0,0,0,64.1,0c0-115.06,93.26-208.32,208.32-208.32S785.48,157.89,785.48,273a32,32,0,1,0,64.09,0Zm-128.19,0a144.22,144.22,0,0,0-288.44,0,32.06,32.06,0,0,0,64.11,0,80.12,80.12,0,0,1,160.24,0,32,32,0,1,0,64.09,0ZM160.53,641.51a32.06,32.06,0,1,0-32.05-32.06,32.07,32.07,0,0,0,32.05,32.06Zm256.39,0a32.06,32.06,0,1,0-32.05-32.06,32.07,32.07,0,0,0,32.05,32.06Zm-128.19,0a32.06,32.06,0,1,0-32.05-32.06,32.06,32.06,0,0,0,32.05,32.06Z" transform="translate(0 -0.53)"/></g></g></g></svg>