<?xml version="1.0" encoding="UTF-8"?>
<svg width="14px" height="13px" viewBox="0 0 14 13" version="1.1" xmlns="http://www.w3.org/2000/svg" xmlns:xlink="http://www.w3.org/1999/xlink">
    <!-- Generator: Sketch 51.3 (57544) - http://www.bohemiancoding.com/sketch -->
    <title>Shape</title>
    <desc>Created with Sketch.</desc>
    <defs></defs>
    <g id="Symbols" stroke="none" stroke-width="1" fill="none" fill-rule="evenodd" opacity="0.800000012">
        <g id="左侧导航栏---1920" transform="translate(-23.000000, -1047.000000)" fill="#FFFFFF" fill-rule="nonzero">
            <g id="iCons">
                <g transform="translate(22.000000, 80.000000)">
                    <g id="收起图标" transform="translate(8.000000, 973.500000) scale(-1, 1) translate(-8.000000, -973.500000) translate(1.000000, 967.000000)">
                        <path d="M8.96609085,5.66986564 C8.96609085,5.58925144 8.90339091,5.5265515 8.82277671,5.5265515 L0.429942418,5.5265515 C0.349328215,5.5265515 0.286628279,5.58925144 0.286628279,5.66986564 L0.286628279,6.64619322 C0.286628279,6.72680742 0.349328215,6.78950736 0.429942418,6.78950736 L8.83173385,6.78950736 C8.91234805,6.78950736 8.97504798,6.72680742 8.97504798,6.64619322 L8.97504798,5.66986564 L8.96609085,5.66986564 Z M0.143314139,12.325016 L13.8566859,12.325016 C13.9373001,12.325016 14,12.2623161 14,12.1817019 L14,11.2053743 C14,11.1247601 13.9373001,11.0620601 13.8566859,11.0620601 L0.143314139,11.0620601 C0.062699936,11.0620601 0,11.1247601 0,11.2053743 L0,12.1817019 C0.00895713372,12.2533589 0.0716570697,12.325016 0.143314139,12.325016 Z M0.143314139,1.26295585 L13.8566859,1.26295585 C13.9373001,1.26295585 14,1.20025592 14,1.11964171 L14,0.143314139 C14,0.062699936 13.9373001,0 13.8566859,0 L0.143314139,0 C0.062699936,0 0,0.062699936 0,0.143314139 L0,1.11964171 C0.00895713372,1.20025592 0.0716570697,1.26295585 0.143314139,1.26295585 Z M13.4715291,3.88739603 L10.7396033,6.03710813 C10.6589891,6.09980806 10.6589891,6.2162508 10.7396033,6.27895074 L13.4715291,8.43761996 C13.5700576,8.51823417 13.7223289,8.4465771 13.7223289,8.32117722 L13.7223289,4.01279591 C13.7223289,3.8784389 13.5700576,3.80678183 13.4715291,3.88739603 Z" id="Shape"></path>
                    </g>
                </g>
            </g>
        </g>
    </g>
</svg>