<?xml version="1.0" encoding="UTF-8"?>
<svg width="16px" height="16px" viewBox="0 0 16 16" version="1.1" xmlns="http://www.w3.org/2000/svg" xmlns:xlink="http://www.w3.org/1999/xlink">
    <!-- Generator: Sketch 51.3 (57544) - http://www.bohemiancoding.com/sketch -->
    <title>权限</title>
    <desc>Created with Sketch.</desc>
    <defs>
        <polygon id="path-1" points="6.43863179e-06 0.0156097561 11.4281915 0.0156097561 11.4281915 15.9999837 6.43863179e-06 15.9999837"></polygon>
    </defs>
    <g id="导航修改" stroke="none" stroke-width="1" fill="none" fill-rule="evenodd">
        <g id="删除收藏" transform="translate(-22.000000, -359.000000)">
            <g id="Group" transform="translate(-1.000000, 0.000000)">
                <g id="侧边导航">
                    <g transform="translate(1.000000, 0.000000)" id="权限">
                        <g transform="translate(22.000000, 359.000000)">
                            <g id="Group-3">
                                <mask id="mask-2" fill="white">
                                    <use xlink:href="#path-1"></use>
                                </mask>
                                <g id="Clip-2"></g>
                                <path d="M7.91186157,15.9999837 L1.75817143,15.9999837 C1.07773682,15.9999837 6.43863179e-06,15.9999837 6.43863179e-06,14.6679187 C6.43863179e-06,13.3359837 1.11997425,12.6628455 1.75817143,12.4478862 C3.7088837,11.790748 4.69692394,11.1336098 5.08024789,10.1186179 C3.63242495,9.24655285 2.63733441,7.43686179 2.63733441,5.34372358 C2.63733441,2.40092683 4.60552757,0.0155934959 7.03269859,0.0155934959 C9.45986962,0.0155934959 11.4281915,2.40092683 11.4281915,5.34372358 C11.4281915,5.6456748 11.4070728,5.94317073 11.3665738,6.23178862 C9.44982535,6.26613008 7.91337465,7.84463415 7.91186157,9.78121951 L7.91186157,15.9999837 Z" id="Fill-1" fill="#757C85" mask="url(#mask-2)"></path>
                            </g>
                            <path d="M10.0000706,10.5159392 L10.0000706,9.59924018 C10.0000706,8.08476378 11.1513087,6.85714286 12.5714286,6.85714286 C13.9915484,6.85714286 15.1429121,8.08476378 15.1429121,9.59924018 L15.1429121,10.5159392 L15.145486,10.5159392 C15.616798,10.5159392 16,10.928181 16,11.4208561 L16,15.095217 C16,15.5941514 15.6116502,16 15.145486,16 L9.99749669,16 C9.52825636,15.9990628 9.14715749,15.5954568 9.14285714,15.095217 L9.14285714,11.4208561 C9.14285714,10.9217878 9.53117557,10.5159392 9.99749669,10.5159392 L10.0000706,10.5159392 Z M13.4286421,10.5159392 L13.4286421,9.59743269 C13.4286421,9.10382036 13.0445926,8.68793014 12.5714286,8.68793014 C12.0948117,8.68793014 11.7143406,9.09558624 11.7143406,9.59743269 L11.7143406,10.5159392 L13.4286421,10.5159392 Z" id="Fill-4" fill="#757C85"></path>
                        </g>
                    </g>
                </g>
            </g>
        </g>
    </g>
</svg>