<?xml version="1.0" encoding="UTF-8"?>
<svg width="15px" height="16px" viewBox="0 0 15 16" version="1.1" xmlns="http://www.w3.org/2000/svg" xmlns:xlink="http://www.w3.org/1999/xlink">
    <!-- Generator: Sketch 51.3 (57544) - http://www.bohemiancoding.com/sketch -->
    <title>Fill 1</title>
    <desc>Created with Sketch.</desc>
    <defs></defs>
    <g id="导航修改" stroke="none" stroke-width="1" fill="none" fill-rule="evenodd">
        <g id="删除收藏" transform="translate(-22.000000, -265.000000)" fill="#757C85">
            <g id="Group" transform="translate(-1.000000, 0.000000)">
                <g id="侧边导航">
                    <path d="M34,276 L34,271 C34.0740587,271.028744 34.1480993,271.086189 34.197532,271.172441 L36,276 L34,276 Z M32.7507492,268 L28.2457188,268 C28.109164,268 28,267.777683 28,267.5 C28,267.222155 28.109164,267 28.2457188,267 L32.7507492,267 C32.8873039,267 32.9964879,267.222155 32.9964879,267.5 C33.0237789,267.777683 32.8873039,268 32.7507492,268 Z M32.7540885,270 L28.2458915,270 C28.1092407,270 28,269.777715 28,269.50002 C28,269.222164 28.1092407,269 28.2458915,269 L32.7540885,269 C32.8907393,269 33,269.222164 33,269.50002 C33,269.777715 32.8907393,270 32.7540885,270 Z M32.7507492,272 L28.2457188,272 C28.109164,272 28,271.777877 28,271.50002 C28,271.222326 28.109164,271 28.2457188,271 L32.7507492,271 C32.8873039,271 32.9964879,271.222326 32.9964879,271.50002 C33.0237789,271.777877 32.8873039,272 32.7507492,272 Z M32.7507492,274 L28.2457188,274 C28.109164,274 28,273.777836 28,273.49998 C28,273.222326 28.109164,273 28.2457188,273 L32.7507492,273 C32.8873039,273 32.9964879,273.222326 32.9964879,273.49998 C33.0237789,273.777836 32.8873039,274 32.7507492,274 Z M27,276 L25,276 L26.8125628,271.173438 C26.8437986,271.086666 26.90627,271.028889 26.9687414,271 L26.9687414,276 L27,276 Z M37.9883184,275.978334 C37.9620349,275.818041 37.9357322,275.684525 37.8831651,275.550931 L35.6217246,270.315553 C35.3850576,269.754576 34.8591756,269.407349 34.3069909,269.407349 L34.3069909,265.721212 C34.3069909,265.320508 33.9651128,265 33.5707254,265 L26.9179754,265 C26.5236072,265 26.2080126,265.320508 26.2080126,265.721212 L26.2080126,269.38065 C25.6295444,269.434048 25.1036432,269.834752 24.9195624,270.42237 L23.1051533,275.657747 C23.0788698,275.711224 23.0788698,275.764623 23.0788698,275.818041 C23.0262835,275.924916 23,276.058431 23,276.192025 L23,280.118573 C23,280.599375 23.3944643,281 23.8677793,281 L37.1205392,281 C37.5938541,281 37.9883184,280.599375 37.9883184,280.118573 L37.9883184,276.192025 C38.014602,276.11185 37.9883184,276.058431 37.9883184,275.978334 Z" id="Fill-1"></path>
                </g>
            </g>
        </g>
    </g>
</svg>