<?xml version="1.0" encoding="UTF-8"?>
<svg width="15px" height="16px" viewBox="0 0 15 16" version="1.1" xmlns="http://www.w3.org/2000/svg" xmlns:xlink="http://www.w3.org/1999/xlink">
    <!-- Generator: Sketch 51.3 (57544) - http://www.bohemiancoding.com/sketch -->
    <title>轻应用-选中</title>
    <desc>Created with Sketch.</desc>
    <defs></defs>
    <g id="导航修改" stroke="none" stroke-width="1" fill="none" fill-rule="evenodd">
        <g id="删除收藏" transform="translate(-22.000000, -450.000000)" fill="#757C85" fill-rule="nonzero">
            <g id="Group" transform="translate(-1.000000, 0.000000)">
                <g id="侧边导航">
                    <g id="轻应用-选中" transform="translate(23.000000, 450.000000)">
                        <path d="M6.01796408,15.8772315 C6.46706586,16.14445 6.82634731,15.9663043 6.82634731,15.4318674 L6.82634731,9.19676945 C6.82634731,8.66233249 6.46706586,8.12789552 6.01796408,7.86067704 L0.808383233,4.65405524 C0.359281444,4.47590958 0,4.65405524 0,5.09941938 L0,11.3345173 C0,11.8689543 0.359281444,12.4033912 0.808383233,12.6706097 L6.01796408,15.8772315 Z M1.61676647,2.69445304 C1.16766468,2.96167153 1.16766468,3.31796283 1.61676647,3.58518132 L6.73652695,6.79180311 C7.18562875,7.05902158 7.81437126,7.05902158 8.26347305,6.88087592 L13.3832335,4.29776392 C13.8323353,4.03054543 13.8323353,3.67425413 13.3832335,3.40703564 L7.99401199,0.200413852 C7.63473054,-0.06680462 6.91616767,-0.06680462 6.46706586,0.200413868 L1.61676647,2.69445304 Z M8.26347305,15.4318674 C8.26347305,15.9663043 8.6227545,16.14445 9.07185629,15.8772315 L14.1916168,13.2941195 C14.6407186,13.026901 15,12.4924641 15,11.9580271 L15,5.72292917 C15,5.18849221 14.6407186,5.01034655 14.1916168,5.27756504 L9.07185629,7.86067704 C8.6227545,8.12789553 8.26347305,8.66233249 8.26347305,9.19676945 L8.26347305,15.4318674 Z" id="Shape"></path>
                    </g>
                </g>
            </g>
        </g>
    </g>
</svg>