<?xml version="1.0" encoding="utf-8"?>
<!-- Generator: Adobe Illustrator 22.0.1, SVG Export Plug-In . SVG Version: 6.00 Build 0)  -->
<svg version="1.1" id="图层_1" xmlns="http://www.w3.org/2000/svg" xmlns:xlink="http://www.w3.org/1999/xlink" x="0px" y="0px"
	 viewBox="0 0 18 18" style="enable-background:new 0 0 18 18;" xml:space="preserve">
<path d="M17,5h-1V4c0-0.6-0.5-1-1-1h-1V2c0-0.6-0.5-1-1-1H5C4.5,1,4,1.5,4,2v1H3C2.5,3,2,3.5,2,4v1H1C0.5,5,0,5.5,0,6v10
	c0,0.6,0.5,1,1,1h16c0.6,0,1-0.5,1-1V6C18,5.5,17.5,5,17,5z M4,15H2V8h2V15z M7,15H5V8h2V15z M10,15H8V8h2V15z M13,15h-2V8h2V15z
	 M16,15h-2V8h2V15z"/>
</svg>
