<?xml version="1.0" encoding="utf-8"?>
<!-- Generator: Adobe Illustrator 21.1.0, SVG Export Plug-In . SVG Version: 6.00 Build 0)  -->
<svg version="1.1" id="图层_1" xmlns="http://www.w3.org/2000/svg" xmlns:xlink="http://www.w3.org/1999/xlink" x="0px" y="0px"
	 viewBox="0 0 18 18" style="enable-background:new 0 0 18 18;" xml:space="preserve">
<g>
	<path d="M0.9,14.7c0,0.7,0.6,1.3,1.3,1.3h13.4c0.7,0,1.3-0.6,1.3-1.3v-3.5c0-0.7-0.6-1.3-1.3-1.3h-4V7.7c0-0.4-0.4-0.8-0.8-0.8
		c-0.5,0-0.8,0.4-0.8,0.8V10H2.2c-0.7,0-1.3,0.6-1.3,1.3V14.7z M2.6,13c0-0.4,0.4-0.8,0.8-0.8c0.5,0,0.8,0.4,0.8,0.8
		c0,0.4-0.4,0.8-0.8,0.8C3,13.8,2.6,13.4,2.6,13L2.6,13z M5.6,13c0-0.4,0.4-0.8,0.8-0.8c0.5,0,0.8,0.4,0.8,0.8
		c0,0.4-0.4,0.8-0.8,0.8C6,13.8,5.6,13.4,5.6,13L5.6,13z M10.8,4.4c-1.9,0-3.5,1.5-3.5,3.3c0,0.4,0.4,0.8,0.8,0.8
		C8.6,8.5,9,8.2,9,7.7C9,6.8,9.8,6,10.8,6c1,0,1.8,0.8,1.8,1.7c0,0.4,0.4,0.8,0.8,0.8c0.5,0,0.8-0.4,0.8-0.8
		C14.3,5.9,12.7,4.4,10.8,4.4L10.8,4.4z M10.8,1.9c-3.4,0-6.2,2.6-6.2,5.8c0,0.4,0.4,0.8,0.8,0.8c0.5,0,0.8-0.4,0.8-0.8
		c0-2.3,2-4.2,4.5-4.2c2.5,0,4.5,1.9,4.5,4.2c0,0.4,0.4,0.8,0.8,0.8c0.5,0,0.8-0.4,0.8-0.8C17,4.5,14.2,1.9,10.8,1.9L10.8,1.9z
		 M10.8,1.9"/>
</g>
</svg>
