<svg xmlns="http://www.w3.org/2000/svg" viewBox="0 0 64 64"><defs><style>.cls-1{fill:#231815;}</style></defs><title>画板 2 副本 3</title><g id="图层_6" data-name="图层 6"><path class="cls-1" d="M32,36.73a2,2,0,0,1-.72-.14L6,26.87V21.59l26,10,26-10v5.2l-25.28,9.8A2,2,0,0,1,32,36.73Z"/><path class="cls-1" d="M32,47.44a2,2,0,0,1-.72-.14L6,37.58V32.3l26,10,26-10v5.2L32.72,47.3A2,2,0,0,1,32,47.44Z"/><path class="cls-1" d="M32,57.77a2,2,0,0,1-.72-.14L6,47.91V42.62l26,10,26-10v5.21l-25.28,9.8A2,2,0,0,1,32,57.77Z"/><polygon class="cls-1" points="29.44 13.41 32.05 12.41 33.82 13.09 42.19 9.88 32.05 5.98 21.12 10.18 29.44 13.41"/><polygon class="cls-1" points="24.51 16.65 22.76 15.98 25.28 15.01 16.96 11.78 6.05 15.98 16.14 19.86 24.51 16.65"/><polygon class="cls-1" points="34.52 18.6 32.05 19.55 28.7 18.26 20.33 21.47 32.05 25.98 42.83 21.83 34.52 18.6"/><polygon class="cls-1" points="38 14.7 41.34 15.98 38.68 17 46.99 20.23 58.05 15.98 46.37 11.49 38 14.7"/></g></svg>