<?xml version="1.0" encoding="utf-8"?>
<!-- Generator: Adobe Illustrator 21.1.0, SVG Export Plug-In . SVG Version: 6.00 Build 0)  -->
<svg version="1.1" id="图层_1" xmlns="http://www.w3.org/2000/svg" xmlns:xlink="http://www.w3.org/1999/xlink" x="0px" y="0px"
	 viewBox="0 0 18 18" style="enable-background:new 0 0 18 18;" xml:space="preserve">
<g>
	<path d="M16,2H2C1.5,2,1,2.5,1,3v5c0,0.5,0.5,1,1,1h5h1v5H2c-0.5,0-1,0.5-1,1s0.5,1,1,1h14c0.5,0,1-0.5,1-1s-0.5-1-1-1h-6V9h1h5
		c0.5,0,1-0.5,1-1V3C17,2.5,16.5,2,16,2z"/>
	<path d="M2,13h5v-2H2c-0.5,0-1,0.5-1,1S1.5,13,2,13z"/>
	<path d="M16,11h-5v2h5c0.5,0,1-0.5,1-1S16.5,11,16,11z"/>
</g>
</svg>
