<svg id="图层_5" data-name="图层 5" xmlns="http://www.w3.org/2000/svg" viewBox="0 0 64 64"><defs><style>.cls-1{fill:#231815;}</style></defs><title>画板 2 副本 5</title><path class="cls-1" d="M46.34,13.61a3.38,3.38,0,0,0-1.89-3l-11-5.35a3.36,3.36,0,0,0-3,0l-11,5.37a3.36,3.36,0,0,0-1.88,3v9.81a3.38,3.38,0,0,0,1.89,3l11,5.35a3.36,3.36,0,0,0,2.95,0l11-5.37a3.36,3.36,0,0,0,1.88-3ZM32.3,17a.71.71,0,0,1-.59,0l-9.24-4.27a.71.71,0,0,1,0-1.28L31.7,7a.69.69,0,0,1,.61,0l9.24,4.48a.71.71,0,0,1,0,1.29Zm11.44,7.39-8.48,4a.7.7,0,0,1-1-.64v-8a.71.71,0,0,1,.4-.64l8.48-4a.7.7,0,0,1,1,.64v8A.72.72,0,0,1,43.74,24.34Z"/><path class="cls-1" d="M32.69,34.19a3.37,3.37,0,0,0-1.89-3l-11-5.34a3.33,3.33,0,0,0-2.95,0l-11,5.37a3.38,3.38,0,0,0-1.88,3L4,44a3.35,3.35,0,0,0,1.89,3l11,5.35a3.36,3.36,0,0,0,3,0l11-5.37a3.35,3.35,0,0,0,1.89-3Zm-14,3.34a.76.76,0,0,1-.59,0L8.83,33.25a.71.71,0,0,1,0-1.28l9.23-4.36a.69.69,0,0,1,.61,0l9.24,4.49a.71.71,0,0,1,0,1.28Zm11.44,7.39-8.47,4a.71.71,0,0,1-1-.64v-8a.72.72,0,0,1,.41-.64l8.47-4a.71.71,0,0,1,1,.64v8A.71.71,0,0,1,30.09,44.92Z"/><path class="cls-1" d="M60,34.19a3.37,3.37,0,0,0-1.89-3l-11-5.34a3.33,3.33,0,0,0-3,0l-11,5.37a3.37,3.37,0,0,0-1.89,3l0,9.8a3.35,3.35,0,0,0,1.89,3l11,5.35a3.36,3.36,0,0,0,3,0l11-5.37A3.36,3.36,0,0,0,60,44Zm-14,3.34a.76.76,0,0,1-.59,0l-9.23-4.28a.71.71,0,0,1,0-1.28l9.23-4.36a.71.71,0,0,1,.62,0l9.23,4.49a.7.7,0,0,1,0,1.28Zm11.44,7.39-8.47,4a.71.71,0,0,1-1-.64v-8a.71.71,0,0,1,.4-.64l8.47-4a.71.71,0,0,1,1,.64v8A.72.72,0,0,1,57.38,44.92Z"/></svg>