<svg xmlns="http://www.w3.org/2000/svg" viewBox="0 0 824.73 824.73"><title>资源 292</title><g id="图层_2" data-name="图层 2"><g id="图层_4" data-name="图层 4"><path d="M589.18,824.73V740.57H235.55v84.16H0V589.18H235.55v84.17H378.87V445.87h-219C71.72,445.87,0,374.15,0,286S71.72,126.14,159.86,126.14a155.66,155.66,0,0,1,58.33,11.28l7.64,3.08,3.3-7.54A222.34,222.34,0,0,1,433,0C516.12,0,594.2,48.48,631.94,123.49l2.79,5.56,6.14-1a150,150,0,0,1,24-1.91c88.15,0,159.85,71.71,159.85,159.86S753,445.86,664.88,445.86h-219V673.34H589.18V589.18H824.73V824.73Zm67.21-67.21H757.52V656.39H656.39Zm-589.18,0H168.34V656.39H67.21Z"/></g></g></svg>