<svg xmlns="http://www.w3.org/2000/svg" viewBox="0 0 64 64"><defs><style>.cls-1{fill:#231815;}</style></defs><title>画板 2 副本 4</title><g id="图层_8" data-name="图层 8"><path class="cls-1" d="M54,24.83H38.75V10a2,2,0,0,0-2-2H10a2,2,0,0,0-2,2V36.79a2,2,0,0,0,2,2H25.25V53.63a2,2,0,0,0,2,1.95H54a2,2,0,0,0,2-1.95V26.79A2,2,0,0,0,54,24.83ZM52,51.58H29.25V34.75H12V12H34.75V28.83H52Z"/><rect class="cls-1" x="16.1" y="15.83" width="14.55" height="14.55"/><rect class="cls-1" x="33.45" y="33.03" width="14.55" height="14.55"/></g></svg>