<?xml version="1.0" encoding="UTF-8"?>
<svg width="70px" height="63px" viewBox="0 0 70 63" version="1.1" xmlns="http://www.w3.org/2000/svg" xmlns:xlink="http://www.w3.org/1999/xlink">
    <!-- Generator: Sketch 53.2 (72643) - https://sketchapp.com -->
    <title>无权限图标</title>
    <desc>Created with Sketch.</desc>
    <g id="有浮云合作开发" stroke="none" stroke-width="1" fill="none" fill-rule="evenodd">
        <g id="无业务权限页面" transform="translate(-759.000000, -178.000000)">
            <g id="无权限图标" transform="translate(756.000000, 178.000000)">
                <g id="权限">
                    <rect id="矩形" fill="#63656E" fill-rule="nonzero" opacity="0" x="0" y="0" width="62.9310345" height="63"></rect>
                    <g id="分组-2" transform="translate(5.244908, 2.362500)">
                        <path d="M52.4431843,25.4507577 C51.9005025,25.3891505 51.3487346,25.3575 50.7895744,25.3575 C42.7814455,25.3575 36.2895744,31.8493711 36.2895744,39.8575 C36.2895744,44.2797805 38.2692788,48.2396763 41.3907875,50.8992871 C40.4078555,51.5027443 39.3706012,52.0389595 38.2837015,52.5006562 L25.6974946,58.275 L13.8979256,52.7625 C5.24490841,48.825 1.13686838e-13,40.6881562 1.13686838e-13,31.5 L1.13686838e-13,8.92434375 L26.2206088,-7.81597009e-14 L26.2225754,0.00196875 L52.4431843,8.9263125 L52.4431843,25.4507577 Z" id="形状" stroke="#979BA5" stroke-width="4" fill-rule="nonzero"></path>
                        <path d="M15.7327586,21.2625 C15.7327586,26.2493438 19.1408675,30.1868438 23.5991379,31.5 L23.5991379,44.8875 L28.8440463,44.8875 L28.8440463,42.2631563 L31.4655172,42.2631563 L31.4655172,37.0125 L28.8440463,37.0125 L28.8440463,31.5 C33.3023168,30.4506563 36.7104256,26.2493438 36.7104256,21.2625 C36.7104256,15.4881563 31.9905981,10.7631563 26.2225754,10.7631563 C20.4545528,10.7631563 15.7347252,15.4881563 15.7347252,21.2625 L15.7327586,21.2625 Z M32.5137123,21.2625 C32.5137123,24.7278543 29.6821697,27.5625 26.2206088,27.5625 C22.759048,27.5625 19.9275054,24.7278543 19.9275054,21.2625 C19.9275054,17.7971457 22.759048,14.9625 26.2206088,14.9625 C29.6821697,14.9625 32.5137123,17.7971457 32.5137123,21.2625 Z" id="形状" fill="#979BA5" fill-rule="nonzero"></path>
                        <g id="Icon/常用图标/叉号" transform="translate(34.000000, 24.000000)">
                            <g id="分组-3" transform="translate(0.289574, 0.357500)">
                                <circle id="椭圆形" stroke="#FFFFFF" stroke-width="3" fill="#FFFFFF" cx="15.9655172" cy="15.78" r="15.5"></circle>
                                <path d="M16,30 C8.2680135,30 2,23.7319865 2,16 C2,8.2680135 8.2680135,2 16,2 C23.7319865,2 30,8.2680135 30,16 C30,23.7319865 23.7319865,30 16,30 Z M20.9845568,9.67084831 L15.9996307,14.6557744 L11.0150739,9.67121761 L9.67084831,11.0154432 L14.6554051,16 L9.67084831,20.9845568 L11.0160587,22.3297672 L16.0006155,17.3452104 L20.9845568,22.3291517 L22.3287824,20.9849261 L17.3448411,16.0009848 L22.3297672,11.0160587 L20.9845568,9.67084831 Z" id="合并形状" fill="#979BA5"></path>
                            </g>
                        </g>
                    </g>
                </g>
            </g>
        </g>
    </g>
</svg>