<svg xmlns="http://www.w3.org/2000/svg" viewBox="0 0 894.19 894.19"><title>资源 265</title><g id="图层_2" data-name="图层 2"><g id="图层_4" data-name="图层 4"><path d="M447.09,0C200.07,0,0,200.07,0,447.09s200.07,447.1,447.09,447.1,447.1-200.08,447.1-447.1C893.63,200.07,693.56,0,447.09,0ZM223.55,515.84a68.75,68.75,0,1,1,68.74-68.75,68.7,68.7,0,0,1-68.74,68.75Zm223.54,0a68.75,68.75,0,1,1,68.75-68.75,68.7,68.7,0,0,1-68.75,68.75Zm223.56,0a68.75,68.75,0,1,1,68.73-68.75,68.7,68.7,0,0,1-68.73,68.75Z"/></g></g></svg>