<svg xmlns="http://www.w3.org/2000/svg" viewBox="0 0 880.43 771.55"><title>资源 272</title><g id="图层_2" data-name="图层 2"><g id="图层_4" data-name="图层 4"><path d="M316.41,326.43c174.63,0,316.4-52.06,316.4-116.67v-93.1C632.81,52.06,491,0,316.41,0S0,52.06,0,116.66v93.1C0,274,141.45,326.43,316.41,326.43Z"/><path d="M.32,489.45V629.29C.32,693.52,141.77,746,316.73,746q14.68,0,29-.5c-33.87-36.76-56.23-85.61-60.85-139.92C125.08,599.73.32,550.12.32,489.45Z"/><path d="M555.87,356h76.94v-76.3C632.81,308.91,603.8,335.56,555.87,356Z"/><path d="M290.11,535.79c12.25-59.1,45.87-109.64,91.78-141.94-21.13,1.63-43,2.5-65.48,2.5C141.77,396.35,0,344.29,0,279.69V419.53C0,480.5,127.49,530.85,290.11,535.79Z"/><path d="M788.91,668.54c-21.61,23.08-50.95,36-81.52,36v0H509.54c-42.87-.91-77.6-21.45-96.8-59h-75c22.55,77.32,87.3,125.93,167.19,125.93v0l207.07.06c47.22,0,92.54-20,126-55.65a192.32,192.32,0,0,0,42.48-72.64l-71.08.33C804,654.31,797.16,659.61,788.91,668.54Z"/><path d="M338.74,519.59l73,1c19-40,52.71-61.05,97.8-62H707.39a111.74,111.74,0,0,1,81.52,36c8.11,8.66,12.53,12.37,17.83,23h73c-23.52-75.54-89-125.93-167.74-125.93H504.93C425,391.66,365.74,447.59,338.74,519.59Z"/><path d="M829.9,616.78h41l7.81-12.17H830.81a22.32,22.32,0,0,1-21.48-16.24h56.76l7.8-12.17H809.33a22.37,22.37,0,0,1,21.51-16.28h38.94l7.81-12.17H829.9a34.52,34.52,0,0,0,0,69Z"/><path d="M723.22,547.75v62.41a6.37,6.37,0,0,0,2,4.6,6.84,6.84,0,0,0,4.88,2h60.52l7.81-12.16H736.51V547.75Z"/><path d="M539.92,570.76a23.31,23.31,0,0,0-23-23H458.83v69h13.29v-56.9H516A11.15,11.15,0,0,1,527.2,571v0A11.2,11.2,0,0,1,516,582.27h-37.4l39.6,34.51h19.24l-26.67-22.35h6.1A23.32,23.32,0,0,0,539.92,570.76Z"/><path d="M377.12,547.75a34.52,34.52,0,0,0,0,69h40.12a34.52,34.52,0,1,0,0-69Zm61.56,34.52a22.34,22.34,0,0,1-22.34,22.34v0H378a22.37,22.37,0,0,1,0-44.73h38.35A22.34,22.34,0,0,1,438.68,582.27Z"/><path d="M709.38,616.81l7.81-12.16H668.46a22.37,22.37,0,1,1,.87-44.73h39l7.81-12.17H667.65a34.52,34.52,0,0,0,.77,69v0Z"/><path d="M581.83,604.58h35.9l7.36,12.2h15.65l-42-65.58a10,10,0,0,0-16.25.11l-41.8,65.47h15.66l34.34-54.52,18.72,30.15H574Z"/></g></g></svg>