<svg xmlns="http://www.w3.org/2000/svg" viewBox="0 0 833.61 843"><title>资源 317</title><g id="图层_2" data-name="图层 2"><g id="图层_4" data-name="图层 4"><path d="M.61,528.2,0,477.27a32,32,0,0,1,32.08-32.38l769.62,2a32,32,0,0,1,31.91,32V811a32,32,0,0,1-32,32h-769a32,32,0,0,1-32-32ZM628,500.4c-20.83,0-39.05,19.46-39.05,41.7s15.62,41.7,39.05,41.7,39-19.46,39-41.7-18.22-41.7-39-41.7Zm36.44,239.08c20.82,0,39.05-19.46,39.05-41.7s-18.23-41.7-39.05-41.7H169.82c-20.83,0-39,19.46-39,41.7s18.22,41.7,39,41.7ZM203.67,0h431.9a32,32,0,0,1,32,32.05L667,417H172.42l-.75-384.94A32,32,0,0,1,203.67,0ZM287,358.62H495.21V303H287Zm0-111.2H547.27v-55.6H287Zm0-111.2H547.27V80.62H287Z"/></g></g></svg>