<svg xmlns="http://www.w3.org/2000/svg" viewBox="0 0 892.49 765.03"><title>资源 286</title><g id="图层_2" data-name="图层 2"><g id="图层_4" data-name="图层 4"><path d="M316.41,326.43c14.81,0,35.39.29,49.66-.44,25-50.33,50.33-91.05,99-101,93-19,109,10,155,17.77,8.33-10.46,12.79-21.53,12.79-33v-93.1C632.81,52.06,491,0,316.41,0S0,52.06,0,116.66v93.1C0,274,141.45,326.43,316.41,326.43Z"/><path d="M316.41,536.19c32.74,0,56.94-1.8,86.66-5.2,0,0-17.32-31.27-25-62-13-52-11-74.16-14-74-15.56.87-31.44,1.36-47.66,1.36C141.77,396.35,0,344.29,0,279.69V419.53C0,483.75,141.45,536.19,316.41,536.19Z"/><path d="M430.07,598c-37.43,5.74-70.61,8.13-113.66,8.13C141.77,606.12.32,554.05.32,489.45V629.3C.32,693.52,141.77,746,316.73,746c138.65,0,256.58-32.82,299.3-78.67C455.07,693,434.15,597.37,430.07,598Z"/><path d="M814.11,418.93a152.3,152.3,0,0,0,2.35-22.18c-30.92-3.78-43.32,3.4-48.14,10.31C752,430.42,783.84,487.7,797.54,512.11a147.06,147.06,0,0,1,7.18,13.7,83.79,83.79,0,0,0,4.18,8.48c9.39-20,6.91-40.19,4.56-59.77-1.17-9.78-2.35-19.83-2.09-29.49A205.08,205.08,0,0,1,814.11,418.93Z"/><path d="M637.7,582.18c-4.31-1.83-6.66-2.74-11.75,3-3.39,3.91-6,7.05-8.09,9.79-9.52,12.13-14,16.31-42.41,22.18a54.47,54.47,0,0,0-11.09,3.26A35.45,35.45,0,0,0,574.8,625c21,5.23,50.11,5.62,70.07-22.44,2.35-3.26,1.7-7.56,1-9.78C644.61,587.92,641.22,583.61,637.7,582.18Z"/><path d="M585.76,285.71c-27.27-8.88-95.25-26.49-136.62,2.87-25.31,18-37.06,51.54-34.58,99.69.78,15.27,10.44,69.42,26.88,123.31C460.49,574,482,613.23,500.68,619.37c2.87.91,11.49,3.78,24.14-11.23Q545.2,583.66,567,560.39c-2-1.71-3.78-3.4-5.61-5.22-17.22-18-25.05-42.93-21.53-68.38,3.78-27.4,2.35-51.67,1.57-64.59-.27-3.52-.4-6.13-.4-8-.13-4.7-1.17-82.08,43.59-127.23A11.72,11.72,0,0,1,585.76,285.71Z"/><path d="M572.71,544.21C583.68,555.56,598,562,612.77,562a193.29,193.29,0,0,1,7.44-22.18l1.18-3.14c1.56-4,3.26-8,5.08-12.13,8.88-20,20.1-44.89,7.18-104.78-2.48-11.62-8.48-18.27-18.4-20.49-21.66-5-51.93,11.35-58.46,17.1,0,1.3.13,3,.26,4.82.79,13.58,2.35,38.76-1.69,67.73C552.49,509.49,558.75,529.72,572.71,544.21Z"/><path d="M811.5,564.82c-1.17-1.57-2.6-3.52-4.17-5.48-5.09-6.26-11.88-14.88-17.22-27.8-.78-2-3.4-6.65-6.4-12-16.31-29.35-50.36-90.29-28.31-121.74,10-14.48,30-20.22,59.37-17.22-3.92-11.62-13.7-33-31.71-54.28-20.88-24.67-57.94-54.42-115.74-55.33-29.36-.52-53.37,8.48-71.51,26.75-28.71,29-36.41,74.77-38.36,99.3,1.3-.78,2.74-1.56,4.3-2.35,7.31-3.65,21.93-10.18,37.84-11.74,26.62-2.74,44.11,9.13,49.46,33.4,14.09,64.85,1,93.69-8.35,114.57-1.7,3.92-3.4,7.57-4.7,11.09l-1.17,3.13c-2.75,7.44-5.35,14.36-6.79,20.49,6.92-1.83,12.79.65,15.92,2,8,3.26,14.48,11.22,17.22,20.74a32.32,32.32,0,0,1,1,4.83,11.92,11.92,0,0,1,.27,2.22c-1.83,65.12.78,124.22,6,137.27,8,20.5,20.23,38.11,54.93,30.67,33.54-7.17,45.41-19.31,51-51.67,4.17-24.53,12.53-94.08,13.7-108.83C786.71,573.3,802.63,567.3,811.5,564.82Z"/><path d="M794,315.33c25.06,29.1,37.32,61.33,38.23,72a14.14,14.14,0,0,1-.25,4.17c.38,11.22-1,20.75-2.49,29.88a183.05,183.05,0,0,0-2.61,24.15c-.26,8.48.79,17.48,2,27,2.74,23.35,6,49.58-10.17,76.07.26.39.52.65.78,1,.65.79,1.3,1.57,1.82,2.35,62.25-97.86,83.78-211.39,64.21-236.31-25.19-32.49-61.08-49.59-106.62-50.5a202.31,202.31,0,0,0-45.67,4.31C760.48,281.53,780.45,299.41,794,315.33Z"/><path d="M822.6,580.22c-.78-.52-1.57-1-2.22-1.56-1,.39-2.22.65-3.26,1-7.31,2.09-14.09,3.92-13.18,22.32,1.83,1.56,10,4.17,26,3.38,14.48-.65,29.62-3.78,38.62-8.08,10.57-5,18-10.31,22.31-14.49a.46.46,0,0,0-.38.13C858.22,589.62,835.39,588.71,822.6,580.22Z"/></g></g></svg>