<?xml version="1.0" encoding="utf-8"?>
<!-- Generator: Adobe Illustrator 21.1.0, SVG Export Plug-In . SVG Version: 6.00 Build 0)  -->
<svg version="1.1" id="图层_1" xmlns="http://www.w3.org/2000/svg" xmlns:xlink="http://www.w3.org/1999/xlink" x="0px" y="0px"
	 viewBox="0 0 18 18" style="enable-background:new 0 0 18 18;" xml:space="preserve">
<path d="M9,1C4.6,1,1,4.6,1,9c0,4.4,3.6,8,8,8s8-3.6,8-8C17,4.6,13.4,1,9,1z M9,15.1c-0.5,0-0.9-0.4-0.9-0.9c0-0.5,0.4-0.9,0.9-0.9
	s0.9,0.4,0.9,0.9C9.9,14.8,9.5,15.1,9,15.1z M9.9,10.7v1c0,0.5-0.4,0.9-0.9,0.9s-0.9-0.4-0.9-0.9V10c0-0.5,0.4-0.9,0.9-0.9
	c0.9,0,1.7-0.8,1.7-1.7c0-0.9-0.8-1.7-1.7-1.7S7.3,6.5,7.3,7.4c0,0.5-0.4,0.9-0.9,0.9C6,8.3,5.6,7.9,5.6,7.4C5.6,5.5,7.1,4,9,4
	s3.4,1.5,3.4,3.4C12.4,9,11.3,10.4,9.9,10.7z"/>
</svg>
