<?xml version="1.0" encoding="utf-8"?>
<!-- Generator: Adobe Illustrator 22.0.1, SVG Export Plug-In . SVG Version: 6.00 Build 0)  -->
<svg version="1.1" xmlns="http://www.w3.org/2000/svg" xmlns:xlink="http://www.w3.org/1999/xlink" x="0px" y="0px"
	 viewBox="0 0 1024 1024" style="enable-background:new 0 0 1024 1024;" xml:space="preserve">
<g id="图层_2">
</g>
<g id="图层_1">
</g>
<g id="图层_3">
	<g>
	</g>
</g>
<g id="图层_4">
</g>
<g id="图层_5">
	<path d="M433,418.2c0.3,7.8-5.8,14.4-13.7,14.7c-0.2,0-0.4,0-0.5,0H135.5c-2.6,0.4-5-1.3-5.5-3.9c-0.3-1.7,0.4-3.5,1.8-4.5
		l94.8-93.7L99.7,205c-5.7-5.4-5.9-14.4-0.4-20.1c0.1-0.1,0.3-0.3,0.4-0.4L185,99.7c5.4-5.7,14.4-5.9,20.1-0.4
		c0.1,0.1,0.3,0.3,0.4,0.4l126.9,125.8l92.1-91.1c1.6-2,4.6-2.4,6.7-0.7c1.2,0.9,1.8,2.4,1.8,3.9V418.2z M589.3,418.2
		c-0.3,7.8,5.8,14.4,13.7,14.7c0.2,0,0.4,0,0.5,0h283.3c2.6,0.1,4.8-1.9,4.9-4.5c0.1-1.5-0.6-2.9-1.8-3.9l-94.8-93.7L922.6,205
		c5.7-5.4,5.9-14.4,0.4-20.1c-0.1-0.1-0.3-0.3-0.4-0.4l-85.3-84.8c-5.4-5.7-14.4-5.9-20.1-0.4c-0.1,0.1-0.3,0.3-0.4,0.4L689.9,225.5
		l-91.6-91.1c-1.6-2-4.6-2.4-6.7-0.7c-1.2,0.9-1.8,2.4-1.8,3.9v280.6H589.3z"/>
	<path d="M433,603.5c0-7.9-6.4-14.2-14.2-14.2c0,0,0,0,0,0H135.5c-2.6-0.1-4.8,1.9-4.9,4.5c-0.1,1.5,0.6,2.9,1.8,3.9l94.8,93.7
		L99.7,817.3c-5.7,5.4-5.9,14.4-0.4,20.1c0.1,0.1,0.3,0.3,0.4,0.4l85.3,84.8c5.4,5.7,14.4,5.9,20.1,0.4c0.1-0.1,0.3-0.3,0.4-0.4
		l126.9-125.8l92.1,91.6c1.6,2,4.6,2.4,6.7,0.7c1.2-0.9,1.8-2.4,1.8-3.9V603.5z M589.3,603.5c0-7.9,6.4-14.2,14.2-14.2h0h283.3
		c2.6-0.1,4.8,1.9,4.9,4.5c0.1,1.5-0.6,2.9-1.8,3.9l-94.8,93.7l126.9,125.8c5.7,5.4,5.9,14.4,0.4,20.1c-0.1,0.1-0.3,0.3-0.4,0.4
		l-85.3,84.8c-5.4,5.7-14.4,5.9-20.1,0.4c-0.1-0.1-0.3-0.3-0.4-0.4L689.4,796.8l-91.1,91.1c-1.6,2-4.6,2.4-6.7,0.7
		c-1.2-0.9-1.8-2.4-1.8-3.9V603.5H589.3z"/>
	<g>
	</g>
	<g>
	</g>
	<g>
	</g>
	<g>
	</g>
	<g>
	</g>
	<g>
	</g>
	<g>
	</g>
	<g>
	</g>
	<g>
	</g>
	<g>
	</g>
	<g>
	</g>
	<g>
	</g>
	<g>
	</g>
	<g>
	</g>
	<g>
	</g>
</g>
</svg>
