<?xml version="1.0" encoding="UTF-8"?>
<svg width="37px" height="33px" viewBox="0 0 37 33" version="1.1" xmlns="http://www.w3.org/2000/svg" xmlns:xlink="http://www.w3.org/1999/xlink">
    <!-- Generator: Sketch 55.2 (78181) - https://sketchapp.com -->
    <title>正在同步中</title>
    <desc>Created with Sketch.</desc>
    <g id="页面1" stroke="none" stroke-width="1" fill="none" fill-rule="evenodd">
        <g id="同步中" transform="translate(-119.000000, -101.000000)" fill="#FFFFFF" fill-rule="nonzero">
            <g id="Group-8" transform="translate(108.000000, 88.000000)">
                <g id="编组" transform="translate(0.000000, 0.500000)">
                    <path d="M15.7901786,25.4666667 C16.3848214,25.4666667 16.8803571,25.0666667 17.0455357,24.5 C18.8955357,19.3666667 23.7848214,15.6666667 29.5,15.6666667 C35.8758929,15.6666667 41.2276786,20.2666667 42.45,26.3333333 L40.0714286,26.3333333 L44.1017857,30.3666667 L48,26.3333333 L45.1258929,26.3333333 C43.8705357,18.7666667 37.3625,13 29.5,13 C22.5955357,13 16.7151786,17.4666667 14.5348214,23.7 C14.5017857,23.8333333 14.46875,23.9666667 14.46875,24.1333333 C14.46875,24.8666667 15.0633929,25.4666667 15.7901786,25.4666667 Z M43.2098214,32.5333333 C42.6151786,32.5333333 42.1196429,32.9333333 41.9544643,33.5 C40.1044643,38.6333333 35.2151786,42.3333333 29.5,42.3333333 C23.1241071,42.3333333 17.7723214,37.7333333 16.55,31.6666667 L18.8955357,31.6666667 L14.8982143,27.6333333 L11,31.6666667 L13.8741071,31.6666667 C15.1294643,39.2333333 21.6375,45 29.5,45 C36.4044643,45 42.2848214,40.5333333 44.4651786,34.3 C44.4982143,34.1666667 44.53125,34.0333333 44.53125,33.8666667 C44.53125,33.1333333 43.9366071,32.5333333 43.2098214,32.5333333 L43.2098214,32.5333333 Z" id="正在同步中"></path>
                </g>
            </g>
        </g>
    </g>
</svg>