<?xml version="1.0" encoding="utf-8"?>
<!-- Generator: Adobe Illustrator 22.1.0, SVG Export Plug-In . SVG Version: 6.00 Build 0)  -->
<svg version="1.1" id="图层_1" xmlns="http://www.w3.org/2000/svg" xmlns:xlink="http://www.w3.org/1999/xlink" x="0px" y="0px"
	 viewBox="0 0 22 22" style="enable-background:new 0 0 22 22;" xml:space="preserve">
<g>
	<g>
		<path d="M9.8,4c0.3-0.3,0.8-0.3,1.1,0l8.4,8.4c0.3,0.3,0.3,0.8,0,1.1c-0.3,0.3-0.8,0.3-1.1,0l-7.1-7.1l0,14.9
			c0,0.3-0.2,0.6-0.5,0.7c-0.3,0.1-0.6,0.1-0.8-0.2c-0.2-0.1-0.2-0.3-0.2-0.6L9.5,6.3l-7.1,7.1c-0.3,0.3-0.7,0.3-1,0
			c-0.3-0.3-0.3-0.7,0-1L9.8,4z M0.9,0h18.8c0.3,0,0.6,0.2,0.7,0.4c0.2,0.3,0.2,0.6,0,0.9c-0.2,0.3-0.4,0.4-0.7,0.4H0.9
			C0.4,1.7,0,1.3,0,0.9C0,0.4,0.4,0,0.9,0L0.9,0z"/>
	</g>
</g>
</svg>
