<?xml version="1.0" encoding="utf-8"?>
<!-- Generator: Adobe Illustrator 22.0.1, SVG Export Plug-In . SVG Version: 6.00 Build 0)  -->
<svg version="1.1" id="图层_1" xmlns="http://www.w3.org/2000/svg" xmlns:xlink="http://www.w3.org/1999/xlink" x="0px" y="0px"
	 viewBox="0 0 18 18" style="enable-background:new 0 0 18 18;" xml:space="preserve">
<polygon points="15.8,13.1 15.8,9.6 15.8,9 15.2,9 9.2,9 9.2,6.1 12.4,6.1 12.4,0.6 5.8,0.6 5.8,6.1 8.6,6.1 8.6,9 2.6,9 2,9 2,9.6 
	2,13.1 0.3,13.1 0.3,17 4.3,17 4.3,13.1 2.6,13.1 2.6,9.6 8.6,9.6 8.6,13.1 6.9,13.1 6.9,17 10.9,17 10.9,13.1 9.2,13.1 9.2,9.6 
	15.2,9.6 15.2,13.1 13.5,13.1 13.5,17 17.5,17 17.5,13.1 "/>
</svg>
