<svg xmlns="http://www.w3.org/2000/svg" xmlns:xlink="http://www.w3.org/1999/xlink" viewBox="0 0 890.83 750.41"><defs><style>.cls-1{fill:none;}.cls-2{clip-path:url(#clip-path);}</style><clipPath id="clip-path" transform="translate(0 -0.16)"><rect class="cls-1" width="890.85" height="751.76"/></clipPath></defs><title>资源 289</title><g id="图层_2" data-name="图层 2"><g id="图层_4" data-name="图层 4"><g class="cls-2"><path d="M0,412.54a24.79,24.79,0,0,1,24.78-24.79H287.2A24.79,24.79,0,0,1,312,412.54v48.92a24.79,24.79,0,0,1-24.78,24.78H22.88A24.78,24.78,0,0,1,0,461.46Zm231.92,8.26v33h33V420.16ZM0,544.06a24.79,24.79,0,0,1,24.78-24.78H287.2A24.79,24.79,0,0,1,312,544.06V593a24.79,24.79,0,0,1-24.78,24.78H22.88A24.78,24.78,0,0,1,0,593Zm231.92,8.27v33h33v-33ZM0,676.23a24.77,24.77,0,0,1,24.78-24.78H287.2A24.77,24.77,0,0,1,312,676.23v48.92a24.77,24.77,0,0,1-24.78,24.78H22.88A24.78,24.78,0,0,1,0,725.15Zm231.92,8.26v33h33v-33Z" transform="translate(0 -0.16)"/></g><path d="M576.94,412.54a24.8,24.8,0,0,1,24.78-24.79H866.05a24.77,24.77,0,0,1,24.78,24.79v48.92a24.77,24.77,0,0,1-24.78,24.78H602.36a24.79,24.79,0,0,1-24.78-24.78Zm231.93,8.26v33h33V420.16ZM576.94,544.7a24.8,24.8,0,0,1,24.78-24.78H866.05a24.77,24.77,0,0,1,24.78,24.78v48.92a24.77,24.77,0,0,1-24.78,24.79H602.36a24.79,24.79,0,0,1-24.78-24.79ZM808.87,553v33h33V553ZM576.94,676.86a24.8,24.8,0,0,1,24.78-24.78H866.05a24.77,24.77,0,0,1,24.78,24.78v48.93a24.77,24.77,0,0,1-24.78,24.78H602.36a24.79,24.79,0,0,1-24.78-24.78Zm231.93,8.26v33h33v-33Zm-521-660.18A24.77,24.77,0,0,1,312.62.16H576.94a24.77,24.77,0,0,1,24.78,24.78V73.86a24.75,24.75,0,0,1-24.78,24.78H312.62a24.77,24.77,0,0,1-24.78-24.78ZM519.76,33.2v33h33v-33ZM287.84,157.1a24.78,24.78,0,0,1,24.78-24.78H576.94a24.77,24.77,0,0,1,24.78,24.78V206a24.77,24.77,0,0,1-24.78,24.78H312.62A24.77,24.77,0,0,1,287.84,206Zm231.92,8.26v33h33V164.73ZM287.84,288.63a24.78,24.78,0,0,1,24.78-24.78H576.94a24.77,24.77,0,0,1,24.78,24.78v48.93a24.77,24.77,0,0,1-24.78,24.78H312.62a24.78,24.78,0,0,1-24.78-24.78Zm231.92,8.26v33h33v-33Z" transform="translate(0 -0.16)"/><path d="M420,403.64h33v33H420ZM420,478h33v33H420Zm0,74.35h33v33H420Zm82.6,0h33v33h-33Zm-156.94,0h33v33h-33Z" transform="translate(0 -0.16)"/></g></g></svg>