<svg xmlns="http://www.w3.org/2000/svg" viewBox="0 0 895.08 769.39"><title>资源 279</title><g id="图层_2" data-name="图层 2"><g id="图层_4" data-name="图层 4"><path d="M316.41,326.43c75.48,0,120.66-1.44,164.66-20.44,35-28,81.49-76.22,151.74-96.23v-93.1C632.81,52.06,491,0,316.41,0S0,52.06,0,116.66v93.1C0,274,141.45,326.43,316.41,326.43Z"/><path d="M452.07,594c-33.94,4.58-97.43,12.13-135.66,12.13C141.77,606.12.32,554.05.32,489.45V629.3C.32,693.52,141.77,746,316.73,746c65.62,0,96.34-5,142.34-14C426.25,696.8,414.07,652,452.07,594Z"/><path d="M316.41,536.19c33.71,0,129.18-7.6,159.66-11.2,0-.29,35.05-43.09,39-79,3.38-30.74-2-52-14-73-56,18-136.21,23.36-184.66,23.36C141.77,396.35,0,344.29,0,279.69V419.53C0,483.75,141.45,536.19,316.41,536.19Z"/><path d="M736.48,518.85a513.54,513.54,0,0,0-81,19.43c-42.32,13.76-185.25,64.93-191.87,123-2.35,19.87,7.63,35.7,21.16,50.49,11.65,12.72,29,23.31,52,31.7l7.48,2.59c16.39,5.39,34.67,11.51,56.11,14.82,4.56.71,8.34,1.35,12.8,1.92l13.65,1.71c28.78,3.16,49.26,4.26,64.19,4.26,6.15,0,24.31.64,24.31.64s29.71-86.48,30.29-155.9c.43-51,1.08-89.8,1.07-90.21l-.43-6.4Zm-68.75,33.86c24.62-7.77,30.26-7.21,43.94-9.81l-45,30.5C666.92,561.6,667.78,557.8,667.73,552.71Zm-.42,50.76a140.69,140.69,0,0,0,22.6,8.1c8.21,2.36,13.05,3.65,19.63,4.91l-46.92,34.76C664.76,632.53,666.54,619.66,667.31,603.47Zm-10.88-47.35c0,6.51-1.12,13-1.49,25.59-9.33-5.43-16.08-8.27-23.67-16.2C640.05,562.21,647.79,559,656.43,556.12Zm34.34,144.81c-12.95,8.88-26.34,16.89-50.56,34.93,5.48-14.76,10.47-27.44,13.66-45.38C667.15,694.32,676,698,690.77,700.93Zm-100.67-119c9.42-4.19,17.59-9.41,27.3-13.23,6.1,7,11.43,11.9,24.12,19.83l-55.68,39.25C588.25,611,590.62,599.32,590.1,581.93Zm62.49,19.19c-.89,19.53-6.4,38-9.38,60.78l-7.86,6.49c-21.7-7.27-33.88-11.49-49.51-18.86.06-.3-1.76-1.18-1.71-1.49ZM481.34,663c3-26.42,41.66-48.9,91.92-72.51.16,18.69-1.47,29.84-4.59,47.72l-2.18,1.48C543,627.77,537.32,621.82,537,621.6l-16.85,1.49A197.07,197.07,0,0,0,555.68,647L489.44,692.4C483.43,682.41,479.85,675.49,481.34,663Zm62.06,66.54c-21.44-7.79-32.28-15.11-42.66-26.44l63.13-42.66C555.67,698.39,547.36,719.84,543.4,729.51Zm35.83-67c13.49,6.27,25.59,12.73,43.29,19L563,725.25C568.55,710.22,573.4,689.46,579.23,662.54Zm39.67,87.23c-6-.7-8.77-1.18-14.93-2.13-17.13-2.65-22.64-6-36.47-10L634.68,689c1.54.5-.72.36.85.85C631,716.12,628.62,733,618.9,749.77Zm82.32,3.63c-10.05.18-33.47,1.19-63.29-1.45,36.09-27.09,57.4-40.09,71.61-49.52,2.44.4,2.85.69,5.33,1.06C710.76,723.72,708.29,738.39,701.22,753.4Zm18.55-75.29c-2.58,1.5-4,4.52-10.9,9-19.18-3.35-34.46-4.33-51.16-9.2.33-2.14,1.19-6.17,1.49-8.32l67.61-49.05h0C725.46,640.25,722.91,657.79,719.77,678.11Zm10.45-75.93-4.51,3.14c-13.37-1.9-30.8-3.64-54.78-14.86l60.15-41.8C731.13,562.7,731.55,577,730.22,602.18Z"/><polygon points="726.81 620.53 726.81 620.53 726.81 620.53 726.81 620.53"/><path d="M889.74,479.5c-.62-1.52-15.93-37.79-66.38-73.45a291.36,291.36,0,0,0-29.92-18.5s-5.58-3.1-6-3.14a372.9,372.9,0,0,0-69.12-26.76c-50.14-14.12-108.17-20.6-172.52-19.28l-10.12-.43,9.81,9.18c48.63,53.31,33.7,114.52,18.34,149.07-17.64,39.68-50.32,77.5-50.8,78.19l-23.42,28.87,31.45-20.87c.94-.65,83.15-45.66,189.93-71.9C823,483,883.34,487.37,883.82,487.42l11.26,1.52ZM715.29,373.35c1.12.3,1.67.54,2.78.85,13.95,3.9,19.54,7.28,32.2,12.37l-35.83,18.77C715.37,388.4,715.41,381.75,715.29,373.35ZM698,369.94c.31,12.15-1.13,24.82-2.56,44.36l-7.33,6.76c-15.44-7.92-28.35-10.45-40.66-12.95-5.53-1.12-8.48-1-13.43-1.49.13-23.61-.78-41.6-1.07-49.27C657.8,359.83,676,364.61,698,369.94Zm-65.9,53.95c4.45.49,7.65.26,12.58,1.28C656,427.5,657,428,667.31,432.64l-36.68,22C631.54,440.94,631.91,437.11,632.12,423.89ZM604.88,524.08C577,536.25,568.69,544.62,552.78,554c10.17-16.62,20.44-21.94,26.45-32.21,17.49-29.85,30.71-32.63,30.71-32.63C604.18,516,604.88,524.08,604.88,524.08Zm11.24-95.49c-.38,14.5-1.29,17.64-2.13,28.36-7.77,3.7-8.32,4.27-11.73,5.12.64-18.34,4.36-22.22-1.07-40.95,4.69-.6,5.71.11,15.15.43C616.28,425.21,616.22,424.83,616.12,428.59Zm0-24.1c-11.82-.39-13.48-1-18.34-.22-6.94-16.42-12.4-27.82-28.58-48.41,20.68-.12,28.54-.49,47.78,1.07C617.21,362.87,616.23,379.69,616.12,404.49ZM620.81,518c4-11.86,6.37-26.82,8.11-44.79,13.13-4.88,8.1-7.08,16.21-4.27,11.38,3.95,28.69,13.68,32.2,25.17l.43,2.35C656.25,502.21,639.53,510.32,620.81,518Zm62.28-46.71c-6.4-7-7.46-8.32-17.06-12.58a26.43,26.43,0,0,0-10.24-2.56L682.88,439c2.51,1.41,4.16,3.76,6.61,5.33C687.31,460.56,688,460.52,683.09,471.24Zm11.52,20.05c4.9-9.6,7.85-15,11.3-37.33,13.8,10.48,17.37,14.14,28.79,29.65C728,484.55,705.35,488.69,694.61,491.29Zm15.78-57.59c.41-3.64,1.37-8.24,1.71-12.15L768,393.82a56.38,56.38,0,0,0,7.89,4.69c-.83,2-18.92,31.57-31.77,64.41C731.12,446.7,723.9,443.17,710.39,433.7Zm48.2,45.86-4.91-6.4,34.55-67.82c39.67,19,72.34,61.72,74.44,65.26C862.67,470.6,781.41,472.73,758.59,479.56Z"/><path d="M538.92,321.52l20.26.64s13.38-10,19-13c2.92-1.57,12.58-5.12,12.58-5.12l8.11,12.59,17.06,20.05-15.57-32,64,16.64-22.18,7.89-18.55,7.89,51.22-12.25L686,339.33l17.56.53s-10.77-18.94-15.14-24.74C679.21,302.9,647,270,647,270s-43.49,12.53-70.36,23.17C556.19,301.26,538.92,321.52,538.92,321.52Zm110.9-32.84,22.61,28.79L608,296.78Z"/></g></g></svg>