<svg xmlns="http://www.w3.org/2000/svg" viewBox="0 0 797.2 797.2"><title>资源 278</title><g id="图层_2" data-name="图层 2"><g id="图层_4" data-name="图层 4"><path d="M792.93,638.61,721.06,176.92C693.62,94.52,646.81,0,529.22,0H273.67C210.69,0,126.19,30.81,81,180.17L4.21,638.39S0,664.87,0,679C0,744.24,51,797.2,113.88,797.2H683.2c63,0,114-53,114-118.22,0-14-4.27-40.37-4.27-40.37ZM280.84,238.82c3.65,0,6.84,1.36,10.48,2,4.78-52.73,49.94-94.3,105.57-94.3,52.61,0,96.12,37.24,104.72,86a71.89,71.89,0,0,1,11.16-1.08c34.68,0,62.87,27.27,62.87,61s-28.08,61-62.87,61H280.84c-32.63,0-59-25.73-59-57.34s26.25-57.28,59-57.28ZM637.07,725.56H160.18c-28.13,0-51-21.24-51-47.48s22.77-47.44,51-47.44H637c28.13,0,51,21.3,51,47.44s-22.78,47.48-50.91,47.48Z"/></g></g></svg>