<svg xmlns="http://www.w3.org/2000/svg" viewBox="0 0 64 64"><defs><style>.cls-1{fill:#231815;}</style></defs><title>icon·kit</title><g id="图层_6" data-name="图层 6"><path class="cls-1" d="M32,37.25a2,2,0,0,1-.72-.14L6,26.59V20.88L32,31.69,58,20.88v5.63L32.72,37.11A2,2,0,0,1,32,37.25Z"/><path class="cls-1" d="M32,48.83a2,2,0,0,1-.72-.14L6,38.17V32.46L32,43.27,58,32.46v5.63L32.72,48.69A2,2,0,0,1,32,48.83Z"/><path class="cls-1" d="M32,60a2,2,0,0,1-.72-.14L6,49.34V43.63L32,54.44,58,43.63v5.63L32.72,59.86A2,2,0,0,1,32,60Z"/><polygon class="cls-1" points="29.44 12.04 32.05 10.95 33.82 11.69 42.19 8.22 32.05 4 21.12 8.54 29.44 12.04"/><polygon class="cls-1" points="24.51 15.54 22.76 14.81 25.28 13.77 16.96 10.28 6.05 14.81 16.14 19.01 24.51 15.54"/><polygon class="cls-1" points="34.52 17.65 32.05 18.68 28.7 17.28 20.33 20.75 32.05 25.63 42.83 21.14 34.52 17.65"/><polygon class="cls-1" points="38 13.43 41.34 14.81 38.68 15.92 46.99 19.41 58.05 14.81 46.37 9.96 38 13.43"/></g></svg>