<?xml version="1.0" encoding="UTF-8"?>
<svg width="16px" height="15px" viewBox="0 0 16 15" version="1.1" xmlns="http://www.w3.org/2000/svg" xmlns:xlink="http://www.w3.org/1999/xlink">
    <!-- Generator: Sketch 54 (76480) - https://sketchapp.com -->
    <title>形状</title>
    <desc>Created with Sketch.</desc>
    <g id="模型" stroke="none" stroke-width="1" fill="none" fill-rule="evenodd">
        <g id="首页-全局管理" transform="translate(-22.000000, -332.000000)" fill="#D4D4D8" fill-rule="nonzero">
            <g id="服务实例" transform="translate(21.000000, 329.000000)">
                <path d="M8.9685,4.71079351 L7.17899414,5.43153214 L6.02402344,4.63118354 L8.99138672,3.375 L11.9820059,4.66351667 L10.8491309,5.43155286 L8.96886914,4.71081424 L8.9685,4.71079351 Z M8.991,8.88570526 L10.780875,8.16409612 L11.93625,8.96616501 L8.9685,10.2205868 L5.97898828,8.93389406 L7.111125,8.16409612 L8.991,8.88570526 Z M6.26475586,7.809924 L5.04975586,8.50411215 L1.15347656,6.79426992 L5.11760742,5.06631285 L6.27336914,5.87146996 L4.12161328,6.79426992 L6.26435156,7.809924 L6.26475586,7.809924 Z M13.905,6.79426992 L11.7532617,5.87146996 L12.90825,5.06629213 L16.8731191,6.79426992 L12.97575,8.50411215 L11.7611191,7.809924 L13.905,6.79426992 Z M8.991,12.8970031 L1.141875,9.26773362 L1.125,7.42833089 L8.991,11.0540561 L16.8584941,7.46856076 L16.8584941,9.3221196 L8.991,12.8970031 Z M9.009,13.5947354 L16.875,10.0083488 L16.875,11.8632134 L9.009,15.4367704 L1.15948828,11.8083922 L1.141875,9.96898946 L9.009,13.5947354 L9.009,13.5947354 Z M1.14150586,12.5304159 L9.009,16.1561618 L16.875,12.5706872 L16.875,14.4251165 L9.009,18 L1.15948828,14.3707098 L1.141875,12.5308718 L1.14150586,12.5304159 Z" id="形状"></path>
            </g>
        </g>
    </g>
</svg>