<?xml version="1.0" encoding="utf-8"?>
<!-- Generator: Adobe Illustrator 22.0.1, SVG Export Plug-In . SVG Version: 6.00 Build 0)  -->
<svg version="1.1" xmlns="http://www.w3.org/2000/svg" xmlns:xlink="http://www.w3.org/1999/xlink" x="0px" y="0px"
	 viewBox="0 0 1024 1024" style="enable-background:new 0 0 1024 1024;" xml:space="preserve">
<style type="text/css">
	.st0{clip-path:url(#SVGID_2_);}
</style>
<g id="图层_2">
</g>
<g id="图层_1">
</g>
<g id="图层_3">
	<g>
	</g>
</g>
<g id="图层_4">
</g>
<g id="图层_5">
	<g>
		<g>
			<defs>
				<rect id="SVGID_1_" x="103" y="96" width="821.9" height="823"/>
			</defs>
			<clipPath id="SVGID_2_">
				<use xlink:href="#SVGID_1_"  style="overflow:visible;"/>
			</clipPath>
			<path class="st0" d="M335.4,611.6l73.9,74c-72.8,61.6-179.2,157.3-201.1,174.5C152.4,903.9,103,917.9,103,917.9
				s14-49.4,57.8-105.2C178,790.7,273.8,684.4,335.4,611.6L335.4,611.6z M908.7,310.1L710.9,112.2c-21-21-54.9-21-75.9,0
				c-21,21-21,54.9,0,75.9l15.8,15.8l-289,204l-64-63.8c-13.5-13.5-33.3-18.8-51.8-13.9c-18.5,5-32.9,19.4-37.9,37.9
				c-5,18.5,0.3,38.2,13.9,51.8l379.1,379.1c13.6,13.6,33.3,18.8,51.8,13.9c18.5-5,33-19.4,37.9-37.9c5-18.5-0.3-38.3-13.9-51.8
				L613,659.1l204-289.1l15.9,15.8c13.5,13.5,33.3,18.8,51.8,13.9c18.5-5,32.9-19.4,37.9-37.9C927.6,343.3,922.3,323.6,908.7,310.1
				L908.7,310.1z M908.7,310.1"/>
		</g>
	</g>
	<g>
	</g>
	<g>
	</g>
	<g>
	</g>
	<g>
	</g>
	<g>
	</g>
	<g>
	</g>
	<g>
	</g>
	<g>
	</g>
	<g>
	</g>
	<g>
	</g>
	<g>
	</g>
	<g>
	</g>
	<g>
	</g>
	<g>
	</g>
	<g>
	</g>
</g>
</svg>
