<?xml version="1.0" encoding="UTF-8"?>
<svg width="16px" height="16px" viewBox="0 0 16 16" version="1.1" xmlns="http://www.w3.org/2000/svg" xmlns:xlink="http://www.w3.org/1999/xlink">
    <!-- Generator: Sketch 55.2 (78181) - https://sketchapp.com -->
    <title>更新</title>
    <desc>Created with Sketch.</desc>
    <g id="页面1" stroke="none" stroke-width="1" fill="none" fill-rule="evenodd">
        <g id="实例拓扑列表备份" transform="translate(-183.000000, -142.000000)" fill="#C4C6CC" fill-rule="nonzero">
            <g id="编组-3" transform="translate(183.000000, 141.000000)">
                <g id="更新" transform="translate(0.000000, 1.000000)">
                    <path d="M2.67671495,8.5785652 C2.29299644,6.17899672 3.61111602,3.75420108 5.96487727,2.83672877 C7.70920323,2.15659102 9.58995506,2.48188872 10.921684,3.45346666 L9.78845305,5.28907514 L14.8703999,5.26949089 L13.0540437,0 L12.1236259,1.50665947 C10.1615496,0.236006797 7.48680583,-0.179577609 5.14466234,0.733579516 C1.89965177,1.99858927 0.0318454531,5.27015477 0.400626828,8.5785652 L2.67671495,8.5785652 Z M13.3232441,7.26509273 C13.7066307,9.66466122 12.389175,12.0897888 10.0354138,13.0069292 C8.43083305,13.6322974 6.66260766,13.3966225 5.30299603,12.553504 C5.56190645,12.1332725 6.32701994,10.8941538 6.32701994,10.8941538 L0.862018469,10.5735032 L3.17461961,16 L4.14420594,14.4299407 C6.10595027,15.7005933 8.51282134,16.0235675 10.8549648,15.1104104 C14.0993115,13.8450687 15.9677817,10.5738351 15.5990003,7.26575661 L13.3232441,7.26575661 L13.3232441,7.26509273 Z"></path>
                </g>
            </g>
        </g>
    </g>
</svg>