<?xml version="1.0" encoding="utf-8"?>
<!-- Generator: Adobe Illustrator 22.0.1, SVG Export Plug-In . SVG Version: 6.00 Build 0)  -->
<svg version="1.1" id="图层_1" xmlns="http://www.w3.org/2000/svg" xmlns:xlink="http://www.w3.org/1999/xlink" x="0px" y="0px"
	 viewBox="0 0 895 767" style="enable-background:new 0 0 895 767;" xml:space="preserve">
<title>资源 308</title>
<path d="M863,0H32C14.3,0,0,14.3,0,32v703c0,17.7,14.3,32,32,32h831c17.7,0,32-14.3,32-32V32C895,14.3,880.7,0,863,0z M264,412.3
	c0,6.4-1,27-18.5,44.1c-13.5,13.7-36.5,25.2-76.2,25.2C76.2,484,77,416.3,77,416.3V282.6h62.1V402c0,0-3.2,31,31.8,31
	c30.2,0,31-28.7,31-28.7V282.6H264V412.3z M490.1,481.9l-61.3,0.5l-0.5-0.8H428v-0.5L363.5,380v101.6h-62.1v-199h62.1L428,383.8
	V282.6h62.1V481.9z M588,481.6h-62.1v-199H588V481.6z M742.4,480.8l-28.8-43.9l-29.3,44.7h-75.6l67.8-101.2l-1-1.5l-62.9-96.3h74
	l26.9,42.5l26.4-42.5h74l-62.9,97.1l-0.5,0.7L818,480.8H742.4z"/>
</svg>
