<?xml version="1.0" encoding="utf-8"?>
<!-- Generator: Adobe Illustrator 22.0.1, SVG Export Plug-In . SVG Version: 6.00 Build 0)  -->
<svg version="1.1" id="图层_1" xmlns="http://www.w3.org/2000/svg" xmlns:xlink="http://www.w3.org/1999/xlink" x="0px" y="0px"
	 viewBox="0 0 1024 1024" style="enable-background:new 0 0 1024 1024;" xml:space="preserve">
<style type="text/css">
	.st0{fill:#020202;}
</style>
<title>画板 1 副本 53</title>
<g>
	<polygon class="st0" points="900.4,506.9 901,506 980,384 887,384 853.8,437.4 820,384 727,384 806,505 807.2,506.9 722,634 
		817,634 853.8,577.9 890,633 985,633 	"/>
	<rect x="618" y="384" class="st0" width="78" height="250"/>
	<polygon class="st0" points="495,511.1 414,384 336,384 336,634 414,634 414,506.4 495,633.4 495,634 495.4,634 496,635 573,634.4 
		573,384 495,384 	"/>
	<path class="st0" d="M211,537c0,0-1,36-39,36c-44,0-40-39-40-39V384H54v168c0,0-1,85,116,82c49.8,0,78.8-14.4,95.7-31.6
		c22-21.5,23.3-47.4,23.3-55.4V384h-78V537z"/>
</g>
</svg>
