<svg xmlns="http://www.w3.org/2000/svg" viewBox="0 0 858.16 860.95"><title>资源 263</title><g id="图层_2" data-name="图层 2"><g id="图层_4" data-name="图层 4"><path d="M645.3,745.94l27.18,39.56a432.12,432.12,0,0,0,63.95-53.73l-34.28-33.6A385.13,385.13,0,0,1,645.3,745.94Z"/><path d="M740.05,653l39,28a428.91,428.91,0,0,0,41.85-72.29l-43.68-19.9A381.72,381.72,0,0,1,740.05,653Z"/><path d="M797.29,533.88l46.22,13a429.44,429.44,0,0,0,14.58-82.26l-47.85-3.75A381.85,381.85,0,0,1,797.29,533.88Z"/><path d="M243.26,818.86a428.17,428.17,0,0,0,78.53,28.6L333.72,801A380.72,380.72,0,0,1,264,775.58Z"/><path d="M456.8,811.83l-4.64.36c-1.54.1-3.08.3-4.64.29l-18.6.47-18.61-.48c-6.18-.38-12.36-.92-18.54-1.36l-4.63,47.78c7,.51,13.9,1.11,20.86,1.53l20.9.53,20.9-.52c1.74,0,3.48-.22,5.22-.32l5.21-.4,10.43-.79-4.59-47.79Z"/><path d="M523.7,801.14l11.84,46.51a428.33,428.33,0,0,0,78.58-28.43l-20.66-43.33A381,381,0,0,1,523.7,801.14Z"/><path d="M47.86,460.06,0,463.72A429.58,429.58,0,0,0,14.41,546l46.25-12.86A381.12,381.12,0,0,1,47.86,460.06Z"/><path d="M37.09,608.35a429.69,429.69,0,0,0,41.8,72.33l39-27.93a382.9,382.9,0,0,1-37.13-64.26Z"/><path d="M121.14,731.16A433.27,433.27,0,0,0,185,785l27.26-39.51a385.15,385.15,0,0,1-56.76-47.88Z"/><path d="M121.73,129.18,156,162.78A385,385,0,0,1,212.85,115L185.68,75.44A432.28,432.28,0,0,0,121.73,129.18Z"/><path d="M37.24,252.27l43.68,19.89a381.77,381.77,0,0,1,37.19-64.22l-39-28A429.74,429.74,0,0,0,37.24,252.27Z"/><path d="M60.86,327.07,14.64,314.12A430.12,430.12,0,0,0,.06,396.37l47.86,3.76A380.92,380.92,0,0,1,60.86,327.07Z"/><path d="M614.9,42.08a429.18,429.18,0,0,0-78.53-28.6L524.44,60a380,380,0,0,1,69.71,25.39Z"/><path d="M401.36,49.11l4.63-.35c1.55-.1,3.09-.3,4.64-.3L429.24,48l18.6.47c6.19.38,12.37.93,18.55,1.37L471,2.06C464.06,1.55,457.11,1,450.16.53L429.26,0l-20.9.52c-1.75,0-3.48.21-5.22.32l-5.21.4L387.5,2l4.58,47.78Z"/><path d="M334.45,59.81,322.62,13.29A428.72,428.72,0,0,0,244,41.73l20.66,43.33A380.51,380.51,0,0,1,334.45,59.81Z"/><path d="M810.3,400.88l47.86-3.66a429.48,429.48,0,0,0-14.41-82.28L797.5,327.8A381.65,381.65,0,0,1,810.3,400.88Z"/><path d="M821.06,252.59a430.43,430.43,0,0,0-41.79-72.33l-39,27.94a381.68,381.68,0,0,1,37.12,64.25Z"/><path d="M645.92,115.45a383.94,383.94,0,0,1,56.75,47.88L737,129.79a431.63,431.63,0,0,0-63.84-53.85Z"/><path d="M232.78,499.83h392.6V370.05H232.78Zm311.27-84c9.82,0,17.53,8.39,18.23,18.32,0,10.68-7.71,19.08-16.83,19.84s-17.52-8.39-18.22-18.32C527.23,425,534.94,415.86,544.05,415.86Zm-56.08,0c7,0,13.32,4.58,16.12,11.45a20,20,0,0,1-3.5,20.61,17.77,17.77,0,0,1-18.93,4.58,20.06,20.06,0,0,1-11.22-17.56C471.14,424.25,478.85,415.86,488,415.86Zm-199.1,0H387V454H288.87Z"/><path d="M232.78,647.05a16.35,16.35,0,0,0,16.36,16.36H609a16.36,16.36,0,0,0,16.36-16.36V533.64H232.78Zm311.27-67.61c9.82,0,17.53,8.39,18.23,18.32,0,10.69-7.71,19.08-16.83,19.85s-17.52-8.4-18.22-18.32C527.23,588.6,534.94,579.44,544.05,579.44Zm-56.08,0c7,0,13.32,4.58,16.12,11.45a20,20,0,0,1-3.5,20.61,17.77,17.77,0,0,1-18.93,4.58,20.05,20.05,0,0,1-11.22-17.56C471.14,587.83,478.85,579.44,488,579.44Zm-199.1,0H387v38.17H288.87Z"/><path d="M609,206.47H249.14a16.36,16.36,0,0,0-16.36,16.36V336.25h392.6V222.83A16.37,16.37,0,0,0,609,206.47Zm-222,84H288.87V252.27H387Zm113.57-6.1a17.77,17.77,0,0,1-18.93,4.58,20.06,20.06,0,0,1-11.22-17.56c.7-10.69,8.41-19.09,17.53-19.09,7,0,13.32,4.58,16.12,11.46A20,20,0,0,1,500.59,284.34Zm44.86,6.1c-9.11.77-17.52-8.39-18.22-18.32,0-10.69,7.71-19.85,16.82-19.85,9.82,0,17.53,8.4,18.23,18.33C562.28,281.28,554.57,289.68,545.45,290.44Z"/></g></g></svg>