<svg xmlns="http://www.w3.org/2000/svg" viewBox="0 0 834.74 834.81"><title>资源 290</title><g id="图层_2" data-name="图层 2"><g id="图层_4" data-name="图层 4"><path d="M699.46,0h-338C285,0,226.3,58.6,226.3,134.66v93.77H135.17C58.72,228.43,0,287.1,0,363.2V700.1c0,76.1,58.72,134.71,135.17,134.71H470.22c76.4,0,135.23-58.61,135.23-134.71V603.38h94c76.4,0,135.17-58.61,135.17-134.77V131.77C837.63,61.42,775.92,0,699.46,0Zm35.29,471.6a35.68,35.68,0,0,1-35.23,35.06H508.39V700a35.7,35.7,0,0,1-35.23,35.12h-338A35.7,35.7,0,0,1,99.88,700V363.2A35.69,35.69,0,0,1,135.17,328h191V134.66c0-20.44,17.62-35.07,35.29-35.07h338a35.69,35.69,0,0,1,35.23,35.07V471.6Z"/><path d="M420.26,190.38V410H194V635.5H420.26V415.94H646.5V190.38Z"/></g></g></svg>