<?xml version="1.0" encoding="utf-8"?>
<!-- Generator: Adobe Illustrator 21.1.0, SVG Export Plug-In . SVG Version: 6.00 Build 0)  -->
<svg version="1.1" id="图层_1" xmlns="http://www.w3.org/2000/svg" xmlns:xlink="http://www.w3.org/1999/xlink" x="0px" y="0px"
	 viewBox="0 0 18 18" style="enable-background:new 0 0 18 18;" xml:space="preserve">
<g>
	<g>
		<path d="M11.7,13.2c-0.3,0-0.5-0.1-0.7-0.3c-0.5-0.6-1.2-0.9-1.9-0.9c-0.7,0-1.4,0.3-1.9,0.9c-0.4,0.4-1,0.5-1.4,0.1
			c-0.4-0.4-0.4-1-0.1-1.5c0.9-1,2.1-1.6,3.4-1.6c1.3,0,2.5,0.6,3.4,1.6c0.4,0.4,0.3,1.1-0.1,1.5C12.2,13.1,11.9,13.2,11.7,13.2
			L11.7,13.2z M13.9,10.6c-0.2,0-0.5-0.1-0.7-0.3C12.1,9.1,10.6,8.5,9,8.5c-1.6,0-3,0.6-4.1,1.8c-0.4,0.4-1,0.4-1.4,0
			c-0.4-0.4-0.4-1.1,0-1.5C5,7.3,6.9,6.4,9,6.4c2.1,0,4,0.9,5.5,2.4c0.4,0.4,0.4,1.1,0,1.5C14.4,10.5,14.1,10.6,13.9,10.6L13.9,10.6
			z M16,8c-0.2,0-0.5-0.1-0.7-0.3C13.6,6,11.4,5.1,9,5.1C6.7,5.1,4.4,6,2.7,7.7c-0.4,0.4-1,0.4-1.4,0C1,7.3,1,6.6,1.4,6.2
			C3.4,4.2,6.1,3,9,3c2.9,0,5.6,1.2,7.7,3.2c0.4,0.4,0.4,1,0,1.5C16.5,7.9,16.3,8,16,8L16,8z M7.8,14.7c0,0.7,0.5,1.2,1.2,1.2
			c0.7,0,1.2-0.6,1.2-1.2S9.7,13.4,9,13.4C8.4,13.4,7.8,14,7.8,14.7L7.8,14.7z M7.8,14.7"/>
	</g>
</g>
</svg>
