<?xml version="1.0" encoding="utf-8"?>
<!-- Generator: Adobe Illustrator 21.1.0, SVG Export Plug-In . SVG Version: 6.00 Build 0)  -->
<svg version="1.1" id="图层_1" xmlns="http://www.w3.org/2000/svg" xmlns:xlink="http://www.w3.org/1999/xlink" x="0px" y="0px"
	 viewBox="0 0 18 18" style="enable-background:new 0 0 18 18;" xml:space="preserve">
<g>
	<path d="M16,4.6h-2.9V4.3c0-1.6-1.3-2.9-3-2.9H7.8c-1.6,0-3,1.3-3,2.9v0.3H2c-0.5,0-1,0.5-1,1v2.2h16V5.6C17,5.1,16.5,4.6,16,4.6z
		 M11.9,4.6H6.1V4.3c0-0.9,0.7-1.7,1.7-1.7h2.4c0.9,0,1.7,0.7,1.7,1.7V4.6z"/>
	<path d="M11.9,11.6H6.1V9.1H1v6c0,0.5,0.5,1,1,1h14c0.5,0,1-0.5,1-1v-6h-5.1V11.6z"/>
	<rect x="7" y="9" width="4" height="2"/>
</g>
</svg>
