<?xml version="1.0" encoding="utf-8"?>
<!-- Generator: Adobe Illustrator 21.1.0, SVG Export Plug-In . SVG Version: 6.00 Build 0)  -->
<svg version="1.1" id="图层_1" xmlns="http://www.w3.org/2000/svg" xmlns:xlink="http://www.w3.org/1999/xlink" x="0px" y="0px"
	 viewBox="0 0 18 18" style="enable-background:new 0 0 18 18;" xml:space="preserve">
<g>
	<path d="M16,12h-2v-2c0-0.5-0.5-1-1-1s-1,0.5-1,1v2h-2c-0.5,0-1,0.5-1,1s0.5,1,1,1h2v2c0,0.5,0.5,1,1,1s1-0.5,1-1v-2h2
		c0.5,0,1-0.5,1-1S16.5,12,16,12z"/>
	<path d="M8,13.2v-0.4c0-1,0.8-1.8,1.8-1.8H11V9.8c0-1,0.8-1.8,1.8-1.8h0.4c0.3,0,0.6,0.1,0.8,0.2V8V6V2c0-0.5-0.5-1-1-1H9H7H2
		C1.5,1,1,1.5,1,2v14c0,0.5,0.5,1,1,1h9v-0.5V15H9.8C8.8,15,8,14.2,8,13.2z M4,4h7c0.5,0,1,0.5,1,1s-0.5,1-1,1H4C3.5,6,3,5.5,3,5
		S3.5,4,4,4z M7,10H4c-0.5,0-1-0.5-1-1s0.5-1,1-1h3c0.5,0,1,0.5,1,1S7.5,10,7,10z"/>
</g>
</svg>
