<svg xmlns="http://www.w3.org/2000/svg" viewBox="0 0 893.46 893.46"><title>资源 262</title><g id="图层_2" data-name="图层 2"><g id="图层_4" data-name="图层 4"><path d="M446.73,0C201,0,0,201,0,446.73S201,893.46,446.73,893.46s446.73-201,446.73-446.73S692.43,0,446.73,0Zm55.84,765H385.31V656.18H502.57ZM619.84,385.31c-11.17,16.75-27.92,39.09-61.43,67-27.92,27.93-33.5,39.09-39.09,44.68C508.16,513.74,497,541.66,497,580.75H385.31c0-44.67,5.58-78.18,16.75-106.1C413.23,457.9,430,430,463.48,396.47c27.92-27.91,39.09-39.09,39.09-44.67q16.76-16.76,16.75-50.26c0-16.75-5.58-27.92-11.16-44.67-11.17-16.75-27.92-22.34-55.85-22.34-33.5,0-55.84,11.17-67,39.09-11.17,16.75-11.17,39.09-11.17,67V363H262.46V340.63c0-33.5,5.58-61.42,11.16-83.76,5.59-33.5,27.92-61.43,55.84-83.76,16.76-11.17,33.51-22.34,55.85-27.92S430,134,452.31,134c50.26,0,94.94,16.75,128.44,44.67,39.09,33.51,55.84,78.18,55.84,134,0,27.92-5.58,50.26-16.75,72.6Z"/></g></g></svg>