<?xml version="1.0" encoding="utf-8"?>
<!-- Generator: Adobe Illustrator 22.0.1, SVG Export Plug-In . SVG Version: 6.00 Build 0)  -->
<svg version="1.1" id="图层_1" xmlns="http://www.w3.org/2000/svg" xmlns:xlink="http://www.w3.org/1999/xlink" x="0px" y="0px"
	 viewBox="0 0 16 16" style="enable-background:new 0 0 16 16;" xml:space="preserve">
<style type="text/css">
	.st0{fill:#444444;}
</style>
<g>
	<path class="st0" d="M3.4,1.2C3.2,1,2.9,0.9,2.7,1.1c-0.2,0.2-0.2,0.5,0,0.7L8.3,8l-5.7,6.2c-0.2,0.2-0.2,0.5,0,0.7
		C2.8,15,2.9,15,3,15c0.1,0,0.3-0.1,0.4-0.2l6-6.5c0.2-0.2,0.2-0.5,0-0.7L3.4,1.2z"/>
	<path class="st0" d="M11.5,3C11.2,3,11,3.2,11,3.5v9c0,0.3,0.2,0.5,0.5,0.5s0.5-0.2,0.5-0.5v-9C12,3.2,11.8,3,11.5,3z"/>
</g>
</svg>
