<?xml version="1.0" standalone="no"?><!DOCTYPE svg PUBLIC "-//W3C//DTD SVG 1.1//EN" "http://www.w3.org/Graphics/SVG/1.1/DTD/svg11.dtd"><svg t="1521706686450" class="icon" style="" viewBox="0 0 1024 1024" version="1.1" xmlns="http://www.w3.org/2000/svg" p-id="16744" xmlns:xlink="http://www.w3.org/1999/xlink" width="200" height="200"><defs><style type="text/css"></style></defs><path d="M512.002389 0A512 512 0 0 0 0.002389 512a507.221333 507.221333 0 0 0 102.4 307.2l17.749334 22.186667a512 512 0 0 0 788.48-6.144L921.602389 819.2a507.221333 507.221333 0 0 0 102.4-307.2A512 512 0 0 0 512.002389 0z m375.466667 297.301333a432.128 432.128 0 0 1 55.296 174.762667h-207.189333a952.32 952.32 0 0 0-16.725334-139.264A1265.322667 1265.322667 0 0 0 887.469056 297.301333z m-48.810667-68.266666a1218.218667 1218.218667 0 0 1-136.533333 26.624A1144.149333 1144.149333 0 0 0 645.463723 102.4a432.469333 432.469333 0 0 1 192.853333 126.293333zM472.407723 81.578667a439.296 439.296 0 0 1 79.189333 0 1234.944 1234.944 0 0 1 68.266667 181.930666 1377.621333 1377.621333 0 0 1-216.746667 0 1239.381333 1239.381333 0 0 1 69.290667-181.930666z m167.253333 259.754666a875.52 875.52 0 0 1 16.384 130.389334h-288.085333a877.909333 877.909333 0 0 1 16.725333-130.389334 1429.162667 1429.162667 0 0 0 254.976 0z m-261.12-238.933333a1151.658667 1151.658667 0 0 0-54.613333 151.552 1197.056 1197.056 0 0 1-134.485334-27.989333A433.834667 433.834667 0 0 1 378.541056 102.4z m-238.933333 191.488A1245.866667 1245.866667 0 0 0 307.202389 329.728a948.906667 948.906667 0 0 0-17.066666 142.336H81.581056a432.128 432.128 0 0 1 58.026667-179.882667z m10.922666 456.704a430.08 430.08 0 0 1-68.266666-197.290667h206.165333a955.733333 955.733333 0 0 0 21.162667 162.133334 1250.645333 1250.645333 0 0 0-159.061334 33.792z m54.613334 68.266667a1209.002667 1209.002667 0 0 1 124.586666-24.917334A1172.821333 1172.821333 0 0 0 378.541056 921.6 436.565333 436.565333 0 0 1 204.802389 816.128z m346.453333 126.293333a439.296 439.296 0 0 1-79.189333 0A1262.933333 1262.933333 0 0 1 409.602389 782.336a1362.602667 1362.602667 0 0 1 204.8 0 1258.837333 1258.837333 0 0 1-62.805333 160.085333z m-162.474667-238.933333a877.226667 877.226667 0 0 1-20.821333-152.234667h287.744a879.616 879.616 0 0 1-20.48 150.528 1435.989333 1435.989333 0 0 0-246.442667-0.341333zM645.463723 921.6a1149.269333 1149.269333 0 0 0 49.493333-134.485333 1233.578667 1233.578667 0 0 1 128 23.552 435.882667 435.882667 0 0 1-177.493333 110.933333z m231.082666-178.858667a1271.466667 1271.466667 0 0 0-161.450666-34.133333 960.853333 960.853333 0 0 0 20.48-159.402667h206.848a431.445333 431.445333 0 0 1-65.877334 194.901334z" p-id="16745"></path></svg>