<?xml version="1.0" encoding="utf-8"?>
<!-- Generator: Adobe Illustrator 21.1.0, SVG Export Plug-In . SVG Version: 6.00 Build 0)  -->
<svg version="1.1" id="图层_1" xmlns="http://www.w3.org/2000/svg" xmlns:xlink="http://www.w3.org/1999/xlink" x="0px" y="0px"
	 viewBox="0 0 18 18" style="enable-background:new 0 0 18 18;" xml:space="preserve">
<g>
	<path d="M9.7,12.6V14c0,0.3-0.3,0.6-0.7,0.6c-0.4,0-0.7-0.3-0.7-0.6v-1.4c-0.4-0.2-0.7-0.6-0.7-1c0-0.7,0.6-1.2,1.4-1.2
		c0.8,0,1.4,0.5,1.4,1.2C10.4,12,10.1,12.4,9.7,12.6L9.7,12.6z M15,7.4H3c-1.1,0-2,0.8-2,1.8v6c0,1,0.9,1.8,2,1.8H15
		c1.1,0,2-0.8,2-1.8v-6C17,8.2,16.1,7.4,15,7.4L15,7.4z M6.3,6.1c0-0.9,0.3-3,2.7-3c2.4,0,2.7,1.9,2.7,3v0.7h2V6.1
		c0-2.9-1.9-4.8-4.8-4.8c-2.9,0-4.8,1.9-4.8,4.8v0.7h2V6.1z M6.3,6.1"/>
</g>
</svg>
