<svg xmlns="http://www.w3.org/2000/svg" viewBox="0 0 834.4 827.92"><title>资源 293</title><g id="图层_2" data-name="图层 2"><g id="图层_4" data-name="图层 4"><path d="M821.67,680.29l-29.94-17.46a161.7,161.7,0,0,0,2.72-28.12,163.82,163.82,0,0,0-2.72-28.12l29.94-17.46A25.82,25.82,0,0,0,831,554l-25.4-44.45A25.63,25.63,0,0,0,770.64,500l-30.16,17.47a154.51,154.51,0,0,0-47.85-28.35V467.35a25.4,25.4,0,0,0-25.39-25.63H616a25.55,25.55,0,0,0-25.39,25.63v21.77c-17.92,6.35-33.79,16.33-47.85,28.35L512.58,500a25.44,25.44,0,0,0-34.93,9.53L452,554.2a25.87,25.87,0,0,0,9.29,35.15l29.94,17.46a161.8,161.8,0,0,0-2.72,28.12,163.82,163.82,0,0,0,2.72,28.12l-29.94,17.47A25.81,25.81,0,0,0,452,715.67l25.4,44.44a25.61,25.61,0,0,0,34.92,9.53l30.16-17.46a154.48,154.48,0,0,0,47.85,28.34v21.77a25.41,25.41,0,0,0,25.4,25.63h51a25.56,25.56,0,0,0,25.4-25.63V780.52C710.09,774.17,726,764.2,740,752.18l30.16,17.46a25.41,25.41,0,0,0,34.92-9.53l25.4-44.44C838,703,833.91,687.32,821.67,680.29ZM641.5,723.92a89.1,89.1,0,1,1,89.1-89.1A89.1,89.1,0,0,1,641.5,723.92Z"/><path d="M631.17,393.19c20.69,0,41.39,5.17,62.08,10.34V227.64L460.44,0H32A32,32,0,0,0,0,32V754.37a32,32,0,0,0,32,32H444.92c-31-46.56-51.73-98.29-51.73-155.2C393.19,496.66,501.83,393.19,631.17,393.19ZM434.57,88l175.9,175.9H434.57ZM134.51,269h175.9v51.74H134.51Zm170.73,274.2H134.51V491.48h175.9ZM351.8,429.4H134.51V377.67H351.8Z"/></g></g></svg>