<?xml version="1.0" encoding="utf-8"?>
<!-- Generator: Adobe Illustrator 21.1.0, SVG Export Plug-In . SVG Version: 6.00 Build 0)  -->
<svg version="1.1" id="图层_1" xmlns="http://www.w3.org/2000/svg" xmlns:xlink="http://www.w3.org/1999/xlink" x="0px" y="0px"
	 viewBox="0 0 18 18" style="enable-background:new 0 0 18 18;" xml:space="preserve">
<path d="M12.5,8C10,8,8,10,8,12.5C8,15,10,17,12.5,17s4.5-2,4.5-4.5C17,10,15,8,12.5,8z M14.5,13h-2c-0.3,0-0.5-0.2-0.5-0.5v-2
	c0-0.3,0.2-0.5,0.5-0.5s0.5,0.2,0.5,0.5V12h1.5c0.3,0,0.5,0.2,0.5,0.5C15,12.8,14.8,13,14.5,13z"/>
<path d="M13,1H2C1.5,1,1,1.5,1,2v13c0,0.5,0.5,1,1,1h6.3C7.5,15,7,13.8,7,12.5C7,9.5,9.5,7,12.5,7c0.5,0,1,0.1,1.5,0.2V2
	C14,1.5,13.5,1,13,1z M5,11H3v-1h2V11z M6,14H3v-1h3V14z M7,8H3V7h4V8z M12,5H3V3h9V5z"/>
</svg>
