<?xml version="1.0" encoding="utf-8"?>
<!-- Generator: Adobe Illustrator 21.1.0, SVG Export Plug-In . SVG Version: 6.00 Build 0)  -->
<svg version="1.1" id="图层_1" xmlns="http://www.w3.org/2000/svg" xmlns:xlink="http://www.w3.org/1999/xlink" x="0px" y="0px"
	 viewBox="0 0 18 18" style="enable-background:new 0 0 18 18;" xml:space="preserve">
<g>
	<path d="M8,3.1v-2C4.4,1.5,1.5,4.4,1.1,8h2C3.5,5.5,5.5,3.5,8,3.1z"/>
	<path d="M3.1,10h-2c0.5,3.6,3.3,6.5,6.9,6.9v-2C5.5,14.5,3.5,12.5,3.1,10z"/>
	<path d="M10,14.9v2c3.6-0.5,6.5-3.3,6.9-6.9h-2C14.5,12.5,12.5,14.5,10,14.9z"/>
	<path d="M14.9,8h2c-0.5-3.6-3.3-6.5-6.9-6.9v2C12.5,3.5,14.5,5.5,14.9,8z"/>
	<path d="M10,10.7c0.3-0.2,0.5-0.4,0.7-0.7H12c0.5,0,1-0.5,1-1s-0.5-1-1-1h-1.3c-0.2-0.3-0.4-0.5-0.7-0.7V6c0-0.5-0.5-1-1-1
		S8,5.5,8,6v1.3C7.7,7.5,7.5,7.7,7.3,8H6C5.5,8,5,8.5,5,9s0.5,1,1,1h1.3c0.2,0.3,0.4,0.5,0.7,0.7V12c0,0.5,0.5,1,1,1s1-0.5,1-1V10.7
		z"/>
</g>
</svg>
