<?xml version="1.0" encoding="utf-8"?>
<!-- Generator: Adobe Illustrator 22.0.1, SVG Export Plug-In . SVG Version: 6.00 Build 0)  -->
<svg version="1.1" id="图层_1" xmlns="http://www.w3.org/2000/svg" xmlns:xlink="http://www.w3.org/1999/xlink" x="0px" y="0px"
	 viewBox="0 0 18 18" style="enable-background:new 0 0 18 18;" xml:space="preserve">
<g>
	<g>
		<path d="M15.6,2.4L9,1.1L2.5,2.4L1.9,2.4v8c0,0.5,0.1,1,0.4,1.4c0.2,0.5,0.6,0.9,1,1.4c0.4,0.4,0.8,0.9,1.3,1.3
			c0.5,0.4,1,0.8,1.5,1.1c0.5,0.3,1,0.6,1.5,0.8c0.5,0.2,0.9,0.3,1.3,0.4l0.2,0l0.2,0c0.4-0.1,0.8-0.2,1.2-0.4
			c0.5-0.2,1-0.5,1.5-0.8c0.5-0.3,1-0.7,1.5-1.1c0.5-0.4,0.9-0.8,1.3-1.3c0.4-0.4,0.7-0.9,0.9-1.4c0.2-0.5,0.4-1,0.4-1.4v-8
			L15.6,2.4z M14.6,10.6c0,0.4-0.1,0.7-0.3,1.1c-0.2,0.4-0.4,0.7-0.7,1c-0.3,0.3-0.6,0.6-1,0.9c-0.4,0.3-0.8,0.6-1.2,0.8
			c-0.4,0.2-0.8,0.4-1.3,0.6c-0.4,0.2-0.8,0.3-1.2,0.4V8.3H3.3V3.2l5.6-1l0.1,0v6h5.6L14.6,10.6z M14.6,10.6"/>
	</g>
</g>
</svg>
