<?xml version="1.0" encoding="utf-8"?>
<!-- Generator: Adobe Illustrator 21.1.0, SVG Export Plug-In . SVG Version: 6.00 Build 0)  -->
<svg version="1.1" id="图层_1" xmlns="http://www.w3.org/2000/svg" xmlns:xlink="http://www.w3.org/1999/xlink" x="0px" y="0px"
	 viewBox="0 0 18 18" style="enable-background:new 0 0 18 18;" xml:space="preserve">
<path d="M6,14.2c-0.3,0.3-0.6,0.6-0.9,1c-0.3,0.3-0.7,0.4-1,0.2c-0.1,0-0.1-0.1-0.2-0.1c-0.4-0.4-0.7-0.7-1.1-1.1
	c-0.2-0.2-0.3-0.5-0.2-0.8c0-0.1,0.1-0.2,0.2-0.3c0.3-0.3,0.6-0.6,0.9-0.9c0,0,0.1-0.1,0-0.1c-0.2-0.4-0.3-0.8-0.5-1.1
	c0-0.1-0.1-0.1-0.1-0.1c-0.4,0-0.8,0-1.2,0c-0.4,0-0.7-0.3-0.8-0.6C1,10,1,9.8,1,9.7c0-0.5,0-1,0-1.5c0-0.4,0.1-0.6,0.5-0.8
	c0.1-0.1,0.2-0.1,0.4-0.1c0.4,0,0.9,0,1.3,0c0.1,0,0.1,0,0.1-0.1c0.1-0.3,0.3-0.7,0.4-1c0-0.1,0.1-0.1,0.1-0.2c0,0,0,0-0.1-0.1
	C3.4,5.7,3.1,5.4,2.8,5.1c-0.4-0.3-0.4-0.8,0-1.2c0.4-0.4,0.7-0.7,1.1-1.1c0.4-0.4,0.8-0.3,1.2,0c0.3,0.3,0.6,0.6,0.9,0.9
	c0,0,0.1,0.1,0.1,0c0.4-0.2,0.8-0.3,1.1-0.5c0.1,0,0.1-0.1,0.1-0.1c0-0.4,0-0.8,0-1.2c0-0.4,0.3-0.7,0.6-0.8C8,1,8.1,1,8.3,1
	c0.5,0,1,0,1.5,0c0.4,0,0.6,0.1,0.8,0.4c0.1,0.1,0.1,0.2,0.1,0.4c0,0.4,0,0.9,0,1.3c0,0.1,0,0.1,0.1,0.1c0.4,0.2,0.8,0.3,1.2,0.5
	c0,0,0,0,0,0c0,0,0-0.1,0.1-0.1c0.3-0.3,0.6-0.6,0.8-0.9c0.3-0.3,0.7-0.4,1-0.2c0.1,0,0.1,0.1,0.2,0.1c0.4,0.4,0.7,0.7,1.1,1.1
	c0.2,0.2,0.3,0.5,0.2,0.8c0,0.1-0.1,0.2-0.2,0.3c-0.3,0.3-0.6,0.6-0.9,0.9c0,0,0,0.1,0,0.1c0.2,0.4,0.3,0.8,0.5,1.1
	c0,0.1,0.1,0.1,0.1,0.1c0.4,0,0.8,0,1.2,0c0.4,0,0.7,0.3,0.8,0.6C17,8,17,8.1,17,8.3c0,0.5,0,1,0,1.5c0,0.4-0.1,0.6-0.5,0.8
	c-0.1,0.1-0.2,0.1-0.4,0.1c-0.4,0-0.9,0-1.3,0c-0.1,0-0.1,0-0.1,0.1c-0.1,0.3-0.3,0.6-0.4,1c0,0.1-0.1,0.2-0.1,0.3c0,0,0,0,0.1,0
	c0.3,0.3,0.6,0.6,0.9,0.8c0.3,0.3,0.4,0.8,0.1,1.1c-0.4,0.4-0.8,0.8-1.2,1.2c-0.3,0.3-0.8,0.3-1.1,0c-0.3-0.3-0.6-0.6-0.9-0.9
	c0,0-0.1,0-0.1,0c-0.4,0.2-0.8,0.3-1.1,0.5c-0.1,0-0.1,0.1-0.1,0.1c0,0.4,0,0.8,0,1.2c0,0.4-0.3,0.7-0.6,0.8C10,17,9.8,17,9.7,17
	c-0.5,0-1,0-1.5,0c-0.4,0-0.6-0.1-0.8-0.4c-0.1-0.1-0.1-0.2-0.1-0.4c0-0.4,0-0.8,0-1.3c0-0.1,0-0.1-0.1-0.1c-0.3-0.1-0.7-0.3-1-0.4
	C6.1,14.3,6.1,14.3,6,14.2L6,14.2z M12,9c0-1.6-1.3-3-3-3C7.3,6,6,7.3,6,9c0,1.7,1.4,3,3,3C10.7,12,12,10.6,12,9L12,9z M12,9"/>
</svg>
