<?xml version="1.0" encoding="utf-8"?>
<!-- Generator: Adobe Illustrator 21.1.0, SVG Export Plug-In . SVG Version: 6.00 Build 0)  -->
<svg version="1.1" id="图层_1" xmlns="http://www.w3.org/2000/svg" xmlns:xlink="http://www.w3.org/1999/xlink" x="0px" y="0px"
	 viewBox="0 0 18 18" style="enable-background:new 0 0 18 18;" xml:space="preserve">
<g>
	<path d="M9.7,14.5H8.3c0,0,0,0-0.1,0c-0.2,0-0.3,0-0.5,0c-0.4-0.1-0.9-0.2-1.3-0.3c-0.5-0.2-0.9-0.4-1.4-0.6
		c-0.7-0.4-1.3-0.8-1.8-1.4c-0.2-0.2-0.4-0.4-0.6-0.6c-0.3-0.3-0.6-0.7-0.8-1C1.6,10,1.3,9.5,1.1,9C1,9,1,8.9,1,8.9V8.9c0,0,0,0,0,0
		c0-0.1,0.1-0.2,0.1-0.3c0.3-0.5,0.6-1,0.9-1.5C2.3,6.7,2.6,6.3,3,6c0.3-0.3,0.6-0.6,1-0.9c0.5-0.4,1-0.7,1.5-1
		c0.5-0.2,0.9-0.4,1.4-0.5c0.3-0.1,0.5-0.1,0.8-0.2c0.2,0,0.5-0.1,0.7-0.1c0,0,0.1,0,0.1,0h1c0,0,0,0,0.1,0c0.2,0,0.4,0,0.6,0.1
		c0.4,0,0.8,0.1,1.2,0.3C11.9,3.8,12.5,4,13,4.4c0.6,0.3,1.1,0.8,1.7,1.2c0.3,0.3,0.5,0.5,0.8,0.8c0.3,0.3,0.6,0.7,0.8,1.1
		c0.3,0.4,0.5,0.8,0.7,1.3c0,0,0,0.1,0.1,0.1v0.1c0,0,0,0,0,0c-0.1,0.2-0.2,0.3-0.2,0.5c-0.2,0.3-0.3,0.5-0.5,0.8
		c-0.3,0.5-0.7,1-1.1,1.4c-0.3,0.3-0.6,0.6-0.9,0.9c-0.3,0.3-0.7,0.5-1,0.7c-0.5,0.3-1,0.5-1.5,0.7C11,14.3,10.4,14.4,9.7,14.5
		C9.7,14.5,9.7,14.5,9.7,14.5L9.7,14.5z M9,12.2c1.9,0,3.4-1.5,3.4-3.3c0-1.9-1.5-3.4-3.4-3.4c-2,0-3.4,1.5-3.5,3.2
		C5.5,10.7,7.2,12.3,9,12.2L9,12.2z M9,12.2"/>
	<path d="M9,10.6c-0.9,0-1.7-0.8-1.7-1.7C7.3,8,8,7.2,9,7.2c1,0,1.7,0.7,1.7,1.7C10.7,9.8,9.9,10.6,9,10.6L9,10.6z M9,10.6"/>
</g>
</svg>
