<?xml version="1.0" encoding="utf-8"?>
<!-- Generator: Adobe Illustrator 21.1.0, SVG Export Plug-In . SVG Version: 6.00 Build 0)  -->
<svg version="1.1" id="图层_1" xmlns="http://www.w3.org/2000/svg" xmlns:xlink="http://www.w3.org/1999/xlink" x="0px" y="0px"
	 viewBox="0 0 18 18" style="enable-background:new 0 0 18 18;" xml:space="preserve">
<g>
	<path d="M16.8,3.7L16.8,3.7l-2.5-2.4C14.1,1.1,14,1,13.8,1l0,0H1.7C1.3,1,1,1.3,1,1.7v14.6C1,16.7,1.3,17,1.7,17h14.6
		c0.4,0,0.7-0.3,0.7-0.7v-12c0,0,0,0,0,0v0C17,4,16.9,3.8,16.8,3.7z M13.5,3.3c0,1.3,0,0.5,0,1.8c0,0.5-0.2,0.7-0.7,0.7h-1.4V2.6
		c0.5,0,0.9,0,1.4,0C13.3,2.6,13.5,2.8,13.5,3.3z M4,3.3c0-0.5,0.2-0.7,0.7-0.7c1.4,0,3.7,0,5.1,0v3.1H9.2c-1.2,0-3.4,0-4.6,0
		C4.2,5.8,4,5.5,4,5.1C4,3.8,4,4.6,4,3.3z M14.2,13.7c0,0.4-0.2,0.7-0.7,0.7c-1.7,0-2.3,0-4,0c-1.7,0-3.3,0-5,0
		c-0.3,0-0.6-0.2-0.6-0.4c0-0.1,0-0.1,0-0.2c0-1.9,0-3.7,0-5.6c0-0.4,0.2-0.6,0.6-0.6c3.4,0,5.7,0,9,0c0.4,0,0.6,0.2,0.6,0.7
		C14.2,10,14.2,11.8,14.2,13.7z"/>
</g>
</svg>
