<?xml version="1.0" encoding="utf-8"?>
<!-- Generator: Adobe Illustrator 22.0.1, SVG Export Plug-In . SVG Version: 6.00 Build 0)  -->
<svg version="1.1" id="图层_1" xmlns="http://www.w3.org/2000/svg" xmlns:xlink="http://www.w3.org/1999/xlink" x="0px" y="0px"
	 viewBox="0 0 18 18" style="enable-background:new 0 0 18 18;" xml:space="preserve">
<g>
	<path d="M16,1h-5c-0.5,0-1,0.5-1,1v5c0,0.5,0.5,1,1,1h5c0.5,0,1-0.5,1-1V2C17,1.5,16.5,1,16,1z"/>
	<path d="M7,10H2c-0.5,0-1,0.5-1,1v5c0,0.5,0.5,1,1,1h5c0.5,0,1-0.5,1-1v-5C8,10.5,7.5,10,7,10z"/>
	<path d="M12.8,12h1.6c-0.4,1.7-1.7,3-3.4,3.6v0.8c2.1-0.6,3.7-2.3,4.1-4.3H17l-2.1-2.1L12.8,12z"/>
	<path d="M5.2,6H3.6C4.1,4.3,5.3,3,7,2.4V1.7C4.9,2.2,3.3,3.9,2.9,6H1l2.1,2.1L5.2,6z"/>
</g>
</svg>
