<svg xmlns="http://www.w3.org/2000/svg" xmlns:xlink="http://www.w3.org/1999/xlink" viewBox="0 0 889.65 629.98"><defs><style>.cls-1{fill:none;}.cls-2{clip-path:url(#clip-path);}</style><clipPath id="clip-path" transform="translate(0 -0.75)"><rect class="cls-1" x="0.15" width="890.16" height="631.91"/></clipPath></defs><title>资源 296</title><g id="图层_2" data-name="图层 2"><g id="图层_4" data-name="图层 4"><g class="cls-2"><path d="M450.46,117.73a447.66,447.66,0,0,0,13.79,96.94s70.26,168.11,204.54,211.89a358.7,358.7,0,0,0,99-105.21l6.62-11q4.41-7.72,8.28-15.45l5.33-11c23.36-50.4,36.24-108.33,34.95-171.61h.19c0-17.28-5.52-90.67-15.45-110.72-26.86,10.3-76,43.41-87,77.25-53.16-7.91-112.94-7-165.36,2-8.83-36.41-52.79-64.38-85.9-80-14,23.55-20.23,78.36-18.58,117.17-.18-.37-.36-.19-.36-.19Z" transform="translate(0 -0.75)"/><path d="M876.45,593.21c-16.92-19-50-27.78-77.62-27.23-12.69-15.08-71-77.62-106.32-114.77L674.3,463.34l-15.81-5.15c-147.15-47.82-221.83-223.29-225-230.65l-.92-2.21-.36-1.47c-105.4,33.3-214.1,101.17-277.37,167.2L144.2,402.28c-5.14,5.52-9.93,10.85-14.71,16.19C54.63,501.79,0,591.54,0,606.26V614H98.59l-1.65-9.2c-5.52-29.43,5.51-66.22,28.32-93.62,14.35-17.29,37.89-37,75-46,30.54-11,110.92-2.2,110.92-2.2,158.91,14.16,310.84,78.17,482.46,167.75H888l1.28-6.26c1.66-8.46-3.12-20.42-12.87-31.26Z" transform="translate(0 -0.75)"/></g><path d="M383.31,535.63c-11.58-7.54-29.42-8.64-45.79-2.94-10.12-11.22-17.29-24.83-21.71-40.83-1.46-.19-3.13-.37-4.59-.56,0,0-49.3-5.51-85.53-2.57a1080.15,1080.15,0,0,0,96.56,75.78h73.21v-7.73c0-8.46-4.42-16-12.15-21.15Z" transform="translate(0 -0.75)"/><path d="M126,376l6.81-7.18a45.64,45.64,0,0,1,4.23-4.23c-20-32.37-28.88-59.78-31.83-81.48-4.78-34.58,3.5-66.4,23.92-92,32.19-39.91,77.8-42.67,124.7-34.76-.91,7.36,0,14.53,2.95,18.94,12.32,18.4,79.09,24.83,119,7-29.43-41.2-88.84-61.26-105.4-53.17-5.52,2.77-9.57,7.55-12.32,13.25-16.19-2.94-32.38-5.15-44.15-5-41.38.37-73,14.71-96.75,44.14C94,210.43,84.42,246.3,89.94,285.3,94,314.17,106.13,344.52,126,376Z" transform="translate(0 -0.75)"/></g></g></svg>